<?xml version="1.0" encoding="UTF-8"?>
<svg id="Layer_2" xmlns="http://www.w3.org/2000/svg" viewBox="0 0 406.12 95.58">
  <defs>
    <style>
      .cls-1 {
        fill-rule: evenodd;
      }

      .cls-1, .cls-2 {
        fill: #fff;
      }
    </style>
  </defs>
  <g id="Layer_1-2" data-name="Layer_1">
    <g id="Layer_1-3" data-name="Layer_1">
      <g>
        <path class="cls-1" d="M23.19,43.65s.04.05.06.08c.16-.21.31-.42.48-.63,1.82-2.27,3.85-4.37,5.74-6.57-4.41-12.69-3.25-21.4,3.59-28.48L25.3,0c-12.09,12.53-10.53,27.38-6.49,39.42,2.69.13,4.15,2.1,4.38,4.23Z"/>
        <path class="cls-1" d="M31.21,49.28c-1.35,1.71-2.17,3.74-3.34,5.57-.93,1.44-2.24,2.12-3.58,2.24,1.12,10.46-1.54,22.83-8.9,30.45l7.75,8.04c12.3-12.73,14.67-34.07,10.23-48.82-.74.82-1.48,1.66-2.16,2.53Z"/>
        <path class="cls-2" d="M36.03,25.68l-12.34,15.89-12.22-15.89H0v45.55h13.52v-22.56l10.17,13.03,10.28-13.03v22.56h13.48V25.68h-11.42ZM44.03,38.55v29.14h-6.51v-29.14l-13.83,17.47-13.66-17.47v29.14H3.41V29.25h6.63l13.66,17.94,13.83-17.94h6.51v9.3Z"/>
      </g>
      <g>
        <path class="cls-2" d="M54.7,62.84v-28.06h8.48l5.09,19.14,5.03-19.14h8.5v28.06h-5.26v-22.09l-5.57,22.09h-5.45l-5.55-22.09v22.09h-5.27Z"/>
        <path class="cls-2" d="M87.39,39.75v-4.98h5.38v4.98h-5.38ZM87.39,62.84v-20.33h5.38v20.33h-5.38Z"/>
        <path class="cls-2" d="M116.01,48.52l-5.3.96c-.18-1.06-.58-1.86-1.22-2.39s-1.45-.8-2.46-.8c-1.34,0-2.41.46-3.21,1.39s-1.2,2.47-1.2,4.64c0,2.41.41,4.11,1.22,5.11.81,1,1.9,1.49,3.26,1.49,1.02,0,1.86-.29,2.51-.87.65-.58,1.11-1.58,1.38-3l5.28.9c-.55,2.42-1.6,4.26-3.16,5.49s-3.64,1.86-6.26,1.86c-2.97,0-5.34-.94-7.11-2.81-1.77-1.88-2.65-4.47-2.65-7.79s.89-5.97,2.66-7.84c1.77-1.87,4.17-2.8,7.2-2.8,2.48,0,4.44.53,5.9,1.6s2.51,2.69,3.15,4.87h0Z"/>
        <path class="cls-2" d="M125.44,34.78v10.32c1.74-2.03,3.81-3.04,6.22-3.04,1.24,0,2.35.23,3.35.69s1.75,1.05,2.25,1.76.85,1.51,1.03,2.37c.18.87.28,2.21.28,4.04v11.92h-5.38v-10.74c0-2.13-.1-3.48-.31-4.06-.2-.57-.56-1.03-1.08-1.37s-1.16-.51-1.94-.51c-.89,0-1.69.22-2.39.65-.7.43-1.22,1.09-1.54,1.96-.33.87-.49,2.17-.49,3.88v10.18h-5.38v-28.06h5.38Z"/>
        <path class="cls-2" d="M144.03,39.75v-4.98h5.38v4.98h-5.38ZM144.03,62.84v-20.33h5.38v20.33h-5.38Z"/>
        <path class="cls-2" d="M154.42,64.18l6.14.75c.1.71.34,1.21.71,1.47.51.38,1.31.57,2.41.57,1.4,0,2.46-.21,3.16-.63.47-.28.83-.73,1.07-1.36.17-.45.25-1.27.25-2.47v-2.97c-1.61,2.2-3.64,3.29-6.09,3.29-2.73,0-4.89-1.15-6.49-3.46-1.25-1.83-1.88-4.1-1.88-6.81,0-3.41.82-6.01,2.46-7.81,1.64-1.8,3.68-2.7,6.12-2.7s4.59,1.1,6.22,3.31v-2.85h5.03v18.24c0,2.4-.2,4.19-.59,5.38-.4,1.19-.95,2.12-1.67,2.79-.71.68-1.67,1.21-2.86,1.59-1.19.38-2.7.57-4.53.57-3.45,0-5.89-.59-7.33-1.77-1.44-1.18-2.16-2.68-2.16-4.49,0-.18,0-.4.02-.65h0ZM159.23,52.25c0,2.16.42,3.74,1.25,4.74s1.87,1.5,3.09,1.5c1.31,0,2.42-.51,3.33-1.54.91-1.03,1.36-2.55,1.36-4.56s-.43-3.67-1.3-4.69c-.87-1.02-1.97-1.53-3.29-1.53s-2.35.5-3.19,1.5c-.84,1-1.25,2.53-1.25,4.58h0Z"/>
        <path class="cls-2" d="M182.89,48.71l-4.88-.88c.55-1.96,1.49-3.42,2.83-4.36,1.34-.94,3.33-1.42,5.97-1.42,2.4,0,4.19.28,5.36.85,1.17.57,2,1.29,2.48,2.16.48.87.72,2.48.72,4.81l-.06,6.28c0,1.79.09,3.1.26,3.95.17.85.49,1.76.97,2.73h-5.32c-.14-.36-.31-.89-.52-1.59-.09-.32-.15-.53-.19-.63-.92.89-1.9,1.56-2.95,2.01s-2.16.67-3.35.67c-2.09,0-3.74-.57-4.95-1.7-1.21-1.14-1.81-2.57-1.81-4.31,0-1.15.27-2.17.82-3.07s1.32-1.59,2.31-2.07c.99-.48,2.41-.9,4.28-1.25,2.51-.47,4.26-.91,5.23-1.32v-.54c0-1.03-.26-1.77-.77-2.21s-1.47-.66-2.89-.66c-.96,0-1.7.19-2.24.56-.54.38-.97,1.04-1.3,1.98h0ZM190.08,53.08c-.69.23-1.78.5-3.27.82s-2.47.63-2.93.94c-.7.5-1.05,1.13-1.05,1.89s.28,1.4.84,1.95,1.28.82,2.14.82c.97,0,1.89-.32,2.78-.96.65-.48,1.08-1.08,1.28-1.78.14-.46.21-1.33.21-2.62v-1.07h0Z"/>
        <path class="cls-2" d="M219.16,62.84h-5.38v-10.38c0-2.2-.11-3.61-.34-4.26s-.6-1.15-1.12-1.5c-.52-.36-1.14-.54-1.87-.54-.93,0-1.77.26-2.51.77-.74.51-1.25,1.19-1.52,2.03s-.41,2.4-.41,4.67v9.21h-5.38v-20.33h5v2.99c1.77-2.3,4.01-3.45,6.7-3.45,1.19,0,2.27.21,3.25.64s1.73.97,2.23,1.64c.5.66.86,1.42,1.05,2.26s.3,2.05.3,3.62v12.63h0Z"/>
        <path class="cls-2" d="M234.11,53.71l5.51-.54c.33,1.85,1,3.21,2.02,4.08,1.01.87,2.38,1.3,4.11,1.3,1.83,0,3.2-.39,4.12-1.16s1.39-1.68,1.39-2.71c0-.66-.19-1.23-.58-1.69-.39-.47-1.07-.87-2.04-1.22-.66-.23-2.18-.64-4.54-1.23-3.04-.75-5.17-1.68-6.39-2.78-1.72-1.54-2.58-3.43-2.58-5.65,0-1.43.41-2.77,1.22-4.01s1.98-2.19,3.5-2.84c1.52-.65,3.37-.98,5.52-.98,3.52,0,6.17.77,7.95,2.32,1.78,1.54,2.72,3.61,2.8,6.18l-5.67.25c-.24-1.44-.76-2.48-1.56-3.11s-1.99-.95-3.59-.95-2.94.34-3.87,1.01c-.6.43-.9,1.01-.9,1.74,0,.66.28,1.23.84,1.7.71.6,2.45,1.23,5.21,1.88,2.76.65,4.8,1.32,6.12,2.02,1.32.7,2.35,1.65,3.1,2.85.75,1.21,1.12,2.7,1.12,4.47,0,1.61-.45,3.11-1.34,4.52-.89,1.4-2.16,2.45-3.79,3.13-1.63.68-3.67,1.02-6.11,1.02-3.55,0-6.27-.82-8.17-2.46-1.9-1.64-3.04-4.03-3.41-7.17h0Z"/>
        <path class="cls-2" d="M279.38,48.52l-5.3.96c-.18-1.06-.58-1.86-1.22-2.39s-1.45-.8-2.46-.8c-1.34,0-2.41.46-3.21,1.39s-1.2,2.47-1.2,4.64c0,2.41.41,4.11,1.22,5.11.81,1,1.9,1.49,3.26,1.49,1.02,0,1.86-.29,2.51-.87s1.11-1.58,1.38-3l5.28.9c-.55,2.42-1.6,4.26-3.16,5.49s-3.64,1.86-6.26,1.86c-2.97,0-5.34-.94-7.11-2.81-1.77-1.88-2.65-4.47-2.65-7.79s.89-5.97,2.66-7.84c1.77-1.87,4.17-2.8,7.2-2.8,2.48,0,4.44.53,5.9,1.6,1.46,1.07,2.51,2.69,3.15,4.87h0Z"/>
        <path class="cls-2" d="M283.45,39.75v-4.98h5.38v4.98h-5.38ZM283.45,62.84v-20.33h5.38v20.33h-5.38Z"/>
        <path class="cls-2" d="M306.12,56.37l5.36.9c-.69,1.97-1.78,3.46-3.26,4.49-1.49,1.03-3.35,1.54-5.58,1.54-3.54,0-6.15-1.15-7.85-3.46-1.34-1.85-2.01-4.19-2.01-7.01,0-3.37.88-6.01,2.64-7.91,1.76-1.91,3.99-2.86,6.68-2.86,3.02,0,5.41,1,7.16,3,1.75,2,2.58,5.06,2.51,9.18h-13.48c.04,1.6.47,2.84,1.3,3.72.83.89,1.86,1.33,3.1,1.33.84,0,1.55-.23,2.12-.69s1.01-1.2,1.3-2.22h0ZM306.42,50.93c-.04-1.56-.44-2.74-1.21-3.55-.77-.81-1.7-1.22-2.79-1.22-1.17,0-2.14.43-2.91,1.28-.77.86-1.14,2.02-1.13,3.48h8.04Z"/>
        <path class="cls-2" d="M334.64,62.84h-5.38v-10.38c0-2.2-.11-3.61-.34-4.26s-.6-1.15-1.12-1.5-1.14-.54-1.87-.54c-.93,0-1.77.26-2.51.77-.74.51-1.25,1.19-1.52,2.03s-.41,2.4-.41,4.67v9.21h-5.38v-20.33h5v2.99c1.77-2.3,4.01-3.45,6.7-3.45,1.19,0,2.27.21,3.25.64s1.73.97,2.23,1.64c.5.66.86,1.42,1.05,2.26s.3,2.05.3,3.62v12.63h0Z"/>
        <path class="cls-2" d="M349.41,42.51v4.29h-3.67v8.19c0,1.66.03,2.63.1,2.9s.23.5.48.68c.25.18.55.27.91.27.5,0,1.22-.17,2.16-.52l.46,4.17c-1.25.54-2.67.8-4.25.8-.97,0-1.84-.16-2.62-.49s-1.35-.75-1.71-1.26-.62-1.22-.76-2.1c-.11-.63-.17-1.89-.17-3.79v-8.86h-2.47v-4.29h2.47v-4.04l5.4-3.14v7.18h3.68Z"/>
        <path class="cls-2" d="M353.15,39.75v-4.98h5.38v4.98h-5.38ZM353.15,62.84v-20.33h5.38v20.33h-5.38Z"/>
        <path class="cls-2" d="M361.68,42.51h2.99v-1.53c0-1.71.18-2.99.55-3.83.36-.84,1.03-1.53,2.01-2.06s2.21-.79,3.7-.79,3.03.23,4.5.69l-.73,3.75c-.86-.2-1.68-.31-2.47-.31s-1.34.18-1.68.55c-.34.36-.51,1.06-.51,2.1v1.44h4.02v4.23h-4.02v16.1h-5.38v-16.1h-2.99v-4.23h0Z"/>
        <path class="cls-2" d="M377.09,39.75v-4.98h5.38v4.98h-5.38ZM377.09,62.84v-20.33h5.38v20.33h-5.38Z"/>
        <path class="cls-2" d="M405.71,48.52l-5.3.96c-.18-1.06-.58-1.86-1.22-2.39s-1.45-.8-2.46-.8c-1.34,0-2.41.46-3.21,1.39s-1.2,2.47-1.2,4.64c0,2.41.41,4.11,1.22,5.11.81,1,1.9,1.49,3.26,1.49,1.02,0,1.86-.29,2.51-.87s1.11-1.58,1.38-3l5.28.9c-.55,2.42-1.6,4.26-3.16,5.49-1.56,1.24-3.64,1.86-6.26,1.86-2.97,0-5.34-.94-7.11-2.81-1.77-1.88-2.65-4.47-2.65-7.79s.89-5.97,2.66-7.84c1.77-1.87,4.17-2.8,7.2-2.8,2.48,0,4.44.53,5.9,1.6,1.46,1.07,2.51,2.69,3.15,4.87h0Z"/>
      </g>
      <g>
        <path class="cls-2" d="M285.26,79.32l3.31,1.05c-.51,1.84-1.35,3.21-2.53,4.11-1.18.89-2.67,1.34-4.49,1.34-2.24,0-4.09-.77-5.53-2.3s-2.16-3.63-2.16-6.28c0-2.81.73-4.99,2.18-6.55,1.45-1.55,3.36-2.33,5.72-2.33,2.07,0,3.74.61,5.03,1.83.77.72,1.34,1.76,1.73,3.11l-3.38.81c-.2-.88-.62-1.57-1.25-2.07s-1.4-.76-2.31-.76c-1.25,0-2.27.45-3.05,1.35-.78.9-1.17,2.35-1.17,4.37,0,2.13.38,3.65,1.15,4.56s1.77,1.36,3,1.36c.91,0,1.69-.29,2.34-.86.65-.58,1.12-1.48,1.41-2.72h0Z"/>
        <path class="cls-2" d="M290.72,79.24c0-1.07.27-2.12.79-3.12.53-1.01,1.28-1.77,2.25-2.3.97-.53,2.06-.79,3.25-.79,1.85,0,3.37.6,4.55,1.8,1.18,1.2,1.77,2.72,1.77,4.56s-.6,3.38-1.79,4.6c-1.19,1.22-2.7,1.83-4.51,1.83-1.12,0-2.19-.25-3.21-.76-1.02-.51-1.79-1.25-2.32-2.23s-.79-2.17-.79-3.58h0ZM294.04,79.41c0,1.21.29,2.14.86,2.79s1.29.97,2.13.97,1.55-.32,2.13-.97.86-1.58.86-2.81-.29-2.12-.86-2.76-1.28-.97-2.13-.97-1.55.32-2.13.97c-.58.64-.86,1.57-.86,2.79h0Z"/>
        <path class="cls-2" d="M308.98,85.53h-3.24v-12.23h3.01v1.74c.51-.82.98-1.36,1.39-1.62s.88-.39,1.4-.39c.74,0,1.45.2,2.13.61l-1,2.82c-.55-.35-1.05-.53-1.52-.53s-.84.12-1.15.37c-.32.25-.56.7-.74,1.35-.18.65-.27,2.02-.27,4.1v3.78h0Z"/>
        <path class="cls-2" d="M314.97,73.3h3.02v1.8c.39-.61.92-1.11,1.59-1.5.67-.38,1.41-.58,2.22-.58,1.42,0,2.63.56,3.62,1.67s1.49,2.66,1.49,4.65-.5,3.63-1.5,4.76c-1,1.13-2.21,1.7-3.63,1.7-.68,0-1.29-.14-1.84-.4-.55-.27-1.13-.73-1.73-1.38v6.16h-3.24v-16.89h0ZM318.17,79.21c0,1.37.27,2.39.82,3.05.54.66,1.21.98,1.99.98s1.38-.3,1.88-.9c.5-.6.75-1.59.75-2.97,0-1.28-.26-2.23-.77-2.86-.51-.62-1.15-.93-1.91-.93s-1.45.3-1.97.92-.78,1.51-.78,2.71h0Z"/>
        <path class="cls-2" d="M328.72,79.24c0-1.07.27-2.12.79-3.12.53-1.01,1.28-1.77,2.25-2.3.97-.53,2.06-.79,3.25-.79,1.85,0,3.37.6,4.55,1.8,1.18,1.2,1.77,2.72,1.77,4.56s-.6,3.38-1.79,4.6c-1.19,1.22-2.7,1.83-4.51,1.83-1.12,0-2.19-.25-3.21-.76-1.02-.51-1.79-1.25-2.32-2.23s-.79-2.17-.79-3.58h0ZM332.04,79.41c0,1.21.29,2.14.86,2.79s1.29.97,2.13.97,1.55-.32,2.13-.97.86-1.58.86-2.81-.29-2.12-.86-2.76-1.28-.97-2.13-.97-1.55.32-2.13.97-.86,1.57-.86,2.79h0Z"/>
        <path class="cls-2" d="M346.97,85.53h-3.24v-12.23h3.01v1.74c.51-.82.98-1.36,1.39-1.62s.88-.39,1.4-.39c.74,0,1.45.2,2.13.61l-1,2.82c-.55-.35-1.05-.53-1.52-.53s-.84.12-1.15.37c-.32.25-.56.7-.74,1.35-.18.65-.27,2.02-.27,4.1v3.78h0Z"/>
        <path class="cls-2" d="M355.48,77.03l-2.94-.53c.33-1.18.9-2.06,1.7-2.63.81-.57,2-.85,3.59-.85,1.44,0,2.52.17,3.22.51.71.34,1.2.78,1.49,1.3.29.53.43,1.49.43,2.9l-.03,3.78c0,1.07.05,1.87.16,2.38.1.51.3,1.06.58,1.64h-3.2c-.08-.21-.19-.53-.31-.96-.05-.19-.09-.32-.11-.38-.55.54-1.14.94-1.77,1.21-.63.27-1.3.4-2.02.4-1.26,0-2.25-.34-2.98-1.03s-1.09-1.55-1.09-2.59c0-.69.17-1.31.5-1.85s.79-.96,1.39-1.24,1.45-.54,2.57-.75c1.51-.28,2.56-.55,3.14-.79v-.32c0-.62-.15-1.07-.46-1.33-.31-.26-.89-.4-1.74-.4-.58,0-1.03.11-1.35.34s-.58.62-.78,1.19h0ZM359.81,79.65c-.42.14-1.07.3-1.97.5-.9.19-1.49.38-1.76.56-.42.3-.63.68-.63,1.14s.17.85.51,1.17c.34.33.77.5,1.29.5.58,0,1.14-.19,1.67-.58.39-.29.65-.65.77-1.07.08-.28.13-.8.13-1.58v-.64h0Z"/>
        <path class="cls-2" d="M371.79,73.3v2.58h-2.21v4.93c0,1,.02,1.58.06,1.75s.14.3.29.41.33.16.55.16c.3,0,.73-.1,1.3-.31l.28,2.51c-.75.32-1.6.48-2.56.48-.58,0-1.11-.1-1.58-.29-.47-.2-.81-.45-1.03-.76-.22-.31-.37-.73-.45-1.26-.07-.38-.1-1.14-.1-2.28v-5.33h-1.49v-2.58h1.49v-2.43l3.25-1.89v4.32h2.21Z"/>
        <path class="cls-2" d="M374.03,71.64v-3h3.24v3h-3.24ZM374.03,85.53v-12.23h3.24v12.23h-3.24Z"/>
        <path class="cls-2" d="M379.84,79.24c0-1.07.27-2.12.79-3.12.53-1.01,1.28-1.77,2.25-2.3.97-.53,2.06-.79,3.25-.79,1.85,0,3.37.6,4.55,1.8,1.18,1.2,1.77,2.72,1.77,4.56s-.6,3.38-1.79,4.6c-1.19,1.22-2.7,1.83-4.51,1.83-1.12,0-2.19-.25-3.21-.76-1.02-.51-1.79-1.25-2.32-2.23s-.79-2.17-.79-3.58h0ZM383.15,79.41c0,1.21.29,2.14.86,2.79s1.29.97,2.13.97,1.55-.32,2.13-.97.86-1.58.86-2.81-.29-2.12-.86-2.76-1.28-.97-2.13-.97-1.55.32-2.13.97-.86,1.57-.86,2.79h0Z"/>
        <path class="cls-2" d="M406.12,85.53h-3.24v-6.24c0-1.32-.07-2.17-.21-2.56-.14-.39-.36-.69-.67-.9s-.69-.32-1.12-.32c-.56,0-1.06.15-1.51.46-.45.31-.75.71-.92,1.22-.17.51-.25,1.44-.25,2.81v5.54h-3.24v-12.23h3.01v1.8c1.07-1.38,2.41-2.07,4.03-2.07.71,0,1.37.13,1.96.39.59.26,1.04.59,1.34.98.3.4.51.85.63,1.36s.18,1.23.18,2.18v7.6h0Z"/>
      </g>
    </g>
  </g>
</svg>