<?xml version="1.0" encoding="UTF-8"?>
<svg id="Layer_2" xmlns="http://www.w3.org/2000/svg" viewBox="0 0 205.98 90.21">
  <defs>
    <style>
      .cls-1 {
        fill: #fff;
      }
    </style>
  </defs>
  <g id="Layer_1-2" data-name="Layer_1">
    <g>
      <path class="cls-1" d="M69.91,67.73c2.52-11.65,5.02-23.23,7.52-34.81-.04-.02-.08-.04-.12-.06-.32.41-.64.81-.96,1.22-4.35,5.64-8.7,11.29-13.06,16.92-.6.77-.62,1.69-.82,2.56-1.02,4.56-1.99,9.12-2.96,13.69-.08.38-.24.49-.61.48-4.48,0-8.95,0-13.43,0-.15,0-.29-.03-.5-.05.25-1.16.49-2.29.73-3.41.93-4.23,1.87-8.46,2.78-12.69.06-.28.03-.61-.06-.88-2.06-5.99-4.14-11.97-6.2-17.96-.15-.43-.35-.58-.81-.56-2.03.08-4.05.14-6.08.17-.4,0-.56.15-.64.53-1.51,6.87-3.03,13.73-4.54,20.6-1.01,4.58-2.01,9.16-3,13.74-.07.32-.16.52-.57.52-4.46-.02-8.92,0-13.37-.01-.13,0-.26-.03-.47-.06,2.5-11.76,5-23.49,7.52-35.32H0c.26-1.16.5-2.22.75-3.28.1-.44.22-.88.31-1.33.06-.32.23-.45.55-.44.17,0,.34,0,.51,0,17.07,0,34.14,0,51.21,0,1.06,0,.87-.03,1.17.85,1.21,3.66,2.42,7.32,3.62,10.99.05.16.11.31.2.55.31-.4.59-.73.84-1.07,2.71-3.6,5.43-7.2,8.13-10.82.27-.36.54-.51.99-.51,8,.01,16.01,0,24.01,0,.2,0,.4.03.66.05-2.04,9.45-4.07,18.82-6.12,28.3h23.87c-.36,1.85-.69,3.61-1.04,5.37-.41,2.08-.83,4.15-1.22,6.23-.07.36-.2.48-.55.47-.82-.02-1.63,0-2.45,0-11.57,0-23.14,0-34.71,0h-.83Z"/>
      <path class="cls-1" d="M175.56,43.66c7.69,7.98,15.33,15.9,23.06,23.92h-.69c-6.37,0-12.75,0-19.12,0-.42,0-.7-.13-.98-.43-2.85-3.02-5.71-6.02-8.57-9.04-2.37-2.5-4.74-5.02-7.1-7.52-.1-.11-.22-.2-.4-.37-.16.67-.32,1.26-.45,1.86-1.11,5-2.22,10-3.32,15.01-.07.33-.17.49-.54.49-4.55-.01-9.1,0-13.66,0-.09,0-.18-.02-.36-.04.19-.87.36-1.71.55-2.55,1.68-7.59,3.36-15.17,5.03-22.76,1.05-4.74,2.08-9.49,3.12-14.24.07-.3.11-.55.55-.55,4.55.02,9.1.01,13.66.01.07,0,.15.02.32.04-.71,3.35-1.42,6.68-2.13,10,.04.02.08.04.12.06.97-.75,1.93-1.5,2.9-2.25,3.26-2.54,6.52-5.07,9.79-7.6.18-.14.44-.25.66-.25,6.24-.01,12.48-.01,18.72,0,.05,0,.1.02.24.05-7.13,5.39-14.21,10.75-21.37,16.16Z"/>
      <path class="cls-1" d="M101.91,14.93c3.04,2.01,6.02,3.99,9.01,5.96-.5,1.13-1.03,2.21-1.48,3.33-.84,2.1-1.39,4.27-1.36,6.57.04,3.84,1.59,6.82,4.88,8.87,3.47,2.16,7.14,2.41,10.97,1.24,3.29-1.01,6.16-2.78,8.77-5,.17-.15.35-.29.56-.47,3.04,2.07,6.09,4.14,9.23,6.28-1.06.97-2.04,1.92-3.08,2.79-5.18,4.38-11.04,7.42-17.72,8.8-2.7.55-5.41.61-8.14.31-3.85-.43-7.37-1.7-10.41-4.14-3.31-2.65-5.48-6.07-6.71-10.11-.81-2.66-1.1-5.38-.89-8.14.29-3.74,1.33-7.29,3.02-10.63.88-1.75,1.95-3.41,2.94-5.11.1-.18.25-.33.4-.53Z"/>
      <path class="cls-1" d="M1.48,24.74c.36-1.32.71-2.63,1.09-3.94.03-.11.21-.21.33-.24.16-.04.34-.01.51-.01,15.95,0,31.91,0,47.86-.02.59,0,.87.16,1.05.73.37,1.15.81,2.28,1.24,3.48H1.48Z"/>
      <path class="cls-1" d="M69.65,24.79c1.07-1.42,2.04-2.72,3.05-4,.13-.16.46-.23.7-.23,3.96-.01,7.93,0,11.89,0,2.81,0,5.61,0,8.42,0h.71c-.21,1.01-.39,1.95-.59,2.88-.29,1.36-.3,1.36-1.7,1.36-7.25,0-14.49,0-21.74,0-.2,0-.41,0-.75,0Z"/>
      <path class="cls-1" d="M180.96,24.87c1.13-.89,2.25-1.78,3.38-2.66.37-.29.78-.55,1.11-.88.59-.6,1.28-.74,2.1-.73,5.86.03,11.72.02,17.57.02.23,0,.45,0,.86,0-.27.22-.42.34-.58.46-1.63,1.21-3.25,2.43-4.88,3.62-.23.17-.54.31-.81.31-6.14.02-12.28.01-18.43.01-.09,0-.18,0-.27-.01-.02-.04-.04-.08-.05-.13Z"/>
      <path class="cls-1" d="M168.07,20.62c-.28,1.34-.55,2.65-.85,3.96-.03.14-.3.32-.46.33-.79.03-1.59.02-2.39.02-3.58,0-7.17,0-10.75,0-.22,0-.44,0-.76,0,.1-.45.17-.81.25-1.17.2-.92.4-1.85.59-2.77.06-.31.21-.44.54-.44,4.47,0,8.95,0,13.42,0,.12,0,.25.04.41.07Z"/>
      <path class="cls-1" d="M66.89,81.34v.6c0,2.5-.01,5.01.01,7.51,0,.48-.15.66-.61.6-.15-.02-.3-.02-.45,0-.38.04-.49-.14-.48-.5.01-1.33,0-2.65,0-3.98,0-2.1,0-4.21,0-6.31v-.74c.7-.06,1.29-.16,1.84.5,2.2,2.63,4.47,5.2,6.72,7.79.13.15.28.3.52.56.02-.32.04-.51.04-.71,0-2.48,0-4.97,0-7.45q0-.73.76-.73c.11,0,.23.01.34,0,.41-.05.52.14.52.53,0,3.51,0,7.02,0,10.52,0,.39-.12.51-.52.55-.69.06-1.14-.2-1.59-.73-2.24-2.64-4.53-5.25-6.8-7.87-.05-.06-.09-.13-.13-.19-.06.02-.11.04-.17.06Z"/>
      <path class="cls-1" d="M118.63,84.45c.44.5.95,1.08,1.52,1.73.34-.5.7-.91.92-1.37.21-.43.49-.57.94-.53.31.03.63,0,.94,0,.04.06.09.11.13.17-.54.83-1.04,1.68-1.63,2.48-.24.33-.25.5.03.8.65.71,1.26,1.45,1.97,2.28-.75,0-1.48.19-2.02-.05-.55-.25-.92-.91-1.32-1.35-.82.45-1.59.96-2.43,1.31-.95.4-1.96.41-2.89-.14-1.56-.93-1.84-2.92-.57-4.22.55-.56,1.19-1.03,1.83-1.58-.23-.34-.5-.68-.72-1.05-1.07-1.79-.32-3.73,1.65-4.18.82-.19,1.66-.11,2.42.33,1.33.77,1.65,2.44.68,3.73-.42.55-.92,1.05-1.45,1.63ZM118.98,87.29c-.57-.66-1.09-1.28-1.64-1.88-.08-.09-.34-.16-.41-.11-.51.38-1.03.76-1.47,1.22-.34.36-.51.85-.23,1.35.29.51.74.74,1.32.72.99-.05,1.72-.57,2.43-1.3ZM117.43,83.23c.71-.49,1.33-.8,1.57-1.54.17-.54.02-.97-.39-1.31-.45-.37-1.17-.38-1.64-.04-.46.33-.58.81-.39,1.3.21.53.53,1.01.85,1.59Z"/>
      <path class="cls-1" d="M91.13,80.95c-.48-.22-.86-.41-1.26-.57-1.5-.58-3.02-.88-4.59-.27-2.03.79-3.09,2.85-2.68,5.14.35,1.94,2.09,3.43,4.17,3.43.84,0,1.68-.21,2.51-.34.3-.05.45-.21.43-.55-.03-.51-.02-1.02,0-1.54.01-.34-.1-.48-.46-.47-.57.02-1.14,0-1.8,0,0-.42-.02-.81.02-1.2.01-.1.22-.25.34-.25,1.06-.02,2.12-.02,3.19,0,.12,0,.34.24.34.37.02,1.4.03,2.81,0,4.21,0,.16-.17.39-.32.45-2.1.8-4.23,1.11-6.43.4-2.17-.71-3.67-2.81-3.8-5.09-.2-3.54,2.37-5.91,5.03-6.3,1.73-.26,3.4.04,4.98.77.13.06.29.22.3.35.04.44.01.89.01,1.43Z"/>
      <path class="cls-1" d="M142.6,90.05c.44-1.04.84-1.97,1.23-2.91,1.17-2.75,2.35-5.5,3.51-8.25.14-.34.32-.53.71-.5.35.03.69-.05.89.4,1.61,3.65,3.24,7.29,4.87,10.94.03.07.03.14.07.29-.52,0-1.01.03-1.49-.02-.13-.01-.27-.23-.34-.39-.41-.87-.81-1.75-1.19-2.64-.12-.29-.28-.4-.6-.39-1.35.02-2.69.02-4.04,0-.38,0-.54.16-.67.47-.33.82-.7,1.63-1.02,2.47-.15.4-.36.57-.79.53-.35-.03-.7,0-1.15,0ZM148.11,81.06c-.56,1.37-1.1,2.68-1.65,4.03h3.53c-.58-1.3-1.11-2.53-1.66-3.75-.04-.08-.11-.14-.21-.28Z"/>
      <path class="cls-1" d="M181.74,79.99c0,1.1-.01,2.15.02,3.21,0,.1.29.26.44.26,1.17.02,2.35.01,3.53.01.2,0,.41,0,.66,0,.01.26.03.46.03.67q0,.85-.82.85c-1.06,0-2.12,0-3.18,0h-.68c0,1.14-.01,2.21.02,3.28,0,.11.31.29.48.29,1.25.03,2.5.01,3.75.01.22,0,.45,0,.72,0v1.43c-.16.02-.33.05-.49.05-1.86,0-3.72,0-5.57.01-.45,0-.58-.14-.58-.59.02-3.47.02-6.94,0-10.41,0-.47.13-.61.61-.6,1.76.03,3.53.03,5.29,0,.52,0,.7.13.67.66-.04.8,0,.81-.71.81-1.14,0-2.27,0-3.41,0-.24,0-.48.03-.78.05Z"/>
      <path class="cls-1" d="M135.21,33.49c.26-.53.47-1.02.74-1.47.08-.13.36-.24.5-.2,3.33.93,6.66,1.88,9.98,2.83.07.02.12.08.23.15-.35,1.55-1.06,2.89-2.32,3.89-.11.09-.38.13-.49.06-2.87-1.73-5.72-3.48-8.64-5.27Z"/>
      <path class="cls-1" d="M109.33,7.01c1.31-1.18,2.78-2.01,4.38-2.81.3.81.59,1.58.86,2.36.87,2.42,1.73,4.84,2.61,7.26.12.34.09.55-.24.74-.34.2-.65.45-1.03.73-2.2-2.76-4.37-5.49-6.58-8.27Z"/>
      <path class="cls-1" d="M135.27,15.45c-.36-.33-.7-.63-1.07-.96,2.75-3.43,5.48-6.84,8.24-10.28,1.16.78,2.23,1.58,2.98,2.78-3.4,2.84-6.76,5.63-10.15,8.46Z"/>
      <path class="cls-1" d="M127.79.04c-.48,2.19-.94,4.3-1.41,6.42-.34,1.55-.7,3.09-1,4.65-.11.59-.33.93-.96.91-.24,0-.48,0-.76,0-.04-.55-.09-1.08-.12-1.6-.16-2.96-.32-5.92-.45-8.89-.05-1.13-.12-.92.9-1.16,1.24-.29,2.49-.38,3.8-.33Z"/>
      <path class="cls-1" d="M103.74,12.39c1.17-1.22,2.29-2.39,3.46-3.62.51.62.98,1.21,1.45,1.79,1.62,2,3.23,4.01,4.86,6,.28.34.32.54-.03.87-.97.92-.96.94-2.07.19-2.45-1.65-4.89-3.31-7.34-4.97-.09-.06-.18-.14-.33-.27Z"/>
      <path class="cls-1" d="M138.15,21.64c-.03-.18-.05-.25-.06-.32-.14-.98-.15-.99.73-1.44,3.51-1.81,7.03-3.61,10.69-5.49.24.88.48,1.69.68,2.52.09.4.07.83.13,1.24.06.45-.14.63-.57.73-3.62.86-7.23,1.74-10.85,2.61-.23.06-.47.1-.75.15Z"/>
      <path class="cls-1" d="M150.42,20.96c.23,1.47.28,2.86-.2,4.21-.06.16-.35.32-.54.32-1.21.03-2.43.02-3.64.02-2.31,0-4.62,0-6.94,0h-.76c0-.46-.06-.88.03-1.27.04-.17.36-.33.59-.39,2.29-.59,4.58-1.15,6.87-1.72,1.5-.38,3-.76,4.6-1.17Z"/>
      <path class="cls-1" d="M134.5.63c-.63,1.34-1.23,2.64-1.84,3.94-1.04,2.21-2.09,4.41-3.12,6.61-.47,1-.74,1.12-1.91.8.17-.8.33-1.61.5-2.41.63-2.95,1.27-5.91,1.88-8.87.1-.51.27-.77.84-.69,1.01.15,2.02.24,3.03.38.2.03.38.14.61.23Z"/>
      <path class="cls-1" d="M120.65,1.21c.09,2.2.18,4.27.26,6.35.06,1.57.12,3.14.18,4.71.01.4-.97,1.06-1.32.88-.1-.05-.17-.2-.21-.32-1.15-3.12-2.3-6.24-3.43-9.37-.05-.15-.03-.46.07-.52,1.33-.86,2.81-1.36,4.45-1.74Z"/>
      <path class="cls-1" d="M137.22,29.41c.12-.41.17-.78.35-1.08.1-.17.41-.3.63-.3,2.42-.02,4.85-.01,7.27-.01,1.16,0,2.31.03,3.47-.01.53-.02.67.18.61.66-.16,1.32-.6,2.54-1.47,3.56-.13.15-.51.2-.73.14-1.82-.5-3.63-1.05-5.44-1.57-1.36-.4-2.72-.79-4.08-1.19-.18-.05-.36-.11-.6-.19Z"/>
      <path class="cls-1" d="M137.23,18.21c-.23-.36-.42-.68-.66-1.06.68-.58,1.36-1.15,2.03-1.71,2.53-2.1,5.08-4.19,7.6-6.31.39-.33.59-.28.9.08.67.77,1.24,1.57,1.48,2.58.1.39.04.65-.38.86-3.49,1.76-6.97,3.55-10.46,5.33-.15.08-.31.14-.52.23Z"/>
      <path class="cls-1" d="M140.65,3.14c-.69.86-1.36,1.7-2.04,2.53-1.94,2.4-3.89,4.8-5.8,7.21-.47.59-.8.06-1.16-.07-.43-.15-.21-.44-.09-.69,1.68-3.41,3.36-6.82,5.02-10.24.19-.39.42-.54.83-.47,1.25.22,2.3.82,3.24,1.72Z"/>
      <path class="cls-1" d="M96.09,87.06c.15.22.28.46.47.64.66.64,1.46,1,2.4,1.01.83.01,1.52-.38,1.77-.99.24-.61,0-1.45-.67-1.96-.61-.47-1.3-.85-1.94-1.29-.45-.31-.91-.62-1.32-.98-.96-.84-1.17-1.92-.8-3.1.38-1.21,1.31-1.84,2.51-2.02,1-.15,2-.04,2.93.45.36.18.56.4.51.84-.04.39,0,.78,0,1.3-.25-.18-.42-.29-.58-.41-.84-.59-1.75-.89-2.78-.66-.53.12-.97.37-1.15.91-.18.54-.01,1.06.41,1.39.75.57,1.54,1.08,2.34,1.59,1,.63,1.85,1.37,2.13,2.6.41,1.86-.83,3.58-2.72,3.78-1.17.12-2.25-.11-3.26-.7-.33-.19-.51-.41-.48-.81.03-.47,0-.94,0-1.41.07-.05.14-.11.22-.16Z"/>
      <path class="cls-1" d="M190.66,87.04c.73.84,1.48,1.44,2.48,1.61.3.05.61.07.9.04.69-.07,1.23-.4,1.48-1.07.23-.63,0-1.21-.47-1.59-.71-.59-1.51-1.06-2.26-1.61-.5-.37-1.05-.71-1.46-1.16-.81-.89-.94-1.97-.49-3.08.46-1.12,1.39-1.68,2.55-1.82.97-.12,1.93-.01,2.82.46.33.17.53.38.49.8-.04.41,0,.83,0,1.32-.38-.25-.69-.49-1.02-.68-.72-.4-1.48-.54-2.3-.37-1.19.25-1.62,1.37-.79,2.26.39.42.93.71,1.4,1.05.82.6,1.72,1.12,2.43,1.83.91.92.96,2.13.5,3.29-.46,1.16-1.42,1.71-2.65,1.84-1.18.12-2.26-.14-3.23-.78-.18-.12-.32-.41-.35-.63-.05-.52-.02-1.06-.02-1.71Z"/>
      <path class="cls-1" d="M165.89,78.47c.53,0,.98-.05,1.42.02.17.03.36.29.45.49.98,2.25,1.95,4.51,2.92,6.77.1.22.2.44.36.78.56-1.31,1.07-2.51,1.57-3.7.52-1.22,1.06-2.43,1.55-3.66.21-.52.46-.83,1.07-.72.25.05.52,0,.88,0-.2.5-.36.92-.53,1.33-1.37,3.26-2.74,6.52-4.12,9.77-.09.2-.29.35-.43.53-.13-.17-.31-.32-.39-.51-1.49-3.45-2.98-6.91-4.46-10.37-.09-.22-.17-.44-.29-.75Z"/>
      <path class="cls-1" d="M131.07,78.47c.53,0,.95-.05,1.35.02.18.03.4.25.48.43,1.03,2.36,2.04,4.72,3.06,7.09.06.14.12.27.22.5.12-.23.21-.38.28-.54.96-2.26,1.94-4.52,2.88-6.8.22-.52.47-.82,1.08-.71.25.05.51,0,.89,0-.33.8-.62,1.49-.91,2.18-1.25,2.96-2.49,5.93-3.75,8.89-.09.21-.27.37-.42.55-.15-.19-.35-.36-.45-.58-1.5-3.47-2.99-6.95-4.49-10.42-.07-.17-.13-.34-.24-.62Z"/>
      <path class="cls-1" d="M15.06,78.51h6.19c0,.39.05.76-.02,1.09-.03.14-.34.31-.52.32-1.1.03-2.2.03-3.3,0-.5-.01-.72.13-.69.67.04.68.03,1.36,0,2.05-.01.4.14.52.53.51,1.1-.02,2.2.03,3.3-.02.6-.03.79.18.71.74-.03.22,0,.45,0,.74-.23.01-.43.04-.63.04-1.1,0-2.2.02-3.3,0-.49-.01-.61.17-.61.63.02,1.4,0,2.81.02,4.21,0,.46-.14.59-.58.58-1.34-.03-1.08.11-1.09-1.08-.01-3.24,0-6.48,0-9.72v-.75Z"/>
      <path class="cls-1" d="M35.55,79.89c-1.13,0-2.17,0-3.21,0q-.77,0-.77-.77c0-.2,0-.41,0-.64h9.64c.03.09.06.14.06.19,0,1.51.17,1.18-1.16,1.21-.78.02-1.55.03-2.33,0-.46-.02-.58.15-.58.59.02,2.94,0,5.87,0,8.81q0,.77-.77.77c-.11,0-.23-.01-.34,0-.46.06-.57-.15-.56-.59.02-2.94,0-5.87,0-8.81,0-.22,0-.45,0-.77Z"/>
      <path class="cls-1" d="M54.13,78.48v1.41c-.99,0-1.95,0-2.91,0-.17,0-.34.02-.51,0-.46-.06-.57.16-.57.59.02,2.98,0,5.95.02,8.93,0,.55-.18.68-.68.66-1.15-.04-.99.1-.99-1.02,0-2.81-.01-5.61,0-8.42,0-.54-.13-.78-.73-.75-1.06.05-2.11.01-3.22.01v-1.41h9.58Z"/>
      <path class="cls-1" d="M157.93,78.54c.08-.03.13-.06.18-.06q1.42-.12,1.42,1.31c0,2.67,0,5.35,0,8.02q0,.76.79.76c1.27,0,2.54.03,3.81-.01.64-.02.58.35.59.76,0,.44,0,.75-.61.74-1.9-.04-3.79-.02-5.69,0-.36,0-.55-.07-.55-.5.01-3.57,0-7.13.01-10.7,0-.11.03-.22.04-.32Z"/>
      <path class="cls-1" d="M25.65,84.24c0-1.74.01-3.48,0-5.23,0-.42.11-.57.54-.55,1.4.05,1.2-.2,1.2,1.21,0,3.24,0,6.48.01,9.71,0,.52-.15.7-.67.68-1.3-.04-1.06.09-1.07-1.05-.01-1.59,0-3.18,0-4.77Z"/>
      <path class="cls-1" d="M58.42,78.5h1.61c.01.22.03.42.03.62,0,3.41-.01,6.83.01,10.24,0,.54-.13.73-.69.7-1.16-.05-.96.06-.96-.99,0-3.28,0-6.56,0-9.84v-.74Z"/>
    </g>
  </g>
</svg>