<?xml version="1.0" encoding="UTF-8"?>
<svg id="Layer_2" xmlns="http://www.w3.org/2000/svg" viewBox="0 0 368.74 119.91">
  <defs>
    <style>
      .cls-1 {
        fill: #fff;
      }
    </style>
  </defs>
  <g id="Layer_1-2" data-name="Layer_1">
    <g>
      <path class="cls-1" d="M368.74,119.2c0,.24-.1.48-.15.72"/>
      <path class="cls-1" d="M316.97,47.72c7.29-3.9,14.5-7.77,21.83-11.69.28.63.55,1.2.79,1.77,7.09,16.88,2.02,36.39-12.4,47.64-7.49,5.84-16.02,8.68-25.5,8.61-3.54-.02-7.03-.54-10.43-1.55-.56-.16-1-.09-1.5.17-8.85,4.7-17.71,9.39-26.57,14.08-.27.14-.55.27-.96.48,0-.43,0-.71,0-.99,0-9.53,0-19.06-.01-28.59,0-.64.19-.98.76-1.29,8.46-4.48,16.91-8.99,25.34-13.52.61-.33.89-.23,1.28.29,3.95,5.16,10.48,7.39,16.66,5.72,6.19-1.67,10.78-6.84,11.65-13.16.37-2.7.05-5.34-.94-8Z"/>
      <path class="cls-1" d="M342.16,0c0,.41,0,.69,0,.98,0,9.53,0,19.06.01,28.58,0,.64-.19.99-.76,1.29-8.39,4.44-16.77,8.9-25.14,13.39-.69.37-1.04.33-1.53-.33-3.81-5.05-10.35-7.39-16.52-5.68-6.51,1.81-10.43,6.17-11.67,12.82-.53,2.85-.18,5.65.91,8.43-7.27,3.88-14.51,7.76-21.83,11.67-.26-.55-.52-1.03-.71-1.54-5.96-15.38-3.95-29.6,6.58-42.34,6.38-7.72,14.79-12.18,24.7-13.71,5.71-.88,11.37-.5,16.94,1.1.56.16,1,.12,1.5-.15,8.83-4.69,17.67-9.36,26.51-14.04.3-.16.6-.29,1.02-.49Z"/>
      <path class="cls-1" d="M195.6,56.77v-21.36h13.37v41.96c-.26.01-.52.04-.78.04-3.45,0-6.9-.01-10.35.02-.56,0-.93-.18-1.3-.58-6.23-6.67-12.47-13.33-18.71-20-.22-.23-.43-.46-.79-.85v21.35h-13.51c-.02-.3-.05-.61-.05-.92,0-13.35,0-26.7-.02-40.05,0-.76.14-1.06,1-1.04,3.37.05,6.74.04,10.11,0,.64,0,1.07.18,1.51.65,6.39,6.85,12.8,13.69,19.2,20.52.05.06.12.1.31.27Z"/>
      <path class="cls-1" d="M100.19,77.34v-15.76h-15.28v15.79h-14.03v-41.98h13.98v15.16h15.31v-15.15c.35-.02.58-.05.81-.05,4.14,0,8.28.01,12.42-.02.65,0,.86.18.86.85-.02,13.48-.01,26.96,0,40.44,0,.46.01.81-.64.8-4.35-.03-8.7-.02-13.06-.02-.08,0-.15-.03-.35-.06Z"/>
      <path class="cls-1" d="M257.87,77.41c-.51,0-.8,0-1.09,0-4.88,0-9.77-.02-14.65.02-.74,0-1.19-.21-1.63-.82-4.38-6-8.79-11.97-13.19-17.96-.15-.21-.32-.41-.65-.59v19.3c-.36.02-.6.05-.83.05-4.14,0-8.28-.02-12.42.02-.72,0-.88-.22-.88-.9.02-13.43.02-26.86,0-40.29,0-.69.18-.91.89-.9,4.11.03,8.23.02,12.34.02h.82v18.85c.31-.29.46-.41.59-.56,4.97-5.91,9.93-11.83,14.91-17.73.22-.27.63-.53.96-.54,4.54-.03,9.08-.02,13.62-.02.13,0,.25.02.59.06-5.46,6.56-10.83,13-16.25,19.51,5.58,7.44,11.16,14.88,16.87,22.5Z"/>
      <path class="cls-1" d="M131.31,35.34v1.07c0,7.01-.04,14.01.03,21.02.02,1.56.25,3.19.74,4.67.98,3,3.74,4.58,6.89,4.39,4.51-.28,6.24-3.37,6.77-6.4.21-1.2.29-2.42.29-3.64.03-6.69.01-13.37.01-20.06v-1c.34-.02.6-.04.86-.04,4.11,0,8.23.02,12.34-.02.73,0,.88.24.87.91-.02,7.24,0,14.49-.02,21.73,0,2.93-.37,5.82-1.43,8.58-1.99,5.22-5.76,8.61-11.05,10.16-6.54,1.92-13.12,1.81-19.52-.6-6.52-2.46-10.06-7.33-10.7-14.27-.11-1.13-.14-2.28-.14-3.42-.01-7.38,0-14.75-.02-22.13,0-.78.23-.97.98-.96,4.06.04,8.12.02,12.18.02.26,0,.52,0,.9,0Z"/>
      <path class="cls-1" d="M67.26,49.96c-.75-.45-1.33-.81-1.92-1.15-4.15-2.4-8.57-3.36-13.3-2.31-5.96,1.32-8.18,6.22-7.62,11.31.56,5.03,4.35,8.2,9.51,8.75,4.46.47,8.49-.72,12.33-2.87.39-.22.78-.43,1.27-.69.03.31.06.52.07.74,0,3.26-.01,6.53.02,9.79,0,.58-.23.84-.69,1.09-3.39,1.82-7.02,2.8-10.83,3.14-4.05.36-8.06.21-11.95-1.09-7.41-2.47-11.76-7.71-13.34-15.25-1.19-5.67-.52-11.15,2.4-16.22,3.04-5.27,7.74-8.39,13.59-9.66,6.66-1.45,13.22-.88,19.58,1.68.69.28.93.65.92,1.41-.05,3.42-.02,6.85-.02,10.27v1.05Z"/>
      <path class="cls-1" d="M.09,63.78c1.68.9,3.27,1.87,4.95,2.63,2.26,1.03,4.65,1.64,7.18,1.24,1.69-.27,2.81-1.42,2.59-2.85-.11-.66-.55-1.42-1.07-1.85-.97-.8-2.11-1.4-3.18-2.08-1.99-1.26-4.12-2.35-5.94-3.82C.44,53.68-.84,49.2.52,44.07c1.33-5,4.8-7.91,9.79-8.88,5.81-1.13,11.16.07,15.89,3.72.26.2.55.57.55.86.04,3.4.02,6.79.02,10.19,0,.1-.04.19-.08.44-.31-.27-.52-.49-.76-.67-1.63-1.21-3.21-2.52-4.93-3.6-1.53-.96-3.28-1.33-5.11-1.08-1.28.17-2.36.64-2.8,1.99-.43,1.34.18,2.38,1.19,3.12,1.25.92,2.63,1.68,3.95,2.51,1.75,1.09,3.59,2.06,5.24,3.3,4.09,3.07,5.62,7.24,4.55,12.21-1.07,4.98-4.34,8.07-9.21,9.14-6.29,1.39-12.43.5-18.32-2.09-.21-.09-.46-.41-.46-.62-.02-3.58-.01-7.16,0-10.75,0-.04.04-.09.05-.1Z"/>
      <path class="cls-1" d="M302.14,66.33c-6.96.02-12.68-5.66-12.71-12.6-.03-7.01,5.73-12.79,12.73-12.77,6.98.02,12.62,5.68,12.63,12.66,0,7.05-5.61,12.69-12.65,12.71Z"/>
      <path class="cls-1" d="M361.92,41.97c0,4.51-3.63,8.17-8.11,8.17-4.46,0-8.03-3.6-8.05-8.12-.01-4.49,3.57-8.11,8.04-8.12,4.48,0,8.11,3.6,8.11,8.06ZM360.68,42.02c.02-3.82-2.99-6.89-6.81-6.94-3.75-.05-6.91,3.06-6.92,6.84-.02,3.93,2.94,6.96,6.82,6.98,3.89.02,6.89-2.97,6.91-6.88Z"/>
      <path class="cls-1" d="M352.18,43.08v3.29h-1.57v-8.86c1.8.08,3.62-.24,5.4.3.99.3,1.45,1.1,1.46,2.22,0,1.2-.39,1.71-1.8,2.26,2.07.75,1.56,2.53,1.76,4.15-.36,0-.7.07-.98-.02-.23-.08-.4-.36-.59-.55-.01-.01,0-.05,0-.08.27-2.82-1.15-3.01-3.68-2.71ZM352.21,41.74c.49,0,.91,0,1.33,0,.37,0,.75,0,1.11-.07.71-.16,1.19-.54,1.2-1.35.02-.92-.21-1.35-1.06-1.5-.84-.14-1.7-.12-2.58-.17v3.09Z"/>
    </g>
  </g>
</svg>