<?xml version="1.0" encoding="UTF-8"?>
<svg id="Layer_2" xmlns="http://www.w3.org/2000/svg" viewBox="0 0 371.25 57.3">
  <defs>
    <style>
      .cls-1 {
        fill: #fff;
      }
    </style>
  </defs>
  <g id="Layer_1-2" data-name="Layer_1">
    <g>
      <path class="cls-1" d="M222.75,35.79h-9.76c.83-5.18,1.66-10.3,2.49-15.43-.07-.05-.13-.09-.2-.14-.23.34-.48.66-.68,1.01-1.57,2.76-3.11,5.53-4.72,8.27-.2.34-.72.67-1.11.7-1.4.1-2.8.04-4.2.09-.65.02-.85-.25-.98-.85-.67-2.92-1.4-5.83-2.12-8.75-.06-.25-.2-.48-.38-.92-.83,5.21-1.62,10.2-2.45,15.18-.05.32-.5.81-.78.81-2.95.06-5.91.04-9.05.04.21-1.47.39-2.86.61-4.25.83-5.18,1.69-10.36,2.48-15.55.13-.82.42-1.14,1.25-1.14,4.91.02,9.82,0,14.72.02.4,0,.79.31,1.28.51.28-.12.76-.49,1.25-.49,4.99-.05,9.97-.04,14.96-.04.19,0,.38.04.72.07-1.11,6.95-2.2,13.84-3.32,20.83Z"/>
      <path class="cls-1" d="M135.52,35.83c1.13-7.03,2.23-13.88,3.35-20.84h9.73c-.64,4.05-1.28,8.12-1.92,12.18,5.69.85,8.92-1.05,10.83-7.34.45-1.5.49-3.12.74-4.82h9.8c-.07,3.25-.75,6.34-2.08,9.3-2.66,5.93-7.06,9.8-13.5,11.17-1.05.22-2.15.34-3.23.34-4.51.04-9.02.02-13.71.02Z"/>
      <path class="cls-1" d="M298.55,14.89c-1.03,2.54-1.99,4.92-3,7.4h4.78c-.18-2.44-.37-4.84-.56-7.33h8.33c1.22,6.9,2.44,13.82,3.68,20.81h-10.25c-.23-1.93-.52-3.91-.68-5.89-.06-.76-.3-1.01-1.04-1-1.95.03-3.9-.04-5.84.05-.41.02-.97.44-1.15.82-.84,1.74-1.53,3.54-2.36,5.28-.17.35-.68.74-1.05.75-3.11.06-6.23.03-9.5.03.17-.41.29-.75.44-1.07,3.11-6.26,6.24-12.52,9.33-18.79.4-.81.86-1.12,1.78-1.09,2.29.07,4.59.02,7.08.02Z"/>
      <path class="cls-1" d="M4.43,14.89c.68,0,1.22,0,1.76,0,4.98,0,9.97,0,14.95,0,3.09,0,6.63,2.79,7.08,5.85,1.03,6.88-2.62,14.18-11.39,15.34-5.37.71-10.38-.3-15.13-2.82-.31-.16-.61-.33-.91-.52-.26-.16-.5-.36-.8-.58,1.61-2.67,3.18-5.33,4.83-7.94.5-.79,1.3-.57,1.98-.1,2.22,1.53,4.57,2.8,7.26,3.24.75.12,1.59.15,2.28-.09.52-.18,1.09-.81,1.2-1.33.1-.45-.26-1.22-.67-1.53-.69-.52-1.56-.81-2.37-1.17-2.45-1.12-4.98-2.11-7.33-3.41-1.76-.97-2.47-2.78-2.76-4.95Z"/>
      <path class="cls-1" d="M340.5,32.05c1.58-2.61,3.14-5.19,4.7-7.76.47-.78,1-.93,1.8-.34,2.24,1.63,4.66,2.95,7.43,3.4.85.14,1.8.1,2.63-.14,1.2-.34,1.49-1.97.45-2.67-.98-.65-2.13-1.05-3.23-1.53-1.87-.82-3.83-1.48-5.62-2.45-2.09-1.13-3.55-2.85-3.71-5.62,1.4,0,2.73,0,4.07,0,4.42-.02,8.84-.07,13.25-.03.69,0,1.41.36,2.05.68,3.62,1.85,5.09,4.98,4.41,8.97-.49,2.89-1.41,5.53-3.48,7.68-2.04,2.12-4.61,3.28-7.45,3.74-5.93.96-11.47-.23-16.61-3.29-.17-.1-.32-.22-.47-.34-.06-.05-.09-.12-.22-.31Z"/>
      <path class="cls-1" d="M228.42,35.75c1.11-6.96,2.21-13.84,3.32-20.79h21.38c-.33,2.15-.61,4.28-1.04,6.37-.05.25-.89.48-1.37.49-3,.05-6,.05-8.99,0-.95-.01-1.48.09-1.52,1.26-.05,1.34-.41,2.66-.68,4.24h14.05c-.47,2.95-.91,5.65-1.35,8.42h-23.79Z"/>
      <path class="cls-1" d="M84.37,14.98c-.32,2.1-.6,4.13-.99,6.14-.05.29-.62.65-.97.67-1.55.08-3.11.05-4.67.05-1.36,0-2.73,0-4.09,0-2.02,0-2.03,0-2.34,1.94-.18,1.1-.32,2.21-.51,3.52h14c-.47,2.94-.9,5.67-1.35,8.45h-23.79c1.11-6.92,2.22-13.81,3.34-20.78h21.37Z"/>
      <path class="cls-1" d="M112.85,27.37c-.47,2.93-.9,5.63-1.35,8.4h-23.78c1.1-6.92,2.2-13.81,3.31-20.79h21.38c-.33,2.13-.61,4.24-1.03,6.31-.05.26-.87.52-1.33.53-2.84.05-5.68.02-8.52.02-1.77,0-1.79,0-2.1,1.65-.22,1.21-.38,2.43-.61,3.88h14.02Z"/>
      <path class="cls-1" d="M325.48,27.33h14.5c-.46,2.93-.9,5.66-1.33,8.44h-24.29c1.12-6.96,2.22-13.85,3.33-20.81h9.74c-.64,4.07-1.28,8.12-1.95,12.37Z"/>
      <path class="cls-1" d="M43.62,14.9c-.07.54-.12,1-.19,1.56,1.36,0,2.64.06,3.91-.03.46-.03,1.1-.28,1.31-.63.55-.92,1.33-.91,2.21-.9,2.75.02,5.51,0,8.4,0-1.28,3.67-3.33,6.57-6.59,8.54-3.27,1.97-6.95,1.6-10.63,1.66-.57,3.57-1.14,7.07-1.71,10.65h-9.72c.19-1.32.36-2.63.57-3.94.83-5.26,1.67-10.52,2.52-15.78.08-.5.02-1.14.84-1.14,3.03,0,6.06,0,9.1,0Z"/>
      <path class="cls-1" d="M168.08,12.99c-3.39,0-6.58.01-9.77-.02-.26,0-.65-.26-.74-.49-1.04-2.49-2.9-3.63-5.59-3.49-.74.04-1.48,0-2.36,0-.25,1.32-.49,2.63-.74,3.96h-9.69c.39-2.46.77-4.88,1.15-7.3.21-1.3.46-2.59.61-3.9.11-.96.43-1.42,1.52-1.4,4.48.08,8.96.03,13.43.1,6.08.1,11.08,4.58,11.9,10.56.08.61.17,1.22.28,1.98Z"/>
      <path class="cls-1" d="M286.68,8.89h-9.17c-.2,1.21-.34,2.27-.58,3.31-.07.29-.4.74-.62.75-3.03.05-6.06.03-9.21.03.19-1.35.37-2.6.57-3.97h-9.2c.29-1.92.56-3.7.84-5.48.11-.72.34-1.45.35-2.17.01-.81.4-.97,1.09-.97,8.8.01,17.6,0,26.4.02.23,0,.46.04.85.08-.43,2.75-.86,5.44-1.32,8.41Z"/>
      <path class="cls-1" d="M60.03,12.94h-9.99c-.05-.09-.12-.16-.12-.22.41-3.09-.16-3.74-3.25-3.73-.66,0-1.31,0-2.06,0-.24,1.37-.46,2.65-.69,3.95h-9.72c.62-3.92,1.2-7.8,1.87-11.67.06-.34.63-.84.96-.85,5.02-.03,10.04-.13,15.05.07,3.51.14,6.6,3.21,7.44,7.14.36,1.67.33,3.43.48,5.3Z"/>
      <path class="cls-1" d="M257.43.45c-.44,2.8-.87,5.5-1.33,8.42h-13.6c-.24,1.45-.46,2.69-.68,4.03h-9.75c.66-4.15,1.32-8.27,1.99-12.45h23.37Z"/>
      <path class="cls-1" d="M73.05,12.93h-9.72c.44-2.78.86-5.48,1.29-8.19.15-.96.36-1.91.42-2.87.08-1.15.58-1.57,1.76-1.52,2.02.09,4.05.04,6.07.04,4.79,0,9.58-.01,14.36-.01.42,0,.85.04,1.43.08-.44,2.79-.87,5.51-1.34,8.45h-13.61c-.24,1.45-.45,2.7-.67,4.02Z"/>
      <path class="cls-1" d="M116.73.46c-.45,2.81-.88,5.52-1.34,8.44h-13.6c-.24,1.46-.45,2.71-.67,4.02h-9.73c.35-2.22.68-4.39,1.03-6.56.25-1.56.63-3.12.77-4.69.1-1.13.68-1.29,1.6-1.29,3.66.02,7.32,0,10.98,0,3.12,0,6.23,0,9.35,0,.5,0,.99.04,1.61.07Z"/>
      <path class="cls-1" d="M4.46,12.95C5.31,6.88,8.41,2.7,14.18.8,18.6-.66,22.94.03,27.1,1.93c1.26.57,2.46,1.28,3.75,1.97-1.61,2.56-3.13,5.03-4.72,7.44-.48.73-1.26.54-1.97.22-1.89-.87-3.77-1.76-5.67-2.6-.3-.14-.68-.14-1.02-.15-1.35-.03-2.27.5-2.49,1.46-.28,1.25.53,1.84,1.49,2.31.16.08.32.17.68.37H4.46Z"/>
      <path class="cls-1" d="M371.25,3.92c-1.63,2.58-3.16,5-4.68,7.43-.51.82-.96.92-1.86.28-2.02-1.43-4.2-2.67-6.76-2.82-1.48-.09-2.27.45-2.55,1.51-.33,1.3.59,1.79,1.51,2.27.13.07.25.16.52.34h-12.42c.02-2.31.91-4.28,2.07-6.16,3.74-6.09,10.65-8.01,17.32-5.97,1.44.44,2.82,1.07,4.2,1.69.88.39,1.69.92,2.65,1.45Z"/>
      <path class="cls-1" d="M273.19,35.79h-9.77c1.11-6.96,2.21-13.86,3.32-20.83h9.76c-1.11,6.97-2.21,13.89-3.32,20.83Z"/>
      <path class="cls-1" d="M208.08,12.93h-15.66c.62-3.95,1.22-7.84,1.87-11.72.05-.31.53-.78.81-.78,3.03-.06,6.07-.05,9.1,0,.32,0,.85.32.92.59,1,3.8,1.94,7.62,2.9,11.44.04.14.03.29.05.48Z"/>
      <path class="cls-1" d="M226.39,12.94h-15.72c1.07-1.87,2.09-3.68,3.13-5.48,1.19-2.08,2.38-4.16,3.61-6.22.2-.33.57-.78.87-.79,3.34-.06,6.67-.04,10.11-.04-.68,4.24-1.33,8.32-2,12.53Z"/>
      <path class="cls-1" d="M307.74,12.93h-16.49c.89-1.82,1.76-3.61,2.64-5.39,1.03-2.07,2.03-4.16,3.14-6.18.24-.44.89-.9,1.37-.92,2.09-.1,4.2-.03,6.3-.04.57,0,.91.13,1.02.8.64,3.88,1.33,7.76,2.02,11.73Z"/>
      <path class="cls-1" d="M318.03,12.99c.29-1.86.54-3.6.83-5.34.36-2.17.75-4.34,1.1-6.51.09-.54.17-.95.89-.95,2.95.03,5.9.01,9.03.01-.21,1.47-.39,2.87-.62,4.25-.43,2.51-.93,5-1.31,7.52-.12.78-.37,1.04-1.15,1.03-2.87-.04-5.74-.01-8.76-.01Z"/>
      <path class="cls-1" d="M132.72,14.93c-.24,1.51-.51,2.91-.66,4.33-.08.75-.36.98-1.09.98-3.69-.02-7.38,0-11.07.01-.96,0-1.93,0-3.09,0,.27-1.67.48-3.26.84-4.81.06-.25.79-.47,1.22-.48,3.88-.04,7.77-.03,11.65-.03.7,0,1.39,0,2.2,0Z"/>
      <path class="cls-1" d="M185.95,14.94c-.29,1.79-.56,3.5-.85,5.26h-15.05c.28-1.77.56-3.49.84-5.26h15.05Z"/>
      <path class="cls-1" d="M44.59,47.04v9.94c-.38.02-.74.03-1.25.06v-7.03c-.09-.03-.18-.05-.27-.08-.9,1.63-1.78,3.26-2.71,4.87-.19.33-.59.78-.85.76-.34-.03-.75-.42-.95-.76-.97-1.61-1.89-3.25-3.07-4.85v7.04h-1.28v-9.94c.84-.29,1.41-.11,1.87.74,1.03,1.93,2.14,3.83,3.34,5.97.79-1.39,1.49-2.6,2.17-3.82.4-.71.85-1.39,1.17-2.13.37-.86.95-1.04,1.83-.76Z"/>
      <path class="cls-1" d="M52.03,46.92c2.5.1,4.91-.55,7.02,1.06,1.71,1.31,2.09,3.5,1.52,5.69-.57,2.14-2.24,3.33-4.34,3.36-1.39.02-2.78,0-4.19,0v-10.12ZM53.54,55.85c2.07.09,4.16.41,5.29-1.69.85-1.58.8-3.33-.33-4.81-1.3-1.7-3.19-1.13-4.96-1.16v7.66Z"/>
      <path class="cls-1" d="M164.73,49.95v7.05h-1.26v-10.25c.58.31,1.13.44,1.41.78,1.54,1.88,3.01,3.82,4.51,5.74.22.28.48.54.97.7v-6.95h1.15v10.29c-.63-.39-1.21-.58-1.52-.97-1.7-2.12-3.34-4.29-5.01-6.44-.08.02-.17.04-.25.06Z"/>
      <path class="cls-1" d="M327.12,57.24c-.48-.35-1.08-.61-1.43-1.05-1.68-2.1-3.29-4.26-5.18-6.34v7.14h-1.14v-10.33c.64.43,1.2.64,1.53,1.05,1.41,1.74,2.76,3.54,4.13,5.31.27.35.57.69,1.09,1.3v-7.28c.49-.03.85-.05,1.27-.08v9.96l-.27.33Z"/>
      <path class="cls-1" d="M354.92,56.95c-1.11.22-1.78.07-2.28-.81-.51-.9-1.15-1.75-1.85-2.51-.4-.44-1.04-.66-1.84-1.14v4.48c-.49.03-.9.05-1.43.08v-9.95c1.49,0,2.96-.14,4.4.05,1.05.13,1.94.81,2.14,2.01.23,1.35-.31,2.5-1.44,3.14-.23.13-.46.26-.74.42,1.01,1.4,1.98,2.77,3.03,4.23ZM349,51.74c1.26-.18,2.65.49,3.34-.91.26-.53.31-1.47,0-1.9-.81-1.15-2.12-.73-3.35-.73v3.54Z"/>
      <path class="cls-1" d="M256.82,52.71c1.03,1.44,2.01,2.81,3.01,4.2-1.17.39-1.82-.06-2.37-.89-.52-.81-1.17-1.54-1.68-2.35-.46-.73-1.05-.96-1.97-.73v4.05h-1.31v-9.94c1.35,0,2.66-.06,3.97.02,1.26.08,2.27.95,2.47,1.96.29,1.46-.17,2.56-1.37,3.29-.2.12-.41.22-.75.4ZM253.89,51.68c1.26-.05,2.64.5,3.4-.87.27-.49.24-1.45-.07-1.9-.82-1.17-2.13-.7-3.33-.7v3.47Z"/>
      <path class="cls-1" d="M26.46,56.93q-1.51.2-2.48-2.43h-4.38c-.88.77-.31,2.97-2.63,2.45,1.3-3.22,2.56-6.4,3.89-9.55.11-.26.68-.4,1.05-.44.22-.02.61.22.7.43,1.3,3.16,2.57,6.34,3.85,9.53ZM21.87,49.13c-.1,0-.19-.01-.29-.02-.52,1.35-1.03,2.71-1.58,4.14h3.44c-.55-1.44-1.06-2.78-1.58-4.12Z"/>
      <path class="cls-1" d="M128.84,46.99h1.37c0,2.45.2,4.89-.06,7.27-.21,1.98-2.02,3.07-4.08,2.97-1.96-.1-3.62-1.49-3.74-3.44-.14-2.23-.03-4.48-.03-6.8.45-.02.82-.04,1.35-.07,0,.99-.02,1.9,0,2.82.05,1.38.05,2.78.22,4.15.16,1.3,1.38,2.1,2.71,1.99,1.27-.11,2.22-1.05,2.25-2.37.04-2.13.01-4.26.01-6.52Z"/>
      <path class="cls-1" d="M205.37,56.99v-10.05c1.98,0,3.88-.03,5.77.04.22,0,.43.56.64.86-.07.1-.15.2-.22.29h-4.66v3.25h3.65c.32.8.25,1.21-.64,1.19-.97-.02-1.94,0-2.99,0v3.29h4.67v1.13h-6.22Z"/>
      <path class="cls-1" d="M312.3,48.11v3.29h3.65c.39.85.17,1.2-.71,1.17-.93-.03-1.86,0-2.89,0v3.26h4.66c.02.44.04.76.05,1.14h-6.28v-10.04c1.97,0,3.86-.03,5.75.04.24,0,.45.54.68.84-.07.1-.14.2-.21.3h-4.69Z"/>
      <path class="cls-1" d="M344.02,51.44c.26.8.08,1.16-.7,1.14-.96-.03-1.93,0-2.96,0v3.28h4.66c.04.4.06.72.1,1.11h-6.3v-9.98h6.15c.05.32.1.64.18,1.12h-4.79v3.34h3.65Z"/>
      <path class="cls-1" d="M96.54,52.56v3.29h4.54c.05.39.09.71.15,1.12h-6.21v-9.99h6.11c.02.35.04.68.07,1.15h-4.64v3.31h3.65v1.12h-3.66Z"/>
      <path class="cls-1" d="M291.37,51.42c.23.85.05,1.2-.73,1.16-.93-.04-1.85-.01-2.87-.01v3.29h4.56v1.13h-6.12v-9.99h6.12c.02.32.05.64.09,1.11h-4.65v3.31h3.6Z"/>
      <path class="cls-1" d="M78.11,52.57v3.32c1.29,0,2.59.03,3.89-.01.79-.03,1.09.24.82,1.09h-6.07v-10h6.11c.02.37.04.7.07,1.14h-4.79v3.29h3.68c.3.78.2,1.19-.66,1.18-.97-.02-1.94,0-3.05,0Z"/>
      <path class="cls-1" d="M215.36,51.46h3.69c.33.89,0,1.15-.77,1.12-.96-.03-1.93,0-2.96,0v3.31h4.74c.02.4.03.7.05,1.08h-6.16v-9.99h6.09v1.14h-4.69v3.35Z"/>
      <path class="cls-1" d="M250.03,55.86v1.12h-6.15v-9.97h6.13v1.12h-4.75v3.31h3.76c.31.92-.05,1.16-.8,1.14-.96-.03-1.93,0-2.96,0v3.29h4.78Z"/>
      <path class="cls-1" d="M175.83,51.48h3.75c.26.79.03,1.13-.77,1.1-.96-.03-1.93,0-2.97,0v3.32c1.29,0,2.56.03,3.83-.01.74-.02,1.15.16.87,1.07h-6.07v-9.98h6.03c.27.78.16,1.2-.78,1.17-1.27-.04-2.55-.01-3.89-.01v3.34Z"/>
      <path class="cls-1" d="M88.71,54.93c.96-2.37,1.92-4.64,2.78-6.94.34-.9.8-1.27,1.91-.91-.61,1.54-1.21,3.06-1.82,4.57-.65,1.61-1.28,3.22-1.98,4.8-.12.27-.53.53-.82.55-.3.02-.81-.17-.91-.41-1.34-3.14-2.62-6.31-3.93-9.49,1.06-.39,1.56-.02,1.9.86.8,2.08,1.66,4.14,2.5,6.21.1.24.23.47.38.77Z"/>
      <path class="cls-1" d="M260.52,47.1c.99-.35,1.54-.16,1.89.79.86,2.27,1.8,4.51,2.84,7.07.41-.98.72-1.73,1.03-2.49.61-1.5,1.29-2.98,1.81-4.52.33-.96.86-1.19,1.88-.88-.98,2.45-1.94,4.87-2.92,7.29-.27.68-.53,1.37-.87,2.01-.15.28-.5.62-.77.63-.34.01-.89-.2-1.01-.46-1.33-3.12-2.59-6.26-3.89-9.44Z"/>
      <path class="cls-1" d="M308.61,55.62c-1.23,2.07-5.84,2.49-7.73-.64-1.21-2-.9-5,.64-6.6,1.52-1.59,4.03-2.02,5.99-.96.39.21.94.82.86,1.06-.3.92-.91.29-1.38.07-1.64-.78-3.56-.42-4.53.88-1.09,1.46-1.02,4.14.15,5.39,1.2,1.29,3.07,1.53,4.64.48.68-.45,1.03-.3,1.35.32Z"/>
      <path class="cls-1" d="M284.07,55.63c-1.2,2.03-5.53,2.37-7.45-.26-1.45-1.99-1.34-5.08.26-6.89,1.52-1.72,4.22-2.16,6.28-.96.32.19.71.8.62,1.05-.27.75-.79.25-1.22.04-2-1-4.3-.37-5.06,1.5-.72,1.78-.58,4.63,1.78,5.56,1.19.47,2.35.35,3.44-.35.69-.44.69-.43,1.34.3Z"/>
      <path class="cls-1" d="M241.55,47.83c-.2.96-.55,1.2-1.38.64-.38-.26-.95-.29-1.44-.32-.86-.05-1.68.31-1.66,1.2.01.52.62,1.14,1.11,1.51.47.36,1.15.42,1.71.67,1.52.68,2.19,1.68,1.96,2.9-.28,1.52-1.47,2.78-2.99,2.75-1.03-.02-2.06-.47-3.06-.84-.2-.07-.21-.65-.31-.99.33-.02.67-.11.97-.04.78.17,1.55.61,2.3.55.54-.04,1.23-.62,1.48-1.13.38-.8-.06-1.5-.92-1.84-.68-.27-1.38-.5-2.06-.77-1.13-.45-1.72-1.27-1.65-2.52.06-1.15.8-2.15,1.92-2.53,1.45-.49,2.75-.17,4,.76Z"/>
      <path class="cls-1" d="M188.18,55.88c.31-.92.69-.94,1.48-.5.69.38,1.63.55,2.4.43.47-.07,1.11-.82,1.17-1.32.06-.48-.42-1.18-.86-1.52-.49-.38-1.22-.45-1.84-.67-1.29-.46-2.07-1.48-2.02-2.65.06-1.38.86-2.46,2.31-2.66.91-.12,1.91.09,2.83.32.84.21.97.8.38,1.45-.85-.21-1.69-.5-2.54-.61-.79-.11-1.33.34-1.5,1.14-.17.77.2,1.25.92,1.52.54.2,1.07.44,1.61.63,1.76.63,2.24,1.28,2.16,2.93-.07,1.41-.87,2.36-2.41,2.74-1.59.38-2.96-.06-4.1-1.23Z"/>
      <path class="cls-1" d="M114.19,47.07h6.11v1.08h-4.56v3.31h3.84v1.32h-3.9v4.17h-1.48v-9.89Z"/>
      <path class="cls-1" d="M333.89,48.17v8.81c-.46.02-.86.04-1.41.06v-8.85h-3.26v-1.32c2.49,0,4.92-.02,7.36.03.21,0,.56.4.57.62,0,.21-.35.59-.57.61-.85.07-1.7.03-2.68.03Z"/>
      <path class="cls-1" d="M200.35,57.01h-1.37v-8.82h-3.26v-1.22h7.79v1.18h-3.15v8.86Z"/>
      <path class="cls-1" d="M141.98,55.87h4.26v1.11h-5.72c0-1.47,0-2.93,0-4.39,0-1.51.06-3.03,0-4.54-.05-1.06.37-1.31,1.47-.97v8.8Z"/>
      <path class="cls-1" d="M222.4,56.97v-9.98h1.37v8.83h4.27c.04.44.07.76.1,1.16h-5.74Z"/>
      <path class="cls-1" d="M70.5,47.08v8.75h4.23c.02.44.04.76.06,1.15h-5.79c0-1.55,0-3.09,0-4.62,0-1.43,0-2.87.01-4.3,0-1.18.02-1.18,1.49-.97Z"/>
      <path class="cls-1" d="M186.48,11.78c-.12.51-.19.81-.28,1.16h-14.98c.07-.37.13-.72.21-1.16h15.04Z"/>
      <path class="cls-1" d="M118.11,12.98c-.21-.92.14-1.24.95-1.24,3.18,0,6.37-.02,9.55-.03,1.5,0,3,0,4.56,0,0,.83-.04,1.29-.9,1.28-4.7-.03-9.39-.01-14.16-.01Z"/>
      <path class="cls-1" d="M134.38,55.9h4.38v1.06h-5.69v-9.94h1.31v8.88Z"/>
      <path class="cls-1" d="M109.25,56.99h-5.64v-9.97h1.31v8.83h4.33v1.14Z"/>
      <path class="cls-1" d="M152.6,55.89h4.35c.03.38.05.7.07,1.09h-5.72v-9.95h1.3v8.86Z"/>
      <path class="cls-1" d="M47.63,46.93c.55.03.92.04,1.36.06v9.98h-1.36v-10.04Z"/>
      <path class="cls-1" d="M160.25,57.05c-.43-.02-.81-.04-1.24-.05v-9.98c.4-.03.77-.05,1.24-.09v10.12Z"/>
      <path class="cls-1" d="M273.17,56.98h-1.28v-9.97h1.28v9.97Z"/>
    </g>
  </g>
</svg>