<?xml version="1.0" encoding="UTF-8"?>
<svg id="Layer_2" xmlns="http://www.w3.org/2000/svg" viewBox="0 0 304.66 304.63">
  <defs>
    <style>
      .cls-1 {
        fill: #fff;
      }
    </style>
  </defs>
  <g id="Layer_1-2" data-name="Layer_1">
    <g>
      <path class="cls-1" d="M225.26,211.01s.71-2.26.66-4.2c-.45-18.59-.95-118.37-1.09-124.91-3.45-.67-30.03-.22-36.76-.22-35.33,0-73.3-.53-108.24.07-.61,2.98-.37,47.88-.39,57.22l-.85,68.37c-.35,5.29,2.74,8.45,3.88,8.99l20.18,9.68,40.76,19.45c1.8.05,6.85,3.84,8.66,3.9l19.23-9.5,48.91-23.87,5.05-4.99ZM133.85,189.31c.08.66-.01,3.19-2.44,2.31,1.77,1.43.9,3-.57,4.24-1.83-.47-1.08-.54-2.62-1.36l1.86,1.5c.16,2.89-1.27,4.83-4.01,5.15l-1.13-2.69c.32,2.19,1.48,2.77-.14,4.17-1.1-.35-.89.04-1.44-1.59-.22-.66-.33-1.47-.81-2.14l1.06,4.69c-1.54-.01-.91.07-2.05-.33,2.35,2.22,3.04,7.37-2.07,5.21-.31,1.83.01,1.5-1.13,2.4-1.76-.4-2.02-1.24-2.77-2.93-2.77,3.94-3.8.96-2.17-2.18-1.14.86-1.16,1.08-2.72,1.5-1.2-3.88,2.29-3.54,2.8-6.32l-.96,1.21c-1.09-.62-.1.17-1.02-.91-.08-.09-.37-.41-.42-.61-.04-.18-.13-.22-.2-.33-.47,1.8.12.99-1.22,1.84l-2.58-1.34.77-6.64c-1.21,2.23-.78,3.36-1.5,5.45-.14.02-.2.06-.21.1.17.16-.03.09,0,0-.05-.05-.12-.11-.26-.21-2.64-1.92-1.35-5.23-1.21-6.01-.07.1-.14.25-.19.33l-.37.61c-.81,1.06-.31.66-1.27.9-1.15-1.76-1.31-2.28-.53-4.31-.08-.04-.12-.07-.16-.1-.06.07-.18.15-.41.27-.72.35.3.2-.7.35-1.02-1.7-1.15-5.02-.89-6.85l3-1.33c-2.24-.22-1.76.92-3.92,1.04.45-2.41,1.58-3.21,3.4-4.8,2.19-1.9,3.67-2.23,4.2,1.4.58,4.01,2.09,5.92,4.98,7.96l2.66,1.6c1.02-.82,1.43-.93,1.88-2.54l-2.62.07c-.08-2.81-.05-1.43,1.04-2.35,1.16-.97.36-.79,1.55-1.85,1.68-.7,4.23,1.21,4.75,1.41l-.9,4.85,2.05.94c3.74-1.8,4.83-6.49,5.97-10,1.84-5.65,6.07-2.87,6.26,1.32-1.43.79-1.65.47-2.22.62l2.51.6c.3,1.91.41,2.51-.26,4.11l-2.16-.38c-.45-.24-1.06-.63-1.27-.85.58,1.74,2.51.54,2.77,2.79ZM123.99,176.78c.62.62.37.32.81.92-1.18,1.22-3.1,2.03-4.59,2.78-2.32,1.18-1.88,1.08-4.51-.12-2.44-1.12-7.44-2.86-8.49-5.24v-13.86s16.78,15.52,16.78,15.52ZM110.81,156.52l17.88.03v16.95c-2.14-.92-6.98-6.21-9.03-8.3-1.74-1.77-7.65-6.64-8.85-8.68ZM118.17,152.1l.09-31.82h32.14s-.09,32.11-.09,32.11l-32.13-.29ZM116.63,86.89l.45.21-.03,32.09-32.06-.18-.05-32.05,31.69-.06ZM184.89,228.47c-1.59.02-17.33,8.02-20.13,9.4-3.37,1.66-6.56,3.27-9.93,5.12-3.57,1.96-2.54,2.06-10.28-2.01-6.53-3.43-13.52-6.64-20.35-9.76-9.41-4.3-21.93-10.63-30.8-14.38-4.08-1.73-6.8-2.79-8.05-6.96-.95-3.17-.39-64.08-.39-74.78,0-3.36-.4-12.05.17-14.74l31.78-.09c.42,4.91.28,26.12.1,31.97l-30.48-.2c0,4.43-.32,55.06.18,56.79,1.07,3.75,7.35,5.63,11.44,7.6,8.89,4.31,17.47,7.73,26.01,11.79,4.41,2.09,8.68,4.08,12.92,6l13.12,6v-55.22c5.92-.51,27.23-.17,35-.14-.81,3.74-.12,36.31-.31,43.61ZM150.36,183.85c0-5.49-.66-28.15.35-31.66l34.24.13c0,5.05-.38,28.54.26,31.56l-34.85-.03ZM164.52,130.34c0-.43-.03-1.32,0-1.71,0-.09.02-.16.02-.23-.1.31.13-1.31,0,0,.02-.06.05-.19.11-.45l.25-.53c2.01-1.54,1.93-.21,3.02,1.08,5.7.05,1.93-.16,4.06-1.76,1.1-.83,1.61.12,2.49-1.54l-.02-3.77c.77-.17,1.14-.37,2.02-.22,1.68.26.56.2,1.41.85,2.87,2.18,4.31-.83,5.03-1.03,4.3.42.59.47,3.44,1.73l2.58-.05c1.63-2.02.64-1.57,3.92-1.53v4.83c3.27.87,2.06.24,3.69,2.6h3.12s.76-2.15.76-2.15l3,.02.03,15.62c2.83.55,3-.31,2.74,2.47-.29.07-41.64,1.23-44.5,0l.15-1.89,2.68-.7v-11.62ZM173.55,96.39c.6-.8,1.23-1.69,2.04-2.63,3.74.56,5.15,4.39,6.1-2.93l3.93.12c-1.01,7.34,4.53,2.71,5.25,2.22.87,1.05,1.71,1.31,2.37,2.77-.9,1.13-1.24,1.23-1.86,2.6l.99,2.26,3.33.48v3.57c-3.34.36-3.19-.32-4.07,2.28.38,1.14,1.28,2.05,1.97,3.53-1.01.7-1.74,1.44-2.51,1.99-1.4-.59-1.14-.98-2.58-1.82-3.17.99-2.01.6-2.68,3.6-.42,1.84-1.95,1.37-3.99,1.07l-.33-3.67-2.47-.83c-.96.71-1.88,1.62-3,2.07l-2.29-2.5c.68-1.71,1.31-1.89,2.04-3.33l-.73-1.67-3.86-.46.24-3.85c3.36-.28,3.42.39,4.39-2.41l-2.29-2.46ZM216.58,152.4c0-4.65.45-59.69-.26-62.8l-65.92.17-.02,29.42-32.21-.16v-31.85c1.62-.5,98.56-.74,101.58-.03v96.72s-33.72-.02-33.72-.02v-31.5s30.55.06,30.55.06ZM219.79,204.38c.02,6.63-2.98,8.93-7.55,11.23l-26.21,12.03.17-42.8,33.6.18c-.09,6.43-.03,12.93,0,19.36Z"/>
      <path class="cls-1" d="M140.82,5.86h0c-11.42,1.02-20.57,2.71-31,5.79-9.77,2.87-17.24,6.52-25.93,10.65-9.91,4.71-29.84,19.35-36.74,27.36-1.36,1.58-3.01,3.56-4.51,4.97-3.44,3.23-13.33,16.93-15.62,20.96-4.45,7.84-8.57,15.2-12.03,24.54-11.39,30.72-12.82,62.54-3.29,94.73,5.3,17.92,13.94,33.47,25.07,48.08,2.57,3.37,9.74,11.75,12.94,14.59,1.63,1.45,3.5,2.95,4.98,4.51l9.95,8.12c3.41,2.53,7.09,5.12,11.01,7.49,25.99,15.68,56.62,23.87,88.48,21.12,23.11-1.99,36.8-6.95,56.7-16.46,8.51-4.07,15.44-9.29,22.16-14.4,3.59-2.73,6.83-5.63,10.01-8.5,1.63-1.48,3.15-2.83,4.58-4.44,1.45-1.63,2.95-3.5,4.51-4.98l8.12-9.95c20.8-27.97,31.71-63.46,28.61-99.48-2.01-23.3-6.95-36.65-16.46-56.7-3.88-8.17-9.51-15.72-14.41-22.16-2.39-3.14-9.96-12-12.93-14.61-5.91-5.18-8.3-7.65-14.95-12.62-27.62-20.65-63.7-31.78-99.25-28.6h0ZM.16,158.76H.16c-1.74-36.28,10.47-73.11,32.36-100.46,1.43-1.79,2.65-3.35,4.28-5.17,14.95-16.68,26.79-26.62,48.47-37.62C102.3,6.87,124.13,1,145.98.13c86.17-3.46,155.31,63.84,158.55,145.81,4.41,111.46-107.11,189.05-210.36,147.17-8.83-3.59-17.72-8.32-24.86-13.02-3.51-2.31-15.63-11.29-18.78-14.36l-7.44-7.19c-11.16-11.72-20.01-24.28-27.55-39.16C6.76,202.06,1.22,180.88.16,158.76H.16Z"/>
      <path class="cls-1" d="M10.51,162.2h0c2.26,26.09,9.33,45.9,22.23,66.26,26.85,42.3,78.02,69.38,129.33,64.7,36.52-3.32,66.34-17.34,90.81-42.06,13.37-13.51,24.04-29.88,31.23-48.38,14.56-37.42,12.19-80.83-6.51-116.29C241.24,17.53,157.66-10.11,86.36,26.08c-16.4,8.33-27.51,18.16-39.71,30.85-6.22,6.47-10.59,13.05-15.36,20.37-14.9,22.84-23.28,56.04-20.78,84.9h0ZM145.55,8.44h0c35.07-2.38,68.22,10.15,94.88,30.39l9.5,8.15c3.78,3.33,9.96,10.07,13.09,14.02,19.1,24.09,30.62,50.98,32.21,83.98,1.74,36.11-11.03,74.15-34.65,100.48l-4.11,4.5c-23.2,26.2-60.65,43.51-98.09,45.22C53.63,299.97-20.23,195.09,18.99,97.26c3.36-8.36,7.94-16.97,12.48-23.66,1.24-1.84,2.39-3.71,3.67-5.39,4.74-6.19,6.55-8.84,11.96-14.72,1.5-1.63,3.14-2.79,4.6-4.44l9.47-8.6c25.59-19.83,49.93-29.67,84.39-32.01h0Z"/>
      <path class="cls-1" d="M193.32,157.29h0c4.85-.28,2.31,3.26,4.22,3.65l2.16-.1c.22-2.13,0-3.69,2.59-3.83,2.77-.16,2.73,1.37,3,3.76l3.01.12c.31-2.32,1-5.42,4.01-3.18,1.6,1.19,1.14,4.64,1.13,6.65-.01,5.95.87,8.68-2.34,13.11-1.95,2.68-8.06,4.54-11.35,1.46-2.34-2.19-2.56-10.19,4.47-7.52.37,2.72.18,2.82-1.8,4.51,3.76-1.1,5.21-5.78,1.35-7.42-3.28-1.38-7.28-1.78-10.97-2.05-.18-.37-.31-.33-.41-1.2-.28-2.37-.05-6.12.94-7.96h0Z"/>
      <path class="cls-1" d="M100.91,137.29l.05,9.34c2.73.16,4.98-1.07,6.47-2.7,1.92-2.11,2.88-2.89,3.44-6.87l-9.96.22h0ZM90.61,136.58h0l9.54-.02.35-9.96c-1.48.11-2.79.31-4.02.87-.8.37-2.66,1.76-3,2.1-1.53,1.59-2.47,3.97-2.87,7h0ZM98.31,124.82c7.44-1.32,13.17,3.54,14.23,9.67,2.86,16.4-21.3,19.54-23.69,4.24-1.11-7.14,3.67-12.87,9.46-13.9h0Z"/>
      <path class="cls-1" d="M123.67,100.34h0l7.73-.05c.98-1.12,1.95-4.28,2.56-5.89.03-.09.37-.93.37-.93,1.12-1.9-.01-.26,1.05-1.25.28,1.14,2.35,7.84,3.63,8.18h7.31c-.47,1.62-1.42,1.63-3.02,2.87-.83.64-2.53,1.81-3.11,2.56l2.45,8.12c-2.61-.85-5.13-3.06-7.52-4.51-1.41.51-4.43,2.98-7.69,4.54l2.18-8.14c-1.67-1.63-4.92-3.35-5.95-5.5h0Z"/>
      <path class="cls-1" d="M129.06,138.74h8.45s-4.07-10.59-4.07-10.59c-.71.78.2-.73-.75,1.06l-1.59,3.99c-.66,1.65-1.65,3.8-2.03,5.54h0ZM122.09,147.18c.55-2.18,8.91-21.5,9.79-22.63h3.04c1.33,1.93,8.87,19.74,9.65,22.58l-3.5-.03-2.48-5.61-10.8-.02-2.14,5.65-3.54.07h0Z"/>
      <polygon class="cls-1" points="197.34 189.32 210.02 189.32 210 192.33 200.65 192.43 200.62 198.7 209.17 198.79 209.04 201.67 200.64 201.82 200.72 208.98 210.02 209.03 209.9 212.02 197.43 212.02 197.32 191.46 197.34 189.32"/>
      <path class="cls-1" d="M172.56,157.08h0l-.31,3.1c-1.89-.42-3.4-1.12-5.47-.75-1.84.33-3.36,1.7-2.54,3.78.83,2.1,6.45,3.74,7.92,5.43,2.32,2.66,4.15,13.5-11.34,10.32l.2-3.02c3.77.41,6.97,2.26,8.98-1.68.81-6.47-8.4-4.34-9.41-10.4-.54-3.21,1.06-5.58,3.13-6.61,2.87-1.42,5.89-.65,8.83-.16h0Z"/>
      <path class="cls-1" d="M109.35,113.95h0c-9.47,2.19-17.36-1.7-17.05-11.56.3-9.14,7.92-12.51,17.02-10.29l-.23,3.17c-3.52-.68-5.07-2.09-9.06.01-5.34,2.83-5.92,11.84-.13,15.24,3.63,2.13,5.53.9,9.33.37l.12,3.07h0Z"/>
      <path class="cls-1" d="M166.81,193h0c-.12-1.88-.33-2.35.58-3.62,1.8.48,1.42,1.31,1.31,3.37,4.1,3.57,1.42,2.4,2.33,5.87.55,2.08,7.75,14.63,7.5,17.24-1.47-.52-1.91-1.59-2.91-3.39-1.84-3.32-4.36-10.15-6.48-12.84l-2.62-.05-5.77,12.7c-1.56,3.54-1.19,3.1-2.81,3.32,1.19-5.82,6.83-15.56,6.68-17.57-.27-3.63-.74-3.59,2.2-5.03h0Z"/>
      <path class="cls-1" d="M179.78,142.96h0v-7.86s.05-1.89.05-1.89c1.26-.85,2.21-2.15,4.64-1.48,3.5.97,2.61,5.86,2.52,11.22h-7.21Z"/>
      <path class="cls-1" d="M181.97,98.67h0c2.92-1.04,5.46.54,6.22,2.9.68,2.12.24,5.22-3.06,6.1-6.54,1.75-8.54-7.09-3.17-9h0Z"/>
      <path class="cls-1" d="M193.97,142.95h0c0-1.61.01-3.23,0-4.86-.05-6.34,3.63-4.97,7.23-3.27l.03,8.13h-7.26Z"/>
      <path class="cls-1" d="M166.79,134.9h0c1.24-.57,1.77-1.53,3.64-1.41,1.18.07,2.46.98,3.36,1.33l.03,8.26h-7.25s.22-8.18.22-8.18h0Z"/>
      <path class="cls-1" d="M116.72,198.29h0c-.09-.94.24-1.65,1.17-1.54.76.09.7.35.85.77.55,1.58-.09.78-.18,1.01-.12.04-.24.88-1.83-.24h0Z"/>
      <path class="cls-1" d="M119.61,197.03c.77-.76,2.21-.31,1.46,1.44-1.79.77-2.36-.56-1.46-1.44Z"/>
      <path class="cls-1" d="M116.71,202.22c.62-1.52.26-.85,1.21-1.19,1.7,1.41.33,2.83-1.21,1.19Z"/>
      <path class="cls-1" d="M155.81,270.98h0l.61,11.14,2.68.09c-.18-3.08-.18-9.08-.77-10.63l-2.53-.6h0ZM179.18,267.73h0l-1.27.92c-1.65-1.56-6.72-.09-4.91,6.76,1.14,4.28,4.49,6.01,7.62,2.24l.16,3.21c-2.24,1.39-1.71,1.29-4.98.89l.34,2.51c11.75,1.4,6.3-10.35,5.03-17.03-.59.09-1.14.12-1.68.36-.1.05-.2.09-.3.15h0ZM151.49,272.02h0c-.09-.07-.2-.31-.25-.21l-.81-.53c-.81-.3-1.08-.18-1.96-.18,0,2.79-.29,9.52.43,11.31l2.24.07c.03-3.05-.32-5.84.81-8.34l2.44-.48-.07-2.77c-1.85-.12-1.97.03-2.83,1.13h0ZM142.94,281.07h0c.88,1.63-.11,1.19,2.63,1.33.02-2.29.65-7.63.16-9.46-.69-2.58-4.28-3.13-7.05-1.87l-.38,2.36c2.81-.8,4.58-1.8,5.23,1.7-3.63-.14-6.66-.24-6.68,3.69-.01,3.65,3.62,4.28,6.08,2.24h0ZM163.91,271.51h0c-1.21-1.53-.54-1.01-2.96-.86l1.74,11.32,2.11-.24c.18-5.11-2.65-9.47,2.32-9.39.99,2.03.96,3.95,1.27,6.36,0,.05.15,1.04.16,1.07l.41,1.05c.04.09.12.23.19.34l2.2-.22c-.16-1.99-.63-7.17-1.17-8.74-1.1-3.24-4.98-3.26-6.26-.7h0ZM107.93,273.99c6.36-2.72,3.48-14.53-3.72-10.72-6.18,3.26-3.29,13.73,3.72,10.72ZM158.25,266.02h0l-2.56.13v2.88l2.69-.14-.13-2.87h0ZM134.82,281.39h0l.29-2.59c-4.86.43-7.71-1.45-6.36-6.78,1.17-4.67,4.17-4.21,7.91-2.87l.58-2.39c-10.68-6.81-19.27,14.7-2.41,14.63h0ZM115.74,265.58h0c-2.66-.26-1.69-.79-2.43,1.19.52,1.36-.24.43,1.56,1.18-.43,1.96-2.6,7.58-2.11,8.79l2.12.54,2.6-8.51c1.51.3,1.23.55,2.24.15l.54-1.92-1.95-.52c1.06-5.77,2.62,1.01,3.53-4.46-3.69-1.18-5.39-.49-6.11,3.56h0ZM200.66,260.26h0l-2.34.79,4.4,10.41,2.43-.93-4.49-10.27h0ZM196.23,270.21h0c-.48,2.52-2.13,2.47-4.66,2.47l.57,2.51c3.33.23,7.13-1.48,6.98-4.96-.2-4.54-3.86-4.41-7.79-5.09l-.55-2.85c1.9-.85,2.78-.73,4.01-1.55l-.39-1.75c-3.95-.48-7.61,1.98-6.16,6.32,1.58,4.73,6.31,1.49,8,4.89h0ZM202.87,259.17h0l5.31,9.76,2.3-.92c-.68-3.33-4.64-5.94-2.64-9.35,2.53-.21,2.36.67,3.6,2.81.76,1.31,1.8,3.1,2.35,4.41l2.37-1.1c-1.01-3.21-5.63-12.61-9.58-7.88-.42.51-.47.92-.62,1.1-1.11,1.29-.56-.67-3.09,1.17h0ZM198.53,255.69h0l-2.31,1.02c.93,2.57.47,1.48,1.31,2.48l2.09-.92-1.1-2.59h0ZM85.65,267.16h0c-2.31.12-3.1-1.98-3.46,1.33,3.82,3.63,8.36-2.43,12.02-6.07,1.2-1.19,2.65-2.04,3.58-3.4-.26-.28-.21-.31-.71-.66-.47-.33-.7-.38-1.1-.6-1.45.57-5.02,4.42-5.94,5.42l1.5-7.85-2.32-1.29c-1.86,3.58-.88,10.25-3.57,13.12h0ZM82.95,262.84h0l.75-1.65c-.58-.35-4.62-1.3-1.99-5.27,1.5-2.26,3.5-2.66,5.22-.43l1.57-1.69c-4.71-6.58-12.17,1.29-10,6.32.72,1.66,2.44,2.96,4.46,2.72h0ZM224.67,259.62h0l-1.19-2.33c-.28.22-3.29,4.01-5.69-.02-2.41-4.05.6-4.41,1.62-5.56l-.81-1.69c-4.38.92-5.88,4.66-3.13,8.7,2.91,4.27,5.67,3.56,9.2.9h0ZM232.5,252.57h0l-1.51-1.69c-1.43,2.91-3.6,4.8-5.34,2.12,1.7-1.79,3.95-2.61,4.97-4.42-1.71-1.27-2.82-3.68-5.86-3.21-6.2.97-3.42,10.25,1.63,11.12,3.17.55,5.42-1.71,6.11-3.92h0ZM69.29,249.55h0c-.87,1.05-1.16,2.85-.37,4.25.77,1.36,2.06,1.57,4.12,1.5-.64,1.53-.02,1.33.88,2.41,1.39-.68,1.76-1.84,2.85-3.25.78-1.01,1.92-2.25,2.52-3.52,1.78-3.76-1.71-6.07-4.7-6.36-.82.95-.81,1.04-1.31,1.95,2.39.41,4.39.95,3.61,3.79-1.38-.12-4.92-4.02-7.61-.75h0ZM62.37,247.4h0l1.44.92c-3.25,1.6-4.5,1.41-5.7-2.32-1.19.73-1.4.89-1.97,1.84,1.57,3.78,5.42,5.84,9.22,2.52l7.41-8.11c-.85-1.02-1.3-2.07-2.45-1-1.86-10.33-16.19,2.39-7.94,6.16h0ZM233.68,239.05h0c.2-.33.29-.33.47-1.12.07-.29.12-1.16.16-1.53,1.85,1.71,6.62,7.12,8.51,7.92l1.55-1.57c-.65-1.48-9.11-9.9-10.7-10.94-1.82.89-1.73.92-1.88,3.52-.18,3.08-.77,3.27,1.88,3.72h0ZM56.39,241.31h0l1.86-1.1c-1.42-1.84-1.06-.08-3.53-2.99l.33-2.72c1.73.26.26-.64,2.63,2.17.64.77,2.03,2.06,2.63,2.47,5.58-3.99,2.35-11.88-3.83-8.85-6.13,3.01-5.08,9.3-.09,11.03h0ZM242.78,232.59c-.06,10.06,12.3,3.6,8.48-1.92-1.22-1.77-2.83-2.32-5.64-1.98-.28-4.81-4.26-6.23-7.25-2.85-2.99,3.38-.47,7.33,4.41,6.74h0ZM249.47,224.31h0c.39,5.37,5.39,6.36,8.09,2.63,2.58-3.57.32-7.88-5.37-6.95-.85-1.76-1.04-3.47-3.08-4.06-2.45-.71-4.03.89-4.77,2.12-2.62,4.39.8,6.81,5.13,6.26h0ZM46.31,226.58h0l-1.48,1.46c.99,1.52,3.43,5.01,4.67,6l1.76-1.19c-.97-1.9-1.99-2.45-2.66-4.38,2.83-2.59,7.8-5.28,9.86-7.75l-1.19-1.76c-1.61.28-8.72,5.91-10.97,7.62h0ZM49.63,206.46h0l-15.94,2.79,1.1,2.45,3.87-.46,2.41,4.82-2.32,1.97,1.13,2.94,10.95-11.87-1.21-2.64h0ZM252.27,206h0l-3.88,6.5,6.78,4.24c.64-.7,1.63-2.66,2.51-3.73,7.17-.3,1.76,5.64,1.49,5.99.87.96,1.12,1.02,2.64,1.4,1.32-2.58,4.32-5.56.47-8.91-3.13-2.72-6.45-1.84-7.8,1.48l-2.65-1.31,2.32-4.53-1.88-1.13h0ZM271.92,184.03h0c-1.24-1.1-2.13-2.27-4.49-1.44-1.43.51-2.39,2.28-1.7,4.37.95,2.85,7.14,3.33,6.2-2.93h0ZM29.15,183.07c-.08.05-3.1,1.23-1.13,4.51.75,1.25,3.01,1.89,4.69.85,3.2-1.99.55-8.13-3.56-5.35h0ZM142.04,48.9h0c-14.04,1.67-27.83,5.02-39.71,12.03-6.2,3.67-9.97,5.98-15.49,10.35-44.33,35.06-51.36,101.59-15.58,146.65,1.83,2.3,4.14,4.89,6.07,6.79,2.46,2.43,4.22,4.53,7.49,7.12.1.08.4.32.5.4.07.06.17.14.24.2,4.6,3.74,8.38,6.63,13.62,9.58,7.6,4.29,9.27,5.11,17.48,8.32.89.35,1.26.47,2.2.77.12.03.24.06.35.09l2.2.79c1.9.49,3.03.85,5.04,1.39,28.56,7.56,58.56,1.33,82.72-14.17,10.79-6.91,18.78-15.79,26.52-25.57,4.76-6.02,10.65-18.21,13.37-25.39,12.67-33.5,5.73-73.66-16.24-100.91-4.33-5.37-7.6-8.62-12.8-13.43-19.03-17.62-50.55-28.28-77.97-25h0ZM287.57,144.9l-23.55-.17v4.66s15.28.01,15.28.01l-15.41,6.41.03,6.2,23.54.27-.06-4.74h-14.95l15.05-6.13.06-6.51h0ZM40.02,142.78h0l-5.09.09c4.72,13.33-10.4,12.77-13.16,7.45-1.38-2.66.08-5.27.98-7.37l-5-.45c-6.59,16.34,13.83,21.04,20.96,12.37,2.58-3.14,2.23-7.94,1.31-12.09h0ZM271.9,122.41h0c-5.78,1.19-11.01,4.26-9.97,11.12,1,6.62,6.68,8.76,14.15,7.35,5.84-1.1,11.01-4.26,9.91-11.22-1.04-6.65-6.99-8.7-14.09-7.25h0ZM44.4,120.93h0l-24.57,2.53-1.07,6.01,21.62,11.58,1.1-5.25-4.65-2.25c1.37-8.12.52-6.62,6.47-7.24l1.1-5.38h0ZM280.99,110.54h0l-22.2,6.63c0,.1-.2.05-.11,1.08l1.25,3.77,22.31-6.61-1.25-4.87h0ZM42.74,110.37h0c.87,3.47-1.65,5.9-3,7.51l4.71,2.32c2.75-4.15,6.2-11.4-.12-14.79-9.56-5.12-9.17,5.77-14.63,3.89-1.07-3.21,1.26-5.15,2.27-7.31l-4.38-1.69c-9.01,9.79,2.47,19.43,8.76,13.01,1.86-1.89,3.18-4.17,6.39-2.96h0ZM274.31,93.54h0l-4.36,1.63,1.59,4.17-17.15,7.35,1.76,4.66,17.36-7.06c.6,1.13,1.34,2.88,1.82,4.05l4.35-1.63-5.37-13.18h0ZM267.19,80.81h0l-24,5.68c.72,1.5,1.46,2.76,2.54,4.28l5.3-1.02,3.34,6.11c-1.39,1.19-2.73,2.29-3.52,4.11l2.62,4.09c1.8-.84,10.3-11.29,12.47-13.33,1.64-1.53,2.72-3.12,4.15-4.71l-2.9-5.22h0ZM29.87,94.21h0l20.45,11.2,6.63-12.04-3.93-1.96-3.98,7.18-4.54-2.05,3.48-7.16-3.97-1.92c-1.25,1.97-2.64,4.5-3.63,6.67l-4.16-2.09,3.69-7.23-3.72-2.07c-.85.74-5.81,10.13-6.31,11.45h0ZM238.99,81.73c.82,1.37,1.93,2.51,2.73,3.9,1.55-.63,3.5-2.44,4.85-3.49l13.82-10.68c-.51-1.37-.54-1.19-1.34-2.2l-1.71-1.9-9.39,7.13c-1.84,1.49-8.11,5.94-8.97,7.23h0ZM48.38,65.47h0l9.6,15.51c1.16,1.87,2.01,3.46,3.32,5.29,1.16-1.08,2.34-2.34,3.31-3.68l-2.56-4.59c1.44-1.66,3.18-3.17,4.09-5.02l5.25,2.02c1.69-1.73,2.18-2.58,3.33-4.03l-22.15-10.11c-1.23.92-3.25,3.33-4.18,4.61h0ZM238.42,79.52c1.5-1.25,2.22-2.02,3.04-3.39-2.18-1.51-9.99-5.25-3.07-12.08,4.41-4.35,9.15-4.36,11.81,3.31,1.06-.74,2.97-2.26,3.79-3.28-5.44-15.83-26.08-5.02-23.21,7.23.83,3.57,4.58,7.5,7.65,8.21h0ZM73.61,59.76h0l-8.05-9.6c-.72-.77-.33-.39-1-.85l-3.69,3.16c4.28,5.04,10.44,12.97,14.88,17.72,1.62-.62,5.72-4.41,7.33-5.68,1.02-.81,1.52-1.43,2.5-2.12l-2.94-3.61c-2.41,1.42-3.76,3.42-6.03,4.44-1.04-1.25-2.03-2.41-3-3.46h0ZM224.67,41.17h0c-4.62,1.4-9.34,6.62-10.44,12.05-1.33,6.57,4.66,12.39,11.06,10.64,4.32-1.19,9.3-7.14,10.32-11.98,1.44-6.83-4.79-12.59-10.95-10.72h0ZM161.51,40.42h0l4.9.87,2.16-4.53,6.93,1.1.47,5.18,5.43.89-2.98-24.22c-1.61-.75-4.28-1.04-6.25-1.2-1.65,4.62-10.32,18.78-10.65,21.91h0ZM199.64,44.73h0l-2.54,4.24c2.45,3.59,10.06,7.18,14.07,2.5,6.76-7.89-3.21-11.69-2.3-14.42l1.09-1.31c3.08-.26,5.04,1.88,6.1,3.31.9-.79,2.14-2.96,2.51-4.22-7.38-7.98-15.49-3.18-15.35,3.44.09,4.41,5.04,6.09,4.43,8.85-1.15,5.21-8-2.37-8.01-2.38h0ZM78.33,38.94l-4.03,2.27c.47,2.14,5.55,9.67,7.09,12.06,2.25,3.5,6.07,8.07,12.07,4.45,4.81-2.9,5.65-7.28,2.3-12.8l-7.54-11.93-3.4,1.87c-.89.73-.37.27-.87,1.01,1.88,2.24,3.63,5.75,5.26,8.3,1.23,1.92,5.29,7.36,2.08,9.23-3.92,2.28-7.42-6.07-9.94-9.98l-2.3-3.75c-.36-.44-.38-.41-.72-.73h0ZM146.24,17.08l.57,23.43h5.08s-.56-23.35-.56-23.35l-5.09-.08h0ZM116.31,21.46h0l-7.15,2.38,1.34,15.67c-2.05-2.02-6.59-9.39-8.92-12.44-2.18.12-5.32,1.7-7.51,2.3l8.02,22.18,4.58-1.59-5.59-15.45c3.54,4.05,7.39,10.9,9.98,13.72l4.26-1.4-1.49-16.53c1.14.64,2.47,5.44,3.14,7.21.96,2.58,1.84,5,2.72,7.56l4.66-1.58-8.02-22.04h0ZM184.19,39.12h0c-.6,1.67-1.55,2.87-1.77,4.73,10.55,9.41,19.2-2.41,14.27-8.64-1.81-2.29-5.7-2.57-3.78-6.3,3.35-.89,4.87.98,6.76,2.14.2-.22.31-.23.61-.76.23-.41.35-.77.53-1.25.33-.84.6-1.48.85-2.26-8.92-7.09-16.03-.88-14.8,5.8.72,3.91,5.71,4.81,5.56,7.82-.26,5.32-8.23-1.29-8.24-1.29h0ZM129.77,28.54h0c1.46,1.84,5.67,10.11,7.95,12.85l5.83-.77c.31-2.14-2.71-20.16-3.37-23.34-5.45.73-4.72-.1-3.86,5.14.56,3.42,1.17,6.62,1.53,10.08-1.22-1.04-1.38-1.71-2.28-3.27l-5.98-10.32-6.4.98,3.44,23.15,4.6-.51-2.3-14.74c.44.33.47.28.84.75h0ZM10.51,162.2h0c-2.5-28.87,5.88-62.07,20.78-84.9,4.77-7.32,9.14-13.91,15.36-20.37,12.19-12.69,23.3-22.52,39.71-30.85,71.31-36.2,154.89-8.55,191.25,60.35,18.71,35.46,21.07,78.87,6.51,116.29-7.2,18.5-17.87,34.87-31.23,48.38-24.47,24.72-54.29,38.73-90.81,42.06-51.32,4.68-102.48-22.4-129.33-64.7-12.91-20.35-19.99-40.17-22.25-66.26h0Z"/>
      <path class="cls-1" d="M224.33,58.64c-7.6,3.46-5.58-9.55,1.47-12.4,7.13-2.89,5.54,9.21-1.47,12.4Z"/>
      <path class="cls-1" d="M275.47,135.63c-9.98,2.13-12.8-5.9-2.57-7.98,10.07-2.05,11.49,6.08,2.57,7.98Z"/>
      <path class="cls-1" d="M104.47,271.66c-1.74-1.07-1.26-7.47,3.72-6.28,1.5,3.26-1.01,7.94-3.72,6.28Z"/>
      <path class="cls-1" d="M63.38,245.61c-1.82-1.61.77-6.35,4.79-5.21,1.16,3.59-3.13,6.68-4.79,5.21Z"/>
      <path class="cls-1" d="M179.29,276.53c-2.24,2.28-4.83-2.11-3.29-5.88,4.23-1.33,4.45,4.7,3.29,5.88Z"/>
      <path class="cls-1" d="M255.63,88.61h0c1.88-1.34,5.7-2.07,8.15-2.48-.97,1.5-4.51,4.74-6.18,6.01l-1.97-3.53h0Z"/>
      <path class="cls-1" d="M32.72,131.4h0c-3-.91-5.71-2.58-8.13-3.92l8.8-.35-.67,4.27h0Z"/>
      <path class="cls-1" d="M59.4,73.86c-.91-.67-4.29-5.69-4.69-6.91,1.46.42,2.61,1.19,3.86,1.86,1.37.73,2.43,1.05,3.48,2.17-.81,1.21-1.27,1.97-2.64,2.88h0Z"/>
      <path class="cls-1" d="M174.3,24.62h0l.73,8.45-4.03-.6c-.13-1.54,2.31-6.54,3.29-7.85h0Z"/>
      <path class="cls-1" d="M255.68,225.48c-1.19,1.84-4.56.53-3.72-2.39,2.56-1.38,5.06.3,3.72,2.39Z"/>
      <path class="cls-1" d="M249.13,232.28c.26,4.28-4.3,3.58-3.92-.36,1.82-1.16,2.66-.79,3.92.36Z"/>
      <path class="cls-1" d="M42.95,213.65h0l-1.73-2.75c1.38-.86,3.92-1.28,5.67-1.39-.78,1.12-2.84,3.36-3.94,4.13h0Z"/>
      <path class="cls-1" d="M249.73,221.22h0c-.66.54-1.52,1.27-2.78.45-.59-.39-1.1-1.38-.54-2.39.93-1.63,3.96-.68,3.31,1.94h0Z"/>
      <path class="cls-1" d="M239.83,228.47c1.21-3.22,4.68-1.32,3.33,1.57h-2.47c-.49-.69-.49-.57-.87-1.57h0Z"/>
      <path class="cls-1" d="M75.23,252.14c-1.78,2.47-5.08,1.9-3.73-1.21,2.05-.49,2.66-.11,3.73,1.21Z"/>
      <path class="cls-1" d="M139.75,277.28l3.55-.28c-.28,2.1-1.31,3.76-3.43,2.68-.62-1.19-.41-1.21-.12-2.4h0Z"/>
      <path class="cls-1" d="M227.06,248.42c-.28,1.31-1.57,2.02-3.15,2.77-1.07-3.08.74-4.43,3.15-2.77Z"/>
      <path class="cls-1" d="M57.47,232.78c.37-1.31,2.68-.39,3.24-.14.43,1.88.33,2.14-.92,3.12l-2.32-2.98h0Z"/>
    </g>
  </g>
</svg>