<?xml version="1.0" encoding="UTF-8"?>
<svg id="Layer_2" xmlns="http://www.w3.org/2000/svg" viewBox="0 0 223.38 39.13">
  <defs>
    <style>
      .cls-1 {
        fill: #fff;
      }
    </style>
  </defs>
  <g id="Layer_1-2" data-name="Layer_1">
    <g id="eMNHyJ.tif">
      <g>
        <path class="cls-1" d="M0,0c.19,0,.35,0,.52,0,4.46,0,8.92,0,13.38.03,2.17.02,4.33.16,6.37,1.02,1.62.68,2.91,1.7,3.34,3.49.55,2.26-.36,4.35-2.46,5.67-.44.27-.92.48-1.38.71-.13.07-.27.13-.39.29.39.09.78.18,1.17.28,1.16.3,2.25.77,3.21,1.52,1.64,1.28,2.19,3,1.97,5-.22,2.08-1.35,3.6-3.06,4.72-1.82,1.19-3.85,1.85-6.01,1.98-2.32.14-4.64.16-6.97.18-3.03.03-6.06,0-9.1,0-.19,0-.37,0-.6,0V0ZM7.77,14c-.04.21-.07.32-.07.42,0,1.87,0,3.73,0,5.6,0,.34.16.38.43.38,1.6,0,3.2.01,4.81,0,1.04-.01,2.06-.18,3.03-.59,1.28-.55,1.84-1.45,1.76-2.9-.07-1.3-.66-2.03-2.02-2.44-.24-.07-.48-.17-.73-.18-2.4-.1-4.79-.19-7.2-.28ZM7.7,9.77c.14.02.23.04.32.04,1.38,0,2.77.03,4.15-.05.76-.04,1.52-.21,2.24-.45,1.43-.48,1.6-1.88,1.36-2.88-.28-1.15-1.18-1.64-2.23-1.72-1.84-.14-3.7-.14-5.55-.2-.32-.01-.29.21-.29.41,0,1.13,0,2.26,0,3.39,0,.48,0,.96,0,1.46Z"/>
        <path class="cls-1" d="M94.76,0c.16,0,.3,0,.44,0,3.96,0,7.92-.04,11.88.03,3.04.05,6.06.4,8.87,1.67,3.06,1.39,5.47,3.5,6.58,6.75,1.85,5.4,0,10.76-5.23,13.98-2.12,1.31-4.48,1.97-6.95,2.18-2.05.17-4.11.24-6.16.27-2.94.04-5.88.01-8.82.01-.19,0-.37,0-.6,0V0ZM102.46,12.47c0,2.43,0,4.86,0,7.29,0,.38.11.49.48.48.77-.03,1.54.01,2.31-.01,1.57-.05,3.14-.05,4.66-.55,2.07-.68,3.76-1.81,4.64-3.88.59-1.39.69-2.86.56-4.34-.19-2.01-.99-3.71-2.67-4.93-1.29-.93-2.73-1.52-4.3-1.65-1.7-.14-3.42-.12-5.13-.2-.42-.02-.56.1-.56.54.02,2.41.01,4.83.01,7.24Z"/>
        <path class="cls-1" d="M153.99,5.39h7.29v1.9c.85-.47,1.62-.91,2.41-1.32,2.45-1.25,5.04-1.47,7.7-.86,2.27.52,4.04,1.82,5.03,3.91,1.74,3.66,1.87,7.39-.12,11.01-1.53,2.79-4.03,4.29-7.13,4.77-2.5.39-4.95.09-7.28-.92-.17-.07-.35-.13-.59-.23v13.08h-7.31V5.39ZM161.27,15.33c0,1.49.01,2.98,0,4.47,0,.34.11.47.42.54,1.46.29,2.92.37,4.39.11,2.09-.37,3.4-1.57,3.85-3.66.32-1.46.29-2.92-.08-4.37-.4-1.57-1.42-2.51-3-2.81-1.85-.35-3.62,0-5.31.79-.14.07-.26.34-.26.51-.02,1.47-.01,2.95-.01,4.42Z"/>
        <path class="cls-1" d="M133.27,16.06c.05,1.11.42,2.03,1.16,2.79,1.1,1.13,2.51,1.55,4.01,1.76,3.56.5,6.89-.19,10.03-1.92.18-.1.42-.09.63-.12.24-.03.34.07.34.32,0,1.44,0,2.88,0,4.33,0,.3-.19.35-.4.42-2.4.79-4.84,1.29-7.37,1.4-2.93.13-5.84-.01-8.66-.88-1.64-.5-3.14-1.27-4.4-2.45-1.83-1.71-2.61-3.86-2.67-6.31-.09-3.65,1.27-6.55,4.39-8.56,1.34-.86,2.8-1.4,4.36-1.7,3.05-.57,6.09-.6,9.09.25,3.81,1.08,6.03,4.01,6.1,7.96.02.89,0,1.78,0,2.72h-16.6ZM133.29,12.45h9.22c.17-1.58-.78-3.12-2.26-3.58-1.54-.48-3.1-.45-4.61.14-1.53.6-2.38,1.86-2.36,3.44Z"/>
        <path class="cls-1" d="M192.51,25.3c-2.53-.12-5-.42-7.27-1.6-3.03-1.57-4.74-4.05-5.08-7.46-.23-2.3.05-4.51,1.27-6.52,1.35-2.24,3.39-3.6,5.86-4.27,3.82-1.04,7.65-1.07,11.38.32,3.78,1.41,5.88,4.19,6.19,8.25.21,2.7-.3,5.22-2.09,7.35-1.63,1.93-3.78,2.99-6.21,3.44-1.34.25-2.7.34-4.05.5ZM197.44,15.11s-.06,0-.09,0c0-.36.04-.73,0-1.08-.11-.71-.2-1.43-.42-2.11-.64-1.95-2.12-2.79-4.09-2.86-2.34-.09-4.14.66-4.86,3.34-.49,1.8-.46,3.63.05,5.43.46,1.62,1.54,2.63,3.21,2.94.58.11,1.19.14,1.78.12,2.11-.1,3.6-1.28,4.11-3.3.2-.8.23-1.64.33-2.46Z"/>
        <path class="cls-1" d="M40.75,25.2c-2.37-.01-4.7-.28-6.88-1.31-3.57-1.7-5.39-4.55-5.51-8.49-.06-2.01.25-3.94,1.32-5.68,1.29-2.12,3.2-3.48,5.55-4.18,3.9-1.16,7.81-1.17,11.66.2,3.97,1.41,6.24,4.77,6.27,8.97.01,2.07-.33,4.03-1.48,5.78-1.53,2.33-3.78,3.64-6.45,4.22-1.46.32-2.97.42-4.46.62,0-.04-.01-.08-.02-.12ZM45.71,15.33c-.11-1-.14-1.76-.29-2.49-.36-1.75-1.19-3.14-3.07-3.6-.42-.1-.86-.17-1.3-.19-2.38-.09-4.12.7-4.85,3.3-.48,1.74-.45,3.51,0,5.25.43,1.69,1.48,2.81,3.24,3.14.58.11,1.19.15,1.78.12,1.9-.09,3.33-.95,3.95-2.79.32-.95.4-1.98.54-2.75Z"/>
        <path class="cls-1" d="M68.08,5.36c.85,0,1.67-.02,2.5,0,.39.01.51-.11.5-.5-.02-1.6,0-3.19,0-4.83h7.31v5.31h6.67c.01.2.03.35.03.5,0,1.07-.02,2.13.01,3.2.01.43-.14.52-.54.52-1.87-.02-3.74,0-5.61,0-.17,0-.34,0-.53,0-.01.16-.03.27-.03.37,0,2.62.03,5.24,0,7.85-.02,2.4,1.34,2.99,3.02,2.96.94-.01,1.87-.31,2.81-.48.26-.05.51-.1.85-.17v.57c0,1.03-.03,2.07.01,3.1.03.52-.15.69-.64.78-2.21.4-4.44.52-6.66.33-1.16-.1-2.33-.36-3.43-.73-1.91-.64-2.9-2.1-3.18-4.06-.07-.48-.1-.97-.1-1.45,0-2.82,0-5.64,0-8.47,0-.18,0-.37,0-.6h-3v-4.21Z"/>
        <path class="cls-1" d="M209.34,9.55c-.94,0-1.78.01-2.63-.01-.13,0-.37-.17-.37-.26-.02-1.28-.02-2.57-.02-3.91h2.99V.04h7.36v5.32h6.66c.01.21.03.37.03.54,0,1.04-.02,2.07,0,3.1,0,.41-.09.57-.54.56-1.89-.03-3.77,0-5.66-.02-.38,0-.51.1-.51.5.02,2.57,0,5.14.01,7.72,0,.34.03.69.1,1.03.26,1.14,1.03,1.77,2.26,1.93,1.2.16,2.34-.07,3.47-.44.25-.08.51-.11.82-.17.02.2.04.33.05.47,0,1.14,0,2.29,0,3.43,0,.22.02.41-.3.47-3.12.57-6.24.75-9.35.04-1.99-.45-3.53-1.51-4.06-3.61-.19-.77-.3-1.58-.31-2.37-.04-2.79-.01-5.58-.01-8.37v-.61Z"/>
        <path class="cls-1" d="M63.32,13.94c.4.35.7.6,1.03.89-.33.35-.62.65-.96,1.01.33.27.65.52,1.02.83-.42.34-.73.6-1.07.89.37.39.66.69,1.03,1.08-.34.25-.66.5-1.09.82.45.34.77.58,1.13.85-.39.4-.66.69-.97,1.01.29.3.56.59.95,1-.36.24-.7.48-1.15.78.48.38.79.62,1.12.89-.51.57-.86,1.09-1.69,1.03-1.27-.08-2.55-.08-3.81,0-.84.05-1.41-.25-1.87-.97.25-.27.53-.56.84-.89-.29-.31-.58-.61-.95-1,.33-.25.65-.5,1.09-.84-.42-.31-.74-.55-1.1-.82.39-.4.66-.69,1.02-1.06-.35-.26-.68-.51-1.11-.83.45-.37.77-.63,1.12-.91-.33-.35-.61-.64-.92-.97.28-.3.56-.59.87-.92-.29-.31-.57-.61-.94-1,.34-.26.67-.51.97-.73-.07-.15-.08-.2-.11-.22-.75-.51-.85-1.23-.83-2.08.05-2.21.02-4.42.02-6.63v-.57h-1.79V.04h10.98c.01.13.04.26.04.39,0,1.22-.01,2.45,0,3.67,0,.38-.12.5-.49.47-.43-.03-.87,0-1.37,0v.6c0,2.37-.01,4.74.01,7.1,0,.54-.08.98-.54,1.3-.14.1-.28.21-.49.37Z"/>
        <path class="cls-1" d="M175.2,36.8c0-.41,0-.77,0-1.13,0-.91.01-1.82,0-2.73-.02-.71-.48-1.04-1.17-.89-.66.14-1.03.6-1.03,1.29,0,1.13,0,2.25,0,3.42h-1.2c0-.28,0-.55,0-.83,0-.97,0-1.94,0-2.91-.01-.83-.61-1.21-1.38-.9-.56.23-.82.6-.82,1.21,0,1.14,0,2.28,0,3.45h-1.16v-5.68h1.14c.02.21.03.4.05.66.54-.48,1.09-.81,1.79-.82.72,0,1.23.3,1.53,1,.6-.69,1.28-1.08,2.18-.98.72.08,1.23.51,1.26,1.23.05,1.44.04,2.88.04,4.32,0,.1-.16.27-.26.28-.29.04-.59.01-.94.01Z"/>
        <path class="cls-1" d="M141.63,37.44c.86.73,1.78.93,2.77.42.58-.3.77-.95.61-1.83-.04.01-.09.02-.12.04-1.54,1.35-3.51.75-3.98-1.23-.18-.76-.16-1.52.1-2.27.59-1.7,2.49-2.18,3.83-.98.04.04.09.08.19.15.03-.24.06-.44.08-.66h1.14c0,.14.03.28.03.41,0,1.66,0,3.32,0,4.98,0,1.64-.97,2.59-2.61,2.63-.75.02-1.47-.05-2.13-.46-.38-.24-.51-.47-.18-.84.09-.1.16-.23.26-.38ZM145.07,33.91s.03,0,.05,0c-.05-.41.03-.92-.18-1.22-.62-.88-2.04-.95-2.61.07-.41.74-.4,1.51,0,2.24.34.62,1.04.86,1.75.65.72-.21.98-.57.98-1.37,0-.13,0-.25,0-.38Z"/>
        <path class="cls-1" d="M118.44,31.08h1.15c.02.2.04.4.06.61.05,0,.11,0,.14-.03.72-.76,1.6-.92,2.54-.58.95.35,1.42,1.16,1.5,2.1.06.7.03,1.46-.18,2.12-.54,1.7-2.45,2.15-3.78.96-.05-.04-.1-.08-.25-.2v2.85c-.08.03-.12.06-.16.07q-1.02.08-1.02-.94v-6.44c0-.17,0-.34,0-.53ZM119.62,33.93s-.03,0-.04,0c.05.41-.02.89.16,1.23.51.9,1.92.92,2.53.08.5-.69.52-1.88.03-2.58-.4-.57-1.09-.82-1.74-.56-.76.31-1.03.53-.94,1.35.02.15,0,.31,0,.47Z"/>
        <path class="cls-1" d="M125.15,31.08h1.14c.02.21.03.39.05.61.07-.03.13-.04.17-.07,1.61-1.34,3.55-.67,3.99,1.39.17.82.15,1.65-.19,2.44-.67,1.57-2.44,1.97-3.72.84-.06-.05-.12-.09-.24-.19v2.85h-1.19v-7.88ZM126.32,33.88s-.02,0-.03,0c.03.42-.05.89.12,1.24.42.89,1.86.97,2.5.19.6-.73.59-2.09-.03-2.8-.4-.47-1.07-.65-1.67-.39-.71.3-.98.53-.9,1.28.02.15,0,.31,0,.47Z"/>
        <path class="cls-1" d="M188.08,28.91h1.18v7.86h-1.13c-.01-.21-.03-.39-.04-.64-.13.1-.22.16-.31.24-1.08.94-2.71.74-3.42-.49-.76-1.29-.74-2.65.04-3.93.73-1.19,2.35-1.37,3.4-.44.08.07.15.14.3.27v-2.88ZM188.1,33.96s.02,0,.03,0c-.03-.42.05-.89-.13-1.23-.44-.87-1.9-.93-2.5-.16-.55.7-.59,1.92-.08,2.64.4.57,1.06.79,1.74.57.73-.24.94-.53.94-1.34,0-.16,0-.31,0-.47Z"/>
        <path class="cls-1" d="M106.42,36.75q-1.18.16-1.18-.91v-6.4c0-.17,0-.34,0-.53h1.18v2.87c.31-.21.52-.38.76-.52.55-.32,1.16-.39,1.78-.29.71.12,1.2.64,1.23,1.4.04,1.36.02,2.73.04,4.09,0,.28-.13.33-.38.34-.84.03-.83.04-.83-.77,0-.93-.03-1.85,0-2.77.05-1.18-.85-1.37-1.58-1.18-.67.17-1.01.63-1.01,1.31,0,1.11,0,2.22,0,3.35Z"/>
        <path class="cls-1" d="M78.6,34.34h-4.32c.06.65.35,1.11.88,1.38.89.45,1.7.17,2.46-.36.69.82.73.83-.26,1.3-1.24.59-2.74.3-3.6-.63-.85-.91-1-2.52-.35-3.69.58-1.05,1.71-1.57,2.95-1.37,1.06.17,1.93,1.08,2.14,2.28.06.33.07.67.1,1.09ZM77.37,33.44c-.08-.98-.67-1.51-1.62-1.49-.82.02-1.43.63-1.45,1.49h3.07Z"/>
        <path class="cls-1" d="M196.08,34.33h-4.24c0,.61.28,1.02.72,1.32.69.47,1.46.38,2.63-.29.16.24.33.48.49.72-1,1.22-3.4,1.15-4.46-.11-.93-1.11-.9-3.05.08-4.13.74-.82,1.93-1.14,2.97-.76,1.17.43,1.66,1.37,1.8,2.53.03.21,0,.43,0,.72ZM194.88,33.44c0-.95-.65-1.52-1.6-1.49-.82.02-1.45.67-1.41,1.49h3.02Z"/>
        <path class="cls-1" d="M87.29,34.32c.22,1.63,1.75,2.07,3.36,1.02.17.24.33.49.51.76-.48.55-1.12.73-1.79.82-1.56.22-2.95-.7-3.28-2.16-.38-1.72.45-3.29,1.96-3.72,1.65-.47,3.21.57,3.46,2.32.04.3.06.61.09.97h-4.32ZM90.39,33.44c-.15-1.08-.79-1.58-1.8-1.48-.73.07-1.32.75-1.27,1.48h3.07Z"/>
        <path class="cls-1" d="M201.25,34.32c.04,1.57,1.64,2.05,3.34,1.03.16.24.32.48.5.74-.49.56-1.14.73-1.81.83-1.38.19-2.64-.52-3.11-1.74-.54-1.39-.11-2.99.99-3.76,1.67-1.16,3.85-.26,4.25,1.77.07.35.07.71.12,1.13h-4.27ZM204.28,33.44c.02-.89-.61-1.49-1.52-1.49-.89,0-1.53.62-1.51,1.49h3.03Z"/>
        <path class="cls-1" d="M117.17,33.97c0,1.76-1.19,2.99-2.86,2.99-1.66,0-2.85-1.28-2.85-3.02,0-1.76,1.18-2.99,2.86-2.99,1.71,0,2.85,1.21,2.85,3.03ZM115.96,33.95c0-.96-.52-1.73-1.29-1.89-.89-.18-1.63.31-1.89,1.26-.29,1.08.18,2.19,1.08,2.45.28.08.63.08.91,0,.73-.18,1.18-.92,1.19-1.82Z"/>
        <path class="cls-1" d="M182.58,36.78h-1.14c-.02-.17-.04-.32-.06-.47-1.5.86-2.63.83-3.33-.07-.57-.74-.52-1.86.1-2.51.61-.63,2.15-.81,3.15.07.23-.57.11-1.2-.28-1.52-.59-.49-1.48-.37-2.6.38-.16-.26-.31-.52-.46-.77.88-1.02,2.82-1.28,3.87-.55.46.32.72.78.73,1.31.03,1.36.01,2.72.01,4.13ZM181.41,35.11c0-.71-.45-1.07-1.33-1.07-.72,0-1.21.41-1.21,1.03,0,.6.51,1.04,1.22,1.04.81,0,1.32-.39,1.33-.99Z"/>
        <path class="cls-1" d="M207.14,32.68c-.17-.29-.32-.55-.46-.79.84-1,2.81-1.28,3.85-.56.45.31.73.75.74,1.3.02,1.28.03,2.57.01,3.85,0,.11-.17.28-.29.3-.26.05-.53.01-.81.01-.04-.18-.07-.32-.11-.47-1.5.82-2.61.79-3.3-.07-.54-.67-.55-1.76-.01-2.4.7-.83,1.92-.86,3.29-.08.18-.71.06-1.29-.39-1.55-.92-.52-1.72-.17-2.52.46ZM210.13,35.05c0-.65-.5-1.02-1.35-1.01-.72,0-1.2.42-1.19,1.04,0,.61.51,1.03,1.22,1.02.83,0,1.32-.4,1.32-1.06Z"/>
        <path class="cls-1" d="M61.42,33.81c0-.64.12-1.27-.5-1.61-.91-.51-1.72-.13-2.49.48-.16-.28-.31-.54-.45-.78.84-1.03,2.9-1.3,3.92-.52.42.32.67.76.68,1.29.02,1.27.01,2.54.02,3.81,0,.24-.1.34-.34.33-.25,0-.5,0-.77,0-.04-.18-.07-.32-.11-.52-.71.54-1.48.86-2.33.57-.38-.13-.77-.38-1.03-.69-.55-.64-.48-1.74.06-2.35.7-.8,1.91-.81,3.33,0ZM60.11,33.98c-.77.05-1.24.47-1.23,1.12.01.62.55,1.06,1.27,1,.29-.03.57-.13.85-.23.59-.21.61-1.37-.01-1.6-.29-.11-.59-.19-.88-.28Z"/>
        <path class="cls-1" d="M218.12,39.01c.06-.34.11-.66.16-.97,1.04-.02,1.13-.06,1.42-.9.07-.19.04-.46-.04-.66-.62-1.62-1.26-3.23-1.9-4.85-.07-.17-.12-.35-.19-.55h1.25c.52,1.38,1.05,2.76,1.62,4.27.15-.37.26-.63.36-.89.37-.98.76-1.95,1.1-2.94.12-.35.29-.51.67-.46.23.03.47,0,.78,0-.08.2-.13.37-.2.53-.82,2.08-1.64,4.16-2.47,6.24-.43,1.07-1.4,1.53-2.57,1.18Z"/>
        <path class="cls-1" d="M83.55,36.8c0-.65,0-1.24,0-1.83,0-.64.01-1.29,0-1.93-.02-.61-.3-.91-.9-1-.93-.14-1.65.47-1.65,1.4,0,.94-.02,1.88,0,2.82.01.44-.13.6-.56.54-.2-.02-.4,0-.63,0v-5.71h1.14c.02.2.05.4.08.65.15-.11.26-.18.36-.26.64-.49,1.36-.64,2.13-.5.68.12,1.17.64,1.2,1.38.05,1.38.04,2.76.03,4.14,0,.1-.18.27-.3.29-.27.04-.56.01-.9.01Z"/>
        <path class="cls-1" d="M134.64,31.09h1.09c.02.22.04.41.07.68.16-.12.28-.21.4-.3.64-.49,1.36-.62,2.14-.48.65.12,1.14.62,1.16,1.3.05,1.41.03,2.82.02,4.23,0,.09-.16.22-.27.27-.09.05-.22,0-.32.01-.42.05-.58-.09-.56-.54.03-.95.01-1.91,0-2.87,0-.81-.21-1.18-.72-1.33-.62-.18-1.47.11-1.79.65-.08.14-.09.33-.09.49,0,1.05-.03,2.1,0,3.15.02.52-.31.43-.62.43-.31,0-.58.04-.57-.43.03-1.64,0-3.29.01-4.94,0-.11.02-.21.04-.35Z"/>
        <path class="cls-1" d="M63.74,36.03c.17-.27.34-.54.52-.84.63.51,1.29.84,2.09.76.22-.02.47-.09.65-.22.41-.29.36-.82-.1-1.02-.41-.18-.87-.26-1.3-.39-.27-.08-.55-.14-.8-.27-1.15-.56-1.24-2.03-.16-2.74.99-.66,2.65-.47,3.59.44-.15.26-.31.52-.42.71-.51-.19-.96-.4-1.43-.52-.23-.06-.53-.06-.73.05-.24.12-.51.36-.56.59-.03.14.29.46.5.54.54.21,1.12.29,1.67.48.98.34,1.41,1.19,1.06,2.12-.11.28-.31.56-.54.74-1.04.81-3.14.58-4.04-.44Z"/>
        <path class="cls-1" d="M99.3,36.04c.18-.29.34-.55.46-.75.58.23,1.12.46,1.67.65.18.06.41.03.61,0,.41-.05.74-.24.79-.67.05-.43-.3-.59-.64-.68-.44-.13-.88-.23-1.32-.35-.98-.27-1.43-.79-1.4-1.62.02-.8.6-1.45,1.5-1.63.84-.16,1.64-.06,2.41.39.4.23.46.45.19.8-.08.11-.15.23-.18.28-.52-.19-.98-.4-1.47-.52-.24-.06-.56-.04-.78.08-.21.11-.43.38-.47.6-.02.14.26.42.45.49.57.21,1.19.3,1.76.51.65.23,1.08.68,1.11,1.42.03.71-.25,1.25-.88,1.59-1.1.6-2.86.34-3.8-.59Z"/>
        <path class="cls-1" d="M216.93,31.73c-.16.28-.3.53-.42.74-.49-.19-.93-.42-1.41-.52-.3-.07-.66,0-.95.12-.18.07-.38.34-.38.52,0,.17.22.43.4.49.51.19,1.06.28,1.58.44,1.08.32,1.57,1.15,1.28,2.15-.14.47-.45.78-.87.99-1.11.55-2.78.29-3.73-.62.16-.26.33-.54.48-.78.48.22.92.49,1.41.62.34.09.76.08,1.1-.03.22-.07.47-.4.49-.63.02-.19-.25-.49-.47-.58-.46-.19-.96-.27-1.45-.41-.97-.27-1.39-.76-1.39-1.58,0-.82.5-1.43,1.41-1.64,1.07-.24,2.05-.05,2.91.71Z"/>
        <path class="cls-1" d="M55.91,32.14v2.86c0,.36,0,.72,0,1.08,0,.69-.31.93-.97.7-.1-.04-.18-.26-.19-.4-.01-1.21,0-2.41,0-3.62,0-.18,0-.37,0-.59h-.88v-1.08c.27-.01.53-.03.85-.04.02-.19.03-.37.05-.55.1-1.38,1.27-2.11,2.55-1.59.52.21.55.31.26.78-.06.09-.12.18-.18.27-1.07-.38-1.5-.07-1.44,1.09h1.09v1.11h-1.13Z"/>
        <path class="cls-1" d="M69.02,31.06h.89v-1.55h1.18v1.54h1.08v1.09h-1.04c0,1.11-.03,2.17.02,3.23.02.47.32.54,1.02.37.39.9.47,1.07-.73,1.19-.97.1-1.51-.43-1.52-1.41-.01-.94,0-1.88,0-2.82,0-.17-.02-.34-.03-.54h-.87v-1.1Z"/>
        <path class="cls-1" d="M93.98,36.77h-1.15v-5.68h1.12c.02.21.04.43.06.72.53-.43,1.01-.89,1.75-.84v1.03c-.49.18-.94.32-1.37.51-.31.14-.42.42-.41.77.02,1.14,0,2.28,0,3.48Z"/>
        <path class="cls-1" d="M132.97,36.8c-.29,0-.54,0-.79,0-.11,0-.21-.02-.34-.04v-5.67h1.14v5.71Z"/>
        <path class="cls-1" d="M133.13,29.58c0,.44-.3.76-.71.76-.41,0-.78-.37-.76-.78.01-.4.37-.75.76-.74.41,0,.72.33.72.76Z"/>
      </g>
    </g>
  </g>
</svg>