<?xml version="1.0" encoding="UTF-8"?>
<svg id="Layer_2" xmlns="http://www.w3.org/2000/svg" viewBox="0 0 212.57 114.69">
  <defs>
    <style>
      .cls-1 {
        fill: #fff;
      }
    </style>
  </defs>
  <g id="Layer_1-2" data-name="Layer_1">
    <g>
      <path class="cls-1" d="M135.02,114.69c-.69-.23-1.37-.47-2.04-.7.09-.64.34-.64.87-.53,1.12.23,2.28.48,3.4.39,2.09-.17,2.98-1.32,2.99-3.45,0-.26,0-.53,0-1-1.44,1.43-3.06,1.75-4.83,1.41-1.09-.21-1.98-.77-2.64-1.68-1.21-1.69-.95-4.17.57-5.61,1.86-1.76,4.64-1.72,7,.15.04-.41.07-.77.11-1.2h.77c0,2.83.08,5.64-.03,8.45-.07,1.88-1.23,3.06-3.1,3.54-.25.06-.5.15-.75.23h-2.32ZM140.23,106.52c0-2.36-1.23-3.64-3.45-3.63-2.19.02-3.76,1.6-3.74,3.77.02,2.1,1.54,3.58,3.71,3.58,2.24,0,3.49-1.33,3.49-3.73Z"/>
      <path class="cls-1" d="M59.94,25.19c.24-.19.47-.38.71-.55,11.55-8.26,24.2-14.3,37.73-18.52,8.44-2.63,17.05-4.43,25.84-5.39,6.85-.74,13.7-.95,20.57-.47,8.04.56,15.91,1.96,23.31,5.33,4.32,1.97,8.23,4.52,11.13,8.38,3.78,5.04,4.26,10.53,2.22,16.36-1.92,5.49-5.12,10.22-8.67,14.75-4.98,6.36-10.78,11.96-16.45,17.68-.38.38-.8.7-1.25,1.09,7.66,7.93,15.2,15.75,22.87,23.69-.48.03-.77.06-1.05.06-4.31,0-8.62-.01-12.94.02-.65,0-1.09-.19-1.53-.67-4.73-5.14-9.49-10.25-14.24-15.37-.12-.13-.22-.28-.5-.66-.29.41-.45.74-.7,1-4.85,5.03-9.71,10.04-14.56,15.08-.43.44-.85.63-1.47.63-4.31-.02-8.62-.01-12.94-.01-.26,0-.53,0-1.05,0,7.74-8.12,15.33-16.08,22.99-24.12-7.01-7.45-13.98-14.85-21.11-22.43.48,0,.73,0,.98,0,4.19,0,8.39.01,12.58-.01.59,0,.98.18,1.37.61,4.43,4.89,8.88,9.76,13.32,14.64.2.22.39.44.65.74,1.17-1.31,2.27-2.54,3.37-3.77,3.67-4.14,7.39-8.23,10.97-12.44,2.32-2.72,3.94-5.86,4.54-9.44.78-4.6-.46-8.71-3.21-12.39-3.17-4.23-7.45-7.02-12.18-9.19-6.02-2.77-12.37-4.27-18.93-5.04-6.83-.8-13.65-.73-20.46.07-13.27,1.55-25.75,5.64-37.57,11.82-4.66,2.44-9.14,5.18-13.43,8.24-.25.18-.52.32-.77.48-.05-.07-.09-.13-.14-.2Z"/>
      <path class="cls-1" d="M90.65,57.13c-.67,2.45-1.28,4.68-1.88,6.9-2.07,7.6-4.15,15.2-6.19,22.81-.17.62-.42.79-1.03.78-4.67-.02-9.34-.02-14.01,0-.54,0-.85-.1-1.03-.68-4.59-15.1-9.19-30.2-13.8-45.3-.05-.16-.08-.34-.12-.54h15.21c2.47,10.43,4.94,20.87,7.41,31.3h.18c.6-2.19,1.21-4.38,1.81-6.57,2.16-7.94,4.33-15.89,6.46-23.84.2-.76.54-.94,1.27-.94,3.81.04,7.61.05,11.42,0,.82-.01,1.11.26,1.31,1.01,2.66,9.84,5.34,19.66,8.02,29.49.08.28.17.56.41.85,2.46-10.41,4.93-20.82,7.41-31.32.8,0,1.59-.03,2.39.02.22.01.47.22.64.41,2.9,3.06,5.79,6.14,8.7,9.2.35.37.42.69.27,1.17-3.57,11.67-7.14,23.34-10.68,35.02-.17.56-.41.74-.98.74-4.7-.02-9.4-.02-14.1,0-.63,0-.85-.21-1.01-.81-2.57-9.55-5.18-19.09-7.78-28.64-.08-.28-.17-.55-.33-1.05Z"/>
      <path class="cls-1" d="M0,41.06c.32,0,.56,0,.79,0,12.96,0,25.93,0,38.89,0,2.34,0,4.62.35,6.77,1.28,3.44,1.49,5.41,4.17,6,7.83.63,3.89-.16,7.4-3.13,10.18-.7.65-1.58,1.11-2.38,1.66.77.29,1.59.54,2.35.91,2.51,1.22,4.15,3.24,5,5.86,1.06,3.29,1.07,6.62-.04,9.89-1.55,4.55-4.99,7.09-9.51,8.11-2.38.54-4.87.77-7.32.79-12.16.08-24.32.04-36.48.04-.29,0-.59,0-.95,0v-46.55ZM15.81,68.11v9.46c.3.01.54.03.77.03,5.29,0,10.58,0,15.88,0,.62,0,1.25-.07,1.86-.17,2.36-.4,3.91-2.14,4-4.44.09-2.37-1.21-4.1-3.57-4.64-.72-.16-1.47-.22-2.21-.23-5.26-.02-10.52,0-15.79-.01h-.95ZM15.8,58.92c.31.02.58.05.84.05,2.85,0,5.71,0,8.56,0,2.41,0,4.82.02,7.22-.07,1.93-.07,3.39-1.24,3.77-2.85.61-2.58-.99-4.8-3.75-4.86-5.41-.12-10.82-.08-16.23-.1-.14,0-.27.07-.41.11v7.72Z"/>
      <path class="cls-1" d="M195.3,87.55h-15.82v-36.05h-9.5c.87-1.04,1.64-1.88,2.34-2.79,1.81-2.35,3.58-4.74,5.4-7.09.21-.28.64-.55.97-.55,11.15-.03,22.3-.02,33.46-.02.12,0,.23.02.43.03v10.39h-17.27v36.07Z"/>
      <path class="cls-1" d="M23.44,109.57c.99-2.77,1.95-5.47,2.92-8.17.2-.56.42-1.11.58-1.68.19-.68.56-.93,1.31-.64-.62,1.69-1.25,3.38-1.87,5.06-.75,2.03-1.49,4.06-2.23,6.09-.15.4-.3.86-.84.66-.26-.1-.56-.38-.65-.64-1.08-3.32-2.13-6.65-3.19-9.96-.8,2.22-1.61,4.47-2.42,6.72-.41,1.14-.81,2.29-1.27,3.41-.09.22-.44.44-.69.46-.2.01-.54-.23-.61-.44-1.23-3.71-2.43-7.43-3.63-11.15-.02-.05,0-.12,0-.22.65-.28.98-.08,1.19.62,1.01,3.31,2.07,6.61,3.13,9.97,1.2-3.37,2.37-6.68,3.56-9.98.1-.27.31-.6.55-.69.5-.18.78.1.95.62,1.04,3.3,2.12,6.59,3.2,9.95Z"/>
      <path class="cls-1" d="M5.7,104.5c.48.22.92.39,1.32.62.98.54,1.6,1.36,1.58,2.5-.01,1.16-.54,2.18-1.62,2.56-1.32.46-2.74.68-4.13.86-.81.1-1.65-.07-2.54-.12-.02-.34-.06-.63-.06-.91,0-3.32.01-6.65-.02-9.97,0-.69.13-1.05.91-1.03,1.33.04,2.66-.05,3.98.06.62.05,1.27.35,1.79.71,1.41.96,1.46,2.78.14,3.87-.38.32-.84.54-1.37.87ZM1.31,104.75v5.64c1.47-.13,2.83-.14,4.15-.4,1.31-.25,1.99-1.16,2.02-2.27.03-1.19-.58-2.13-1.92-2.43-1.34-.31-2.73-.36-4.25-.55ZM1.36,104.41c1.51-.23,2.93-.33,4.27-.7.98-.27,1.38-1.18,1.29-2.1-.1-.95-.7-1.56-1.57-1.71-1.29-.22-2.61-.26-3.99-.39v4.91Z"/>
      <path class="cls-1" d="M34.84,105.47c-1.24,1.69-2.4,3.26-3.56,4.84q-.5.67-1.56.5c1.35-1.74,2.64-3.47,4-5.14.47-.58.48-.99,0-1.58-1.29-1.62-2.52-3.29-3.82-5,.74-.25,1.16-.07,1.56.5,1.09,1.54,2.25,3.04,3.43,4.61,1.23-1.58,2.42-3.06,3.54-4.58.41-.56.84-.78,1.64-.55-1.54,1.92-3.05,3.8-4.59,5.72,1.56,2.03,3.09,4.02,4.65,6.03-.78.27-1.22,0-1.64-.57-1.16-1.58-2.38-3.11-3.66-4.78Z"/>
      <path class="cls-1" d="M86.84,110.89h-1.03c0-.94,0-1.88,0-2.81,0-.68,0-1.37,0-2.05-.02-2.44-1.75-3.66-4.08-2.88-1.4.47-2.09,1.43-2.1,2.92,0,1.57,0,3.14,0,4.78-.34.03-.62.05-.99.08v-12.57h.98v5.43c1.17-1.07,2.35-1.63,3.79-1.57,2.04.08,3.36,1.29,3.42,3.32.06,1.75.01,3.5.01,5.34Z"/>
      <path class="cls-1" d="M150.56,106.6c-.1,2.32,1.41,3.79,3.86,3.8.82,0,1.64-.22,2.46-.29.25-.02.52.1.75.34-2.24.78-4.45,1.12-6.54-.3-1.46-1-1.98-2.88-1.42-4.78.51-1.76,2.05-2.99,3.92-3.12,2.71-.2,4.28.95,4.69,3.37.12.7.01,1.03-.82,1.01-1.96-.05-3.92-.02-5.88-.02-.32,0-.64,0-1.02,0ZM157.1,105.88c.15-1.72-.99-2.87-2.83-2.99-1.51-.09-3.58.91-3.6,2.99h6.43Z"/>
      <path class="cls-1" d="M57.29,106.6c-.24,1.76.85,3.38,2.6,3.61,1.17.16,2.4-.07,3.6-.1.28,0,.57.09.83.32-2.09.78-4.17,1.06-6.18-.06-1.62-.9-2.33-2.78-1.86-4.69.48-1.98,2.03-3.31,4.03-3.45,2.73-.18,4.35,1.03,4.69,3.48.09.65-.08.91-.79.9-1.99-.04-3.98-.01-5.97-.01-.32,0-.64,0-.94,0ZM57.34,105.85h6.43c.15-1.67-.95-2.82-2.76-2.95-1.81-.13-3.65,1.11-3.67,2.95Z"/>
      <path class="cls-1" d="M124.66,111.27c-3.34-.15-5.37-2.48-4.77-5.56.35-1.82,2.09-3.31,4.16-3.44.79-.05,1.61,0,2.38.19,1.79.42,3.04,1.9,3.2,3.63.18,1.94-.66,3.62-2.36,4.41-.81.38-1.73.53-2.61.78ZM124.64,110.44c2.19.01,3.94-1.63,3.98-3.72.03-2.14-1.63-3.79-3.85-3.82-2.28-.02-3.89,1.49-3.92,3.7-.03,2.2,1.58,3.83,3.79,3.84Z"/>
      <path class="cls-1" d="M106.32,111.11c-1.08-.02-2.67-.66-3.53-2.42-.75-1.54-.67-3.15.37-4.55,1.31-1.77,3.22-2.17,5.27-1.82,2.64.45,3.98,2.31,3.72,4.97-.22,2.23-2.32,3.83-5.83,3.82ZM111.14,106.69c0-2.19-1.6-3.78-3.84-3.79-2.27-.01-3.89,1.54-3.91,3.72-.02,2.17,1.63,3.81,3.82,3.82,2.2,0,3.92-1.63,3.92-3.75Z"/>
      <path class="cls-1" d="M90.91,102.45c.24-.01.5-.02.84-.04.03.46.07.88.11,1.45,1.08-1.15,2.3-1.67,3.78-1.64,2.1.05,3.44,1.24,3.52,3.33.07,1.75.01,3.5.01,5.31-.33.02-.61.04-1.03.07,0-1.2,0-2.34,0-3.49,0-.68.02-1.37-.02-2.05-.11-1.52-1.23-2.48-2.83-2.48-1.74,0-3.26,1.17-3.3,2.61-.05,1.75-.01,3.5-.01,5.32h-1.06v-8.4Z"/>
      <path class="cls-1" d="M186.36,110.89h-1.02v-8.42c.18-.01.46-.04.82-.07.03.47.06.9.11,1.48,1.1-1.2,2.36-1.7,3.87-1.65,2.04.08,3.35,1.28,3.43,3.33.06,1.75.01,3.5.01,5.31-.33.02-.62.04-1.03.06,0-.79,0-1.52,0-2.25,0-.95.01-1.9,0-2.85-.03-1.87-1.08-2.95-2.86-2.91-1.92.04-3.41,1.33-3.33,2.97.08,1.63.02,3.26.02,4.99Z"/>
      <path class="cls-1" d="M51.58,99.67v11.18h-1.08v-11.18c-1.28,0-2.48,0-3.69,0-.24,0-.49.04-.71-.02-.16-.04-.29-.21-.43-.32.13-.12.24-.29.39-.35.15-.06.35-.02.53-.02,2.97,0,5.94,0,8.92.01.3,0,.59.2.88.31-.31.13-.61.35-.92.36-1.27.04-2.54.02-3.9.02Z"/>
      <path class="cls-1" d="M204.77,110.6c-1.81.61-3.61.79-5.4.06-3.1-1.27-3.62-5.33-.91-7.32,1.96-1.44,4.13-1.34,6.34-.69-.04.7-.34.74-.83.58-1.21-.4-2.44-.44-3.67-.02-1.72.6-2.61,1.96-2.5,3.85.09,1.54,1.26,2.94,2.9,3.15,1.09.14,2.23-.03,3.33-.16.47-.06.72-.06.73.54Z"/>
      <path class="cls-1" d="M75.4,102.66c-.03.74-.37.71-.84.56-1.22-.39-2.44-.43-3.67,0-1.72.6-2.59,1.96-2.48,3.86.09,1.53,1.26,2.93,2.91,3.14,1.23.16,2.51,0,3.78-.12.32.19.47.47-.16.65-1.52.42-3.04.57-4.56.06-1.68-.56-2.8-1.66-2.99-3.49-.2-2.01.61-3.51,2.34-4.4,1.82-.93,3.7-.87,5.65-.25Z"/>
      <path class="cls-1" d="M166.57,103.02c-.28.07-.56.19-.84.19-.84-.02-1.7-.23-2.51-.09-.42.07-.9.65-1.07,1.11-.25.64.21,1.14.8,1.4.73.32,1.49.58,2.22.89,1.31.55,1.85,1.29,1.77,2.37-.07,1-.81,1.73-2.15,2.06-1.37.33-2.7.21-3.98-.39.09-.55.29-.63.85-.52.96.19,1.97.25,2.95.2.67-.04,1.2-.53,1.3-1.27.1-.75-.3-1.25-.93-1.57-.53-.26-1.09-.45-1.64-.68-.43-.19-.88-.36-1.28-.61-1.37-.89-1.37-2.48.04-3.31,1.43-.85,2.93-.72,4.39-.1.02.11.04.22.06.32Z"/>
      <path class="cls-1" d="M116.42,110.89h-.93v-12.51h.93v12.51Z"/>
      <path class="cls-1" d="M179.87,99.01h.9v11.86c-.27.02-.55.04-.9.07v-11.93Z"/>
      <path class="cls-1" d="M145.27,102.44h.9v8.43h-.9v-8.43Z"/>
      <path class="cls-1" d="M168.97,113.13c.32-1.18.56-2.31.97-3.38.11-.29.74-.39,1.19-.6.02,1.56-1.23,3.85-2.16,3.98Z"/>
      <path class="cls-1" d="M207.79,111.25c-.21-.31-.61-.64-.59-.94.02-.27.52-.73.76-.7.32.03.8.42.85.72.05.26-.4.61-.63.92-.13,0-.27,0-.4,0Z"/>
      <path class="cls-1" d="M145.78,98.92c.35.49.78.85.72,1.08-.07.29-.55.62-.87.64-.23.01-.72-.47-.69-.69.04-.31.44-.57.84-1.03Z"/>
    </g>
  </g>
</svg>