<?xml version="1.0" encoding="UTF-8"?>
<svg id="Layer_2" xmlns="http://www.w3.org/2000/svg" viewBox="0 0 561.1 352.26">
  <defs>
    <style>
      .cls-1 {
        fill: #fff;
      }
    </style>
  </defs>
  <g id="Layer_1-2" data-name="Layer_1">
    <g id="Layer_x5F_1">
      <g id="_2889506911872">
        <path class="cls-1" d="M1.35,218.25h97.15c13.19,0,23.68-2.96,32.83-7,9.15-4.04,17.22-9.69,23.95-16.42,8.61-8.61,15.34-19.11,19.11-30.68,2.96-8.61,5.38-21.26,4.31-30.41-.27-1.88.54-4.31-1.08-4.31h-61.9c0,20.99-4.04,37.14-26.64,37.14h-27.72v-36.87H1.35v88.54h0Z"/>
        <path class="cls-1" d="M192.15,110.33h245.97l-.27-6.19c-1.08-9.42-3.77-17.49-9.42-24.76-1.88-2.69-4.31-5.11-6.73-7-5.11-4.04-10.76-7.54-17.76-9.69-6.46-2.15-15.34-3.77-23.68-3.77h-45.75c-1.08,0-13.19,12.65-14.8,14.26-1.35,1.35-3.5,4.04-5.11,4.84-1.08-1.35-3.23-3.5-4.84-4.84-1.61-1.61-3.23-3.23-4.84-4.84-1.35-1.35-9.15-9.42-9.96-9.42h-103.07v51.4h.27Z"/>
        <path class="cls-1" d="M1.35,110.33h172.23c-.27-2.69-5.65-12.38-7.54-15.34-14.53-21.53-38.48-36.6-65.12-36.6h-39.56V0H1.35v110.33h0Z"/>
        <polygon class="cls-1" points="453.73 110.33 558.95 110.33 558.95 58.4 514.27 58.4 514.27 0 453.73 0 453.73 110.33"/>
        <path class="cls-1" d="M453.73,163.35c0,8.88,1.61,16.68,4.31,23.14,1.35,3.5,2.69,6.19,4.57,9.15,2.96,4.31,5.65,7.54,9.42,10.76,3.23,2.96,8.88,6.19,12.92,7.8,6.46,2.69,14.26,4.31,23.14,4.31h50.86v-48.98c-10.76,0-28.53,1.08-36.6-2.96-4.31-2.15-8.07-6.73-8.07-13.19v-23.68h-60.55v33.64Z"/>
        <polygon class="cls-1" points="377.3 218.25 437.85 218.25 437.85 129.71 377.3 129.71 377.3 218.25"/>
        <polygon class="cls-1" points="284.72 218.25 344.74 218.25 344.74 129.71 284.72 129.71 284.72 218.25"/>
        <polygon class="cls-1" points="192.15 218.25 252.16 218.25 252.16 129.71 192.15 129.71 192.15 218.25"/>
        <path class="cls-1" d="M338.55,288.75c6.46,0,12.11,3.23,14.8,9.15,4.31,8.88,1.61,25.83-15.61,25.83s-22.34-25.3-6.19-33.1c1.61-1.08,4.57-1.88,7-1.88h0ZM321.86,289.29v-6.73h-7.54v69.7h7.54v-30.95c1.35.54,1.35,1.88,3.23,3.5,1.35,1.35,2.42,2.15,4.04,2.96,7,3.5,13.46,3.77,20.99.81,14.53-6.19,18.3-29.06,7.27-39.56-6.19-6.19-11.03-7.27-19.91-7.27-2.96,0-7,1.35-9.15,2.69-1.08.54-2.42,1.61-3.23,2.42-1.08.81-1.61,2.15-3.23,2.42h0Z"/>
        <path class="cls-1" d="M538.23,288.75c4.04,0,7.8,1.35,9.96,3.5,2.69,2.42,4.31,5.65,4.31,9.69h-29.33c0-4.04,2.42-7.27,4.57-9.42,2.69-2.15,7-3.77,10.5-3.77ZM514.54,305.98c0,23.14,22.34,29.33,36.33,22.34,3.23-1.61,6.19-4.04,8.34-7l-5.65-4.57c-3.5,2.42-4.31,7-15.88,7-7.27,0-14.26-7.27-14.26-15.07h37.68c0-8.61,0-13.19-5.65-20.18-2.42-3.23-8.61-6.73-14.26-6.73-5.11,0-8.88,0-13.19,2.42-8.61,4.31-13.46,12.38-13.46,21.8Z"/>
        <path class="cls-1" d="M89.35,288.75c1.35,0,4.57.54,5.65,1.08,1.88.81,2.96,1.35,4.31,2.69,2.69,2.69,4.04,5.38,4.04,9.69h-29.33c.27-7.8,7.54-13.46,15.34-13.46ZM89.35,331c4.57,0,9.15-1.08,12.38-2.69,3.23-1.61,6.46-4.31,8.34-7-.81-1.08-4.31-3.77-5.65-4.57-4.04,2.69-4.31,7-15.88,7-7.27,0-14.26-7.54-14.26-15.07h37.94c0-10.23-2.42-19.91-11.03-24.22-8.34-4.31-18.57-3.5-26.37,1.88-4.84,3.5-7.8,9.15-8.88,15.07-2.69,15.07,6.73,29.6,23.41,29.6h0Z"/>
        <path class="cls-1" d="M208.03,323.74c-5.38,0-9.69-1.35-12.92-5.11-5.92-7-5.92-18.57.27-24.76,5.11-5.11,11.84-6.46,18.84-3.5,15.07,5.92,12.11,33.37-6.19,33.37h0ZM182.46,304.09c0,8.61,1.08,14.8,7.27,20.45,14.26,13.19,42.52,5.11,42.52-16.95,0-8.07-1.35-13.46-6.73-18.84-7.8-7.8-20.72-9.15-29.33-4.84-7.54,3.5-13.72,11.3-13.72,20.18h0Z"/>
        <path class="cls-1" d="M406.09,324.28c-6.46,0-10.76-2.15-10.76-8.61,0-4.04,3.77-6.46,7-7.27,4.31-1.35,11.84-1.35,16.95-1.35v4.04c0,7.27-5.92,13.19-13.19,13.19h0ZM389.14,289.02c.81.54,1.61,1.35,2.42,2.15.81,1.08,1.61,1.88,2.15,2.69,2.69-1.88,1.88-1.88,5.92-3.5,1.35-.54,2.15-.81,3.5-1.08,7.8-1.61,16.15,1.08,16.15,8.61v2.69c-7.8,0-18.03-.27-24.49,3.23-6.73,3.77-7.8,7.54-7.8,14.53,0,12.11,19.91,17.22,29.87,7.8,1.08-1.08,1.61-2.42,2.96-2.96l.27,6.73h7.54c0-2.42-.81-4.57-.54-7.27,0-5.38.27-21.53-.27-24.76-1.35-9.69-6.19-15.88-17.22-15.88h-4.57c-5.65-.27-13.72,3.5-15.88,7h0Z"/>
        <path class="cls-1" d="M18.85,324.28c-6.46,0-10.76-2.15-10.76-8.61,0-9.42,16.95-8.61,23.95-8.61,0,5.11.27,9.15-3.77,13.46-2.15,2.15-5.11,3.77-9.42,3.77h0ZM1.89,288.48c.27,1.35,3.5,4.04,4.57,5.65,4.04-2.69,7.27-5.38,13.99-5.38,6.19,0,11.57,3.23,11.57,9.42v2.69c-9.15,0-24.22-.27-29.6,7.54C-.26,312.44,0,314.05,0,318.63s2.69,7.54,5.38,9.42c6.46,4.57,17.76,4.57,24.49-1.61,1.08-1.08,1.61-2.42,2.96-2.96v3.23c0,1.61.27,1.61.27,3.23h7.54c0-2.42-.81-4.31-.54-7.27,0-5.92.27-20.72-.27-24.76-.81-5.38-1.61-8.34-4.84-11.57-6.73-6.73-23.68-5.65-31.49,1.08-.81.54-.27.81-1.61,1.08h0Z"/>
        <path class="cls-1" d="M255.12,294.41c0,3.77,0,7.27,3.77,10.23,2.15,1.61,4.84,2.69,7.8,3.5,1.61.27,2.96.81,4.57,1.08,4.84,1.08,9.96,1.88,9.96,7.8,0,8.07-17.22,9.42-21.8.27l-6.19,4.57c.54,2.42,4.57,5.38,6.73,6.46,10.5,5.38,30.14,2.42,30.14-12.11,0-18.84-27.18-11.03-27.18-21.26,0-5.11,10.5-9.69,17.49-2.69.81.81,1.35,1.61,1.88,2.15,1.35-.81,5.11-3.77,6.19-4.04-1.08-4.57-8.34-8.61-13.99-8.61h-3.77c-7.27,0-15.61,5.38-15.61,12.65h0Z"/>
        <path class="cls-1" d="M476.33,331c7,0,11.57-1.88,16.42-5.65.81-.54,1.08-.81,1.35-1.88-.81-1.35-2.96-3.23-4.04-4.04q-.81-.81-1.88-1.08c-.81,2.69-6.46,5.65-10.76,5.65-5.92,0-8.34-1.08-12.11-5.11-5.92-5.92-5.65-19.11-.27-25.03,5.65-5.92,15.07-6.46,20.99-1.35,1.08.81,1.35,1.61,2.42,2.15l5.92-5.38c-2.42-3.5-9.69-7.27-15.61-7.27-9.69,0-13.72,1.08-20.45,7.54-1.88,1.88-3.5,4.84-4.57,7.54-.81,2.42-1.88,7.8-1.61,10.23,1.08,9.69,4.04,18.03,13.99,22.07,3.23.54,6.73,1.61,10.23,1.61h0Z"/>
        <path class="cls-1" d="M144.79,290.37c0-9.15,1.61-7.54-6.73-7.54-1.61,0-.81,1.88-.81,2.96.27,1.35,0,3.23,0,4.57l.27,39.29h7.54v-23.14c0-12.11,6.46-18.84,18.03-16.42,0-2.15.27-2.69.27-5.11v-2.42s.54-.81-1.35-.81c-13.99,0-14.26,6.46-17.22,8.61h0Z"/>
      </g>
    </g>
  </g>
</svg>