<?xml version="1.0" encoding="UTF-8"?>
<svg id="Layer_2" xmlns="http://www.w3.org/2000/svg" viewBox="0 0 345.91 76.95">
  <defs>
    <style>
      .cls-1 {
        fill: #fff;
      }
    </style>
  </defs>
  <g id="Layer_1-2" data-name="Layer_1">
    <g id="Layer_x5F_1">
      <g id="_2889322582032">
        <path class="cls-1" d="M170.42,38.41c.18-1.66,1.55-5.09,2.12-7,1.37-4.5,1.07-4.86,4.16-4.87,5-.01,3.76.67,2.52,4.88-.7,2.4-1.29,4.63-2.07,7.03l-6.73-.05h0ZM266.74,25.41c.31-.96.54-1.64.23-2.71-2.65-.31-6.9-.06-9.73-.06-20.11,0-18.6-1.72-21.28,7.34-.74,2.49-2.03,5.19-.49,7.73,1.78,2.94,12.16,14.25,12.13,16.42-1.53,1.1-9.74.56-12.41.56-2.85,0-10.67.56-12.38-.58-.29-2.78,6.56-22.85,6.68-27.03.17-5.97-8.06-4.43-12.64-4.43-5.47,0-11.23-.18-16.66.03l-7.34,26.13c-2.25,8.04.29,6.28-18.79,6.28-8.64,0-9.54,2.18-4.87-12.36l19.48-.06c.55-.85,1.71-5.84,2.07-7.13.64-2.29,1.64-4.97,1.28-7.63-.84-6.14-6.84-5.26-12.91-5.26-19.72,0-16.18-1.3-22.91,22.73-.58,2.07-1.6,5.03-1.81,7.21-.76,7.8,6.25,6.25,12.24,6.25,4.79,0,34.29.33,36.41-.17l4.9-18.74c.48-1.92,2.77-12.25,4.1-13.4,1.07-.93,3.99-.66,4.81.09.69,1.66-2.72,13.09-3.31,15.52-1,4.12-4.33,11.92-.59,14.89,2.76,2.19,13.62,1.44,17.98,1.44,6.47,0,12.93,0,19.4,0,4.06,0,5.68.57,6.77-3.08.48-1.63,1.97-6.18,1.93-7.54-.11-3.77-14.14-15.96-14.09-19.96.02-1.71.76-2.2,2.48-2.27,4.25-.17,16.18.62,19.33-.18h0Z"/>
        <path class="cls-1" d="M60.67,38.67c.19-1.59,1.54-5.13,2.13-6.97,1-3.13.53-4.87,4.14-4.89,5.03-.02,3.81.63,2.54,4.9-.69,2.33-1.28,4.75-2.07,7.01l-6.74-.06h0ZM92.3,59.05c1.86-8.42,4.84-18.45,7.04-27.22.85-3.41,1.04-6.57,5.43-5.35,1.03,1.98-.86,6.93-1.47,9.04-1.4,4.89-2.94,7.45.86,7.45,11.17,0,9.59.75,10.97-4.92.56-2.28,1.06-4.44,1.63-6.6,1.78-6.8,1.59-8.81-5.96-8.81-5.65,0-16.35-.22-21.41.05-1.87,5.71-3.37,12.02-4.97,17.87-.83,3.05-1.67,6.01-2.48,8.93-1.6,5.74-.83,5.85-5.42,5.86h-17.54c-1.18,0-1.57-.18-2.31-.68-.35-1.95,2.09-9.72,2.79-11.68l19.59-.1c.91-2.93,2.87-9.66,3.23-12.38.72-5.59-2.14-7.97-7.35-7.98-5.46,0-16.77-.67-20.36,1.2-3.23,1.68-3.49,4.91-4.53,8.74-1.04,3.85-5.35,18.42-5.45,21.17-.2,5.29,3.23,5.45,8.02,5.45,12.05-.02,28.72.46,39.7-.03h0Z"/>
        <path class="cls-1" d="M17.68,35.14c-1.83-.8-7.15-.37-9.46-.38-5.02-.02-3.92-.08-5.01,4.61-2.78,12.01-6.81,19.65,3.15,19.61,5.25-.02,26.28.36,28.47-.23,4.59-1.24,5.8-7.31,7.1-12.32,1.32-5.08,2.79-10.08,4.25-15.19,1.36-4.77,2.92-10.18,4.32-15.06.85-2.98,4.19-12.65,3.61-15.36-1.42-.87-12.49-1.24-14.08-.14-1.29.9-3.02,8.96-3.63,11.24l-9.62,35.29c-2.24,8.3-1.38,8.02-6.86,8.01-6.69-.01-6.82.6-4.67-7.85.58-2.29,3.02-10.12,2.44-12.23h0Z"/>
        <path class="cls-1" d="M130.47,54.8c-3.59-.02-2.86-1.16-1.19-6.6l4.45-15.22c1.54-5.37,1.08-5.98,3.91-6.01,2.45-.02,1.87-.22,4.12.25.17,1.3-6.05,24.54-6.9,27.58h-4.39s0,0,0,0ZM131.65,63.86c-2.68.76-17.44-.16-19.69.28-1.41.27-2.93,2.57-1.88,3.79.85.99,10.93.45,12.95.45,4.34,0,8.68,0,13.02,0,4.16,0,5.69.54,8.03-5.4,1.22-3.09,7.8-26.12,8.94-30.1,1-3.49,3.5-9.15,1.17-10.12-1.03-.43-23.89-.44-25.95-.02-3.65.75-5.09,3.56-6.08,6.92-1.96,6.68-3.97,13.78-5.72,20.62-1.02,3.96.07,7.87,3.74,8.57,2.88.55,9.54.03,12.93.15-.08,1.09-.96,4.11-1.46,4.85h0Z"/>
        <path class="cls-1" d="M154.58,70.29c.28.27.16.11.43.51l.2.37c.95,1.92,1.4,6.24,2.99,5.28.35-.21,2.45-6,2.77-6.75l.2,6.95,1.35-.07-.05-8.72h-2.23c-.95,1.32-1.56,4.41-2.54,5.89l-2.34-5.9h-2.23c-.24,1.42-.11,2.95-.11,4.41,0,.8-.01,1.6-.02,2.4l.14,1.52c.01.06.07.25.08.22.01-.04.05.15.09.25l1.19-.12.07-6.22Z"/>
        <path class="cls-1" d="M175.88,70.35c1.91,1.27,2.84,5.59,4.82,6.29l1.46-.03c0-1.63,0-3.26,0-4.88,0-2.94.57-4.14-.93-3.89-.82.46-.57-.14-.65,1.47-.02.41.03,1.17.04,1.62,0,1.04.01,2.08-.03,3.12-.61-.35-2.09-2.89-2.57-3.62-.3-.46-.94-1.58-1.25-1.95-.75-.91-1.08-.68-2.5-.57-.03,1.87-.28,7.27.17,8.75l1.37-.07.08-6.23h0Z"/>
        <path class="cls-1" d="M249.52,70.34c.95.65,1.56,2.04,2.38,3.27.44.66.59.91,1.02,1.63.91,1.51.67,1.41,2.89,1.37,0-1.63,0-3.26,0-4.89,0-2.92.59-4.19-.95-3.89-.8.48-.54-.05-.61,1.47v4.75c-.68-.43-3.57-5.19-4.27-6.21l-1.96.02c-.24,1.36-.28,7.55.05,8.79l1.39-.04.06-6.26h0Z"/>
        <path class="cls-1" d="M321.29,76.51c.51-1.4.14-4.3.18-5.98,1,.49.33-.04.97.86.2.29.41.71.58.99.34.56.81,1.2,1.17,1.76,1.24,1.92.81,2.59,3.57,2.46,0-1.54,0-3.07,0-4.61,0-.77.51-3.98-.63-4.15-1.31.25-.76-.44-.94,1.18-.02.19.03,1.34.03,1.64.02,1.11.03,2.24-.03,3.35-2.67-1.44-2-6.41-6.32-6.12l-.04,6.76c0,1.86-.04,1.12.39,1.99l1.06-.13h0Z"/>
        <path class="cls-1" d="M264.41,72.98c.04,1.98.07,2.84-2.57,2.4-1.4-.23-2.29-1.36-2.44-2.65-.62-5.28,5.55-3.14,5.55-3.14l.73-.8c-1.65-2.33-7.95-1.59-7.96,3.46,0,4.15,4.63,5.99,8.29,3.72l-.06-4.48-3.31.08.03,1.27,1.75.13h0Z"/>
        <path class="cls-1" d="M237.47,69.22c4.26-.18,4.31,2.47-.02,2.3l.02-2.3ZM240.36,72.65c2.3-.67,4.22-5.46-4.51-4.75l.06,8.67c1.79.22,1.46.28,1.57-3.61,1.5-.17,1.49.65,2.1,1.8.78,1.49.66,1.86,2.7,1.85-.51-1.66-1.56-2.38-1.91-3.97h0Z"/>
        <path class="cls-1" d="M203.02,73.26c.09-1.19.66-2.29,1.24-3.32l1.12,3.33h-2.36s0,0,0,0ZM199.91,76.62c2.12,0,1.73-.37,2.36-1.95h3.68c1.39,1.62-.24,1.94,2.58,1.95-.33-1.57-2.99-7.61-3.7-8.79l-1.2.02c-.76,1.28-3.42,7.3-3.72,8.76Z"/>
        <path class="cls-1" d="M273.84,69.32l4.27-.15-.02-1.34-5.83.09-.02,8.48c1.2.41,4.93.41,6.14,0l-.04-1.15-4.48-.07.11-2.32c.73-.02,3.73.43,3.87-.62-.25-1.15-.13-.87-1.74-.86-.91,0-1.33.09-2.27-.09v-1.97s-.01,0-.01,0Z"/>
        <path class="cls-1" d="M167.98,70.69c.45-.84.17-.3.53-.62l1.01,3.2-2.35-.02.81-2.57h0ZM164.06,76.61c2.23.04,1.62,0,2.36-1.96l3.85.05.86,1.88,1.71-.04-3.83-8.69h-1.24c-.83,1.55-3.33,7.09-3.7,8.76h0Z"/>
        <path class="cls-1" d="M184.55,67.88c-.56,3.94-.68,9.08,3.59,8.97,4.14-.11,3.85-5.26,3.35-9.01l-1.39.02c-.45,2.73,1.07,7.64-2.23,7.45-2.95-.17-1.55-5.1-1.93-7.48l-1.39.05h0Z"/>
        <path class="cls-1" d="M226.52,67.87c-.54,4.01-.7,9.08,3.61,8.98,4.05-.1,3.85-5.09,3.35-9h-1.4c-.39,2.48,1.04,7.64-2.18,7.5-2.97-.13-1.57-5.07-1.97-7.51l-1.4.03h0Z"/>
        <path class="cls-1" d="M313.52,69.28l4.19-.12-.05-1.33-5.82.08v8.51s6.08-.19,6.08-.19l-.05-.8c-1.14-.52-3.05-.05-4.46-.36l.05-2.13,3.29-.15c.78-.25.32.16.69-.54.19-1.38-1.62-.79-3.93-.85v-2.11s0,0,0,0Z"/>
        <path class="cls-1" d="M306.46,75.1c-2.41-1.3-1.86,1.36-4.51,0-2.98-1.51-1.68-7.19,2.37-5.81,2.81.96,2.02-1.19-.06-1.59-3.84-.75-6.5,2.54-5.35,6.17.97,3.05,6.41,4.39,7.55,1.22h0Z"/>
        <path class="cls-1" d="M217.41,75.12c-2.43-1.28-1.28.8-3.89.23-2.88-.64-3.05-5.28-.26-6.14,2.58-.79,2.11,1.47,3.87-.15-1.2-2.67-7.73-1.88-7.51,3.45.19,4.77,6.59,5.68,7.79,2.61Z"/>
        <path class="cls-1" d="M337.41,75.17c-2-1.39-1.34.51-3.57.22-3.05-.39-3.26-4.78-1.04-5.98,1.76-.95,2.21,0,3.59.37.46-.35.58-.33.88-1.05-3.54-2.27-7.95-.71-7.57,4.06.39,4.78,7.08,5.07,7.71,2.38h0Z"/>
        <path class="cls-1" d="M281.91,69.3c1.22-.06,3.02.23,4.01-.24l.02-1.22-5.66.05c-.02,1.89-.26,7.25.17,8.76l1.37-.07.08-3.57,3.76-.05-.07-1.39-3.74-.06.06-2.21h0Z"/>
        <polygon class="cls-1" points="195.53 69.28 199.52 69.23 199.47 67.82 193.85 67.93 193.98 76.56 195.42 76.59 195.45 73.05 199.28 72.95 199.21 71.57 195.46 71.52 195.53 69.28"/>
        <path class="cls-1" d="M289.41,69.3l4.08-.16v-1.29s-5.6.02-5.6.02l-.08,7.84,1.33.87c.36-.72.24-.65.25-1.64,0-.65-.01-1.2.03-1.89l3.84-.15-.04-1.29-3.85-.11.05-2.18h0Z"/>
        <path class="cls-1" d="M342.65,76.6c.55-2.67-.62-2.75.99-5.11.61-.89,1.98-2.77,2.27-3.64h-1.7c-.75,1.08-1.24,2.32-2.19,3.16-.78-.61-1.48-2.11-2.2-3.17h-1.74c.19.82,1.68,2.86,2.25,3.72,1.63,2.44.32,2.47,1.01,5.09l1.31-.05h0Z"/>
        <path class="cls-1" d="M221.36,67.83c-3.81-.01-2.89-.25-3.27.7.65.9-.82.43,1.13.73.17.03,1.12-.02,1.53,0l.2,7.38,1.31-.05c.43-2.15-.33-5.44.31-7.36.21,0,1.37.02,1.47,0,.95-.24.58.14.97-.7-.17-.36.07-.72-1.76-.74-.59,0-1.27.04-1.88.04h0Z"/>
        <path class="cls-1" d="M295.33,67.85c-.18,1.51-.07,3.13-.07,4.67,0,4.66-.35,4.42,1.61,4.27l-.09-8.97-1.45.04h0Z"/>
        <path class="cls-1" d="M244.02,67.83c-.16,1.54-.07,3.13-.07,4.68s-.19,3.12.26,4.33l1.35-.07-.08-8.96-1.46.02Z"/>
        <path class="cls-1" d="M308.09,67.85c-.19,1.53-.07,3.12-.07,4.67l.04,3.68c.23.77-.02.7,1.57.58l-.09-8.97-1.45.04h0Z"/>
      </g>
    </g>
  </g>
</svg>