<?xml version="1.0" encoding="UTF-8"?>
<svg id="Layer_2" xmlns="http://www.w3.org/2000/svg" viewBox="0 0 273.6 61.4">
  <defs>
    <style>
      .cls-1 {
        fill: #fff;
      }
    </style>
  </defs>
  <g id="Layer_1-2" data-name="Layer_1">
    <g id="Layer_x5F_1">
      <g id="_2889451804944">
        <path class="cls-1" d="M221.13,19.8c.04-1.81,1.07-3.44,1.07-5.36h-17.14c-.46,1.99-11.36,44.23-11.36,45.85h16.5c.8,0,.87-1.3,1.03-1.97l1.88-7.54c.85-3.42,1.64-6.55,2.49-9.94.81-3.23,1.66-6.72,2.48-9.95.87-3.42,2.27-6.17,6.47-6.17,6.04,0,3.05,6.42,1.84,11.27l-4.03,16.11c-.31,1.22-.68,2.72-.98,3.94-.3,1.2-.9,2.98-.9,4.24h16.93c2.25-9.64,5.05-19.81,7.46-29.61.84-3.44,2.52-5.96,6.47-5.96,4.93,0,3.85,3.68,3,7.07-.79,3.14-1.57,6.29-2.36,9.43l-3.56,14.23c-.34,1.37-1.05,3.58-1.16,4.84,6.65,0,14.61.76,18.29-6.14,1.2-2.26,5.66-21.3,6.78-25.79,1.03-4.12,2.84-10.19-1.53-13.03-5.33-3.47-16.05-2.33-21.23,2.27-.81.72-1.69,2.13-2.73,2.41-.09-4.17-4.88-6.64-9.43-6.64-4.13,0-7.04-.06-10.86,2-3.5,1.88-3.62,3.22-5.43,4.43h0Z"/>
        <path class="cls-1" d="M39.43,38.23h-10.07l2.71-6.07c1.05-2.06,1.85-4.14,2.86-6.14.51-1.01.89-2,1.43-3.07l1.43-3.07c.28-.58.37-.92.64-1.5.27-.59.55-1.04.78-1.57l1-2.22c.15-.28.09-.19.23-.41.26-.4.08-.15.27-.37l-.86,15.21c.02,1.39-.19,1.85-.22,2.99-.06,2.25-.21,3.91-.21,6.22h0ZM0,60.3h19.5c1.67-3.15,3.29-7.8,4.71-10.5h14.57c-.08.92-.23,1.32-.22,2.57.01,1.19-.08,1.73-.18,2.6-.1.91.03,1.83-.04,2.74-.08.92-.2,1.36-.2,2.58h19.71c0-2.73-.22-4.71-.21-7.5l-1.29-33.64c0-1.63-.23-2.33-.22-3.85.02-5.16-.42-9.92-.42-15.22-7.73,0-14.59-.87-20.91,2.88-6.01,3.56-7.7,6.77-10.66,12.05l-2.29,4.36c-.41.78-.78,1.32-1.22,2.21-2.58,5.23-6.68,12.04-9.22,17.14L1.11,57.98c-.45.74-.9,1.41-1.11,2.32h0Z"/>
        <path class="cls-1" d="M143.78,52.8c0,3.18.6,5.02,3.03,6.61,4.52,2.94,12.47,2.36,17.11.04,3.42-1.71,5.14-4.21,5.57-4.5-.04,1.81-1.07,3.44-1.07,5.36h16.93l11.41-45.63h-17.19s-4.76,19.23-4.76,19.23c-.79,3.14-1.58,6.32-2.4,9.6-.41,1.64-.78,3.21-1.68,4.31-1.78,2.18-3.19,2.2-5.51,2.2-4.58,0-2.72-5.2-2.14-7.5.77-3.1,6.83-26.58,6.86-27.86h-17.14c-.03,1.16-.78,3.56-1.07,4.71-.4,1.61-.78,3.11-1.2,4.8l-5.87,23.48c-.38,1.5-.86,3.31-.86,5.14h0Z"/>
        <path class="cls-1" d="M88.49,53.23c0,1.67-.14,3.33,1.12,4.67,3.08,3.28,10.35,2.98,14.96,2.84l5.17-.4c1.32-.19.95-.16,1.25-1.53l2.14-8.79c-8.63,0-7.2.86-2.18-19.33l1.33-5.74h7.29c.05-2.02,2.36-8.36,2.36-10.5h-6.86c.12-1.39,3.39-12.4,3.43-13.93h-16.5c-.7,0-.68.53-.83,1.1l-11.26,44.67c-.47,1.9-1.41,4.9-1.41,6.94h0Z"/>
        <path class="cls-1" d="M61.33,60.31h17.09c3.36-14.45,7.67-30.5,11.31-45.05.36-1.44,3.66-14.03,3.69-15.17h-17.14l-14.95,60.22h0Z"/>
        <path class="cls-1" d="M116.78,60.3h17.14c.07-.85.44-1.97.64-2.79.25-.99.46-1.84.73-2.91l9.99-39.94h-17.14l-11.36,45.64Z"/>
      </g>
    </g>
  </g>
</svg>