<?xml version="1.0" encoding="UTF-8"?>
<svg id="Layer_2" xmlns="http://www.w3.org/2000/svg" viewBox="0 0 251.41 64.2">
  <defs>
    <style>
      .cls-1 {
        fill: #fff;
      }
    </style>
  </defs>
  <g id="Layer_1-2" data-name="Layer_1">
    <g id="g6">
      <path id="path8" class="cls-1" d="M164.79,45.82c-3.41,0-6.18-2.65-6.18-5.92s2.77-5.92,6.18-5.92,6.18,2.65,6.18,5.92c0,3.27-2.77,5.92-6.18,5.92M89.19,11.82c-4.02.56-10.07,2.31-9.27,10.11.44,4.28,4.13,7.6,5.65,9.2,1.75,1.84,3.15,4.28-.84,4.19-1.43-.03-3.54-.53-4.57-1.49v11.81s8.99,0,8.99,0c5.81.03,11.46-2.83,11.42-9.93-.03-5.16-4.92-8.65-7.32-11.27-1.09-1.19-.35-2.14.37-2.58.97-.6,3.99-.25,6.25.89v-10.75c-2.54-.41-7.96-.56-10.68-.18M136.09,22.86c-1.89-6.68-8.08-11.56-15.59-11.84-9.19-.35-18.83,6.39-18.83,18.24,0,9.53,7.99,16.87,18.06,16.87,6.09,0,9.98-.98,14.45-4.43v-12.55c-2.49,4.2-12.87,8.2-17.19,6.06l19.1-12.35ZM113.41,27.89c-1.41-3.92,2.33-7.52,5.3-7.84,1.12-.12,3.68.22,4.48,1.82l-9.77,6.02ZM149.86,29.85c.14-7.67,6.48-6.45,7.99-5.73v-13.05c-4.78-.47-7.98,1.39-8.74,4.32v-3.94s-11.31,0-11.31,0v34.32h12.06v-15.92M77.79,33.57v-10.34c0-9.4-5.26-10.9-12.21-11.41-3.9-.29-9.46.16-12.88.84l-2.72,8.85c10.13-2.66,16.19-1.76,16.19,1.89v1.79c-4.77-4.28-17.41-2.76-18.12,9.24-.41,7.02,5.1,11.62,11,11.62,5.08,0,6.76-2.05,8.21-3.95v3.75l10.54.02v-12.28h0ZM63.25,30.19c2.22,0,3.26,1.78,3.26,3.38,0,1.81-1.17,3.44-3.26,3.44s-3.56-1.06-3.56-3.44c0-2.57,2.04-3.38,3.56-3.38M46.6,45.81V0h-12.06v45.81h12.06ZM0,45.77h19.67c9.52,0,13.31-6,13.07-12.82-.24-6.95-5.41-9.69-6.05-9.3,3.58-2.16,5.34-5.62,5.34-10.19C32.03,6.22,27.28.43,17.5.43H0v45.34ZM12.63,10.85h2.89c3.43,0,4.14,1.7,4.22,3.96.1,2.77-2.43,3.97-4.22,3.97h-2.89v-7.93ZM12.63,27.53h2.89c3.43,0,4.14,1.7,4.22,3.96.1,2.77-2.38,3.96-4.22,3.96h-2.89v-7.93ZM161.62,49.6h3.43l-4.02,14.35h-3.43l4.02-14.35ZM179.55,49.99c-1.84-.47-3.87-.64-5.83-.64-4.31,0-7.69,1.32-7.69,4.34,0,3.82,7.66,3.41,7.66,6,0,1.54-2.8,2.24-4.96,2.24-1.93,0-3.77-.47-5.5-.98l-1.16,2.45c2.03.47,4.25.8,6.4.8,4.92,0,9.24-1.28,9.24-4.79s-7.66-3.85-7.66-6.15c0-1.23,2.16-1.65,3.77-1.64,1.64,0,3.35.31,4.67.74l1.06-2.36ZM194.77,49.99c-1.84-.47-3.86-.64-5.82-.64-4.32,0-7.69,1.32-7.69,4.34,0,3.82,7.66,3.41,7.66,6,0,1.54-2.8,2.24-4.96,2.24-1.93,0-3.77-.47-5.5-.98l-1.16,2.45c2.03.47,4.25.8,6.4.8,4.92,0,9.24-1.28,9.24-4.79s-7.66-3.85-7.66-6.15c0-1.23,2.16-1.64,3.76-1.64s3.35.31,4.67.74l1.06-2.36ZM193.1,63.95h11.52l.65-2.59h-8.05l3.42-11.77h-3.49l-4.05,14.35ZM208.68,49.6l-2.19,7.79c-1.12,4.09-.27,6.81,5.97,6.81,5.3,0,6.47-2.24,7.56-5.92l2.54-8.68h-3.32l-2.08,7.28c-.68,2.36-.74,5.06-4.68,5.06-4.24,0-3.11-3.52-2.49-5.53l1.94-6.81h-3.26ZM232.15,56.49c.91,0,2.67,1.28,2.72,2.82.12,4.09-4.89,4.65-8.63,4.65h-5.44l3.99-14.35h5.66c2.34,0,5.21.82,5.21,3.44,0,1.75-1.67,3.28-3.51,3.41v.04M226.4,61.69c2.35,0,4.98-.21,4.98-2.43,0-1.51-1.86-1.73-3.91-1.73h-1.91l-1.15,4.16h1.99M228.34,55.4c1.94,0,4.05-.41,4.05-2.1,0-1.38-1.75-1.44-3.2-1.44h-2.02l-1.01,3.54h2.18M235.66,63.95h11.86l.77-2.48h-8.71l1.12-3.81h7.75l.6-2.26h-7.72l.98-3.54h8.52l.57-2.26h-11.73l-4.02,14.35ZM136.89,50.05s-2.56-.39-3.16-.46c-1.42-.22-3.21-.38-5.17-.38-4.32,0-7.5,1.45-7.5,4.47,0,3.82,7.44,3.41,7.44,6,0,1.54-2.8,2.24-4.96,2.24-1.93,0-3.77-.47-5.51-.99l-1.16,2.45c2.03.47,4.25.8,6.4.8,4.93,0,9.24-1.27,9.24-4.79s-7.66-3.84-7.66-6.15c0-1.23,2.16-1.75,3.77-1.75,1.51,0,3.92.38,5.32.77l.98,11.67h3.67l8.14-11.41-.11,11.41h4.45l9.33-14.35h-3.51l-6.95,10.96-.08.03v-10.94h-4.39s-7.73,10.93-7.73,10.93l-.07.04-.8-10.57"/>
    </g>
  </g>
</svg>