<?xml version="1.0" encoding="UTF-8"?>
<svg id="Layer_2" xmlns="http://www.w3.org/2000/svg" viewBox="0 0 126.23 82.43">
  <defs>
    <style>
      .cls-1 {
        fill: #fff;
      }
    </style>
  </defs>
  <g id="Layer_1-2" data-name="Layer_1">
    <g>
      <path class="cls-1" d="M39.71,41.78c-.04,3,.14,6.41-.21,9.81-.71,6.88-4.23,11.05-11.08,12.77-5.12,1.29-10.32,1.73-15.51.41-7.71-1.96-12.33-9.1-11.99-15.47.12-2.33.05-4.67,0-7.01-.01-.73.21-.95.94-.94,4.68.03,9.35.02,14.03,0,.7,0,.84.21.81.91-.11,2.56.03,5.11.33,7.65.17,1.44,1.46,2.67,2.87,2.83,1.15.13,2.31-.69,2.9-2.02.25-.55.39-1.13.4-1.72.04-2.45.13-4.9.05-7.34-.07-2.12-1.72-3.51-4.06-3.55-2.89-.04-5.79,0-8.68-.02-4.29-.03-8.34-2.75-9.81-6.62-.3-.79-.57-1.64-.58-2.47-.07-4.97-.32-9.95.39-14.88C1.57,6.62,5.68,2.36,13.1.8c5.06-1.06,10.08-1.17,15.05.37,4.27,1.33,7.79,3.62,9.34,8.12.41,1.2.57,2.45.57,3.72,0,3.12-.01,6.23.03,9.35,0,.65-.24.75-.77.74-4.53-.03-9.05-.06-13.58-.06-.71,0-.75-.36-.75-.91,0-2.04.06-4.08-.13-6.11-.08-.86-.25-1.69-.69-2.43-1.01-1.71-3.26-1.89-4.5-.32-.84,1.06-1.11,2.33-1.12,3.65-.01,2-.02,4.01,0,6.01.03,2.58,1.01,3.57,3.58,3.58,3.01.02,6.01-.05,9.02.03,2.96.07,5.84.53,8.22,2.54,1.5,1.26,2.33,2.85,2.33,4.83,0,2.49,0,4.97,0,7.87Z"/>
      <path class="cls-1" d="M126.22,42.34c-.11,2.82.1,6.12-.23,9.42-.62,6.22-3.94,10.58-9.92,12.3-5.59,1.6-11.29,2.19-17,.59-7.12-1.99-11.72-8.22-11.68-15.61.01-2.26.03-4.53,0-6.79,0-.66.18-.9.87-.9,4.71.02,9.43.03,14.14,0,.7,0,.88.23.87.89-.04,2.48-.09,4.97.3,7.44.28,1.75,1.61,3.07,3.11,3.08,1.42,0,2.8-1.33,2.99-3.09.29-2.66.38-5.33.23-8-.13-2.14-1.79-3.53-4.1-3.56-2.93-.04-5.86.01-8.79-.02-4.8-.05-9.08-3.32-10.1-7.72-.18-.79-.28-1.61-.29-2.42-.03-4.41-.1-8.82.34-13.22.48-4.77,2.37-8.78,6.47-11.49,2.68-1.77,5.77-2.42,8.91-2.88,5.13-.76,10.14-.35,14.89,1.8,4.88,2.21,7.5,5.97,7.4,11.45-.05,2.82-.02,5.64,0,8.46,0,.66-.1.99-.89.99-4.49-.01-8.98.02-13.47.06-.64,0-.72-.31-.73-.83,0-1.85-.05-3.71-.07-5.56,0-.9-.17-1.78-.5-2.6-.44-1.1-1.2-1.81-2.5-1.88-1.36-.07-2.15.67-2.73,1.73-.53.96-.68,2.03-.68,3.12,0,2-.02,4.01,0,6.01.03,2.33,1.09,3.4,3.42,3.42,3.01.02,6.01-.02,9.02.01,2.51.03,4.96.39,7.17,1.69,2.27,1.33,3.6,3.23,3.55,5.98-.04,2.56,0,5.12,0,8.15Z"/>
      <path class="cls-1" d="M60.22,32.86c0,5.23,0,10.46,0,15.69,0,2.12.76,3.45,2.21,3.99,1.45.54,2.86,0,3.55-1.39.54-1.09.69-2.27.71-3.46.03-1.97-.02-3.93.03-5.9.02-.75-.17-1.04-.98-1.03-.94,0-2.2.47-2.73-.24-.45-.6-.13-1.78-.13-2.71,0-2.71.03-5.42-.02-8.12-.01-.79.23-.99,1-.99,5.75.03,11.5.03,17.26,0,.81,0,1.07.2,1.07,1.05.01,5.64-.06,11.27.05,16.91.05,2.85-.38,5.67-1.24,8.43-1.4,4.53-4.32,7.52-8.87,8.84-5.67,1.65-11.42,1.87-17.13.41-5.53-1.42-8.58-5.37-10.09-10.68-.65-2.26-.83-4.6-.85-6.93-.06-9.38-.06-18.77,0-28.15.02-2.66.43-5.3,1.17-7.89,1.44-5.06,4.88-8.08,9.78-9.38,6.05-1.6,12.11-1.44,18.02.8,5.63,2.14,9.28,7.56,9.16,13.44-.05,2.63-.03,5.27,0,7.9,0,.72-.13,1.05-.96,1.05-4.53-.04-9.05-.03-13.58,0-.73,0-.93-.22-.94-.95-.04-2.63.22-5.27-.17-7.89-.07-.51-.18-1.02-.35-1.51-.4-1.18-1.3-1.85-2.47-1.9-1.39-.06-2.28.47-2.85,1.68-.59,1.25-.63,2.58-.63,3.92,0,5.01,0,10.01,0,15.02Z"/>
      <path class="cls-1" d="M1.16,79.04c.58.4,1.14.83,1.82,1.02.82.23,1.61.18,2.05-.61.45-.8.43-1.66-.36-2.3-.51-.42-1.09-.76-1.64-1.13-1.97-1.31-2.62-3.88-1.51-5.97.88-1.65,3.34-2.21,4.83-1.09.4.3.69,1.86.43,2.26-.18.29-.38.12-.56.02-.39-.2-.76-.5-1.18-.6-.61-.15-1.29-.21-1.69.47-.4.68-.34,1.36.17,1.96.44.52,1.05.81,1.62,1.15,2.1,1.28,2.84,3.42,1.98,5.75-.83,2.27-3.6,3.16-5.6,1.81-.75-.51-.9-1.48-.38-2.73Z"/>
      <path class="cls-1" d="M37.08,75.78c.05-2.1.28-3.85,1.26-5.41,1.02-1.61,2.77-2.32,4.48-1.79,1.46.45,1.93,1.27,1.65,2.78-.09.48-.25.58-.64.26-.17-.14-.34-.29-.52-.42-1.28-.87-2.71-.56-3.34.86-.95,2.16-.96,4.4-.06,6.57.6,1.46,2.12,1.77,3.54.89.29-.18.52-.71.91-.42.29.21.12.69.16,1.06.09.92-.38,1.43-1.16,1.8-2.68,1.26-5.47-.43-6.03-3.73-.15-.91-.33-1.82-.26-2.45Z"/>
      <path class="cls-1" d="M94.06,76.42c0-1.52-.05-3.04.02-4.55.04-.87-.27-1.14-1.07-1.01-.18.03-.37-.01-.55,0-.84.1-1.29-.1-1.28-1.11.01-.97.38-1.18,1.26-1.15,1.81.06,3.63.06,5.44,0,.89-.03,1.09.38,1.07,1.12-.01.67-.03,1.19-.99,1.17-1.84-.04-1.85.02-1.85,1.83,0,2.81-.03,5.63.02,8.44.01.8-.28,1.04-1.02,1.04-.72,0-1.09-.18-1.06-1.01.06-1.59.02-3.18.02-4.77Z"/>
      <path class="cls-1" d="M122.12,71.88c1.58,0,2.17.56,2.05,1.89-.04.47-.11.71-.65.4-.74-.42-1.69-.96-2.22.07-.6,1.15.55,1.52,1.32,1.88,2.01.92,2.31,2.91,1.63,4.58-.59,1.44-2.33,2.03-3.96,1.42-.91-.34-1.32-1.24-1.01-2.15.17-.5.44-.27.68-.12.47.3.94.57,1.53.56.49-.01.9-.15,1.07-.63.19-.54.07-1.03-.44-1.36-.47-.3-.96-.55-1.43-.84-1.22-.77-1.7-2.27-1.23-3.81.37-1.24,1.3-1.89,2.67-1.89Z"/>
      <path class="cls-1" d="M19.43,74.93c0,2.08-.03,4.16.01,6.23.02.78-.26,1.04-1.02,1.05-.82.02-.98-.34-.98-1.07.03-4.16.03-8.31,0-12.47,0-.75.19-1.06.99-1.06.8,0,1.02.33,1.01,1.07-.03,2.08-.01,4.16-.01,6.23Z"/>
      <path class="cls-1" d="M115.7,74.95c0-2.11.02-4.22-.01-6.32-.01-.71.22-1,.95-1,.7,0,1.09.15,1.08.99-.03,4.22-.03,8.43,0,12.65,0,.77-.33.95-1,.94-.65,0-1.04-.15-1.02-.93.04-2.11.01-4.22.01-6.32Z"/>
      <path class="cls-1" d="M55.43,73.35c.71-.72.99-1.58,1.97-1.47,1.29.14.73,1.13.82,1.8.07.55-.05.88-.8.72-.85-.17-1.64.86-1.66,2.04-.02,1.55-.03,3.11,0,4.66.02.75-.22,1.07-1.01,1.07-.79,0-1.01-.3-1-1.06.04-2.63.02-5.25.01-7.88,0-.59-.13-1.22.79-1.25.85-.03.92.51.87,1.37Z"/>
      <path class="cls-1" d="M21.36,77.15c0-1.37.03-2.75-.01-4.12-.02-.74.3-.96.99-.97.69,0,1,.17.99.94-.04,2.74-.04,5.49,0,8.23,0,.73-.24.98-.96.97-.68,0-1.04-.18-1.02-.94.04-1.37,0-2.74,0-4.12Z"/>
      <path class="cls-1" d="M68,77.05c0-1.34.03-2.67-.01-4.01-.02-.72.24-1.01.96-.99.64.02,1.05.13,1.04.92-.03,2.78-.02,5.57,0,8.35,0,.82-.47.86-1.09.87-.67.02-.93-.24-.91-.92.03-1.41.01-2.82.01-4.23Z"/>
      <path class="cls-1" d="M23.5,69.38c.05.75-.2,1.35-1.12,1.37-.92.02-1.16-.56-1.15-1.37.02-.78.15-1.41,1.12-1.41.94,0,1.18.57,1.15,1.42Z"/>
      <path class="cls-1" d="M70.07,69.44c.07.79-.24,1.3-1.09,1.3-1,0-1.18-.66-1.15-1.49.03-.75.25-1.3,1.13-1.3,1.04,0,1.17.67,1.11,1.49Z"/>
      <path class="cls-1" d="M66.18,74.59c-.62-2.77-2.4-3.42-4.8-1.62,0-1.59-.02-3.03,0-4.47.01-.62-.22-.83-.84-.87-.86-.05-1.17.25-1.16,1.14.04,4.07.01,8.15.02,12.22,0,.51-.22,1.14.69,1.22.84.07,1.11-.32,1.03-1.14,2.33,2.09,4.26,1.47,5-1.53.41-1.64.4-3.31.03-4.95ZM64.24,78.58c-.15.73-.38,1.49-1.31,1.55-.61.04-1.49-1.03-1.54-1.81-.03-.4,0-.81,0-1.4-.07-.72-.05-1.58.67-2.28.79-.77,1.56-.69,1.98.34.48,1.16.46,2.39.21,3.59Z"/>
      <path class="cls-1" d="M78.5,68.71c0-.76-.24-1.05-1.02-1.07-.81-.01-1.02.32-.99,1.06.04,1.37.01,2.75.01,4.26-1.68-1.46-3.26-1.43-4.08.12-1.37,2.61-1.36,5.36-.12,8.01.7,1.5,2.41,1.7,3.65.61.22-.19.36-.46.54-.69.09.02.18.05.27.07-.07.74.13,1.15.97,1.12.89-.03.76-.62.76-1.16,0-4.11-.01-8.22.02-12.34ZM75.72,79.72c-.77.65-1.48.58-1.86-.35-.61-1.49-.59-3.03.02-4.53.21-.52.65-.88,1.23-.68.75.24,1.19.86,1.36,1.6.1.42.02.88.02,1.52.06.78.08,1.73-.78,2.45Z"/>
      <path class="cls-1" d="M31.84,68.71c0-.73-.18-1.06-.99-1.07-.85,0-.97.39-.95,1.09.04,1.35.01,2.71.01,4.12-2.46-1.61-4.13-.95-4.79,1.89-.43,1.82-.43,3.67.16,5.48.77,2.39,2.66,2.84,4.47,1.1.1-.1.18-.24.41-.17-.05.64.09,1.09.93,1.06.91-.03.74-.64.74-1.17,0-4.11,0-8.22.02-12.33ZM29.19,79.65c-.77.74-1.53.69-1.93-.27-.62-1.49-.6-3.02.02-4.52.22-.53.63-.88,1.23-.68.8.26,1.23.9,1.39,1.7.08.39.01.81.01,1.37.09.79.04,1.69-.72,2.41Z"/>
      <path class="cls-1" d="M15.55,74.37c-.51-1.62-1.47-2.43-2.99-2.49-1.78-.07-2.94.63-3.56,2.22-.76,1.97-.72,3.99-.12,5.97.41,1.35,1.42,2.15,2.85,2.26,1.4.11,2.53-.4,3.3-1.61.72-1.14.83-2.42.86-3.29.01-1.33-.08-2.21-.35-3.06ZM13.49,79.32c-.26.59-.71.9-1.39.89-.65,0-1.08-.34-1.27-.89-.5-1.51-.55-3.04.05-4.54.24-.6.74-.89,1.41-.85.63.04,1,.41,1.23.96.29.69.37,1.42.35,2.16.03.78-.08,1.54-.39,2.26Z"/>
      <path class="cls-1" d="M105.26,74.31c-.48-1.5-1.43-2.33-2.81-2.42-1.81-.13-3,.52-3.66,2.07-.79,1.87-.8,3.81-.27,5.75.48,1.75,1.51,2.57,3.11,2.65,1.58.08,2.76-.7,3.45-2.28.44-1,.51-2.07.57-3.13-.06-.9-.11-1.78-.39-2.64ZM103.22,79.32c-.27.58-.72.89-1.4.88-.65,0-1.06-.34-1.26-.9-.53-1.47-.54-2.96,0-4.43.22-.58.65-.97,1.35-.96.74.01,1.13.43,1.38,1.06.28.7.29,1.44.32,2.03-.01.89-.08,1.63-.4,2.31Z"/>
      <path class="cls-1" d="M113.95,74.78c-.32-1.67-1.37-2.74-2.78-2.89-1.91-.2-3.18.52-3.9,2.21-.41.97-.54,1.99-.5,3.03-.05.89.05,1.77.29,2.63.43,1.52,1.5,2.43,2.98,2.57,1.53.14,2.8-.58,3.48-2.03.84-1.78.79-3.65.43-5.53ZM111.85,79.15c-.21.62-.63,1.06-1.38,1.06-.79,0-1.18-.45-1.44-1.13-.25-.64-.21-1.3-.23-1.96,0-.7-.01-1.4.26-2.07.27-.66.68-1.12,1.47-1.12.77,0,1.17.48,1.36,1.09.41,1.37.44,2.77-.02,4.13Z"/>
      <path class="cls-1" d="M51.73,74.52c-.04-1.11-.49-2.15-1.7-2.48-1.34-.37-2.64-.25-3.79.64-.48.37-.47.9-.4,1.42.07.52.27.86.86.42.57-.43,1.21-.68,1.96-.65,1.11.05,1.13.86,1.19,1.65.06.94-.66.53-1.08.62-.36.08-.73.09-1.09.18-1.34.34-2.07,1.09-2.16,2.33-.1,1.31-.1,2.64,1.29,3.39,1.24.67,2.28.22,3.4-.91-.1.94.29,1.1.91,1.05.43-.04.69-.17.69-.66-.02-2.33.02-4.67-.07-7ZM49.87,78.67c0,.95-.65,1.78-1.42,1.78-.82,0-1.06-.55-1.08-1.25-.02-.93.69-1.44,1.82-1.47.8-.03.68.47.68.94Z"/>
      <path class="cls-1" d="M85.83,72.83c-.8-.98-1.9-1.13-3.02-.89-1.38.29-2.08,1.36-2.44,2.62-.5,1.74-.49,3.52-.02,5.26.63,2.34,3.91,3.41,5.8,1.92.61-.48.5-1.22.3-1.74-.25-.63-.73.01-1.11.09-.72.15-1.42.44-2.16.1-.92-.42-1.22-1.23-1.09-2.1.13-.81.9-.22,1.37-.36.27-.08.59-.01.88-.01.44,0,.89.02,1.33,0,.41-.03,1.02.2,1.07-.45.12-1.55.16-3.12-.92-4.43ZM83.5,76.17c-.43-.39-1.37.51-1.43-.65-.04-.96.66-1.79,1.44-1.8.81-.02,1.46.76,1.42,1.78-.04,1.16-.98.32-1.43.68Z"/>
    </g>
  </g>
</svg>