<?xml version="1.0" encoding="UTF-8"?>
<svg id="Layer_2" xmlns="http://www.w3.org/2000/svg" viewBox="0 0 321.76 80.32">
  <defs>
    <style>
      .cls-1 {
        fill: #fff;
        stroke: #fff;
        stroke-miterlimit: 10;
      }
    </style>
  </defs>
  <g id="Layer_1-2" data-name="Layer_1">
    <g>
      <path class="cls-1" d="M101.68,20.65c4.33,0,4.22-1.66,4.22-6.04,0-3.47-.86-4.44-4.22-4.44h-7.86v10.48h7.86ZM116.28,12.9c0,6.47,0,10.21-7.16,11.92v.43c4.17.16,6.84,2.46,6.84,6.84v7.8h-10.1v-5.4c.11-2.89-1.12-4.86-4.17-4.86h-7.86v10.26h-10.1V1.14h19.51c8.71.16,13.04,2.08,13.04,11.76h0ZM69.29,24.87c0,5.88-1.92,6.47-7.27,6.47s-7.16-.59-7.27-6.47v-8.87c.16-5.83,1.92-6.41,7.27-6.41s7.27.59,7.27,6.41v8.87ZM62.02.5c-10.48,0-17.96,2.3-17.96,14.38v11.12c0,12.08,7.43,14.38,17.96,14.38s17.96-2.3,17.96-14.38v-11.12c-.05-12.08-7.48-14.38-17.96-14.38h0ZM28.94,30.43h-.43L17.93,1.19H.5v38.75h10.16l.05-28.76h.37l10.42,28.76h17.59V1.19h-10.16v29.24ZM188.12,1.14h-10.37v38.75h26.51v-8.98h-16.2V1.14h.05ZM146.69,24.29c0,4.06-1.39,6.63-5.18,6.63h-8.98V10.17h8.98c3.58,0,5.18,1.02,5.18,6.04v8.07h0ZM141.77,1.14h-19.46v38.75h20.85c10.74,0,14.11-5.02,14.11-15.61v-8.12c0-10.96-4.76-15.02-15.5-15.02h0ZM268.35,26.37c0,4.6-2.03,4.92-6.2,4.92-6.09,0-6.31-2.24-6.31-8.12v-6.15c0-5.61.53-7.43,6.31-7.43,3.42,0,5.83.27,6.15,3.8v1.5h10.42v-1.5c-.21-11.76-5.08-12.88-15.45-12.88-11.12,0-17.85,1.87-17.85,14.86v10.16c0,14.33,7.54,14.86,17.85,14.86,4.38,0,8.61.05,12.03-2.89,3.42-2.99,3.47-6.84,3.47-11.17v-1.18h-10.42v1.23h0ZM305.6,20.17l13.31-19.03h-12.19l-9.73,14.54h-3.05V1.14h-10.1v38.75h10.1v-15.18h3.05l10.53,15.18h12.51l-14.43-19.72ZM231.68,24.87c0,5.88-1.92,6.47-7.27,6.47s-7.16-.59-7.27-6.47v-8.87c.16-5.83,1.92-6.41,7.27-6.41s7.27.59,7.27,6.41v8.87ZM224.41.5c-10.48,0-17.96,2.3-17.96,14.38v11.12c0,12.08,7.43,14.38,17.96,14.38s17.96-2.3,17.96-14.38v-11.12c-.05-12.08-7.48-14.38-17.96-14.38h0ZM159.68,24.18h14.49v-8.45h-14.49v8.45Z"/>
      <path class="cls-1" d="M176.46,53.26c2.62,0,5.51-.05,5.67,3.31h8.87c0-10.58-6.04-10.64-14.54-10.64-9.62,0-15.61,1.66-15.61,12.67v8.61c0,10.8,5.24,12.61,15.61,12.61,11.76,0,14.54-2.03,14.54-13.31v-5.83h-14.91v6.2h6.04c0,4.65-1.18,5.67-5.67,5.67s-6.57-.64-6.57-6.52v-5.4c.11-5.45.27-7.38,6.57-7.38ZM308.28,62.66h-5.99v-9.14h5.99c3.42,0,3.96,1.07,3.96,4.38,0,4.22-.48,4.65-3.96,4.76ZM310.04,45.93h-16.52v32.66h8.77v-8.39h7.75c9.14,0,11.22-3.15,11.22-12.35-.05-8.45-3.1-11.92-11.22-11.92h0ZM247.18,66.62c0,4.97-1.6,5.45-6.15,5.45s-5.99-.48-6.15-5.45v-7.54c.11-4.92,1.6-5.45,6.15-5.45s6.15.48,6.15,5.45v7.54ZM241.03,45.93c-8.82,0-15.07,1.98-15.07,12.24v9.41c0,10.26,6.25,12.24,15.07,12.24s15.07-1.98,15.07-12.24v-9.41c0-10.26-6.25-12.24-15.07-12.24h0ZM278.88,66.99c0,3.8-1.23,4.12-4.92,4.12s-5.67-.05-5.67-3.74v-21.43h-8.61v21.59c0,7.8,1.39,11.06,14.27,11.06,9.46,0,13.47-2.41,13.47-11.06v-21.59h-8.55v21.06h0ZM209.92,62.4h-6.68v-8.87h6.68c2.83,0,3.58.8,3.58,3.74,0,3.69.11,5.08-3.58,5.13h0ZM222.38,55.82c0-8.12-3.63-9.78-11.12-9.89h-16.62v32.66h8.61v-8.66h6.68c2.57,0,3.63,1.66,3.53,4.12v4.6h8.61v-6.57c0-3.69-2.3-5.67-5.83-5.77v-.37c6.15-1.44,6.15-4.65,6.15-10.1h0Z"/>
    </g>
  </g>
</svg>