<?xml version="1.0" encoding="UTF-8"?>
<svg id="Layer_2" xmlns="http://www.w3.org/2000/svg" viewBox="0 0 192.2 193.76">
  <defs>
    <style>
      .cls-1 {
        fill: #fff;
      }
    </style>
  </defs>
  <g id="Layer_1-2" data-name="Layer_1">
    <g>
      <path class="cls-1" d="M0,128.98c1.01-1.75,1.94-3.37,2.87-4.99,3-5.18,6.01-10.36,8.99-15.55.26-.46.54-.6,1.05-.6,7.26.02,14.53,0,21.79,0,1.37,0,2.75.02,4.12.08.55.02.6-.11.54-.65-.42-3.76-.74-7.52-.74-11.31,0-26.67,0-53.34-.02-80.02,0-.78.14-1.02.98-1.02,15.76,0,31.03-2.84,45.9-7.94,5.55-1.9,10.98-4.11,16.18-6.85.37-.19.64-.17,1,0,11,5.63,22.64,9.4,34.71,11.93,5.62,1.18,11.29,1.99,17,2.47,3.49.3,6.99.48,10.49.39.73-.02.87.22.87.9-.02,12.68-.01,25.35,0,38.03,0,.14,0,.28,0,.59.56-.64.93-1.26,1.17-1.89.56-1.51,1.56-1.86,3.12-1.84,7.37.09,14.75.04,22.13.04.15.3-.09.48-.2.68-8.63,14.95-17.26,29.91-25.9,44.86-.23.39-.38.77-.39,1.25-.4,13.76-3.29,26.97-8.66,39.64-1.8,4.25-3.86,8.38-6.21,12.35-.31.52-.17.66.31.84,3.84,1.44,7.67,2.91,11.5,4.36.18.07.39.08.51.32-2.24.51-4.5.86-6.75,1.19-1.8.26-3.61.45-5.41.69-.47.06-.61-.08-.6-.56.03-1.93.01-3.87.01-6.07-1.92,3.17-3.84,6.05-5.94,8.95,7.08-.64,14.02-1.37,20.92-2.96v.77c0,7.99,0,15.99.01,23.98,0,.63-.11.88-.82,1.01-5.21.92-10.45,1.58-15.7,2.15-7.6.83-15.23,1.38-22.86,1.72-3.08.14-6.16.24-9.24.34-.58.02-1.08.14-1.58.46-3.93,2.54-8.01,4.79-12.23,6.81-.52.25-.95.28-1.5.02-4.13-1.99-8.17-4.16-12-6.69-.91-.6-1.84-.62-2.79-.64-6.95-.13-13.88-.53-20.81-1.07-8.73-.68-17.44-1.59-26.07-3.14-.43-.08-.64-.17-.64-.66.01-8.27.01-16.55.02-24.82,0-.05.03-.11.05-.22,6.74,1.5,13.58,2.28,20.66,2.9-2.12-2.95-4.03-5.8-5.94-8.72,0,1.95-.03,3.9.02,5.84.02.67-.16.76-.8.68-3.91-.48-7.82-1-11.68-1.78-.07-.01-.13-.05-.38-.14,1.58-.61,2.99-1.15,4.41-1.7,2.61-1,5.21-2,7.83-2.97.51-.19.56-.34.29-.8-3.73-6.33-6.78-12.96-9.12-19.93-.2-.59-.48-.74-1.07-.74-14.08,0-28.16,0-42.23-.01-.34,0-.67,0-1.18,0ZM164.53,98.97c-.1.16-.2.32-.3.49-2.03,3.51-4.05,7.03-6.08,10.54-8.17,14.16-16.34,28.31-24.5,42.47-.28.49-.59.68-1.18.68-7.52-.02-15.03-.02-22.55-.02h-1.05c4.67-8.1,9.28-16.07,13.94-24.16-5.74,0-11.32,0-16.9,0-.96,0-.96,0-.5-.79,3.78-6.54,7.57-13.07,11.33-19.63.3-.53.62-.74,1.24-.73,5.41.05,10.82.05,16.23.1.59,0,.89-.2,1.17-.69,4.44-7.71,8.89-15.42,13.34-23.13,5.23-9.06,10.46-18.12,15.7-27.18.29-.5.43-.99.43-1.58-.03-3.28-.01-6.56-.01-9.84q0-1.09-1.13-1.09c-41.06,0-82.12,0-123.18-.02-.79,0-1.03.17-1.03,1,.03,14.28.03,28.55.01,42.83,0,6.31.02,12.61.77,18.88.08.64.28.82.92.82,14.64,0,29.28.02,43.92.06.67,0,.99-.24,1.3-.77,2.05-3.6,4.13-7.18,6.2-10.77,8.67-15.03,17.34-30.05,26-45.08.28-.49.6-.62,1.13-.62,7.63.02,15.26.01,22.89.02.2,0,.43-.08.65.11-.1.19-.19.36-.28.52-8.49,14.71-16.98,29.42-25.47,44.13-10.93,18.93-21.86,37.85-32.76,56.78-.35.61-.71.84-1.43.84-7.32-.03-14.64-.02-21.96-.01-.44,0-.88,0-1.48,0,4.67-8.1,9.28-16.07,13.9-24.08h-28.46c.05.17.08.27.12.37,3.63,10.58,8.78,20.36,15.39,29.39.37.51.82.61,1.35.65,5.92.42,11.84.77,17.78.95,4.93.16,9.86.29,14.79.33,5.32.04,10.65.05,15.97-.04,4.99-.09,9.97-.18,14.96-.34,5.57-.19,11.14-.54,16.7-.9.46-.03.76-.22,1.03-.59,7.69-10.5,13.39-21.98,17.05-34.47,1.75-5.97,2.94-12.04,3.65-18.22.27-2.39.48-4.78.4-7.22ZM83.54,30.51c-.28-.19-.31-.46-.41-.69-.8-1.96-1.67-3.91-2.36-5.91-.33-.94-.79-1.19-1.73-1.15-1.87.08-1.88.02-2.32,1.85-.79,3.37-1.56,6.74-2.36,10.11-.13.55,0,.71.54.67.47-.03.96-.04,1.43,0,.73.08,1.12-.13,1.21-.93.08-.72.31-1.41.48-2.12.35-1.49.71-2.98,1.12-4.71.86,2.04,1.61,3.83,2.37,5.62.9,2.13.91,2.08,3.17,2.15.75.02.93-.28,1.07-.89.75-3.29,1.51-6.58,2.29-9.86.44-1.88.46-1.87-1.48-1.87-1.23,0-1.22,0-1.49,1.2-.5,2.17-1.01,4.34-1.52,6.53ZM110.55,30.23c.66,0,1.2.04,1.73-.01.62-.06.61.21.5.68-.32,1.27-.6,2.55-.92,3.82-.13.51-.01.72.55.68.64-.04,1.29-.05,1.93,0,.44.03.59-.18.68-.55.89-3.83,1.78-7.66,2.68-11.49.11-.47-.05-.59-.49-.57-.67.03-1.35.03-2.02,0-.42-.02-.59.13-.67.54-.25,1.23-.58,2.44-.83,3.67-.11.54-.29.82-.91.78-.98-.06-1.97-.07-2.94,0-.8.06-.77-.31-.63-.87.29-1.19.52-2.4.85-3.58.15-.54-.05-.55-.46-.54-.64.02-1.29.03-1.93,0-.47-.03-.65.11-.76.61-.75,3.38-1.55,6.74-2.33,10.11-.14.59-.58,1.35-.3,1.75.3.42,1.15.06,1.75.15.94.15,1.44-.14,1.5-1.16.04-.6.28-1.19.42-1.79.17-.7.14-1.62.57-2.05.49-.49,1.43-.09,2.04-.17ZM56.34,35.62c1.32-.09,2.56-.12,3.77-.36.33-.06.72-.06.83-.54.4-1.74.82-3.48,1.23-5.22.07-.29.03-.49-.35-.46-.22.02-.45,0-.67,0q-2.03,0-2.49,1.94-.54,2.33-2.93,2.09c-1.14-.11-1.51-.51-1.3-1.65.29-1.59.67-3.16,1.07-4.73.22-.84.8-1.36,1.7-1.55,1.2-.25,2.4-.2,3.6-.08,1.77.17,1.73.21,2.56-1.45.29-.58.08-.72-.42-.79-1.95-.26-3.9-.41-5.86-.17-2.34.28-4.06,1.45-4.73,3.78-.51,1.74-.94,3.51-1.24,5.29-.34,1.96.51,3.08,2.43,3.56.96.24,1.94.21,2.82.31ZM116.47,35.39c1.1,0,2.02-.01,2.94,0,.37,0,.61-.12.71-.46.47-1.6,1.61-1.93,3.08-1.69.25.04.5,0,.76,0,1.36,0,1.39,0,1.52,1.33.06.62.28.88.94.81.64-.07,1.29-.03,1.93,0,.44.02.5-.15.44-.55-.55-3.42-1.08-6.85-1.61-10.27-.28-1.79-.27-1.76-2.12-1.8-.63-.01-1,.17-1.32.73-.95,1.65-1.97,3.25-2.96,4.88-1.4,2.29-2.8,4.57-4.29,7.01ZM139.86,35.41s0-.01,0-.02c.17,0,.34,0,.5,0,1.22,0,1.19,0,.99-1.25-.49-3.12-.97-6.24-1.42-9.36-.28-1.99-.24-1.97-2.26-2-.57,0-.9.15-1.2.66-.95,1.64-1.97,3.25-2.96,4.87-1.31,2.15-2.62,4.3-3.95,6.43-.35.56-.24.7.39.66.7-.04,1.4-.02,2.1,0,.34,0,.64-.04.74-.39.48-1.67,1.68-1.99,3.21-1.76.47.07.95.04,1.43,0,.5-.05.66.14.73.63.06.49-.16,1.16.23,1.42.36.24.97.09,1.47.12ZM90.54,186.36c.18.19.22.26.28.3,3.53,2.21,7.18,4.22,10.94,6.02.41.2.69.07,1.01-.09,1.74-.89,3.49-1.76,5.21-2.69,1.95-1.05,3.87-2.16,5.7-3.46-7.67.14-15.33.12-23.14-.08ZM67.59,35.39c.84,0,1.68,0,2.52,0,1.84,0,1.8,0,2.23-1.83.13-.58-.05-.59-.5-.59-1.4.02-2.8-.03-4.2.02-.66.02-.71-.2-.58-.76.48-2.13.47-2.14,2.68-2.14.17,0,.34,0,.5,0,1.78,0,1.76,0,2.16-1.73.14-.58-.04-.73-.6-.69-.56.04-1.12,0-1.68,0-2.06,0-2.06,0-1.55-2,.1-.39.27-.54.69-.52,1.06.03,2.13.01,3.19.01,2.01,0,2,0,2.3-1.96.05-.35-.04-.44-.38-.44-2.61,0-5.21,0-7.82,0-.28,0-.46.06-.53.39-.89,3.89-1.79,7.77-2.7,11.66-.11.46,0,.58.46.57,1.26-.03,2.52-.01,3.78-.01ZM97.59,27.69c-.77,0-1.55,0-2.33,0-2.1,0-2.09,0-1.51-2.05.1-.37.24-.48.61-.47,1.12.03,2.24,0,3.36,0,1.74,0,1.72,0,2.12-1.67.15-.63-.05-.75-.64-.74-2.41.03-4.82.04-7.23,0-.59,0-.74.21-.86.73-.84,3.73-1.7,7.45-2.6,11.17-.14.59-.05.73.55.73,2.07-.03,4.15-.01,6.22-.01,1.77,0,1.74,0,2.17-1.72.15-.62-.05-.71-.6-.7-1.4.03-2.8,0-4.21.02-.44,0-.59-.11-.51-.57.38-2.32.37-2.32,2.71-2.32.06,0,.11,0,.17,0q2.2,0,2.61-2.19s-.02-.1-.04-.22ZM147.02,35.61c.48-.04,1.06-.1,1.64-.15,2.33-.21,3.64-1.38,4.13-3.69.29-1.4-.17-2.51-1.42-3.18-.71-.38-1.48-.66-2.22-1-.53-.24-1.02-.56-.95-1.24.07-.7.53-1.07,1.19-1.24.78-.2,1.57-.15,2.34-.06,1.87.23,1.84.25,2.55-1.48.19-.46.08-.56-.35-.66-1.24-.29-2.49-.37-3.75-.34-1.15.03-2.28.2-3.3.79-1.42.82-2.04,2.11-2.01,3.71.03,1.46,1.03,2.14,2.22,2.65.46.2.93.37,1.39.58.65.3,1.17.7,1.02,1.53-.15.82-.77,1.17-1.5,1.22-.89.06-1.79.09-2.68-.08-2.11-.41-2.1-.39-2.76,1.7-.11.35-.07.39.27.46,1.34.3,2.71.36,4.19.48ZM99.37,179.71s0,.05,0,.07c.59,0,1.18.02,1.76,0,2.33-.08,3.87-1.18,4.24-3.06.11-.54.06-1.11.06-1.67,0-2.02-.98-3.37-2.96-3.8-1.89-.4-3.84-.27-5.76-.27-.52,0-.36.41-.36.68-.06,2.46-.09,4.92-.17,7.38-.02.55.14.71.69.68.84-.05,1.68-.01,2.51-.01ZM149.63,173.57c-.38-.29-.63-.46-.86-.66-1.48-1.29-2.99-2.54-4.42-3.88-.63-.59-1.24-.48-1.94-.35-.3.05-.26.22-.23.42.31,2.61.62,5.22.93,7.83.02.15-.04.39.18.4.53.03,1.11.05,1.56-.21.32-.19.1-.67.06-1.01-.18-1.51-.37-3.02-.57-4.65.7.34,1.09.82,1.55,1.2,1.39,1.17,2.79,2.34,4.15,3.56.57.51,1.12.08,1.67.06.31,0,.15-.35.13-.55-.32-2.32-.66-4.65-.99-6.97-.17-1.18-.24-1.22-1.44-1-.44.08-.55.21-.47.71.27,1.62.45,3.26.69,5.11ZM91.63,176.55c-.23-.25-.43-.44-.61-.65-1.33-1.63-2.67-3.24-3.97-4.89-.48-.61-1.14-.42-1.69-.38-.44.03-.25.6-.27.93-.13,2.29-.21,4.58-.36,6.87-.05.71.11,1.06.87.93.14-.02.28-.02.42,0,.49.11.6-.12.61-.57.03-1.4.12-2.8.17-4.2.01-.3.01-.58.19-.93.32.38.59.7.86,1.02,1.26,1.51,2.54,2.99,3.75,4.53.49.63,1.12.5,1.67.41.47-.08.2-.65.25-1,.07-.44.04-.89.05-1.34.04-1.96.08-3.92.13-5.88.02-.83-.6-.42-.95-.49-.64-.14-.95.05-.9.82.06.97,0,1.96-.06,2.94-.04.6.11,1.22-.15,1.88ZM131.31,173.49c-.05,3.55,1.55,4.75,4.33,4.81,2.97.07,4.96-1.6,4.91-3.89-.08-3.56-1.47-5.23-4.38-5.17-2.79.05-5.13,1.41-4.86,4.25ZM71.47,173.27c.23-2.57-1.73-4.05-4.66-4.2-3.05-.16-4.52,1.54-4.62,5.21-.06,2.16,1.92,3.85,4.82,3.83,2.97-.01,4.46-1.22,4.47-4.85ZM78.08,179.02c.22,0,.45,0,.67,0,2.16-.11,3.48-1.32,3.71-3.46.13-1.22.21-2.45.23-3.68.03-1.68.31-1.4-1.43-1.49-.51-.03-.58.16-.6.6-.08,1.56-.2,3.13-.31,4.69-.08,1.05-.63,1.63-1.67,1.77-.55.07-1.11.06-1.66-.1-1.19-.34-1.68-.98-1.59-2.2.11-1.51.21-3.01.36-4.51.05-.49-.1-.67-.56-.67-.25,0-.5-.02-.75-.06-.56-.09-.79.12-.82.69-.1,1.53-.27,3.06-.36,4.6-.07,1.27.45,2.27,1.52,2.98,1,.66,2.1.87,3.27.86ZM117.13,179.5c-1.34-2.49-2.68-4.81-3.85-7.22-.54-1.12-1.19-1.59-2.42-1.41-.46.07-.68.18-.86.59-.34.82-.73,1.63-1.11,2.44-.83,1.77-1.65,3.54-2.5,5.29-.21.44-.18.58.34.58,1.5,0,1.52.02,2.1-1.38.18-.42.4-.59.87-.59,1.26.01,2.52-.03,3.78-.06.37-.01.66.03.76.45.29,1.21,1.1,1.53,2.23,1.3.16-.03.33,0,.65,0ZM61.18,169.2c.03-.34.19-.61-.3-.67-2.22-.26-4.43-.55-6.65-.86-.39-.05-.45.06-.5.41-.31,2.27-.67,4.53-.98,6.8-.2,1.47-.1,1.54,1.4,1.6.42.02.59-.08.63-.53.05-.72.25-1.44.27-2.16.02-.7.34-.72.9-.63,1.13.19,2.27.32,3.4.45.8.09.43-.61.58-.94.19-.43-.19-.39-.46-.43-.78-.1-1.55-.23-2.32-.31-1.94-.22-1.92-.21-1.56-2.12.08-.42.27-.41.57-.37,1.33.18,2.67.27,3.98.54.86.18,1.16-.04,1.03-.79ZM120.71,170.54s0-.01,0-.02c-1.09.06-2.18.13-3.27.18-1.05.05-1.03.04-.95,1.06.03.4.13.54.53.51.67-.05,1.35,0,2.01-.1.56-.09.67.11.69.61.06,1.9.15,3.8.25,5.7.02.41-.04,1.02.67.81.55-.16,1.59.44,1.48-.92-.16-1.9-.21-3.8-.35-5.7-.04-.57.16-.74.69-.74.64,0,1.29-.03,1.93-.09.85-.08.33-.72.41-1.1.1-.44-.18-.48-.56-.45-1.17.1-2.35.15-3.52.23ZM127.91,178.86c.46-.04.74-.09,1.02-.08.36,0,.38-.17.35-.47-.22-2.62-.41-5.24-.62-7.85-.01-.13-.08-.36-.12-.36-.58,0-1.2-.06-1.74.11-.38.12-.17.65-.14.99.14,2.26.34,4.51.47,6.77.04.7.19,1.08.79.91Z"/>
      <path class="cls-1" d="M152.9,149.25c9.13-1.23,18.03-2.4,27.01-3.98-.77,1.88-1.49,3.63-2.2,5.37-1.05,2.55-2.09,5.11-3.17,7.66-.24.57-.22,1.04.07,1.58,1.78,3.36,3.53,6.74,5.31,10.1.28.53.21.66-.39.79-3.88.85-7.77,1.58-11.69,2.22-.84.14-.83-.15-.83-.78.02-5.44-.02-10.88.03-16.32,0-1-.37-1.45-1.25-1.77-4.09-1.5-8.16-3.04-12.23-4.57-.15-.06-.3-.13-.67-.29Z"/>
      <path class="cls-1" d="M24.6,145.29c8.99,1.59,17.88,2.75,26.78,3.95-.06.33-.37.3-.57.38-4.09,1.55-8.18,3.1-12.29,4.61-.78.28-1.09.68-1.09,1.52.03,5.47,0,10.93.04,16.4,0,.83-.13.97-.99.83-3.86-.63-7.69-1.36-11.52-2.19-.71-.15-.6-.34-.34-.84,1.77-3.34,3.49-6.69,5.25-10.03.3-.56.32-1.04.07-1.65-1.74-4.15-3.43-8.31-5.13-12.47-.05-.13-.1-.25-.2-.51Z"/>
      <path class="cls-1" d="M78.07,97.68c-1.49,0-2.97.05-4.46-.02-.72-.03-.96.18-.85.87.1.59-.03.91-.77.88-.61-.02-.82-.2-.71-.77.16-.82-.18-1.01-.98-.99-2.55.06-5.1.06-7.65,0-.73-.01-.96.2-.84.88.12.71-.18.92-.88.87-.46-.03-.62-.13-.61-.61,0-1.12-.02-1.12-1.15-1.12-2.41,0-4.82-.02-7.23.02-.68.01-.91-.2-.83-.85.04-.28-.03-.56.01-.84.21-1.5-.21-2.81-1.22-3.93-.29-.32-.34-.68-.33-1.09,0-4.65.02-9.31-.01-13.96,0-.67.18-.84.84-.83,2.63.04,5.27,0,7.9.03.6,0,.88-.11.81-.77-.06-.58.01-1.18-.02-1.76-.03-.45.14-.57.58-.56,1.2.03,2.41-.02,3.62.02.49.01.62-.14.6-.61-.04-.64.03-1.29-.02-1.93-.04-.55.18-.64.67-.64,1.96.03,3.92.03,5.89,0,.55,0,.72.14.7.7-.04,1.6.01,3.2-.03,4.79-.01.56.1.79.72.76,1.2-.05,2.41-.03,3.62,0,.44,0,.59-.12.57-.56-.03-.78.03-1.57-.02-2.35-.03-.54.17-.65.67-.64,1.37.03,2.75.03,4.12,0,.5-.01.71.11.68.65-.04.75,0,1.51-.02,2.27-.02.45.09.64.59.65.71.01,1.66-.35,2.07.19.34.45.11,1.35.11,2.05,0,3.95,0,7.91,0,11.86,0,.28.05.56-.08.83-.91,1.83-.79,3.8-.71,5.76.02.64-.16.8-.78.79-1.51-.05-3.03-.02-4.54-.02h0ZM59.1,84.93c0-2.19,0-4.38,0-6.56,0-.38.05-.7-.54-.69-2.33.03-4.66.02-6.98,0-.4,0-.54.11-.52.51.03.87.03,1.74,0,2.61-.02.49.14.61.61.6,1.6-.03,3.2,0,4.8-.02.47,0,.8,0,.75.64-.04.54-.02.88-.74.86-1.6-.06-3.2,0-4.79-.03-.47,0-.64.11-.62.6.04.95.04,1.91,0,2.86-.03.58.13.77.74.75,1.6-.04,3.2.01,4.79-.03.58-.01.64.24.61.7-.02.42.09.83-.61.79-1.12-.06-2.24-.02-3.36-.02q-2.27,0-2.15,2.25s0,.06,0,.08c.07.79.67,1.35,1.46,1.35,1.91,0,3.82-.03,5.72.02.72.02.88-.21.86-.9-.05-2.13-.02-4.26-.02-6.39ZM67.23,93.67c-4.32,0-8.63,0-12.95,0-1.69,0-1.65,0-1.71,1.68-.02.71.18.86.87.86,8.88-.03,17.77-.02,26.66-.02,1.83,0,1.8,0,1.83-1.81,0-.59-.16-.73-.74-.73-4.65.03-9.31.01-13.96.01ZM74.93,84.9c0,2.21.01,4.43-.01,6.64,0,.49.09.69.64.68,2.02-.03,4.03-.01,6.05-.01.27,0,.58.08.69-.3.14-.48.42-.91.42-1.43,0-4.06-.01-8.12,0-12.19,0-.47-.13-.61-.61-.61-2.18.02-4.37.03-6.56,0-.54,0-.64.17-.64.67.03,2.18.01,4.37.01,6.56ZM66.98,92.2c1.23,0,2.47.02,3.7,0,.91-.02,2.19.41,2.63-.17.46-.61.12-1.82.16-2.77.02-.43-.12-.57-.57-.57-3.92.02-7.84.01-11.77,0-.43,0-.6.13-.58.58.03.76.05,1.52,0,2.27-.04.58.19.7.72.69,1.9-.03,3.81-.01,5.72-.01ZM64.26,83.69h0c0,.98.01,1.96,0,2.94,0,.41.09.61.55.6,1.43-.02,2.85-.02,4.28,0,.38,0,.55-.09.55-.51-.02-1.99-.01-3.97,0-5.96,0-.35-.1-.48-.47-.5-.57-.05-.63.23-.63.7,0,.36.24,1-.19,1.03-.74.06-.63.48-.58.89.07.6-.26.62-.7.59-.41-.03-.89.11-.8-.6.03-.26.11-.77-.11-.76-1.05.02-.7-.73-.71-1.22,0-.46-.12-.63-.61-.63-.54,0-.57.26-.57.68.02.92,0,1.85,0,2.77ZM65.34,73.62c0,.41,0,.69,0,.97,0,1.62,0,1.63,1.59,1.62.86,0,2.02.3,2.51-.14.56-.5.16-1.68.17-2.57,0-.66.31-1.53-.14-1.92-.38-.32-1.23-.11-1.86-.11-.72,0-1.69-.25-2.11.12-.48.43-.09,1.42-.16,2.03ZM73.46,83.73c0-.59,0-1.18,0-1.77,0-1.73,0-1.71-1.7-1.71-.51,0-.68.12-.67.65.03,1.54.01,3.08.01,4.63,0,1.77,0,1.75,1.78,1.71.43-.01.59-.11.58-.56-.03-.98,0-1.96,0-2.94ZM62.8,83.76c0-.64,0-1.29,0-1.93,0-1.6,0-1.58-1.59-1.58-.51,0-.68.14-.67.66.03,1.59.01,3.19.01,4.79,0,1.59,0,1.57,1.63,1.54.47,0,.64-.14.62-.62-.03-.95,0-1.9,0-2.85ZM66.99,77.69c-1.88,0-3.76,0-5.63,0-.4,0-.84-.15-.82.57.02.65.4.55.78.55,3.81,0,7.62,0,11.44,0,.43,0,.73,0,.72-.6,0-.58-.31-.53-.69-.53-1.93,0-3.87,0-5.8,0ZM62.22,76.21h0c.39,0,.78-.02,1.17,0,.71.05.46-.48.46-.8,0-.32.27-.83-.45-.81-.75.03-1.5.04-2.25,0-.51-.03-.58.2-.61.63-.04.7.1,1.13.93.97.24-.04.5,0,.75,0ZM78.64,76.21c.34,0,.62,0,.9,0,.26,0,.43-.07.42-.37,0-.45,0-.89,0-1.34,0-.31-.18-.39-.43-.35-.68.11-1.55-.36-2.01.23-.28.36-.18,1.18.02,1.69.13.35.76.06,1.1.14Z"/>
      <path class="cls-1" d="M47.63,57.31c-.7,0-1.27-.03-1.82,0-.48.03-.75-.1-.92-.59-.59-1.71-1.22-3.41-1.88-5.1-.21-.55-.04-.6.45-.59,2.75.02,5.5.02,8.24,0,1.26,0,2.07.61,2.52,1.72.22.54.45.63.99.4,3.91-1.71,8.1-2.26,12.27-2.89.91-.14,1.83-.26,2.74-.38,1.03-.13,1.59.34,1.61,1.4.02,1.12.01,2.24,0,3.36,0,.34.04.47.45.46,4.43-.01,8.86.04,13.28,0,1.97-.02,3.91-.06,5.78.68.24.1.47.02.72-.08,2.19-.91,4.01-.44,5.51,1.44.2.25.38.37.69.35.39-.02.78,0,1.18,0,1.13,0,1.16,0,1.22,1.15.03.45.23.48.58.48,1.23-.01,2.47.02,3.7-.02.51-.01.78.08.72.68-.09.89.37,2.07-.19,2.58-.48.44-1.65.13-2.52.14-1.21,0-2.41,0-3.62,0-.17,0-.34.01-.5,0-.78-.09-1.41.11-2.09.66-2.15,1.74-5.38,1.07-6.66-1.42-.23-.46-.46-.72-1-.66-.57.06-.77.43-.78.92,0,.72-.53.51-.9.51-9.23,0-18.45,0-27.68,0-.93,0-1.85.02-2.78,0-1.17-.03-2.2.05-3.23.9-1.46,1.2-3.67.92-5.2-.32-1.37-1.12-1.91-3.25-1.25-4.97.09-.23.19-.45.34-.79ZM55.63,61.19c.32,0,.62,0,.93,0,7.2,0,14.41,0,21.61,0,2.78,0,5.55,0,8.33,0,.28,0,.6.11.78-.29.33-.73.95-1.07,1.75-1.09.26,0,.54,0,.54-.36,0-.95.46-1.75.92-2.53-.81-.35-1.62-.41-2.42-.53-.43-.06-.62.08-.6.54.03.53-.03,1.07.02,1.6.06.61-.18.74-.76.73-3.67-.03-7.34-.01-11.02-.01-1.97,0-2,0-1.97-2,0-.61-.13-.82-.78-.81-2.86.05-5.72.04-8.58.06-.9,0-1.78.14-2.63.45-1.13.4-2.28.75-3.41,1.14-.31.11-.51.09-.53-.26-.02-.31-.53-.74.04-.92,1.73-.53,3.37-1.43,5.19-1.56,2.31-.17,4.64-.15,6.97-.18.41,0,.6-.06.58-.54-.04-1.01-.03-2.02,0-3.03,0-.43-.12-.5-.54-.42-.9.18-1.82.29-2.73.42-4.04.58-8.06,1.2-11.85,2.82-1.57.67-1.6.6-2.34-.96-.27-.58-.56-1.14-1.3-1.15-2.37-.02-4.74,0-7.18,0,.43,1.17.83,2.27,1.23,3.37.07.19.16.37.41.35,1.12-.1,2.27.24,3.37-.36.92-.5,1.95-.49,2.94-.21,2.47.68,3.64,2.91,3.02,5.76ZM80.63,57.94c1.68,0,3.36-.03,5.04.02.62.02.58-.31.58-.73,0-.44,0-.71-.6-.71-3.33.03-6.66.02-9.99,0-.54,0-.66.18-.65.68.01.48.04.77.67.75,1.65-.04,3.3-.02,4.95-.01ZM97.12,59.6c.05-1.57-1.4-3.02-3.06-3.06-1.71-.04-3.17,1.34-3.25,3.07-.07,1.64,1.38,3.17,3.08,3.26,1.7.08,3.17-1.4,3.23-3.27ZM48.27,59.73c.02,1.7,1.53,3.19,3.19,3.14,1.69-.05,3.18-1.58,3.14-3.22-.04-1.7-1.53-3.14-3.22-3.12-1.71.02-3.14,1.48-3.11,3.2ZM101.56,61.21s0,0,0-.01c.78,0,1.57,0,2.35,0,.3,0,.53,0,.52-.42,0-.43-.23-.42-.53-.42-.98,0-1.96,0-2.94,0-.45,0-.95.12-1.33-.04-.57-.23-.17-.83-.24-1.26-.06-.39-.31-.33-.55-.33-.2,0-.48-.09-.49.27-.02.73.07,1.45.51,2.04.28.38.78.12,1.18.15.5.04,1.01,0,1.51,0Z"/>
      <path class="cls-1" d="M75.06,55.02c-.81,0-1.62-.02-2.44,0-.41.01-.51-.15-.51-.54-.03-1.64,1.29-3.03,2.93-3.04,1.69-.02,2.97,1.29,2.96,2.97,0,.45-.09.65-.59.62-.78-.04-1.57-.01-2.35-.01ZM76.57,53.77c-.26-.76-.81-1.03-1.52-1.03-.69,0-1.17.33-1.47,1.03h2.99Z"/>
      <path class="cls-1" d="M124.8,26.86c.1,1.14.2,2.27.32,3.41.04.4-.08.54-.5.52-.66-.03-1.33,0-2.16,0,.77-1.4,1.48-2.67,2.19-3.94.05,0,.11.01.16.02Z"/>
      <path class="cls-1" d="M137.51,26.93c.11,1.15.21,2.31.34,3.46.05.41-.2.39-.46.4-.69,0-1.39,0-2.24,0,.77-1.38,1.48-2.65,2.19-3.92.06.02.11.04.17.06Z"/>
      <path class="cls-1" d="M98.39,175.44c0-.73.04-1.45-.01-2.18-.04-.61.22-.76.78-.73.81.05,1.62,0,2.42.08.94.09,1.53.74,1.67,1.68.12.78.16,1.55,0,2.33-.21,1.02-.74,1.58-1.8,1.65-.89.06-1.79,0-2.68.04-.43.01-.42-.24-.42-.53,0-.78,0-1.56,0-2.35.01,0,.02,0,.03,0Z"/>
      <path class="cls-1" d="M138.46,174.23c.1.93-.03,1.78-.94,2.23-1.04.52-2.13.6-3.19,0-.44-.25-.67-.7-.74-1.17-.12-.85-.15-1.72-.22-2.58-.03-.32.08-.61.23-.88.43-.82,1.82-1.28,3.07-1.04.96.18,1.45.76,1.59,1.87.07.52.14,1.05.2,1.57Z"/>
      <path class="cls-1" d="M64.37,173.86c-.03-.5.06-1.05.17-1.6.26-1.3,1.13-1.83,2.73-1.67,1.34.13,2.16.92,2.14,2.12-.02.78-.08,1.57-.21,2.34-.23,1.35-1.49,1.94-3.2,1.54-1.31-.31-1.75-1.02-1.63-2.73Z"/>
      <path class="cls-1" d="M113.39,176.47c-1.16,0-2.14-.01-3.11,0-.37,0-.61-.03-.41-.49.5-1.17.99-2.35,1.53-3.64.67,1.39,1.29,2.68,1.99,4.12Z"/>
      <path class="cls-1" d="M75.98,83.01c0-1.2,0-2.41,0-3.61,0-.38.02-.62.52-.6,1.45.04,2.91.03,4.37,0,.45,0,.57.14.57.58-.02,1.71-.03,3.41,0,5.12,0,.5-.17.61-.63.59-.87-.03-1.74-.03-2.6,0-.26.01-.75-.25-.73.36.01.55.45.29.69.3.81.03,1.62.04,2.43,0,.52-.03.62.21.57.65-.04.39.15.87-.57.85-1.37-.03-2.74-.02-4.11,0-.42,0-.52-.15-.51-.54.02-1.23,0-2.46,0-3.69ZM79.96,81.88c0-.28-.03-.56,0-.84.09-.64-.16-.8-.79-.79-1.72.04-1.72,0-1.72,1.7,0,.25.03.51,0,.76-.1.67.17.85.83.83,1.68-.04,1.68,0,1.69-1.66Z"/>
      <path class="cls-1" d="M91.58,59.66c.01-1.39,1.08-2.43,2.46-2.4,1.36.03,2.36,1.06,2.36,2.42,0,1.37-1.1,2.5-2.42,2.48-1.36-.03-2.41-1.12-2.4-2.5ZM93.95,60.86c.6.02,1.2-.56,1.21-1.16.01-.58-.6-1.2-1.19-1.19-.55,0-1.13.57-1.17,1.13-.03.59.53,1.2,1.14,1.22Z"/>
      <path class="cls-1" d="M49,59.74c-.02-1.38,1.04-2.47,2.41-2.48,1.36-.01,2.49,1.09,2.49,2.43,0,1.3-1.17,2.48-2.48,2.47-1.3,0-2.4-1.11-2.42-2.42ZM52.59,59.64c-.02-.59-.67-1.18-1.24-1.13-.53.04-1.12.67-1.11,1.2,0,.6.61,1.17,1.22,1.15.62-.02,1.16-.6,1.13-1.22Z"/>
    </g>
  </g>
</svg>