<?xml version="1.0" encoding="UTF-8"?>
<svg id="Layer_2" xmlns="http://www.w3.org/2000/svg" viewBox="0 0 183.65 47.19">
  <defs>
    <style>
      .cls-1 {
        fill: #fff;
      }
    </style>
  </defs>
  <g id="Layer_1-2" data-name="Layer_1">
    <g id="Layer_x5F_1">
      <g id="_2889496857168">
        <path class="cls-1" d="M19.88,5.72l-.14-1.43h-2.64s-.09,11.26-.09,11.26h3.02c-.01-1.97-.05-4.02,0-5.98.05-2.2.67-3.4,2.99-3.13,1.3.64.8,6.94.8,9.07l3.01.05c.01-2.67-.93-8.68,1.76-9.15,2.18-.38,2.03,1.89,2.03,3.57,0,1.84,0,3.68-.03,5.52l3,.06c-.01-2.05.3-8.43-.44-9.78-1.43-2.62-5.07-1.96-6.57,0-.89-.76-1.59-1.75-3.39-1.71-1.44.03-2.85.93-3.31,1.65h0Z"/>
        <path class="cls-1" d="M146.74,33.6c3.44-1.7,4.74,5.19,1.76,6.42-3.48,1.44-4.65-4.99-1.76-6.42ZM150.22,32.77c-.84-1.25-3.3-2.21-5.38-1.2-3.71,1.81-3.48,8.59-.34,10.45,3.08,1.82,5.25-.89,5.59-1.08,0,2.36.25,4.07-2.58,3.95-.65-.03-.98-.1-1.28-.41-.62-.63.28-.45-.78-.79-.34-.11-2.47-.3-2.94-.33.07,2.53,1.46,3.46,3.88,3.73,7.46.83,6.7-3.9,6.71-8.27,0-1.85.21-5.87-.08-7.47h-2.64s-.14,1.42-.14,1.42h0Z"/>
        <path class="cls-1" d="M7.75,3.98l2,5.38h-4.13s2.14-5.38,2.14-5.38ZM0,15.54l3.08.02c.8-.5,1.14-2.71,1.61-3.52h6.06s1.42,3.5,1.42,3.5h3.4c-.89-2.6-2.08-5.14-3.1-7.78-.52-1.34-1.05-2.66-1.59-3.99-.27-.67-.54-1.34-.8-1.98-.15-.37-.25-.7-.38-1.01-.45-1-.12-.74-3.68-.74L0,15.54h0Z"/>
        <path class="cls-1" d="M83.61,42.4l3.01.21c.01-2.69-.94-8.81,2.02-9.17,2.32-.28,2.23,1.49,2.24,3.39.01,1.91-.02,3.82-.02,5.73l3.01.05c0-2.08.28-8.05-.44-9.6-.49-1.07-1.6-1.82-3.21-1.88-1.82-.06-2.67.83-3.57,1.49l-.02-5.54h-3.02s0,15.31,0,15.31h0Z"/>
        <polygon class="cls-1" points="106.64 15.56 109.78 15.56 109.78 9.05 116.28 8.98 116.28 6.33 109.83 6.32 109.79 2.71 117.29 2.66 117.29 .03 106.63 .03 106.64 15.56"/>
        <path class="cls-1" d="M81.41,10.23c.1,4.67-3.11,3.36-3.46,3.07-.92-.77-.62-1.99.48-2.39.6-.22,2.3-.59,2.98-.68h0ZM74.81,7.28l2.48.45c.73-.66.52-1.36,2.19-1.39,1.4-.02,1.88.53,1.95,1.84-2.79,1.1-7.23.65-6.97,4.58.18,2.83,3.35,4.23,7.18,1.66l.4,1.13,2.94-.02c-1.4-2.86.58-8.75-1.81-10.63-1.72-1.35-8.02-1.54-8.35,2.39h0Z"/>
        <path class="cls-1" d="M114.26,33.77c1.99-.9,3.37.65,3.68,2.19.37,1.88-.28,3.76-1.63,4.28-3.81,1.48-5.18-5.05-2.05-6.47h0ZM109.56,37.83c.76,7.44,12.46,6.43,11.47-1.78-.84-6.97-12.33-6.68-11.47,1.78Z"/>
        <path class="cls-1" d="M133.57,33.77c3.85-1.77,5.19,5.27,2.04,6.46-3.86,1.46-5.12-5.04-2.04-6.46ZM128.92,38.22c1.14,7.19,12.81,5.73,11.36-2.53-.51-2.91-3.37-5.11-6.93-4.45-3.05.56-5.02,3.31-4.43,6.99h0Z"/>
        <path class="cls-1" d="M163.78,6.7c3.9-1.65,5.1,5.13,2.05,6.47-3.86,1.69-5.14-5.15-2.05-6.47ZM163.89,4.16c-7.36,1.11-6.14,12.91,2.09,11.54,6.88-1.14,5.89-12.75-2.09-11.54Z"/>
        <path class="cls-1" d="M38.85,8.97c.08-3.54,4.17-3.53,4.39,0h-4.39ZM45.97,12.44l-2.94-.49c-.66,2.78-4.25,1.83-4.22-1.16h7.41c-.07-2.96-.69-5.86-3.98-6.57-3.45-.75-5.8,1.34-6.37,4.11-.67,3.27.6,6.26,3.1,7.13,3.16,1.1,6.5-.44,7-3.02h0Z"/>
        <path class="cls-1" d="M61.74,36.02c.06-3.61,4.16-3.5,4.39,0h-4.39ZM65.93,39.02c-.72,2.76-4.25,1.83-4.23-1.16l7.41-.02c-.04-1.62-.17-3.14-.96-4.4-2.27-3.61-8.3-3.04-9.37,1.8-1.85,8.35,8.08,10.03,10.09,4.28l-2.94-.5Z"/>
        <path class="cls-1" d="M164.37,36.02c.03-3.53,4.19-3.5,4.38,0h-4.38ZM168.54,39.02c-.64,2.6-4.11,2.02-4.25-1.15l7.44-.06c-.08-3.33-.94-5.89-3.96-6.53-3.44-.72-5.84,1.31-6.39,4.09-1.57,7.97,7.7,10.13,10.12,4.15l-2.96-.5h0Z"/>
        <path class="cls-1" d="M90.05,5.8l-.06-1.51h-2.68s-.08,11.24-.08,11.24l3.01.02c.02-4.03-.83-8.87,2.17-9.17,2.13-.21,2.11,1.58,2.13,3.39.02,1.92.01,3.86,0,5.78h3c-.02-5.91,1.19-11.6-3.94-11.47-2.26.06-2.45,1.07-3.56,1.72h0Z"/>
        <path class="cls-1" d="M175.8,5.76l-.1-1.47h-2.66s-.1,11.26-.1,11.26h3.02c0-1.5-.29-6.78.36-8,.3-.55.92-1.06,1.65-1.16,2.17-.3,2.24,1.61,2.26,3.39.02,1.89.01,3.81-.02,5.7l3,.08c.02-6.2,1.2-11.72-4.04-11.48-1.62.07-2.66.94-3.36,1.68h0Z"/>
        <path class="cls-1" d="M100.06,32.76c-.42-.45-.32-.4-.42-1.36l-2.73-.04-.04,11.16,3.02.08c-.04-3.56-.8-8.81,2.08-9.15,2.19-.26,2.18,1.48,2.2,3.39.02,1.92-.03,3.85-.02,5.77h2.99c0-2.07.26-8.3-.42-9.73-1.09-2.3-5.23-2.31-6.65-.12h0Z"/>
        <path class="cls-1" d="M176.35,33.75c.63-.42,1.51-.63,2.56-.45.89.15,1.13.72,1.63,1.28l2.39-.41c.2-.42.41.54.06-.76l-1.17-1.43c-.62-.49-1.51-.71-2.52-.81-6.72-.62-6.94,4.88-3.89,6.21,1.47.64,4.1.97,5.16,1.62l-.02,1.08c-.68.52-1.59.78-2.78.55-1.26-.24-1.18-.89-1.8-1.67l-2.81.41c.94,4.22,8.01,4.49,9.84,1.69,1.44-2.21.41-4.15-1.58-4.9-.94-.36-1.93-.57-2.95-.82-1.27-.31-2.03-.31-2.1-1.59h0Z"/>
        <path class="cls-1" d="M45.06,28.08v1.64s4.53,0,4.53,0c.18,2.37.05,10.01.05,12.9h3.18s.03-12.9.03-12.9h4.54s0-2.63,0-2.63h-12.34s0,.99,0,.99h0Z"/>
        <path class="cls-1" d="M70.09,11.25c-.2,1.53-1.03,2.51-2.85,2.01-1.28-.35-1.67-1.68-1.7-3.28-.08-3.78,2.32-3.97,3.51-3.32.87.47.53.78,1.07,1.49l2.67-.47c.2-2.26-3.24-4.41-6.73-3.36-5.8,1.75-4.68,13.12,3.36,11.32,1.79-.4,3.12-1.9,3.5-3.3.2-.73.59-.63-2.84-1.09h0Z"/>
        <path class="cls-1" d="M78.53,38.64s-.05.1-.07.15l-.25.58c-.84,1.62-4.16,1.89-4.26-2.34-.1-3.92,2.6-3.92,3.62-3.28.61.39.48.7.91,1.46l2.76-.56c-.39-2.63-3.3-4.04-6.35-3.37-2.62.58-4.06,2.77-4,5.96.15,6.98,9.49,7.58,10.56,1.53l-2.78-.43-.15.31h0Z"/>
        <path class="cls-1" d="M144.3,11.75l-2.75-.49c-.75.82-.39,2.42-2.75,2.06-3.39-.52-2.49-8.72,1.48-6.67.89.46.52.76,1.06,1.48l2.75-.48c-.75-4.98-10.57-5.53-10.37,2.53.17,7,9.15,7.58,10.57,1.57h0Z"/>
        <path class="cls-1" d="M146.56,2.06v2.24s-1.32.02-1.32.02l-.04,2.36,1.36.03c-.02,4.63-1.3,11.06,5.29,8.63l-.23-2.21c-1.87.21-2.08.4-2.06-1.77l.04-4.64,2-.04v-2.39s-1.97-.01-1.97-.01l-.06-3.86-3.01,1.64h0Z"/>
        <polygon class="cls-1" points="123.44 42.61 126.45 42.61 126.45 40.21 126.45 28.68 126.45 27.08 124.24 27.08 123.44 27.09 123.44 42.61"/>
        <path class="cls-1" d="M51.71,5.53l-.22-.36s-.07-.12-.09-.17l-.17-.67-2.67-.03-.05,11.19,3.03.04c-.06-5.91-.8-9.72,3.43-8.38l.86-2.6c-1.97-.69-3.33-.77-4.11.98h0Z"/>
        <path class="cls-1" d="M122.79,5.55c-.4-.52-.15-.66-.38-1.26l-2.63.02-.04,11.17,3.02.06c-.02-2.77-.93-10.74,3.27-8.4.45-.54.8-1.73.99-2.59-2.28-.85-2.96-.61-4.23,1.01h0Z"/>
        <path class="cls-1" d="M156.16,31.35c-.41,1.61-.1,9.02-.12,11.26h3.01s-.1-11.26-.1-11.26h-2.79s0,0,0,0Z"/>
        <polygon class="cls-1" points="57.08 15.46 60.11 15.54 60.09 4.33 57.13 4.31 57.08 15.46"/>
        <polygon class="cls-1" points="128.31 15.44 131.33 15.55 131.33 4.33 128.36 4.31 128.31 15.44"/>
        <polygon class="cls-1" points="153.66 15.56 156.66 15.56 156.65 4.3 153.77 4.3 153.66 15.56"/>
        <polygon class="cls-1" points="156.05 29.86 159.05 29.87 159.05 27.08 156.05 27.09 156.05 29.86"/>
        <polygon class="cls-1" points="153.66 2.81 156.66 2.81 156.66 .03 156.46 .03 153.66 .03 153.66 2.81"/>
        <polygon class="cls-1" points="57.08 1.02 57.08 2.72 60.11 2.8 60.1 1.62 60.1 1.22 60.1 .1 57.08 .05 57.08 1.02"/>
        <polygon class="cls-1" points="128.31 2.71 131.33 2.8 131.33 .09 128.31 .05 128.31 2.71"/>
      </g>
    </g>
  </g>
</svg>