<?xml version="1.0" encoding="UTF-8"?>
<svg id="Layer_2" xmlns="http://www.w3.org/2000/svg" viewBox="0 0 522.41 345.32">
  <defs>
    <style>
      .cls-1 {
        fill: #fff;
      }
    </style>
  </defs>
  <g id="Layer_1-2" data-name="Layer_1">
    <path class="cls-1" d="M433.01,208.37l89.39.21v-40.79h-15.43c-.85-1.27-12.26-13.74-13.74-15.64-1.27-1.27-2.11-2.32-3.38-3.8l-24.3-27.05c-3.38-4.02-8.88-9.51-12.26-13.53-.42-.63-1.48-1.48-1.69-2.11l13.95-16.06c4.23-4.44,9.93-11.62,14.16-16.06,4.23-4.23,9.72-11.41,13.95-16.06,5.07-5.49,1.9-4.44,10.57-4.44,2.75,0,13.31.42,15-.21V11.63c-1.69-.42-84.95-.21-85.59,0v41.21l8.03.21c-.21.63-16.91,18.17-18.39,19.44l-14.79-14.58c-.85-.85-4.44-4.02-5.07-5.07h9.3V11.63c-2.32-.42-67.84,0-75.44,0-2.54,0-8.66-.21-10.78.21v33.39c-.63-.42-5.71-7.19-7.4-9.09-8.45-9.09-15.64-15.43-27.05-22.19C278.11,5.71,259.94.22,240.28,0c-25.78-.21-48.61,8.24-67.41,22.82-1.69,1.27-2.96,2.54-4.44,3.8-3.17,2.54-5.49,5.28-8.24,8.24l-7.4,8.88h0V11.84H0v41.42h19.02v114.54c-3.17.85-12.47-.21-16.48.21v40.58h91.93v-40.79h-23.46v-35.71h45.65v-44.38h-45.65v-31.7h34.02l.21,18.17h32.54c-.21,1.9-2.54,9.09-3.17,14.37-2.54,16.06-1.27,31.91,3.59,47.13,3.17,10.14,8.88,21.13,14.79,29.16,1.27,1.69.42,4.44.21,8.03-1.69,23.25,5.28,54.1,14.79,73.12,5.49,10.78,10.99,18.17,18.39,25.99,4.65,4.86,9.09,8.24,14.37,12.47,41.63,32.54,92.99,32.54,144.55,29.8,9.3-.42,25.57-.42,35.29-.21,16.06.21,27.68,4.65,35.29,17.96,2.54,4.65,2.96,7.82,4.65,13.31,2.32-1.27,8.88-7.4,10.78-9.51,10.57-10.78,15.64-30.01,15.43-46.49-.21-26.42-14.37-43.11-28.95-53.68-7.4-5.28-17.54-10.57-28.11-12.89-8.24-1.9-27.26-2.75-37.41-4.02-23.88-2.75-47.34-9.3-59.59-23.03.42-.63,3.38-2.11,4.23-2.54,7.82-5.07,18.6-14.37,24.73-21.77l1.27-1.06v38.67h89.6v-40.79h-12.47c.42-1.48,16.06-17.96,17.75-20.29.85-1.06,1.9-2.32,2.96-3.38.85-.85,2.32-2.75,3.17-3.17l5.71,6.76c1.69,1.9,16.7,19.02,17.33,20.08h-13.1l-.85,40.15ZM329.25,224.86c3.38.63,6.34,1.27,9.72,1.9,6.55,1.06,13.1,1.69,20.08,2.54,14.79,1.69,24.73.42,38.88,6.76,19.02,8.45,38.04,25.36,38.25,52.62,0,10.78-1.9,21.77-6.55,30.85-1.06,2.11-3.38,6.13-4.65,7.19-.63-.42-4.02-6.55-7.82-10.14-11.41-11.41-24.09-13.31-40.36-13.31-11.83,0-24.3-.21-35.93.63-9.09.63-37.62,2.11-47.34,0-8.45-1.9-18.81-6.34-25.36-11.2-2.54-1.9-8.24-6.34-9.51-8.66,2.32.42,4.86,1.27,7.19,1.9,24.73,5.92,56.85,11.62,82.21,5.07,2.96-.85,20.29-5.49,21.34-6.34-8.66-2.11-17.12-4.23-25.99-5.92-9.09-1.69-17.33-3.17-25.78-5.92-10.36-3.38-23.46-9.93-30.64-17.33-1.48-1.48-6.76-6.55-7.4-8.45,1.9.21,4.65,1.27,6.76,1.69l20.29,4.86c18.39,3.8,41.42,6.97,60.02,3.59,9.72-1.69,16.27-5.71,24.51-8.88h0c-.85-.85-16.27-4.86-18.81-5.49-6.34-1.69-12.26-3.38-18.6-5.49-8.88-2.75-17.75-5.92-25.99-10.14-2.11-1.06-5.71-2.75-7.61-4.23,1.9-.21,6.55,1.48,9.09,1.9ZM353.55,247.89c-6.97.85-19.65-.63-26.63-1.48-14.79-2.11-32.54-5.92-46.92-10.36l-21.77-6.97c.63,2.75,8.24,16.91,9.72,19.23,1.9,3.17,3.8,5.49,6.13,8.24,3.59,4.44,10.14,10.14,14.79,13.53,2.75,1.9,5.49,3.59,8.66,5.28,6.76,3.59,12.68,5.49,20.08,8.03-5.71.42-17.33-1.06-22.82-2.11-16.27-2.54-34.24-6.76-49.66-12.47-1.69-.63-8.03-2.96-9.3-3.17.21,1.27,1.69,4.02,2.32,5.28,5.28,11.2,10.14,19.65,20.08,27.47.85.63,1.48,1.06,1.9,1.9-9.3-1.06-27.05-7.82-34.87-11.83-10.78-5.71-18.17-11.41-27.26-19.02-2.11-1.9-4.02-3.8-5.92-5.71-5.71-5.71-10.57-12.89-14.58-20.29-10.99-20.29-17.12-53.47-14.16-76.92,4.65-36.56,17.96-71.85,46.49-92.14,10.36-7.4,19.02-11.83,35.71-8.45,12.89,2.75,22.82,9.51,28.11,17.96,7.19,11.2,6.55,24.3,2.11,37.62-1.06,3.17-2.11,5.07-3.59,8.03-10.78,20.71-15.43,42.05.21,61.07,1.9,2.32,3.59,3.8,5.28,6.34,19.86,27.05,40.36,39.73,75.87,50.93ZM386.31,113.07c-2.32,2.75-4.44,5.07-6.76,7.82l-39.73,46.92h-16.27c.42-1.06,3.17-4.65,4.02-5.71,16.06-23.46,20.92-54.31,14.16-82.21-1.48-6.55-4.44-14.37-7.4-20.5-.63-1.48-2.75-5.07-3.17-6.13,4.65-.21,9.72,0,14.37,0,2.96,0,2.96.42,4.02,1.69v.21h0c.21.21.21.42.42.63.21.21.21.42.42.42.85.85,1.48,1.69,2.32,2.75.21.21.21.42.42.63,1.06,1.06,1.9,2.32,2.96,3.38,2.75,3.17,5.49,6.55,8.45,9.72.63.63,1.27,1.48,1.9,2.11l23.03,26.63c1.06,1.06,2.32,2.54,3.17,3.8,0,.85-5.07,6.34-6.34,7.82Z"/>
  </g>
</svg>