<?xml version="1.0" encoding="UTF-8"?>
<svg id="Layer_2" xmlns="http://www.w3.org/2000/svg" viewBox="0 0 148.43 72.96">
  <defs>
    <style>
      .cls-1 {
        fill: #fff;
      }
    </style>
  </defs>
  <g id="Layer_1-2" data-name="Layer_1">
    <g>
      <path class="cls-1" d="M146.38,72.96c0-11.49,0-22.98,0-34.48,0-.12,0-.25,0-.37,0-.11,0-.23,0-.34,0-11.4,0-22.8,0-34.2,0-.31-.07-.38-.38-.38-39.75,0-79.49,0-119.24,0q-.41,0-.41-.4c0-.46.01-.93,0-1.39,0-.21.07-.27.26-.25.08.01.16,0,.25,0h121.55c0,23.84,0,47.67,0,71.51,0,.23-.05.29-.28.28-.59-.02-1.17,0-1.76,0"/>
      <path class="cls-1" d="M.41,14.24c.1.12.1.25,0,.37v-.37Z"/>
      <path class="cls-1" d="M.41,12.83c.1.12.09.25,0,.37v-.37Z"/>
      <path class="cls-1" d="M139.66,8.43c.57.13.71.33.72.97.03,1.74.02,3.47,0,5.21,0,.46-.38.78-.92.79-.54,0-1.09,0-1.63,0-2.09,0-4.17,0-6.26,0-.24,0-.46.05-.67.15-1.5.69-3,1.38-4.5,2.06-1.04.47-2.09.94-3.22,1.44.28.25.54.47.78.71.86.87,1.7,1.75,2.56,2.62,1.63,1.67,3.26,3.33,4.87,5.01.53.55,1.04,1.1,1.6,1.61.11.05.22.03.33.03,2.66,0,5.31,0,7.97,0,.11,0,.23-.01.34.01.4.13.56.43.56.82,0,1.79,0,3.58,0,5.36,0,.41-.26.69-.67.74-.19.02-.39.04-.58.04-11.49,0-22.98,0-34.47.01-.74,0-.94-.38-.95-1.01-.01-1.72,0-3.43,0-5.15,0-.59.07-.68.66-.81.78-.03,1.55,0,2.33-.02.08,0,.21.08.25-.08-.81-.85-1.63-1.69-2.42-2.55-.16-.18-.34-.35-.49-.54-.17-.22-.34-.2-.55-.1-.97.44-1.94.87-2.91,1.31-.05.02-.09.06-.14.06-.63.11-.8.51-.7,1.1.04.25.02.51.02.77.48.07.96.01,1.43.03.21,0,.43-.01.64.01.32.08.43.33.43.62,0,1.9,0,3.8,0,5.7,0,.33-.19.53-.55.59-.17.03-.35.04-.52.04-9.45,0-18.91,0-28.36,0-.66,0-.84-.17-.84-.84,0-1.81,0-3.62,0-5.43,0-.33.14-.55.43-.69.11-.04.22-.02.34-.02,2.61,0,5.22,0,7.83,0,.26,0,.32-.07.32-.32,0-4.33,0-8.65,0-12.98,0-.1.03-.21-.03-.3-.11-.05-.22-.03-.33-.03-2.63,0-5.25,0-7.88,0-.39,0-.65-.25-.66-.65,0-1.81,0-3.61,0-5.42,0-.52.11-.8.73-.89.11-.03.23-.01.34-.01,10.57,0,21.13,0,31.7,0,.11,0,.23-.01.34.02.57.12.65.58.65,1.03.01,1.77,0,3.53,0,5.3,0,.23-.12.38-.33.47-.25.11-.51.15-.77.15-1.55.01-3.1,0-4.65,0-.17,0-.28,0-.28.23.01,2.19,0,4.38,0,6.57,0,.04,0,.08.02.16,5.35-2.3,10.68-4.6,16.01-6.89v-.07h-.32c-2.55,0-5.1,0-7.64,0-.42,0-.64-.25-.64-.68,0-1.81,0-3.62,0-5.42,0-.58.12-.72.69-.83.05,0,.1-.02.15-.02.1-.03.2-.02.31-.02,9.74,0,19.49,0,29.23,0,.1,0,.21-.01.31.01"/>
      <path class="cls-1" d="M20.98,36.01c-.24-.14-.47-.29-.71-.42-.13-.07-.18-.17-.19-.32-.02-.48-.02-.48.44-.66.14-.05.29-.1.42-.18.24-.14.25-.32.03-.48-.22-.16-.47-.3-.71-.43-.29-.16-.16-.43-.18-.66-.02-.2.16-.21.29-.26.19-.08.39-.13.57-.22.25-.13.27-.3.04-.47-.21-.16-.44-.3-.68-.42-.32-.16-.2-.44-.22-.68-.02-.22.18-.22.31-.28.17-.07.35-.12.51-.2.28-.14.3-.33.05-.51-.18-.13-.38-.25-.58-.35-.21-.11-.3-.26-.3-.51.02-1.03.01-2.05,0-3.08,0-.21.07-.32.25-.43,3.59-2.08,5.83-5.15,6.63-9.22.5-2.52.25-5-.69-7.41-.04-.11-.09-.23-.13-.34.09-.07.2-.03.3-.03,14.85,0,29.7,0,44.54,0,.09,0,.19,0,.28.01.85.12,1.09.43,1.1,1.33.02,1.95,0,3.91,0,5.86v4.01c0,.09,0,.19,0,.28-.04.6-.2.75-.8.75-4.1,0-8.2,0-12.3,0-.61,0-.57-.09-.57-.59,0-1.58,0-3.17,0-4.75,0-.24-.07-.3-.31-.3-6.88,0-13.75,0-20.63,0-.26,0-.32.07-.32.33.01,1.17.01,2.34,0,3.51,0,.27.06.34.34.34,3.75-.01,7.5,0,11.25,0,.67,0,.9.23.9.9,0,1.51,0,3.02,0,4.53,0,.55-.01.57-.56.68-.11.02-.23.01-.34.01-3.67,0-7.34,0-11.01,0-.12,0-.25-.03-.36.03-.05.11-.03.22-.03.33,0,1.04,0,2.07,0,3.11,0,.29.05.39.37.39,2.52-.02,5.05,0,7.57-.01.29,0,.53.04.61.37.03.1.02.2.02.31,0,1.89,0,3.78,0,5.67,0,.1.01.21-.01.31-.17.19-.41.16-.63.16-2.12,0-4.23,0-6.35,0-5.95,0-11.89,0-17.84,0-.13,0-.27,0-.4.02"/>
      <path class="cls-1" d="M48.94,72.59c-.44,0-.88-.01-1.32-.01-2.14,0-4.27,0-6.41,0-.26,0-.34-.09-.34-.33,0-.58,0-1.17-.01-1.75,0-.29.01-.57.01-.86,0-.38.08-.46.45-.48.3-.01.59-.01.89-.02.14-.09.31-.1.47-.1.66,0,1.33,0,1.99,0,.13,0,.27.02.39-.06.1-.09.09-.2.09-.31-.04-1.6.09-3.2.06-4.8,0-.36-.01-.72,0-1.08.01-.23-.06-.3-.29-.29-1.2.01-2.4,0-3.6,0-.07,0-.14,0-.21-.02-.09-.01-.16-.05-.2-.14-.03-1.05-.03-2.1,0-3.14.12-.12.27-.12.42-.12,5.31,0,10.62,0,15.93,0,.26,0,.47.11.66.27,1.37,1.16,2.74,2.33,4.11,3.49,1.51,1.28,3.03,2.55,4.55,3.83.15.13.27.31.5.38,0-.4,0-.78,0-1.15,0-1.12-.01-2.24-.02-3.35-.11-.06-.22-.03-.33-.03-1.13,0-2.26,0-3.39,0-.11,0-.23.02-.34-.02-.1-.02-.21-.03-.26-.14-.03-1.03-.04-2.05,0-3.08.03-.14.11-.21.26-.19.05,0,.1,0,.15,0,4.17,0,8.35,0,12.52,0,.26,0,.44.06.53.31.02.96.03,1.93,0,2.9-.08.11-.2.15-.32.2-1.18.03-2.37,0-3.55.02-.11,0-.23-.03-.33.03h0c-.06.11-.03.22-.03.33,0,3.05,0,6.09,0,9.14,0,.11.02.23-.02.34-.12.23-.33.23-.55.23-3.47,0-6.95-.02-10.42.02-.6,0-1.01-.21-1.42-.57-.77-.67-1.56-1.32-2.33-1.98-.51-.44-1-.91-1.52-1.33-.54-.43-1.06-.88-1.58-1.33-.31-.01-.46-.28-.67-.45-1.05-.88-2.09-1.78-3.14-2.65-.06-.05-.11-.2-.24-.09-.01,1.51,0,3.02,0,4.53,0,.1,0,.21.1.28.55.09,1.11.02,1.66.04.21.01.43-.06.62.09.49,0,.98,0,1.48.02.14,0,.28.03.42.05.18.02.26.12.26.31,0,.88,0,1.76,0,2.65,0,.31-.14.42-.53.42-.96,0-1.93,0-2.89,0-.75,0-1.5,0-2.24.01"/>
      <path class="cls-1" d="M6.16,59.15c.17-.08.36-.07.54-.07,7.15,0,14.31,0,21.46,0,.12,0,.25,0,.37,0,1.7,0,3.41,0,5.11.01.92,0,1.85,0,2.77,0,.34,0,.44.1.44.44,0,1.67,0,3.35,0,5.02,0,.12-.01.22-.07.33-.09.08-.2.04-.29.04-.53,0-1.07-.03-1.6,0-1.42.09-2.84.03-4.26.05-.15,0-.31.03-.45-.06-.11-.13-.09-.29-.1-.44,0-.48,0-.97,0-1.45,0-.35-.03-.38-.36-.38-3.14,0-6.29,0-9.43,0-.33,0-.36.03-.36.35,0,.28,0,.55,0,.83,0,.19.09.28.28.28.1,0,.21,0,.31,0,1.54,0,3.08,0,4.62,0,.12,0,.25,0,.37,0,.3.03.44.15.45.44.02.83.02,1.66,0,2.5,0,.28-.14.4-.42.44-.14.02-.29.02-.43.02-1.56,0-3.12,0-4.69,0-.48,0-.49.01-.49.51,0,.27,0,.53,0,.8,0,.19.09.28.28.28.09,0,.19,0,.28,0h9.19c.07,0,.14,0,.22,0,.24.02.33-.1.33-.33,0-.56-.01-1.11,0-1.66,0-.35.08-.43.4-.52,1.5,0,2.99,0,4.49,0,.75,0,1.49.07,2.23.08.22.26.08.58.13.87,0,1.52,0,3.04-.01,4.56,0,.38-.08.46-.46.48-.08,0-.16,0-.25,0-10.08,0-20.15,0-30.23,0-.14,0-.31.07-.41-.11-.02-1.03-.03-2.05,0-3.08.03-.2.19-.17.32-.17,1.25,0,2.5,0,3.75,0,.16,0,.26,0,.26-.22,0-2.11,0-4.23,0-6.34,0-.04-.01-.08-.02-.12-.09-.06-.2-.03-.3-.03-1.22,0-2.44,0-3.66,0-.11,0-.23.03-.33-.03h0c-.06-.25-.02-.51-.03-.76,0-.76,0-1.51,0-2.27,0-.1-.04-.21.04-.29"/>
      <path class="cls-1" d="M126.62,61.66c-.4-.01-.78.05-1.13.25-.24.14-.4.33-.38.64.01.29.19.44.42.54.43.19.88.28,1.36.25.43.06.85.01,1.28.03.11,0,.22-.02.33.02.94,0,1.89,0,2.83.01.41.07.83,0,1.24.04.2,0,.4.01.61.02.16.07.34,0,.5.04.16,0,.32.01.48.02.15.06.3,0,.45.04.12,0,.24.01.36.02.12.07.25,0,.38.04.12,0,.24.01.36.02.12.06.26,0,.38.05.1,0,.19.01.29.02.1.05.22,0,.33.04.08,0,.16,0,.24.01.1.06.21,0,.32.05,1.05.16,2.1.36,3.09.75.93.37,1.78.85,2.38,1.69.25.35.37.75.46,1.15.03.31.03.61,0,.92-.24,1.29-1.08,2.1-2.19,2.69-1.19.63-2.47.98-3.79,1.2-.44.07-.87.13-1.31.2-.1.04-.22-.02-.31.04-.1,0-.2.01-.3.02-.13.04-.26-.02-.39.04-.16,0-.32.01-.48.02-.34.06-.68-.03-1.02.04-1.71,0-3.43,0-5.14,0-.25-.07-.5,0-.75-.05l-.3-.02c-.1-.06-.21,0-.32-.05-1.01-.11-1.99-.36-2.95-.69-.23-.08-.46-.16-.69-.27-.36-.17-.38-.16-.38.26-.06.1,0,.22-.04.32-.07.46-.09.48-.56.48-1.89,0-3.78,0-5.67,0-.29,0-.39-.07-.39-.38.02-1.12.02-2.24,0-3.36,0-.29.07-.4.38-.39,2.04.01,4.09,0,6.13,0,.2,0,.34.04.41.27.08.25.28.42.51.55.6.34,1.25.52,1.94.55.1.06.21,0,.31.05.12,0,.24.01.36.02.08.05.16.03.24.03,2.15,0,4.31,0,6.46,0,.08,0,.16.01.24-.03.36.03.66-.15.95-.32.2-.12.19-.5.02-.7-.23-.27-.54-.39-.86-.47-.18-.07-.38,0-.57-.04-1.5,0-3-.01-4.5-.02-.41-.08-.83.01-1.24-.05-.14,0-.28-.01-.42-.02-.14-.07-.3,0-.44-.05-.1,0-.2,0-.3-.01-.12-.07-.26,0-.38-.05-.52-.02-1.04-.1-1.56-.15-.62-.05-1.23-.22-1.84-.3-.75-.09-1.47-.3-2.18-.55-.74-.27-1.45-.6-2.07-1.09-.44-.34-.82-.74-1.14-1.2-.2-.29-.25-.61-.35-.93-.02-.25-.03-.49,0-.74.14-.75.55-1.31,1.12-1.81.73-.63,1.54-1.1,2.42-1.46.92-.38,1.89-.54,2.87-.68.19-.03.38-.05.58-.08.1-.04.22.02.32-.04.12,0,.24-.01.36-.02.18-.06.38.03.56-.05,1.68,0,3.36,0,5.04,0,.72,0,1.43,0,2.15,0,.12.06.26,0,.39.04,1.24.15,2.46.4,3.61.9.13.06.14,0,.19-.08.11-.17.1-.36.15-.54.07-.21.19-.31.42-.31,1.62,0,3.24,0,4.87,0,.24,0,.41.1.52.3.02,1.15.02,2.3,0,3.45-.05.05-.09.09-.14.14-.51.03-1.02.01-1.53.01-1.45,0-2.91,0-4.36,0-.11,0-.23.03-.33-.03-.39-.65-1.05-.91-1.72-1.11-.4-.12-.81-.17-1.23-.19-.07-.04-.14-.03-.21-.03-1.84,0-3.67,0-5.51,0-.08,0-.16-.01-.24.03"/>
      <path class="cls-1" d="M20.51,36.44s0-.07,0-.11c.05,0,.13-.05.14.04,0,.06-.08.08-.14.07"/>
      <path class="cls-1" d="M20.51,40.57s0-.07,0-.11c.05,0,.13-.05.14.04,0,.06-.07.08-.14.08"/>
      <path class="cls-1" d="M72.76,48.78l-.08-.12c-.8-.07-1.6-.04-2.4-.01-.03.02-.05.05-.08.07-.04.23.03.46-.04.69-.02.61-.31,1.03-.86,1.29-.56.27-.86.15-1.06-.44-.02-.06-.04-.11-.06-.17-.3-.92-.79-1.69-1.67-2.16-.36-.2-.73-.39-1.1-.59.47-.19.92-.4,1.36-.62.45-.22.86-.5,1.26-.79,1.14-.85,1.25-2.15.24-3.16-.7-.71-1.57-1.14-2.52-1.43-.86-.26-1.75-.32-2.64-.45-.11-.04-.23,0-.34-.04-.13,0-.27-.01-.4-.02-.14-.04-.3.02-.44-.04-.16,0-.32-.01-.49-.02-.25-.05-.5.03-.75-.05-.35,0-.7.01-1.05.01-7.31,0-14.63,0-21.94,0-.14,0-.29-.04-.39.11-.04,1.01-.03,2.01,0,3.02.05.17.19.12.3.12.49,0,.99,0,1.48,0,.81,0,1.62.01,2.43.02.05.06.03.14.03.21,0,2.11,0,4.22,0,6.33,0,.07.02.14-.03.21-.11.06-.22.03-.33.03-1.12,0-2.24,0-3.36,0-.43,0-.44.01-.44.45,0,.84,0,1.68,0,2.53q0,.46.45.46c5.1,0,10.19,0,15.29,0,.69,0,1.38,0,2.06,0,.04-.02.06-.05.06-.1,0-1.01,0-2.01,0-3.02,0-.09,0-.17-.1-.2-.3,0-.59,0-.89,0-1.14,0-2.28-.01-3.42-.02-.05-.63-.05-1.26,0-1.9h0c.06-.05.14-.03.21-.03,1.39,0,2.77,0,4.16,0,.07,0,.14-.01.21.03.33-.05.64.04.95.12.82.21,1.48.66,1.78,1.5.2.55.41,1.09.57,1.66.28.99,1.65,2,2.86,1.98,2.17-.04,4.33-.02,6.5,0,.71,0,1.4-.09,2.04-.38,1.22-.56,2.3-1.27,2.63-2.71.02-.78.03-1.56,0-2.34ZM58.34,45.69c-.66.3-1.37.33-2.08.34-.75.01-1.5,0-2.25,0-.99,0-1.97,0-2.96,0-.19,0-.27-.03-.26-.25.02-.51.01-1.03,0-1.54,0-.17.05-.23.22-.22,1.9,0,3.8,0,5.7.01.58,0,1.14.13,1.66.41.26.14.49.32.48.65-.01.32-.26.47-.52.59Z"/>
      <path class="cls-1" d="M143.08,46.6c-.26-1.16-.95-2.03-1.87-2.74-1.13-.87-2.42-1.42-3.76-1.87-.81-.27-1.65-.45-2.47-.68-.03,0-.06.01-.09,0-1.19-.27-2.4-.42-3.61-.57-.13-.04-.27.01-.4-.04-.11,0-.23,0-.34,0-6.32,0-12.65,0-18.97,0-.1,0-.21,0-.31,0-.21.02-.32.11-.32.35,0,.86,0,1.73,0,2.59,0,.2.07.24.25.24.6,0,1.19,0,1.79,0,.76,0,1.52.01,2.28.02.06.11.03.22.03.33,0,2.11,0,4.23,0,6.34,0,.42.05.38-.38.38-1.2,0-2.4-.02-3.6.02-.24.04-.36.2-.36.43,0,.77,0,1.54,0,2.31,0,.36.09.46.46.47,1.77.01,3.53.01,5.3.01,1.78,0,3.55,0,5.33.01,1.82,0,3.64,0,5.45-.01,1.1,0,2.2,0,3.3,0,.22-.07.46,0,.69-.05.14,0,.28-.01.42-.02.12-.06.26,0,.38-.04.12,0,.24-.02.35-.02.1-.05.22,0,.33-.04.08,0,.16-.01.24-.02.1-.06.22,0,.32-.05.53-.09,1.07-.16,1.6-.26,1.66-.32,3.28-.76,4.79-1.56,1.62-.86,2.87-2.04,3.24-3.93.05-.1-.02-.22.05-.32.02-.44,0-.88-.09-1.31ZM131.77,49.67c-.92.74-2.01,1.12-3.16,1.25-1.32.15-2.65.03-3.97.07-.23,0-.17-.15-.18-.27,0-1.1,0-2.2,0-3.3s0-2.16,0-3.24c0-.22.03-.3.28-.3,1.29.01,2.59-.06,3.88.02,1.51.1,2.83.72,3.77,1.94.93,1.21.66,2.8-.61,3.82Z"/>
      <path class="cls-1" d="M111.67,64.63c-.31-.89-.84-1.62-1.56-2.22-1.16-.97-2.51-1.56-3.92-2.03-1.95-.66-3.97-1-6-1.25-.12-.05-.26.02-.38-.05-.19,0-.39,0-.58,0-6.33,0-12.66,0-18.99,0-.09,0-.19,0-.28,0-.26-.01-.36.11-.36.36,0,.83,0,1.66,0,2.5,0,.12,0,.23.11.3.11.03.22.02.34.02,1.18,0,2.35,0,3.53,0,.11,0,.22-.03.33.03.05.07.03.16.03.24,0,2.18,0,4.37,0,6.55,0,.08.02.16-.03.24-.1.06-.2.03-.3.03-.7,0-1.39,0-2.09,0-.56,0-1.12-.03-1.68.02-.17.08-.23.22-.23.4,0,.78,0,1.57,0,2.36,0,.23.1.35.3.41.11.04.23,0,.34.04.1,0,.21,0,.31,0,5.87,0,11.75,0,17.62,0,.13,0,.27,0,.4,0,.37-.07.75,0,1.13-.04.18,0,.37-.01.55-.02.14-.07.29,0,.44-.04.12,0,.24-.01.36-.02.12-.07.26,0,.38-.05.08,0,.16,0,.24-.01.1-.06.21,0,.31-.05l1.3-.19c.59-.13,1.19-.24,1.77-.38,1.78-.44,3.48-1.06,4.94-2.22,1.5-1.18,2.18-3.1,1.69-4.94ZM100.61,67.88c-.88.79-1.94,1.18-3.08,1.37-1.19.2-2.4.07-3.6.1-.26,0-.6.12-.77-.06-.15-.16-.04-.49-.04-.75,0-.92,0-1.85,0-2.77,0-1.08,0-2.16,0-3.24,0-.24.07-.29.3-.29,1.29.01,2.59-.06,3.88.02,1.48.09,2.77.7,3.71,1.88.93,1.17.75,2.71-.39,3.73Z"/>
      <path class="cls-1" d="M106.87,45.93c-.44-1.1-1.25-1.87-2.2-2.51-1.16-.8-2.45-1.32-3.79-1.73-1.33-.41-2.71-.62-4.08-.81-.11-.04-.23,0-.34-.04l-.34-.02c-.14-.05-.3.02-.44-.04-.16,0-.32-.01-.49-.02-.27-.05-.56.02-.83-.04-1.71,0-3.43,0-5.14,0-.29.08-.58,0-.87.05-.16,0-.32.01-.49.02-.14.07-.3,0-.44.04-.11,0-.23.01-.34.02-.11.05-.23,0-.34.04-1.18.16-2.36.32-3.51.64-2.06.58-4.06,1.25-5.47,3.01-.57.71-1.07,1.46-1.15,2.4-.03.23-.03.45,0,.68,0,.41.11.8.25,1.17.38,1,.98,1.85,1.88,2.46.76.52,1.53,1.01,2.38,1.36.65.27,1.31.51,1.99.71.63.19,1.28.33,1.92.45.7.13,1.42.24,2.14.28.12.05.26-.02.38.05.12,0,.24.01.36.02.14.04.3-.02.44.04.18,0,.36.01.54.02.25.04.51-.02.76.04h5.88c.21-.06.42,0,.63-.04.14,0,.28-.01.42-.02.12-.06.26,0,.38-.04.1,0,.2-.01.3-.02.1-.06.22,0,.32-.05.42-.07.83-.12,1.25-.2,1.78-.34,3.5-.85,5.05-1.83,1.29-.82,2.36-1.85,2.9-3.33.33-.9.44-1.81.08-2.74ZM95.41,49.93c-.98.83-2.14,1.12-3.56,1.15-1.5-.05-2.92-.59-3.94-1.96-.99-1.33-.82-2.83.41-3.94,2.13-1.92,5.69-1.71,7.46.45,1.17,1.43,1.03,3.1-.39,4.3Z"/>
      <path class="cls-1" d="M17.98,6.96s.01.04.02.05"/>
      <path class="cls-1" d="M24.92,10.78c-.16-.95-.38-1.88-.8-2.75-.02-.02-.04-.05-.06-.07-.04-.09-.09-.17-.13-.26-.66-1.49-1.54-2.81-2.65-3.96-.85-.87-1.8-1.6-2.85-2.19-1.23-.69-2.53-1.15-3.91-1.37-.3-.05-.62-.03-.9-.17h-.23c-.12.05-.23.05-.35,0h-.98c-.12.05-.23.05-.35,0h-.29s-.05.03-.08.03c-.96.01-1.88.24-2.79.56-2.3.82-4.24,2.22-5.78,4.2C1.47,6.47.61,8.38.18,10.5c-.11.55-.11,1.1-.18,1.65v.18c.05.12.05.24,0,.36v1.03c.05.12.05.24,0,.36v.36c.1.05.08.16.07.24-.02.34.06.67.12.99.22,1.13.55,2.23,1.03,3.27.42.9.92,1.76,1.52,2.55.55.71,1.14,1.37,1.83,1.94.52.42,1.03.84,1.6,1.2.07.28.03.56.03.83,0,.56.04,1.12-.03,1.68-.2.21-.49.23-.73.33-.14.06-.21.16-.23.31-.03.15.05.23.18.29.21.11.41.25.61.39.1.07.21.13.2.31-.01.48,0,.48-.43.63-.09.03-.19.04-.27.09-.11.08-.29.07-.29.27,0,.2.11.32.25.41.17.11.34.22.52.31.3.13.19.4.2.62,0,.18-.14.24-.28.29-.18.07-.36.12-.53.21-.23.12-.25.38-.04.52.2.13.42.23.61.38.09.06.22.08.24.25.05.49,0,.58-.44.74-.11.04-.22.07-.32.11-.28.12-.29.31-.08.54.15.17.36.23.53.36.14.1.32.13.32.38,0,.47.01.47-.43.63-.11.04-.23.07-.34.12-.26.12-.29.42-.06.59.14.11.29.21.46.27.32.13.4.36.38.7-.02.3-.26.27-.42.36-.11.06-.24.08-.35.12-.27.12-.3.32-.08.53.19.19.43.3.65.42.1.05.17.12.19.23.09.47.02.59-.42.73-.09.03-.18.06-.27.09-.13.05-.27.09-.29.27-.02.17.06.29.2.37.16.1.32.21.5.29.32.14.31.41.29.7-.03.26-.27.24-.43.32-.1.05-.21.07-.32.12-.12.06-.22.14-.24.3-.02.14.06.21.16.29.16.13.35.2.52.31.11.07.25.11.3.25.12.36-.01.62-.35.75-.09.03-.19.05-.27.1-.13.07-.34.07-.35.29-.01.23.14.36.32.45.16.09.32.19.48.28.26.14.17.39.18.61,0,.19-.14.24-.27.29-.18.07-.36.12-.53.21-.24.13-.24.37-.02.54.23.17.5.29.73.47.21.16.06.37.1.54.03.14-.08.2-.2.25-.21.07-.42.15-.62.25-.21.1-.2.25-.08.43.15.23.39.33.59.42.33.15.33.39.31.67-.01.27-.24.27-.41.34-.11.04-.22.06-.32.11-.11.06-.25.1-.25.28,0,.17.07.29.21.36.18.1.35.21.53.3.17.09.25.22.24.44-.02.37.02.75-.01,1.12-.03.31.1.32.33.32,3.21,0,6.42,0,9.63,0,.68,0,1.36,0,2.05,0,.16,0,.24-.03.21-.21-.03-.17.05-.25.21-.3.2-.06.4-.14.58-.24.26-.14.27-.32.03-.5-.21-.15-.44-.27-.66-.42-.06-.04-.14-.06-.16-.16-.11-.4.02-.66.41-.8.04-.01.07-.02.11-.03.05-.02.1-.04.15-.07.12-.07.29-.09.31-.28.02-.18-.13-.26-.24-.34-.17-.12-.35-.24-.54-.33-.31-.15-.16-.43-.19-.66-.02-.21.14-.22.28-.27.19-.07.38-.14.55-.24.21-.13.22-.3.02-.45-.2-.15-.42-.26-.63-.4-.12-.08-.22-.17-.22-.35,0-.49-.01-.49.42-.66.12-.05.25-.09.37-.15.27-.14.29-.28.04-.48-.2-.16-.41-.29-.63-.41-.14-.08-.2-.19-.19-.36,0-.47,0-.47.43-.62.1-.04.2-.07.29-.12.11-.07.27-.1.27-.28,0-.17-.13-.24-.24-.31-.18-.11-.36-.22-.54-.32-.28-.17-.18-.45-.19-.7,0-.22.19-.19.3-.25.14-.08.3-.12.45-.19.31-.15.32-.3.05-.51-.2-.16-.41-.29-.63-.41-.14-.08-.17-.18-.17-.34,0-.48,0-.48.44-.64.09-.03.18-.06.26-.11.11-.07.27-.09.28-.27.01-.17-.12-.24-.23-.32-.19-.13-.39-.25-.59-.37-.28-.17-.13-.45-.16-.69-.02-.19.16-.17.26-.22.17-.08.36-.13.53-.22.26-.13.26-.26.05-.47-.2-.19-.46-.29-.67-.45-.11-.08-.17-.16-.17-.31,0-.49,0-.49.43-.65.1-.04.2-.07.29-.12.32-.16.34-.25.12-.54-.03-.13-.14-.18-.24-.25-.1-.06-.2-.12-.3-.18-.2-.12-.23-.3-.22-.52.01-.2.14-.27.29-.33.12-.05.26-.09.38-.15.35-.2.37-.48.05-.73-.16-.12-.35-.21-.52-.33-.2-.13-.21-.32-.2-.53.01-.2.15-.26.3-.32.11-.04.22-.07.33-.12.15-.06.29-.14.32-.32.03-.2-.1-.31-.24-.42-.17-.13-.36-.23-.54-.35-.18-.12-.18-.3-.17-.48,0-.18.11-.27.26-.32.16-.06.33-.11.48-.21.26-.17.28-.41.05-.62-.15-.13-.32-.23-.49-.33-.22-.12-.31-.3-.31-.56,0-.95,0-1.9,0-2.85,0-.23.08-.37.27-.48,1.14-.7,2.17-1.55,3.07-2.58,1.26-1.45,2.17-3.11,2.74-4.98.64-2.11.74-4.27.37-6.45ZM12.61,17.52c-2.56,0-4.54-2.2-4.5-4.79.04-2.57,2.06-4.63,4.59-4.61,2.35.02,4.44,2.02,4.43,4.71,0,2.61-2.04,4.7-4.52,4.69Z"/>
    </g>
  </g>
</svg>