<?xml version="1.0" encoding="UTF-8"?>
<svg id="Layer_2" xmlns="http://www.w3.org/2000/svg" viewBox="0 0 132.38 43.11">
  <defs>
    <style>
      .cls-1 {
        fill: #fff;
      }
    </style>
  </defs>
  <g id="Layer_1-2" data-name="Layer_1">
    <g id="Layer_x5F_1">
      <path class="cls-1" d="M85.95,20.54c-.86,2.64.79,7.19,2.81,9.71,3.44,4.28,10.73,5.34,16.59,5.33,8.51-.01,15.3-1.72,22.5-5.24.87-.43.66-.6.89-1.68.31-1.46,1.76-7.33,1.79-8.25h-20.99s-.5,2.16-.5,2.16h9.04c-.07.5-.51,2.77-.74,3.06-.32.4-2.16.97-2.79,1.18-3.54,1.18-9.79,2.07-12.89-.55-1.74-1.46-2.04-2.87-2.06-5.84l-13.65.11h0ZM44.23,9.58h14.84s-.69,3.21-.69,3.21l14.72.06.87-3.26h14.98c.34-2.15,1.98-6.81,1.95-8.58-9.05.26-18.49,0-27.58,0h-13.72c-4.03,0-3.12-.73-3.98,2.81-.4,1.64-1.1,3.8-1.39,5.76h0ZM.08,35.41l13.32-.02c.6-.1.16,0,.43-.12l2.85-12.58c6.07,0,14.34.44,19-2.26l-32.17-.03L.08,35.41ZM7.35,3.09l-2.14,9.74h13.74s1.03-4.69,1.03-4.69c1.8-.11,5.26-.15,6.96.24,2.52.59,2.85,1.94,2.22,4.46h13.26c.55-.98.7-2.45.72-3.65.02-.85-.08-2.45-.54-3.22M56.61,20.4l-3.74,14.97.69.05h13.38s.69-.01.69-.01l3.67-15.01h-14.69s0,0,0,0ZM96.46,4.04c-1.24.68-3.99,2.86-4.77,3.68-.99,1.05-3.14,3.8-3.55,5.12h13.78c2.1-2.62,3.71-4.43,8.03-5.04,1.9-.27,4.13-.21,5.82.41.86.32,1.49.76,1.97,1.29.71.77.64,1.35,1.16,2.12l13.48-1.79c-.04-1.96-1.42-4.79-2.45-5.7M129.93,4.13C125.54-.13,119.71-.05,113.24.02c-3.24.03-6.38.31-9.36,1.01-1.59.37-6.75,2.26-7.42,3.01M42.58,5.98c-.35-.76-1.87-2.41-2.61-2.92-.92-.6-2.3-1.13-3.54-1.43-4-.94-14.26-.62-18.9-.62-2.77,0-7.1-.26-9.68.04l-.52,2.04M4.27,16.91l-.68,2.93c10.13-.17,21.78-.05,32.13,0,1.15,0,1.23,0,2-.59.86-.66,2.14-1.54,2.51-2.5-4.37.12-34.8-.33-35.96.15h0ZM4.4,16.22h36.29c.53-.54,1.5-1.92,1.48-2.84h-12.97c-1.24.09-1.26,1.5-4.45,2-2.05.32-4.3.23-6.43.23l.43-2.23H5.11s-.7,2.84-.7,2.84h0ZM109.63,19.82l21.14.02.65-3.03-21.06-.02-.73,3.04h0ZM56.67,19.83h14.77s.73-3.03.73-3.03l-14.77-.02-.73,3.05h0ZM57.55,16.21l14.7.03c.34-.58.73-2.17.64-2.84h-14.63s-.72,2.82-.72,2.82h0ZM85.91,19.82l13.77.02.56-3.06h-13.69s-.64,3.04-.64,3.04h0ZM86.77,16.23h13.44c.41-.11,1.3-2.73,1.31-2.83l-13.15-.03c-.85.06-.7.26-1.04,1.13-.22.56-.42,1.08-.56,1.73h0ZM97.93,39.38l.06,3.57,1.31-.03v-5.96s-2.01.02-2.01.02c-.34.59-.41,1.7-.59,2.32-.09.31-.05.15-.17.42l-.75-2.78h-2.15s.07,6.02.07,6.02l1.29-.05.35-2.42c.07.27.11.6.16.84.11.53.19,1.03.35,1.49.49.2.57.14,1.21.12l.86-3.55h0ZM35.36,39.39l.06,3.55h1.31s0-6,0-6l-2.1.04-.78,3.09-.64-3.13h-2.15s.05,6,.05,6l1.32-.03.02-3.3c.41.66.61,2.38.88,3.33h1.18s.85-3.56.85-3.56h0ZM81.08,39.99l1.68,2.95h1.54s.01-6.01.01-6.01l-1.55.06v2.81s-.37-.43-.37-.43c0,0-.2-.32-.2-.33-.15-.26-.18-.36-.36-.66-.32-.56-.56-.9-.76-1.45l-1.59.03.03,5.97h1.51s.08-2.95.08-2.95h0ZM44.56,40.15l.97,1.43c.31.53.53.96.81,1.37l1.5-.06v-5.92s-1.55-.04-1.55-.04v2.93c-.38-.39-.88-1.34-1.21-1.97-.5-.95-.61-1.25-2.08-.86l.04,5.88,1.51-.05v-2.72s.01,0,.01,0ZM27.41,39.28v-.98c.32-.04.39-.08.71-.02.37.07.36.13.51.23.02.91-.29.9-1.22.77h0ZM29.32,40.45c.32-.41.82-.52.95-1.41.12-.76-.06-1.42-.52-1.76-.73-.55-3-.34-4.02-.34l.06,6h1.56s.13-2.33.13-2.33c.78.29,1,1.54,1.43,2.33h1.7c-.11-.97-.69-2.14-1.3-2.49h0ZM11.76,38.27c.66-.03.67-.11,1.13.25,0,.81-.36.79-1.21.81l.08-1.06h0ZM13.6,40.24c1.09-.5,1.33-2.16.5-2.92-.67-.61-3.05-.44-4.09-.35l.03,5.97,1.6-.04v-2.33c.62.18.52.14.82.8.83,1.86.34,1.6,2.45,1.56-.07-.82-.93-2.24-1.31-2.69h0ZM109.93,38.31c.61-.1.84-.03,1.21.22.02.9-.23.9-1.23.74l.02-.96ZM111.85,40.41c.39-.44.83-.59.96-1.44.38-2.52-2.53-2.12-4.54-2l.03,5.98,1.61-.06v-2.32c.74.23,1.04,1.18,1.5,2.37l1.78-.02c-.15-.86-.76-2.14-1.33-2.52h0ZM115.62,38.38c2.13-.11,1.46,2.82.76,3.12-1.42.62-1.72-1.93-.76-3.12ZM113.45,40.58c.38,3.68,5.76,3.41,5.15-1.38-.44-3.45-5.65-3.39-5.15,1.38ZM105.99,40.93c-.31,1.9-3.38-.01-1.56-2.59,1.01-.11.94-.06,1.45.6l1.47-.41c-.4-1.39-1.17-1.93-2.95-1.64-2.82.46-2.58,5.12-.61,5.96,1.66.71,2.69-.24,3.67-.68l-.09-2.71h-2.33s-.06,1.13-.06,1.13c.04.03.1.05.14.06l.88.28h0ZM23.25,40.93c-.69,1.68-2.5.05-1.69-1.98.66-1.63,2.48.06,1.69,1.98ZM19.87,40.93c.65,3.45,6.03,2.81,5.04-2.04-.66-3.24-5.95-2.81-5.04,2.04ZM87.9,37c0,2.75-.68,5.97,2.36,6.05,3.21.08,2.49-3.38,2.49-6.11l-1.62.02-.13,4.38c-2.1.88-1.46-1.95-1.46-4.39l-1.64.04h0ZM119.37,36.95c0,2.7-.7,6.08,2.45,6.1,3.11.02,2.4-3.49,2.4-6.11l-1.64.11c0,3,.48,4.79-1.3,4.41-.51-1.04-.27-3.08-.27-4.5h-1.64ZM6.64,38.34l2.53-.02.03-1.38h-4.21s.08,6,.08,6l4.21-.02-.05-1.4-2.59-.12.02-.93h2.36s0-1.32,0-1.32l-2.36-.05-.02-.77h0ZM55.76,38.52c.33-.25.29-.23,1.22-.23.47,0,.82.02,1.32-.02l.02-1.33-4.21.06.02,5.93h4.25s-.07-1.44-.07-1.44h-2.55l.03-.92c.58-.27,1.61-.08,2.35-.2v-1.21s-2.35-.13-2.35-.13l-.02-.52ZM110.48,16.23h21.09s.17-.85.17-.85c-2.62-.29-14.7-.02-19.18-.06-2.28-.02-1.94-.15-2.08.9h0ZM39.9,39.02l.39,1.52-.89.02.51-1.54ZM39.15,41.97l1.44-.03.45.99,1.57-.02-1.84-5.98h-1.8s-1.81,5.98-1.81,5.98l1.54.03.45-.99h0ZM75.9,40.55c.09-.67.18-1.14.5-1.51l.33,1.54-.83-.03h0ZM75.51,41.98c1.84-.01,1.6-.16,1.91.98l1.67-.05-1.82-5.96-1.81.05-1.79,5.96h1.56s.28-.97.28-.97ZM52.18,40.46c-.47.46-.31,1.2-1.17,1.1-1.15-.14-1.04-2.74-.26-3.13.83-.4.91.31,1.43.66l1.18-.4c-.46-2.75-4.93-2.71-4.81,1.38.1,3.58,4.29,4.19,4.9.82l-1.27-.42h0ZM1.64,38.26c.92.04,1.26.01.9,1.09l-.89.11-.02-1.2ZM1.67,40.83c.9-.14,1.58.07,2.17-.58.48-.52.57-1.42.39-2.13-.4-1.6-2.5-1.2-4.23-1.17l.07,6h1.56s.04-2.11.04-2.11h0ZM126.85,38.26c.57,0,.97-.04.96.6-.01.61-.49.57-1.07.58l.11-1.18ZM126.78,40.77c1.82.03,3.16-.58,2.56-2.72-.4-1.42-2.81-1.26-4.21-1.04l.03,5.93,1.59-.03.03-2.14h0ZM18.04,38.31c.38,0,.8.01,1.21.01l.02-1.4-3.89.11.03,5.88h1.61s0-2.38,0-2.38h1.89s0-1.32,0-1.32c-.57,0-1.41.14-1.88-.19v-.51s1-.21,1-.21h0ZM68.79,38.51l1.52.06.07,4.38h1.56s.02-4.4.02-4.4l1.54-.03v-1.57s-4.75,0-4.75,0l.04,1.56h0ZM61.09,38.51l1.52.03.08,4.39h1.56s0-4.38,0-4.38l1.56-.14v-1.47s-4.76,0-4.76,0l.03,1.56h0ZM66.48,42.94l1.62-.02v-5.96s-1.63.05-1.63.05v5.93h.01ZM85.33,42.95l1.58-.07v-5.89s-1.64-.02-1.64-.02l.06,5.99h0Z"/>
    </g>
  </g>
</svg>