<?xml version="1.0" encoding="UTF-8"?>
<svg id="Layer_2" xmlns="http://www.w3.org/2000/svg" viewBox="0 0 333.76 141.97">
  <defs>
    <style>
      .cls-1, .cls-2 {
        fill: #fff;
      }

      .cls-2 {
        font-family: ArialMT, Arial;
        font-size: 20.84px;
      }
    </style>
  </defs>
  <g id="Layer_1-2" data-name="Layer_1">
    <text class="cls-2" transform="translate(5.2 135.2)"><tspan x="0" y="0"> </tspan></text>
    <text class="cls-2" transform="translate(143.31 135.2)"><tspan x="0" y="0"> </tspan></text>
    <g>
      <path class="cls-1" d="M0,5.82c.23-.1.47-.06.7-.06,5.01,0,10.01,0,15.02,0,.8,0,.8,0,.8.79,0,7.36,0,14.72,0,22.08,0,.2-.14.49.14.57.24.07.37-.17.51-.34,3.28-3.81,6.66-7.54,10.05-11.26,3.08-3.38,6.15-6.78,9.23-10.17.08-.09.15-.18.22-.28.71-.98,1.56-1.45,2.88-1.42,5.44.09,10.88.04,16.32.04.2,0,.48-.13.58.14.07.21-.19.32-.31.46-2.58,2.93-5.16,5.87-7.75,8.8-2.9,3.28-5.79,6.57-8.69,9.85-1.92,2.17-3.84,4.34-5.77,6.52-.58.65-1.14,1.31-1.73,1.95-.24.26-.28.48-.03.77,1.65,1.92,3.28,3.84,4.93,5.76,2.03,2.37,4.06,4.73,6.09,7.1,2.21,2.58,4.41,5.16,6.61,7.74,2.25,2.64,4.51,5.28,6.76,7.92.11.13.22.34.42.28.29-.09.16-.37.16-.57,0-16.26,0-32.53,0-48.79,0-.53.11-.83.66-1.07,2.3-.97,4.58-2,6.86-3.01,2.34-1.03,4.68-2.05,7.01-3.08.48-.21.97-.42,1.45-.65.26-.12.37-.03.37.24,0,.2,0,.4,0,.59,0,19.51,0,39.01,0,58.52q0,.77-.78.77c-10.98,0-21.96,0-32.95.01-.58,0-.96-.18-1.32-.6-2.57-3.07-5.18-6.11-7.74-9.18-3.23-3.86-6.43-7.74-9.65-11.61-1.34-1.61-2.66-3.23-3.94-4.89-.12-.16-.24-.37-.46-.31-.26.07-.14.34-.14.51,0,8.41,0,16.82,0,25.23q0,.85-.85.85c-4.97,0-9.93,0-14.9,0-.26,0-.51-.01-.77-.02V5.82Z"/>
      <path class="cls-1" d="M310.17,60.71c-.03-.07-.06-.13-.09-.2-.01-.21-.09-.39-.27-.51-.02-.03-.05-.07-.07-.1-.03-.23-.02-.49-.29-.62-.02-.03-.05-.06-.07-.09-.02-.17,0-.36-.07-.52-.94-2.4-1.24-4.91-1.25-7.46,0-6.32,0-12.64-.01-18.97,0-.21.15-.48-.15-.62-.02-.03-.03-.06-.05-.09-.17-.27-.43-.14-.65-.14-3.68,0-7.36,0-11.04,0q-.84,0-.84.84c0,11,0,21.99.01,32.99,0,.58-.17.72-.74.72-4.33-.02-8.66-.01-13-.01q-.84,0-.84-.83c0-10.96,0-21.92,0-32.87q0-.83-.86-.83c-2.53,0-5.06-.02-7.6.01-.56,0-.69-.17-.69-.71.02-2.95.01-5.89.01-8.84,0-.74.01-.75.78-.75,2.53,0,5.06-.02,7.6.01.6,0,.77-.18.77-.78.01-1.84-.14-3.68.1-5.51.17-1.25.35-2.49.67-3.71.22-.86.61-1.66.75-2.53.02-.03.04-.06.06-.09.18-.08.19-.23.15-.39.03-.06.07-.12.1-.19.19-.02.18-.15.14-.29.03-.06.06-.13.09-.19.26-.08.28-.29.28-.51.02-.03.05-.06.07-.09.23-.05.25-.22.26-.41.03-.06.07-.12.1-.18,0,0,.03,0,.03,0v-.04s.04-.06.06-.09c0,0,.04,0,.04,0,0,0,0-.04,0-.04.07-.1.15-.21.22-.31,0,0,.04,0,.04,0v-.04s.04-.06.07-.09c0,0,.04,0,.04,0v-.04s.05-.05.08-.08c0,0,.04,0,.04,0v-.04c.07-.1.14-.2.22-.3.23-.05.37-.17.38-.42.03-.03.05-.06.07-.09,0,0,.04,0,.04,0,0,0,0-.04,0-.04.03-.03.06-.06.09-.09,0,0,.04,0,.04,0,0,0,0-.04,0-.04.03-.03.06-.06.09-.09,0,0,.04,0,.04,0,0,0,0-.04,0-.04.03-.03.06-.06.09-.09,0,0,.04,0,.04,0,0,0,0-.04,0-.04.03-.03.06-.06.09-.09,0,0,.04,0,.04,0v-.04s.06-.05.09-.07c0,0,.04,0,.04,0v-.04s.06-.05.09-.08c0,0,.04,0,.04,0v-.04s.06-.05.08-.08c0,0,.04,0,.04,0v-.04s.06-.05.09-.08c0,0,.03,0,.03,0v-.04s.06-.05.09-.08c0,0,.03,0,.03,0,0,0,0-.04,0-.04.06-.04.12-.07.18-.11,0,0,.04,0,.04,0v-.04s.06-.05.08-.08c0,0,.04,0,.04,0v-.04s.06-.05.09-.07c0,0,.03,0,.03,0,0,0,0-.03,0-.03.06-.03.13-.07.19-.1,0,0,.04,0,.04,0v-.04s.05-.05.08-.08c.14.02.24-.02.28-.17.03-.02.05-.04.07-.06.19-.01.37-.03.42-.26.03-.03.06-.05.09-.07.07.03.12.02.14-.06.07-.03.13-.06.2-.08.12.04.18,0,.18-.14.06-.03.13-.06.19-.09.14.03.26.04.29-.15.06-.03.12-.06.19-.1.06.04.12.04.15-.04.07-.03.14-.05.2-.08,0,0,.04,0,.04,0v-.04s.07-.04.1-.06c.28,0,.56-.02.74-.29.07-.03.14-.06.2-.09.24.05.46-.03.68-.1.52-.17,1.04-.37,1.58-.45,1.14-.17,2.27-.42,3.44-.39.24,0,.36-.11.44-.31h6.06c.02.26.22.24.39.26.45.05.9.09,1.35.15.35.05.64.16.64.61,0,3.05,0,6.09,0,9.14,0,.34-.06.49-.44.3-1.24-.61-2.57-.68-3.92-.64-2.47.07-3.84,1.52-4.45,3.61-.67,2.31-.59,4.69-.6,7.05,0,.46.23.51.59.51,3.9,0,7.8-.01,11.69,0,.54,0,.72-.18.71-.73-.03-2.27,0-4.55-.02-6.83,0-.38.11-.61.47-.78,1.09-.54,2.16-1.12,3.24-1.67,3.2-1.64,6.39-3.28,9.59-4.92.57-.29.56-.3.56.36,0,4.61.01,9.22-.02,13.83,0,.62.19.76.78.75,3.13-.03,6.25,0,9.38-.03.58,0,.79.13.78.76-.03,3.03-.03,6.05,0,9.08,0,.55-.17.65-.67.65-3.21-.02-6.41,0-9.62-.02-.54,0-.65.16-.65.67.02,5.7.01,11.4.01,17.09,0,1.31.16,2.6.59,3.84.58,1.67,1.79,2.63,3.49,3.01,1.75.39,3.5.16,5.24-.05.3.03.6.05.84-.19.07-.02.15-.04.22-.06.06.03.11.03.15-.03.07-.03.14-.05.21-.08h.03s0-.03,0-.03c.07-.02.14-.04.21-.06h.01s.06.03.09.06c.04.31.1.62.11.93.05,2.25.09,4.49.13,6.74,0,.22,0,.44.2.59v2.02c-.14.02-.27.04-.41.08-1.93.5-3.9.77-5.88.89-1.86.11-3.74.07-5.6,0-.95-.03-1.91-.16-2.85-.4-.89-.22-1.78-.43-2.67-.64-.07-.03-.15-.05-.22-.08-.31-.29-.7-.41-1.1-.51-.07-.03-.14-.05-.21-.08,0,0,0-.04,0-.04h-.04c-.06-.03-.12-.06-.18-.1-.03-.18-.15-.17-.29-.14-.03-.02-.06-.05-.09-.07,0,0,0-.04,0-.04,0,0-.04,0-.04,0-.06-.03-.13-.07-.19-.1,0,0,0-.03,0-.03,0,0-.03,0-.03,0-.06-.04-.12-.07-.18-.11,0,0,0-.03,0-.03h-.04s-.06-.05-.09-.07c0,0,0-.03,0-.03h-.04c-.11-.07-.21-.14-.31-.21,0,0,0-.03,0-.03h-.03s-.06-.05-.09-.07c0,0,0-.03,0-.03h-.03c-.06-.03-.12-.07-.18-.1,0,0,0-.03,0-.03h-.03s-.05-.05-.08-.08c0-.13-.06-.17-.18-.14-.02-.03-.05-.05-.07-.07,0,0,0-.04,0-.04h-.04s-.05-.05-.08-.08c0,0,0-.04,0-.04h-.04c-.07-.06-.14-.13-.21-.19,0,0,0-.04,0-.04h-.04c-.06-.03-.12-.07-.17-.1,0,0,0-.04,0-.04h-.04c-.04-.06-.08-.12-.12-.18,0,0,0-.03,0-.03,0,0-.03,0-.03,0-.03-.03-.06-.06-.09-.09,0,0,0-.04,0-.04h-.04s-.05-.06-.07-.09c0,0,0-.04,0-.04h-.04s-.05-.06-.07-.08c0,0,0-.04,0-.04h-.04s-.05-.06-.07-.08c0,0,0-.04,0-.04h-.04s-.04-.07-.07-.09c0,0,0-.04,0-.04h-.04s-.05-.06-.08-.09c0,0,0-.03,0-.03h-.03c-.04-.06-.07-.12-.11-.18,0,0,0-.04,0-.04h-.04s-.05-.06-.08-.08c0,0,0-.04,0-.04,0,0-.04,0-.04,0-.04-.06-.08-.12-.12-.19,0,0,.01-.03.01-.03h-.04s-.04-.06-.06-.09c.03-.12-.02-.19-.15-.18-.03-.06-.06-.13-.09-.19,0,0,0-.04,0-.04h-.04s-.04-.07-.07-.1c0,0,0-.04,0-.04h-.04c-.03-.07-.07-.13-.1-.19,0,0,0-.03,0-.03h-.03Z"/>
      <path class="cls-1" d="M282.82,108.27c0-5.36,0-10.72,0-16.08,0-.22.01-.44-.02-.65-.12-.84-.13-.84.69-.84.63,0,1.27.02,1.9,0,.45-.02.66.12.63.6-.01.19-.11.46.15.58.27.12.43-.09.61-.24,2.51-2.22,6.74-1.23,7.8,2.37.77,2.62.61,5.12-.93,7.43-.78,1.18-2,1.67-3.36,1.83-1.29.15-2.46-.17-3.49-.97-.14-.11-.26-.28-.46-.19-.23.1-.18.33-.18.52,0,1.88,0,3.76,0,5.64h-3.32ZM291.5,96.69c0-.52-.07-1.2-.35-1.85-.31-.71-.76-1.3-1.55-1.51-1.08-.28-2.32.31-2.85,1.32-.71,1.33-.75,2.72-.27,4.11.36,1.04,1.11,1.77,2.23,1.87,1.02.09,1.73-.55,2.25-1.38.45-.73.55-1.55.55-2.57Z"/>
      <path class="cls-1" d="M322.12,108.27s0-.08-.02-.12c-.11-.26-.57-.18-.57-.53-.02-.69.01-1.38.18-2.05.05-.22.2-.2.41-.18.6.04,1.18.27,1.8.05.81-.28,1.27-.84,1.52-1.6.08-.25,0-.53-.1-.8-.82-2.18-1.6-4.37-2.41-6.56-.61-1.66-1.24-3.3-1.86-4.96-.12-.33-.22-.66-.35-1.05,1.16,0,2.27,0,3.37,0,.32,0,.35.24.43.47.82,2.47,1.64,4.95,2.48,7.42.06.19.02.5.29.52.33.03.32-.32.39-.51.54-1.55,1.06-3.11,1.57-4.67.32-.95.63-1.89.92-2.85.1-.32.28-.38.57-.38,1.01,0,2.02,0,3.02,0v.59c-.28-.05-.3.16-.37.35-.74,1.94-1.51,3.86-2.22,5.81-.94,2.57-1.86,5.15-2.92,7.67-.52,1.22-1.22,2.32-2.52,2.89-.24.11-.64.06-.64.49h-2.97Z"/>
      <path class="cls-1" d="M316.35,65.81c.89.21,1.78.42,2.67.64.94.24,1.9.37,2.85.4,1.87.06,3.74.1,5.6,0,1.98-.12,3.95-.39,5.88-.89.13-.03.27-.05.41-.08v.24c-1-.03-1.93.36-2.9.49-1.64.23-3.29.35-4.94.45-1.68.1-3.34,0-5-.15-1.56-.14-3.12-.44-4.57-1.1Z"/>
      <path class="cls-1" d="M333.32,55.61c.25.1.18.32.19.5.01.51,0,1.02.02,1.52,0,.16-.1.43.24.42v5.82c-.21-.15-.2-.37-.2-.59-.04-2.25-.08-4.49-.13-6.74,0-.31-.07-.62-.11-.93Z"/>
      <path class="cls-1" d="M111.19,49.58c-.11-2.5-1.38-4.27-3.53-5.42-2.12-1.12-4.43-1.73-6.74-2.31-2.04-.51-4.08-1.04-6.08-1.71-1.96-.66-3.88-1.4-5.73-2.33-1.84-.93-3.56-2.04-5.05-3.48-2.11-2.02-3.5-4.48-4.1-7.33-.72-3.45-.41-6.8,1.05-10.05,1.58-3.54,4.19-6.05,7.48-7.95,2.03-1.17,4.2-2,6.46-2.52,1.61-.37,3.26-.59,4.92-.66,1.85-.07,3.71-.14,5.56.02,1.97.17,3.9.51,5.8,1.07,2.28.67,4.42,1.64,6.41,2.93,3.21,2.09,5.45,4.93,6.58,8.6.36,1.18.59,2.41.79,3.63.05.34-.13.43-.43.49-.97.19-1.96.18-2.95.28-2.84.29-5.69.57-8.54.81-.85.07-1.69.13-2.53.25-.33.05-.55,0-.66-.44-.61-2.47-1.9-4.48-4.18-5.75-1.02-.57-2.13-.84-3.26-.95-1.8-.18-3.6-.12-5.25.76-1.79.95-3.1,3.16-2.34,5.4.41,1.2,1.31,1.98,2.44,2.51,1.55.72,3.19,1.11,4.84,1.5,2.76.64,5.5,1.35,8.21,2.18,2.41.74,4.8,1.55,7.05,2.69,3.65,1.86,6.62,4.43,8.25,8.29,1.18,2.79,1.57,5.72,1.27,8.74-.63,6.35-3.65,11.29-8.91,14.82-1.91,1.28-4.1,2.05-6.32,2.71-2.78.83-5.62,1.24-8.5,1.27-2.23.02-4.45-.11-6.66-.46-2.4-.39-4.73-.98-6.99-1.9-3.58-1.45-6.29-3.9-8.44-7.05-1.69-2.48-2.8-5.19-3.27-8.15-.08-.53-.16-1.05-.25-1.57-.06-.36.03-.53.44-.57,3.24-.29,6.48-.6,9.72-.91,1.47-.14,2.94-.26,4.41-.42.7-.07.76-.04.89.65.43,2.45,1.48,4.62,3.27,6.35,1.53,1.49,3.41,2.28,5.56,2.46,1.39.11,2.76.08,4.11-.27,2.45-.63,4.14-2.12,4.96-4.53.18-.53.24-1.12.22-1.7Z"/>
      <path class="cls-1" d="M152.14,5.85c1.7-.18,3.4-.11,5.09,0,1.83.12,3.64.44,5.41.91,3.14.84,6.02,2.23,8.55,4.28,2.25,1.83,3.88,4.11,4.79,6.89.44,1.36.72,2.74.98,4.13.06.33-.02.48-.37.51-1.81.17-3.61.36-5.42.53-2.02.19-4.05.37-6.07.56-.88.08-1.77.17-2.65.26-.37.04-.53-.06-.63-.48-.66-2.73-2.1-4.94-4.79-5.98-2.84-1.1-5.76-1.28-8.46.45-1.89,1.21-2.5,3.75-1.48,5.64.62,1.14,1.67,1.76,2.83,2.19,2.5.94,5.14,1.36,7.7,2.04,2.02.53,4.03,1.09,6.01,1.75,2.13.7,4.24,1.46,6.22,2.53,3.06,1.66,5.64,3.85,7.26,7,1.03,2,1.58,4.13,1.79,6.38.22,2.37-.04,4.69-.65,6.96-.74,2.76-2.09,5.21-3.91,7.41-1.99,2.4-4.42,4.18-7.31,5.37-1.68.69-3.39,1.28-5.15,1.68-1.79.4-3.6.66-5.44.75-1.92.09-3.84.03-5.74-.14-1.98-.19-3.94-.52-5.87-1.05-2.2-.6-4.28-1.44-6.22-2.63-1.75-1.07-3.16-2.49-4.44-4.06-1.42-1.73-2.55-3.64-3.34-5.73-.67-1.76-1.06-3.58-1.28-5.45-.05-.42.03-.56.5-.61,3.25-.36,6.52-.61,9.78-.91,1.41-.13,2.83-.26,4.24-.41.76-.08.88-.04.96.71.14,1.24.6,2.36,1.16,3.45,1.04,2.04,2.52,3.66,4.67,4.58,1.61.69,3.31.88,5.04.77,1.51-.09,2.96-.42,4.26-1.26,2.27-1.48,3.41-3.94,2.83-6.52-.42-1.86-1.59-3.24-3.28-4.13-1.87-1-3.88-1.6-5.93-2.12-2.25-.57-4.51-1.12-6.72-1.85-1.89-.62-3.75-1.32-5.54-2.19-3.75-1.82-6.92-4.29-8.68-8.2-1.06-2.36-1.44-4.87-1.26-7.45.26-3.58,1.57-6.72,3.91-9.44,2.13-2.48,4.84-4.13,7.83-5.36,2.82-1.16,5.78-1.65,8.81-1.78Z"/>
      <path class="cls-1" d="M248.35,19.93c2.12-.17,4.3.15,6.42.67,3.73.92,7.08,2.6,9.92,5.25,2.3,2.15,4.04,4.7,5.22,7.59,1.2,2.92,1.85,5.98,1.89,9.15.03,2.22.01,4.42-.41,6.61-.69,3.61-2.05,6.94-4.29,9.88-2.44,3.2-5.59,5.48-9.34,6.91-2.29.87-4.67,1.37-7.13,1.56-2.66.21-5.29.08-7.89-.41-2.02-.38-3.95-1.04-5.81-1.95-2.24-1.09-4.24-2.52-5.96-4.32-2.19-2.3-3.78-4.97-4.83-7.97-1.07-3.04-1.48-6.16-1.46-9.36.02-2.95.38-5.87,1.3-8.69,1.74-5.34,4.96-9.51,9.95-12.19,1.91-1.03,3.95-1.73,6.1-2.16,2.06-.41,4.12-.69,6.31-.58ZM239.21,43.7c-.03.91.05,1.82.15,2.72.33,2.82,1.06,5.49,2.88,7.77,2.43,3.03,6.53,3.76,9.82,1.97,2.32-1.26,3.6-3.38,4.39-5.81,1.06-3.27,1.14-6.64.73-10.02-.27-2.25-.86-4.41-2.11-6.35-2.17-3.37-6.08-4.64-9.79-3.13-2.13.87-3.48,2.54-4.44,4.56-1.25,2.62-1.61,5.42-1.64,8.29Z"/>
      <path class="cls-1" d="M221.78,51.82c.01,3.78-1.22,7.1-3.85,9.81-1.66,1.71-3.66,2.95-5.86,3.91-2.26.99-4.62,1.59-7.05,1.9-1.96.25-3.93.24-5.91.11-1.58-.1-3.15-.31-4.68-.67-2.6-.62-5.06-1.61-7.2-3.26-1.88-1.44-3.51-3.12-4.71-5.18-.69-1.18-1.16-2.45-1.52-3.76-.11-.4-.06-.62.48-.67,2.34-.21,4.67-.49,7-.75,1.9-.21,3.8-.41,5.7-.66.63-.08.92.12,1.12.71.53,1.54,1.52,2.77,2.8,3.73,1.54,1.15,3.35,1.33,5.19,1.18,1.55-.13,2.97-.59,4.1-1.73,2.08-2.11,1.17-5.45-1.68-6.3-2.53-.76-5.11-1.27-7.7-1.81-2.06-.43-4.11-.9-6.1-1.6-2.08-.72-4.03-1.63-5.61-3.18-2.27-2.22-3.54-4.97-3.81-8.12-.37-4.42.95-8.27,4.28-11.29,1.84-1.68,4.09-2.63,6.47-3.29,3.3-.92,6.67-1.23,10.08-1.01,3.45.23,6.8.93,9.82,2.71,3.1,1.83,5.25,4.5,6.64,7.8.15.36.28.74.45,1.09.17.35.1.5-.3.54-2.8.31-5.61.62-8.41.94-1.33.15-2.67.3-4,.49-.43.06-.63-.08-.79-.48-.72-1.85-2.06-3.08-3.93-3.65-1.9-.58-3.83-.61-5.62.37-1.31.72-1.85,1.95-1.73,3.44.12,1.51,1.07,2.28,2.41,2.74,2.41.82,4.92,1.06,7.42,1.45,2.04.32,4.06.73,6.05,1.32,1.72.5,3.34,1.18,4.83,2.17,2.34,1.57,3.92,3.71,4.84,6.37.53,1.51.76,3.05.78,4.64Z"/>
      <path class="cls-1" d="M281.17,98.61c0,1.36-.02,2.73.01,4.09.01.47-.16.59-.58.58-.75-.02-1.5-.02-2.25,0-.45,0-.63-.15-.62-.63.02-2.45.01-4.9,0-7.36,0-.63-.14-1.23-.69-1.61-.79-.55-2.18-.39-2.78.74-.39.73-.56,1.51-.57,2.33-.01,1.98-.02,3.96,0,5.93,0,.43-.12.61-.57.59-.73-.03-1.46-.03-2.19,0-.44.02-.58-.14-.58-.58.02-2.31.02-4.63,0-6.94,0-.61-.1-1.24-.46-1.74-.74-1.03-2.43-.79-3.12.42-.43.76-.56,1.6-.57,2.44-.02,1.94-.02,3.88,0,5.81,0,.43-.12.61-.57.59-.75-.03-1.5-.02-2.25,0-.37,0-.52-.11-.52-.52,0-1.23-.07-2.47-.08-3.7,0-.9.14-1.8.07-2.69-.12-1.46-.04-2.92-.08-4.38-.04-1.28-.02-1.28,1.23-1.28.44,0,.87.02,1.3,0,.48-.03.71.11.66.63-.02.22-.13.52.11.65.29.16.45-.15.64-.3,1.34-1.09,2.86-1.48,4.52-.95.64.21,1.24.58,1.64,1.19.37.57.46.54.93.04,1.79-1.89,5.21-2.19,6.73.31.43.7.58,1.51.6,2.31.05,1.34.01,2.69.01,4.03,0,0,.01,0,.02,0Z"/>
      <path class="cls-1" d="M158.79,90.79c-1.67-1.61-3.61-2.12-5.77-1.63-2.18.5-3.8,1.91-4.27,4.45-.35,1.88-.1,3.63.92,5.24.83,1.32,2.08,2.08,3.62,2.27.8.1,1.61.08,2.42-.1.56-.13.86-.36.81-1-.05-.83-.01-1.66-.01-2.49q0-.8-.78-.8c-.75,0-1.5-.01-2.26,0-.38,0-.55-.12-.53-.51.02-.49.01-.99,0-1.48,0-.33.09-.5.47-.5,2.25.02,4.51.01,6.76,0,.35,0,.46.14.46.45,0,2.22,0,4.43,0,6.65,0,.23-.1.39-.29.55-1.44,1.25-3.17,1.73-5.01,1.97-1.57.2-3.1.03-4.59-.44-3.15-.99-5.22-3.04-5.76-6.34-.5-3-.03-5.83,2.24-8.09,1.34-1.33,3.03-2.01,4.86-2.33.83-.14,1.67-.28,2.52-.24,1.87.09,3.57.72,5.15,1.69.27.17.34.35.14.68-.38.64-.65,1.34-1.11,1.99Z"/>
      <path class="cls-1" d="M127.98,86.43c.38,0,.76.05,1.13-.01.7-.12.95.27,1.17.84,1.21,3.11,2.45,6.21,3.67,9.31.72,1.84,1.43,3.68,2.14,5.52.09.24.21.46.33.69.21.39.02.49-.34.49-.97,0-1.94,0-2.91,0-.34,0-.54-.17-.65-.49-.31-.91-.64-1.81-.96-2.72-.14-.41-.35-.63-.85-.62-1.86.04-3.72.03-5.58,0-.48,0-.69.17-.84.62-.29.91-.64,1.81-.98,2.71-.11.29-.27.5-.65.49-.91-.02-1.82-.01-2.73,0-.38,0-.43-.13-.3-.47,1.38-3.46,2.75-6.92,4.12-10.39.71-1.81,1.41-3.62,2.1-5.43.15-.39.33-.59.77-.55.45.04.91,0,1.36,0ZM127.87,96.63h0c.51,0,1.03,0,1.54,0,.65,0,.75-.12.54-.73-.57-1.64-1.14-3.27-1.72-4.9-.06-.16-.07-.39-.28-.41-.27-.02-.27.25-.33.42-.61,1.69-1.21,3.37-1.81,5.06-.14.38.02.56.42.56.55,0,1.11,0,1.66,0Z"/>
      <path class="cls-1" d="M247.6,90.14c-1.34-.48-2.71-.82-4.15-.75-2.42.11-4.2,1.67-4.7,4.09-.24,1.13-.24,2.24.05,3.32.5,1.87,1.86,3.31,3.93,3.75,1.56.33,3.1.13,4.59-.38.34-.11.49-.08.52.26.07.76.13,1.53.16,2.29.01.26-.14.46-.4.52-3.3.77-6.54.79-9.49-1.15-1.99-1.31-2.97-3.27-3.26-5.61-.24-1.95-.04-3.82.86-5.56,1.3-2.53,3.42-3.92,6.21-4.36,1.81-.29,3.56-.04,5.32.37.48.11.81.32.66.89-.2.76,0,1.57-.29,2.33Z"/>
      <path class="cls-1" d="M215.51,96.95c0-1.88.01-3.76,0-5.63,0-.46.12-.64.6-.62.79.03,1.58.02,2.37,0,.39,0,.61.09.57.53-.01.14-.07.34.13.41.19.08.33-.03.47-.15,1.63-1.38,4.15-1.44,5.81-.13.61.48.95,1.17,1.16,1.89.2.67.28,1.38.27,2.1-.03,2.45-.02,4.9,0,7.35,0,.47-.13.62-.6.6-.79-.04-1.58-.04-2.37,0-.54.03-.72-.13-.72-.7.03-2.37.01-4.74.01-7.12,0-.55-.07-1.1-.26-1.62-.31-.82-.97-1.29-1.68-1.26-.88.04-1.6.56-1.84,1.4-.16.57-.27,1.14-.27,1.74.01,2.29,0,4.59.02,6.88,0,.53-.16.69-.68.67-.81-.04-1.62-.03-2.43,0-.45.02-.58-.15-.58-.59.02-1.92,0-3.84,0-5.75Z"/>
      <path class="cls-1" d="M308.72,96.99c0-1.9.01-3.8,0-5.69,0-.48.16-.62.62-.6.79.03,1.58.02,2.37,0,.4-.01.6.12.56.54-.01.14-.07.34.14.41.19.07.35-.03.47-.17,1.1-1.35,4.47-1.39,5.82-.1.93.89,1.37,2.04,1.4,3.28.05,2.71.01,5.42.02,8.12,0,.38-.1.53-.5.51-.87-.02-1.74-.03-2.61,0-.45.01-.57-.17-.57-.6.01-2.45.01-4.9,0-7.35,0-.65-.11-1.29-.46-1.87-.3-.5-1.06-.93-1.58-.86-.89.12-1.6.65-1.76,1.34-.17.75-.27,1.5-.26,2.28.02,2.13,0,4.27.02,6.41,0,.48-.12.68-.63.65-.79-.04-1.58-.04-2.37,0-.51.02-.69-.13-.68-.66.03-1.88.01-3.76.01-5.63Z"/>
      <path class="cls-1" d="M255.15,90.46c2.84-.05,5.33,2.1,5.87,4.97.26,1.4.25,2.73-.17,4.07-.69,2.26-2.73,3.86-5.07,4.03-1.57.11-2.99-.15-4.31-1.02-2.31-1.53-3.14-4.54-2.54-6.97.46-1.86,1.41-3.35,3.11-4.31.96-.54,1.99-.82,3.1-.77ZM257.55,96.99c-.1-1.35-.22-2.12-1.02-3.15-.25-.32-.55-.56-.95-.66-1-.26-2.02.22-2.54,1.26-.92,1.85-.73,3.72.04,5.54.3.71.97,1.16,1.8,1.15.82,0,1.46-.36,1.92-1.08.61-.96.62-2.05.75-3.06Z"/>
      <path class="cls-1" d="M202.07,97.04c.14-2.83,1.32-5.12,4.18-6.2,2.04-.77,4.06-.54,5.79.86,2.25,1.83,2.85,4.26,2.3,7.04-.42,2.1-1.57,3.63-3.57,4.41-2.75,1.08-6.4.23-7.9-2.78-.52-1.03-.74-2.1-.79-3.33ZM210.76,96.99c.08-.9-.06-1.78-.52-2.6-.96-1.7-2.82-1.76-3.8-.07-1.08,1.87-.9,3.83-.02,5.67.74,1.56,2.7,1.55,3.65.09.6-.93.77-1.97.7-3.09Z"/>
      <path class="cls-1" d="M190.19,97.47c-.07,1.64.17,3.43.15,5.23,0,.47-.13.62-.6.59-.59-.04-1.19-.01-1.78,0-.31,0-.58.03-.79-.34-.2-.36-.52-.08-.77.07-1.57.94-4.77.79-6.2-.64-1.58-1.58-1.31-4.32.61-5.61,1.18-.79,2.48-1.25,3.92-1.32.57-.03,1.13-.1,1.71-.1.46,0,.49-.29.44-.65-.22-1.7-1.02-1.88-2.77-1.81-1.13.04-2.17.52-3.1,1.18-.38.27-.41.11-.4-.23,0-.45,0-.9-.09-1.35-.1-.5.08-.8.63-1.01,1.28-.48,2.57-.92,3.94-.86,1.38.06,2.74.26,3.81,1.31.94.92,1.22,2.08,1.29,3.32.04.69,0,1.38,0,2.23ZM187,98.84c0-.24,0-.47,0-.71,0-.28-.11-.46-.41-.45-.61.01-1.23-.03-1.83.04-1.3.15-1.84.85-1.88,2.08-.03.72.5,1.31,1.2,1.48,1.4.35,3.06-.36,2.92-2.44Z"/>
      <path class="cls-1" d="M306.79,97.5c-.1,1.72.16,3.43.14,5.15,0,.47-.09.68-.61.64-.59-.05-1.19,0-1.78-.01-.3,0-.6.08-.75-.37-.08-.24-.39-.1-.61.01-1.99.99-3.98,1-5.88-.19-1.56-.98-1.96-3.03-1.05-4.64.88-1.55,2.35-2.15,3.95-2.5.92-.2,1.87-.3,2.81-.24.54.03.51-.31.47-.65-.18-1.44-1.24-2.11-2.82-1.82-1.12.2-2.17.57-3.1,1.22-.28.2-.37.16-.37-.18,0-.61,0-1.23,0-1.84,0-.25.1-.43.32-.52,1.36-.53,2.74-1.02,4.22-.95,1.28.06,2.54.25,3.58,1.13,1.01.85,1.36,1.99,1.46,3.22.07.84.01,1.7.01,2.55ZM302.35,97.7c-.32,0-.64-.03-.95,0-1.44.16-2.21,1.35-1.76,2.67.16.45.47.76.9.87,1.76.45,3.14-.52,3.08-2.28-.05-1.57-.03-1.26-1.28-1.27Z"/>
      <path class="cls-1" d="M174.68,98.16c-1.13,0-2.25.01-3.38,0-.37,0-.47.13-.47.48,0,1.21.86,2.17,2.1,2.41,1.46.29,2.81.04,4.08-.68.4-.23.38-.03.38.24,0,.51-.02,1.03,0,1.54.02.38-.16.59-.48.72-1.85.78-3.75.93-5.7.46-2.44-.59-3.78-2.21-4.24-4.6-.39-2.01-.05-3.92,1.05-5.65.82-1.29,2.07-2.05,3.59-2.22,1.34-.15,2.69-.07,3.92.57,1.34.69,2.2,1.82,2.67,3.23.29.88.47,1.78.49,2.71.01.75-.01.78-.74.78-1.09,0-2.17,0-3.26,0ZM172.92,96.04c.61,0,1.22,0,1.84,0,.34,0,.51-.12.51-.48.01-1.35-1.19-2.5-2.62-2.48-1.25.02-2.1,1.06-2.02,2.48.02.33.16.5.52.49.59-.02,1.18,0,1.78,0Z"/>
      <path class="cls-1" d="M200.94,94.28c-.74-.53-1.46-1-2.29-1.28-.75-.26-1.51-.42-2.3-.17-.46.15-.84.37-.9.88-.06.5.22.84.64,1.03.87.4,1.77.75,2.65,1.16,1.29.6,2.31,1.44,2.76,2.89.57,1.87-.61,3.98-2.5,4.5-2.36.64-4.58.32-6.75-.7-.47-.22-.64-.52-.59-1.02.04-.39-.11-.96.09-1.14.28-.24.68.2,1.04.33.82.32,1.66.61,2.54.72.71.09,1.42.03,2.05-.35.72-.43.75-1.12.07-1.61-.81-.58-1.76-.86-2.68-1.22-1.05-.41-2.04-.92-2.7-1.85-1.32-1.85-.6-4.11,1.38-5.14,2.18-1.14,4.43-1.01,6.62.12,1.42.73,1.42.74,1.04,2.28-.04.17-.09.33-.15.56Z"/>
      <path class="cls-1" d="M165.51,94.92c0,2.57-.01,5.14.01,7.71,0,.53-.17.69-.68.66-.77-.04-1.54-.03-2.31,0-.48.01-.61-.24-.52-.63.07-.3.06-.59.07-.88,0-4.86.01-9.72-.01-14.58,0-.6.15-.81.76-.77.69.05,1.38.03,2.07,0,.47-.02.62.14.62.61-.02,2.63,0,5.26,0,7.88Z"/>
      <path class="cls-1" d="M296.17,31.38c3.68,0,7.36,0,11.04,0,.21,0,.48-.13.65.14-3.9,0-7.79,0-11.69-.02-.61,0-.76.18-.76.78.02,10.98.01,21.95.01,32.93q0,.89-.87.89c-4.35,0-8.7,0-13.06,0-.81,0-.89-.08-.89-.87,0-10.92,0-21.83,0-32.75,0-.12-.02-.24,0-.36.1-.5-.14-.61-.59-.6-2.53.01-5.06,0-7.6,0-.9,0-.88,0-.88-.9,0-2.95,0-5.89,0-8.84q0-.87.89-.87c2.51,0,5.02-.01,7.54.01.49,0,.64-.15.64-.64-.02-1.72-.08-3.44.11-5.15.25-2.25.58-4.48,1.59-6.55-.14.88-.53,1.68-.75,2.53-.31,1.23-.5,2.47-.67,3.71-.25,1.83-.09,3.67-.1,5.51,0,.6-.17.78-.77.78-2.53-.03-5.06-.01-7.6-.01-.77,0-.78,0-.78.75,0,2.95.01,5.89-.01,8.84,0,.54.13.71.69.71,2.53-.03,5.06-.01,7.6-.01q.86,0,.86.83c0,10.96,0,21.92,0,32.87q0,.83.84.83c4.33,0,8.66-.01,13,.01.56,0,.74-.13.74-.72-.02-11-.01-21.99-.01-32.99"/>
      <path class="cls-1" d="M307.91,31.61c.3.14.15.42.15.62,0,6.32,0,12.64.01,18.97,0,2.55.31,5.06,1.25,7.46.06.16.05.35.07.52-.71-1.53-1.11-3.16-1.26-4.83-.55-6.29-.12-12.6-.25-18.89-.03-1.28.01-2.57.02-3.85Z"/>
      <path class="cls-1" d="M315.04,65.23c.4.1.79.21,1.1.51-.4-.1-.8-.2-1.1-.51Z"/>
      <path class="cls-1" d="M290.02,1.34c-.18.27-.46.28-.74.29.22-.16.48-.23.74-.29Z"/>
      <path class="cls-1" d="M309.45,59.28c.27.13.25.39.29.62-.21-.16-.21-.41-.29-.62Z"/>
      <path class="cls-1" d="M284.78,4.76c0,.25-.16.37-.38.42.05-.21.21-.32.38-.42Z"/>
      <path class="cls-1" d="M283.14,6.93c0,.22-.02.43-.28.51.06-.19.12-.38.28-.51Z"/>
      <path class="cls-1" d="M309.81,60c.18.12.26.3.27.51-.23-.1-.24-.31-.27-.51Z"/>
      <path class="cls-1" d="M283.47,6.43c0,.19-.03.36-.26.41.04-.17.08-.34.26-.41Z"/>
      <path class="cls-1" d="M287.53,2.53c-.05.23-.23.25-.42.26.09-.17.25-.22.42-.26Z"/>
      <path class="cls-1" d="M282.52,8.1c.04.17.03.31-.15.39,0-.15.03-.29.15-.39Z"/>
      <path class="cls-1" d="M282.76,7.63c.03.14.05.26-.14.29,0-.12.05-.21.14-.29Z"/>
      <path class="cls-1" d="M288.6,1.94c-.02.19-.15.18-.29.15.07-.09.16-.15.29-.15Z"/>
      <path class="cls-1" d="M287.03,2.86c-.03.15-.14.19-.28.17.04-.14.16-.15.28-.17Z"/>
      <path class="cls-1" d="M314.32,64.87c.13-.03.26-.04.29.14-.12,0-.21-.05-.29-.14Z"/>
      <path class="cls-1" d="M288.13,2.18c0,.13-.06.17-.18.14.02-.1.07-.15.18-.14Z"/>
      <path class="cls-1" d="M310.52,61.3c.13,0,.17.06.15.18-.09-.02-.15-.07-.15-.18Z"/>
      <path class="cls-1" d="M312.64,63.69c.12-.02.19.02.18.14-.1,0-.16-.05-.18-.14Z"/>
      <path class="cls-1" d="M287.75,2.4c-.02.08-.07.09-.14.06.05-.02.09-.04.14-.06Z"/>
      <path class="cls-1" d="M288.94,1.8c-.03.08-.08.08-.15.04.05-.01.1-.03.15-.04Z"/>
      <polygon class="cls-1" points="311.13 62.13 311.16 62.13 311.16 62.16 311.13 62.16 311.13 62.13"/>
      <polygon class="cls-1" points="311.24 62.25 311.28 62.25 311.28 62.29 311.24 62.28 311.24 62.25"/>
      <polygon class="cls-1" points="311.35 62.38 311.38 62.38 311.38 62.42 311.35 62.41 311.35 62.38"/>
      <path class="cls-1" d="M311.45,62.5h.04s0,.04,0,.04c-.03,0-.04-.01-.04-.04Z"/>
      <path class="cls-1" d="M311.57,62.62h.04s0,.05,0,.05c-.03,0-.04-.02-.04-.05Z"/>
      <polygon class="cls-1" points="311.68 62.76 311.72 62.75 311.71 62.79 311.68 62.76"/>
      <polygon class="cls-1" points="311.8 62.88 311.83 62.87 311.83 62.91 311.8 62.88"/>
      <polygon class="cls-1" points="311.94 63.08 311.98 63.09 311.99 63.12 311.95 63.12 311.94 63.08"/>
      <polygon class="cls-1" points="312.16 63.24 312.2 63.23 312.19 63.26 312.16 63.24"/>
      <polygon class="cls-1" points="312.41 63.46 312.45 63.46 312.45 63.5 312.42 63.49 312.41 63.46"/>
      <path class="cls-1" d="M312.52,63.57h.04s0,.04,0,.04c-.03,0-.04-.01-.04-.04Z"/>
      <polygon class="cls-1" points="310.98 61.91 311.02 61.91 311.01 61.94 310.99 61.94 310.98 61.91"/>
      <polygon class="cls-1" points="312.9 63.91 312.94 63.91 312.94 63.94 312.91 63.94 312.9 63.91"/>
      <polygon class="cls-1" points="313.12 64.05 313.16 64.05 313.16 64.08 313.14 64.08 313.12 64.05"/>
      <polygon class="cls-1" points="313.25 64.15 313.29 64.15 313.29 64.19 313.26 64.18 313.25 64.15"/>
      <polygon class="cls-1" points="313.61 64.4 313.64 64.39 313.65 64.43 313.61 64.43 313.61 64.4"/>
      <polygon class="cls-1" points="313.74 64.5 313.77 64.5 313.78 64.53 313.74 64.53 313.74 64.5"/>
      <polygon class="cls-1" points="313.96 64.64 313.99 64.63 314 64.67 313.97 64.67 313.96 64.64"/>
      <polygon class="cls-1" points="314.19 64.77 314.23 64.76 314.23 64.8 314.2 64.8 314.19 64.77"/>
      <polygon class="cls-1" points="310.87 61.78 310.91 61.79 310.91 61.83 310.88 61.82 310.87 61.78"/>
      <polygon class="cls-1" points="314.79 65.12 314.82 65.11 314.83 65.15 314.8 65.15 314.79 65.12"/>
      <polygon class="cls-1" points="310.73 61.56 310.77 61.57 310.75 61.6 310.73 61.56"/>
      <polygon class="cls-1" points="310.4 61.07 310.43 61.08 310.43 61.11 310.4 61.1 310.4 61.07"/>
      <path class="cls-1" d="M286.2,3.45v.04s-.04,0-.04,0c0-.03.01-.04.04-.03Z"/>
      <polygon class="cls-1" points="285.12 4.4 285.12 4.44 285.09 4.43 285.12 4.4"/>
      <path class="cls-1" d="M286.32,3.34v.04s-.04,0-.04,0c0-.03.01-.04.04-.04Z"/>
      <polygon class="cls-1" points="286.45 3.24 286.44 3.28 286.41 3.27 286.42 3.24 286.45 3.24"/>
      <polygon class="cls-1" points="286.68 3.1 286.68 3.14 286.64 3.14 286.65 3.11 286.68 3.1"/>
      <polygon class="cls-1" points="310.17 60.71 310.2 60.72 310.19 60.75 310.16 60.74 310.17 60.71"/>
      <polygon class="cls-1" points="285.98 3.6 285.98 3.63 285.94 3.63 285.95 3.6 285.98 3.6"/>
      <polygon class="cls-1" points="285.86 3.71 285.86 3.75 285.82 3.75 285.83 3.72 285.86 3.71"/>
      <polygon class="cls-1" points="285.74 3.83 285.73 3.86 285.7 3.86 285.71 3.83 285.74 3.83"/>
      <polygon class="cls-1" points="285.62 3.94 285.62 3.98 285.58 3.98 285.59 3.95 285.62 3.94"/>
      <polygon class="cls-1" points="283.61 6.2 283.61 6.24 283.58 6.25 283.57 6.22 283.61 6.2"/>
      <polygon class="cls-1" points="283.7 6.07 283.71 6.11 283.67 6.11 283.67 6.08 283.7 6.07"/>
      <polygon class="cls-1" points="289.19 1.69 289.18 1.73 289.14 1.72 289.16 1.69 289.19 1.69"/>
      <path class="cls-1" d="M285.5,4.06v.04s-.05,0-.05,0c0-.03.02-.04.05-.04Z"/>
      <polygon class="cls-1" points="283.95 5.72 283.96 5.76 283.92 5.77 283.92 5.73 283.95 5.72"/>
      <polygon class="cls-1" points="285.36 4.17 285.36 4.2 285.33 4.19 285.36 4.17"/>
      <polygon class="cls-1" points="285.24 4.28 285.24 4.32 285.21 4.31 285.24 4.28"/>
      <path class="cls-1" d="M284.06,5.59v.04s-.04,0-.04,0c0-.03.01-.04.04-.04Z"/>
      <polygon class="cls-1" points="284.17 5.48 284.18 5.51 284.14 5.51 284.17 5.48"/>
      <polygon class="cls-1" points="284.88 4.64 284.89 4.68 284.85 4.68 284.88 4.64"/>
      <polygon class="cls-1" points="285 4.52 285 4.56 284.97 4.55 285 4.52"/>
      <polygon class="cls-1" points="310.3 60.94 310.33 60.94 310.33 60.98 310.3 60.97 310.3 60.94"/>
      <path class="cls-1" d="M331.55,56c.26-.13.54-.23.84-.19-.24.24-.54.22-.84.19Z"/>
      <path class="cls-1" d="M332.62,55.75s.1-.02.15-.03c-.04.06-.09.06-.15.03Z"/>
      <polygon class="cls-1" points="332.97 55.64 332.98 55.6 333.01 55.61 333 55.64 332.97 55.64"/>
      <path class="cls-1" d="M333.22,55.55c0-.06.01-.05.01,0,0,0-.01,0-.01,0Z"/>
    </g>
  </g>
</svg>