<?xml version="1.0" encoding="UTF-8"?>
<svg id="Layer_2" xmlns="http://www.w3.org/2000/svg" viewBox="0 0 111.43 95">
  <defs>
    <style>
      .cls-1 {
        font-family: Helvetica-Bold, Helvetica;
        font-size: 9.28px;
        font-weight: 700;
      }

      .cls-1, .cls-2 {
        fill: #fff;
      }
    </style>
  </defs>
  <g id="Layer_1-2" data-name="Layer_1">
    <g>
      <path class="cls-2" d="M.4,49.67c.21-.02.42-.06.61-.15.05-.06.11-.09.18-.1.15-.02.29-.09.44-.12.19-.02.37-.06.55-.12.08-.02.17-.03.25-.04.12,0,.23-.06.35-.07.17-.03.33-.08.5-.12.16-.02.31-.07.46-.09.21-.03.41-.11.62-.13.16,0,.31-.05.47-.07.17-.02.34-.09.51-.12.09-.02.18-.02.27-.03.25-.04.49-.11.74-.13.14-.03.29-.06.43-.07.28-.03.55-.1.82-.14.3-.05.6-.09.9-.13.33-.03.65-.12.98-.14.87-.13,1.73-.23,2.6-.33.44-.03.87-.07,1.31-.12.36-.04.72-.04,1.07-.09.08,0,.16,0,.23,0,.19,0,.38.02.56-.04.06-.01.12-.02.17-.03.4-.04.79.05,1.19-.04.1-.02.2-.02.3-.03.2,0,.41,0,.61,0,.19-.01.37,0,.56,0,.27-.01.55,0,.82,0,.7-.05,1.39.04,2.09.07.12,0,.24,0,.37.03.2.08.42.02.63.07.22.08.45.02.66.07.12.04.25.05.38.05.04,0,.07,0,.11,0,.24.05.48.06.73.09.43.08.87.12,1.3.19.97.17,1.93.33,2.89.53.44.09.88.18,1.31.28.25.06.5.1.74.17.26.08.52.12.78.18.28.07.55.14.83.21.22.06.45.09.68.15.26.07.51.13.77.19.27.07.55.14.83.21.28.07.55.14.83.21.38.09.76.22,1.15.3.42.12.85.21,1.27.32,1.05.25,2.09.54,3.14.78,1.12.26,2.24.53,3.36.76.51.11,1.02.24,1.53.32.3.04.59.13.89.17.35.07.7.15,1.06.19.91.14,1.81.33,2.73.42.52.09,1.05.17,1.58.2.37.06.74.09,1.11.13.36.05.72.08,1.08.1.29.1.6,0,.9.07.25.08.52.02.77.04.3.06.61,0,.89.16.02.05.04.1.06.15.23.25.16.57.24.86.02.26.11.5.13.76,0,.15.06.28.07.43,0,.13.05.25.07.38.08.47.18.94.26,1.41.02.13.08.27-.02.39-.17.1-.35.05-.53.07-1.16-.02-2.31-.12-3.46-.22-1.95-.18-3.9-.44-5.83-.78-2.56-.44-5.09-1-7.61-1.62-2.69-.65-5.36-1.37-8.05-2.03-2.84-.67-5.68-1.29-8.58-1.63-1.93-.23-3.86-.29-5.8-.26-1.27.01-2.54.11-3.8.22-1.76.15-3.51.38-5.25.64-.81.13-1.61.26-2.42.41-.29.04-.58.09-.87.16-.12.02-.24.06-.37.07-.1,0-.2,0-.3.04-.11.03-.22.04-.33.07-.09.02-.19.04-.28.07-.04.01-.09.02-.14.03-.09.02-.18.05-.27.06-.05,0-.09.01-.14.02-.08.02-.15.04-.23.05-.09.01-.18.04-.28.06-.09.02-.19.03-.28.06-.11.03-.22.03-.33.07-.05.01-.09.03-.14.03-.16.04-.32.06-.48.1-.1.02-.19.04-.29.07-.1.03-.2.05-.3.08-.21.04-.4.14-.62.09-.14-.1-.14-.26-.14-.4-.02-1.13,0-2.27.02-3.4,0-.21-.03-.46.17-.62.07,0,.15.02.2-.05Z"/>
      <path class="cls-2" d="M91.17,48.06s0-.03,0-.04c.11-.17.29-.09.43-.15.15-.04.3-.02.45-.05.03-.01.06-.02.1-.03.05-.01.1-.02.15-.02.14,0,.26-.05.4-.07.16-.02.31,0,.46-.05.16-.04.32-.01.47-.07.09-.02.18-.03.27-.03.12,0,.25,0,.36-.04.07-.02.14-.03.21-.03.16,0,.33.01.49-.04.13-.03.27-.02.4-.03.24.01.46-.06.7-.07.24-.01.49.03.73-.05,1.65-.09,3.3-.11,4.95-.1,2.4.08,4.78.31,7.15.62.2.03.41.04.59.16.06.06.08.14.08.22,0,.04,0,.07,0,.11,0,.05,0,.1,0,.16,0,.05,0,.1,0,.15,0,.05,0,.1,0,.15,0,.06,0,.13,0,.19,0,.05,0,.1,0,.14,0,.05,0,.1,0,.15,0,.05,0,.1,0,.15,0,.03,0,.07,0,.1,0,.1,0,.21,0,.31,0,.09,0,.18,0,.27,0,.11,0,.23,0,.34,0,.14,0,.28,0,.41,0,.18.01.37,0,.55-.03.31.06.63-.06.94-.05.07-.13.09-.22.1-.22-.02-.43-.06-.65-.08-.19-.05-.4-.03-.59-.07-1.21-.14-2.42-.25-3.62-.37-1.88-.19-3.76-.14-5.64-.13-.81,0-1.62.07-2.43.12-.48,0-.96.07-1.44.1-.07.02-.15.03-.23.03-.16.01-.33-.02-.49.04-.04.01-.07.02-.11.02-.18.02-.36,0-.54.05-.18.04-.37,0-.55.07-.26.02-.52.09-.79.1-.1,0-.19,0-.28-.05-.07-.04-.12-.1-.14-.17-.03-.16-.08-.31-.09-.47,0-.07,0-.14,0-.2,0-.13-.06-.25-.1-.38-.02-.07-.03-.13-.03-.2,0-.07,0-.14,0-.2,0-.18-.07-.36-.1-.54-.03-.11-.07-.22-.09-.34-.01-.1-.02-.2-.05-.29-.02-.06-.02-.13-.03-.19,0-.05,0-.1,0-.14,0-.1-.02-.19-.05-.28-.03-.09-.06-.18-.08-.28-.01-.08-.03-.16-.05-.25-.01-.09,0-.18.07-.24Z"/>
      <path class="cls-2" d="M91.92,52.2c.09,0,.19,0,.28.01-.12.24-.08.48-.03.73.07.35.13.69.19,1.04.05.35.12.69.19,1.03.08.47.13.94.29,1.39,0,.1-.07.13-.15.15-.06.01-.11.02-.17.02-.41.06-.82.11-1.23.19-1.51.21-3,.54-4.49.89-2.85.68-5.64,1.56-8.45,2.36-3.47.99-6.98,1.78-10.57,2.19-1.57.18-3.14.34-4.73.37-.31,0-.61.09-.93.07-1.19,0-2.37-.01-3.56,0-.15,0-.3-.02-.44.04-.05.03-.1.06-.16.08-.13-.01-.14-.11-.16-.21-.09-.36-.14-.72-.21-1.08-.01-.18-.11-.34-.13-.52,0-.09-.01-.17-.02-.26,0-.12-.05-.23-.06-.35,0-.13-.05-.26-.07-.4,0-.11-.03-.22-.07-.33-.02-.06-.04-.12-.05-.19-.02-.1-.03-.19-.06-.29-.03-.13-.02-.26-.06-.39-.03-.1-.02-.22-.08-.31-.1-.14-.29-.06-.41-.15-.02-.02-.02-.03-.02-.05,0-.02,0-.03.01-.03.18,0,.36-.01.54-.02.04-.04.1-.07.16-.08.1-.01.2,0,.29.06.27.16.54-.02.81,0,.12,0,.25,0,.37,0,.86,0,1.71.02,2.57-.02.04-.01.08-.02.12-.03.22-.03.44-.02.66-.02.12,0,.24,0,.36,0,.25,0,.51.03.76-.04,1.23-.08,2.47-.17,3.7-.29,2.19-.22,4.36-.58,6.51-1.04.87-.19,1.73-.42,2.61-.62,1.54-.38,3.06-.83,4.58-1.27,3.05-.9,6.1-1.78,9.23-2.36.07-.01.14-.02.2-.03.26-.05.51-.12.77-.14.37-.02.72-.2,1.11-.11Z"/>
      <path class="cls-2" d="M51.04,36.63c-.02-.32-.11-.63-.15-.95-.06-.26-.13-.52-.2-.77-.05-.14-.1-.28-.15-.43-.03-.08-.07-.15-.15-.19-.11-.23-.22-.47-.32-.7-.17-.3-.35-.59-.52-.89-.32-.41-.65-.82-.97-1.24-.35-.35-.71-.7-1.06-1.05-.68-.52-1.35-1.05-2.03-1.57-1.08-.66-2.15-1.32-3.23-1.98-.7-.48-1.45-.88-2.17-1.32-.4-.21-.79-.44-1.17-.68-.31-.17-.61-.35-.89-.55-.28-.18-.57-.33-.82-.54-.17-.1-.34-.22-.49-.35-.16-.11-.32-.23-.48-.35-.26-.19-.5-.41-.75-.62-.21-.21-.43-.42-.64-.64-.67-.77-1.24-1.6-1.45-2.63-.06-.26-.12-.52-.12-.79,0-.17,0-.34,0-.51,0-.2-.02-.4.03-.6.03-.12.04-.24.07-.35.03-.14.06-.28.13-.41.04-.12.08-.23.14-.34.03-.05.05-.11.08-.16.1-.22.26-.41.41-.59.13-.16.25-.34.44-.44,1.27-1.09,2.8-1.49,4.43-1.63.92-.08,1.79.16,2.65.47.42.13.78.36,1.13.61,1.4.96,2.33,2.28,3.01,3.81.12.25.28.48.36.75.1.23.17.47.33.67.14.28.23.58.29.89.11.19.14.41.19.62-.07.1-.02.19.01.29.02.05.03.09.07.13.02.09.05.18.07.28-.06.12-.02.25-.02.37.02.14.07.26.22.3.08.02.15,0,.21-.06.07,0,.14,0,.21,0,.11,0,.23,0,.34,0,.15,0,.3,0,.46,0,.01-.2.02-.4.03-.61,0-.16,0-.31-.01-.47-.08-.55-.05-1.11-.05-1.66,0-.21,0-.41,0-.62,0-.07,0-.13,0-.2-.02-.04-.04-.08-.04-.13-.03-1.2-.05-2.4-.07-3.61,0-.16,0-.32,0-.48,0-.28-.01-.55-.02-.83-.02-.41-.03-.83-.05-1.24q-.03-.57-.6-.56c-.06,0-.11,0-.17,0-.54.77-1.18,1.05-2.04.83-.95-.25-1.87-.62-2.79-.96-.77-.21-1.55-.41-2.34-.56-.26-.02-.52-.04-.78-.06-.92-.06-1.82.09-2.73.2-.09.03-.17.06-.26.08-2.51.56-4.67,1.73-6.36,3.71-.23.19-.39.42-.54.67-.09.19-.2.36-.29.55-.09.19-.24.35-.28.57-.05.23-.18.42-.26.64-.04.13-.07.26-.09.4-.03.19-.09.37-.14.55-.03.14-.07.28-.07.42-.04.16-.06.33-.09.49-.05.19-.04.39-.05.58,0,.29,0,.57.02.86.11.43-.01.88.13,1.3.12.48.21.97.35,1.44.15.44.35.86.56,1.28.12.27.31.5.42.77.19.42.56.71.79,1.09.4.39.71.87,1.17,1.22.41.38.84.73,1.27,1.08.32.23.64.47.97.7.61.41,1.23.8,1.86,1.18,1.27.74,2.57,1.42,3.84,2.16,1.35.78,2.7,1.56,3.85,2.64.49.36.84.86,1.21,1.33.17.27.35.53.47.82.04.09.07.18.1.27.09.2.16.4.19.61.05.2.11.4.11.61.03.15.07.31.06.47,0,.07,0,.14,0,.21,0,.07,0,.14,0,.21,0,.12,0,.23-.04.35,0,.03-.02.07-.02.1-.01.08-.01.17-.02.25-.03.2-.06.4-.11.6-.06.26-.13.51-.25.74-.11.23-.21.46-.34.67-.08.13-.16.26-.29.35-.1.1-.18.21-.29.3-.72.77-1.61,1.25-2.6,1.56-.42.14-.85.19-1.28.26-.26.07-.53,0-.8.05-.3.11-.6-.04-.9-.02-.32.02-.62-.08-.93-.12-.33-.05-.66-.12-.97-.24-.19-.06-.38-.11-.56-.2-.22-.07-.41-.17-.61-.28-.19-.08-.36-.21-.54-.31-1.44-.9-2.52-2.14-3.34-3.62-.18-.31-.37-.62-.48-.97-.16-.31-.29-.64-.41-.97-.13-.36-.26-.72-.33-1.09-.09-.42-.23-.83-.3-1.26-.16-.5-.2-1.03-.43-1.51-.03-.03-.06-.05-.09-.06-.05-.02-.11-.03-.16-.03-.07,0-.14,0-.21,0-.05,0-.11,0-.16,0-.09,0-.18,0-.27,0-.08,0-.16,0-.23,0-.08.02-.16.04-.21.12-.11.47-.01.95-.05,1.42-.01.41.02.83,0,1.24-.02.55.03,1.1,0,1.65-.02.8.03,1.59,0,2.39-.02.34,0,.67,0,1.01,0,.17.01.35,0,.52-.03.14-.05.27-.06.41-.01.11-.04.21-.1.31-.1.14-.22.24-.34.36-.12.11-.26.16-.42.15-.2,0-.38-.04-.53-.18-.38-.37-.54-.84-.65-1.34-.12-.54-.17-1.09-.17-1.64-.01-6.94,0-13.87-.02-20.81.03-.25-.09-.48-.07-.72-.02-.2-.07-.4-.1-.61-.04-.15-.08-.3-.12-.45-.02-.1-.06-.19-.07-.29-.02-.09-.05-.19-.07-.28-.02-.1-.05-.19-.08-.28-.07-.18-.15-.36-.2-.55-.11-.27-.22-.55-.36-.81-.12-.24-.27-.47-.41-.71-.14-.21-.29-.41-.43-.61-.16-.19-.3-.4-.48-.57-.21-.21-.42-.42-.63-.63-.24-.23-.52-.42-.77-.63-.38-.28-.79-.48-1.2-.7-.69-.39-1.43-.61-2.18-.84-.65-.16-1.31-.29-1.98-.38-.35-.04-.71,0-1.05-.11-.17-.03-.34-.02-.51-.03-.88,0-1.75,0-2.63.08-1.1.09-2.17.28-3.23.58-.26.07-.52.15-.74.33-2.83,1.01-4.9,2.82-6,5.67-.38.73-.53,1.51-.55,2.32.06.37.11.75.25,1.11.07.2.15.41.28.58.05.08.11.15.18.22.03.03.06.07.1.1.09.09.17.17.26.26.17.16.32.33.5.47.06.04.13.07.2.11.05.03.11.05.17.07.12.04.22.1.34.14.12.04.24.08.36.12.08.03.16.05.24.08.1.02.21.03.31.03.07,0,.14,0,.21,0,.11,0,.21,0,.32,0,.07,0,.14-.01.21-.03.11-.04.23-.04.35-.06.1-.02.19-.05.29-.09.16-.08.34-.13.5-.21.21-.12.4-.25.6-.38.91-.79,1.34-1.78,1.26-2.98-.03-.45-.12-.88-.21-1.32-.05-.27-.11-.54-.13-.82,0-.13,0-.26,0-.39,0-.12,0-.25,0-.37.02-.12.05-.23.07-.35.03-.17.1-.34.16-.51.02-.07.05-.15.08-.22.06-.14.12-.27.2-.4.08-.14.17-.28.27-.4.09-.12.17-.25.28-.35.16-.19.36-.33.56-.47.23-.17.48-.29.74-.41.77-.33,1.57-.47,2.4-.5.78-.03,1.55.06,2.3.27.46.08.87.28,1.27.53,1.36.81,2.11,2.04,2.44,3.56.03.24.15.47.15.72.03.12.05.25.05.38,0,.12,0,.23,0,.35,0,.24.02.49,0,.73,0,.23.01.46,0,.68,0,.23,0,.46,0,.68,0,.85-.01,1.69,0,2.53,0,.33-.1.55-.42.64-.07.03-.14.04-.21.06-.11.04-.22.08-.32.14-.07.04-.15.06-.22.08-.18.04-.33.15-.5.2-1.86.7-3.71,1.43-5.53,2.2-1.43.61-2.84,1.27-4.22,1.99-.34.21-.69.39-1.03.59-.4.24-.81.45-1.14.79-.55.36-1.08.75-1.58,1.17-1.47,1.23-2.66,2.66-3.31,4.49l-.41,1.79c-.03.39-.05.78-.08,1.17,0,.32,0,.64.01.96.09.57.16,1.15.3,1.72.11.3.21.6.32.9.19.34.37.68.56,1.02.23.28.45.57.68.85.19.18.37.36.56.53.16.12.32.25.48.37.25.16.5.32.76.49.25.13.51.26.76.4.35.13.69.27,1.04.4.39.1.78.2,1.17.3.39.05.78.09,1.17.14,1-.07,1.99-.23,2.96-.48.3-.09.6-.18.9-.28.23-.08.45-.16.68-.24.19-.08.37-.16.56-.23.16-.07.32-.14.48-.21.14-.07.28-.13.41-.2.14-.07.28-.14.41-.21.09-.08.19-.14.32-.16.13-.12.28-.2.44-.26.14-.09.28-.18.42-.26.24-.02.4-.19.6-.3,1.1-.77,2.15-1.61,3.1-2.57-.11.13-.05.28-.03.42.07.18-.04.4.13.55.04.24.09.47.13.71.07.25.15.5.22.75.37.93.89,1.74,1.7,2.34.27.14.55.28.82.42.37.09.73.18,1.1.27.09,0,.18,0,.28.01.56-.04,1.11,0,1.67-.06.67-.07,1.32-.24,1.98-.31.42-.16.87-.24,1.31-.33.37-.08.74-.17,1.1-.25,1.11-.24,2.21-.33,3.32.02.14,0,.28-.02.4.06.28.02.56.05.83.15.14,0,.29-.02.41.07.14,0,.28-.01.41.07.12,0,.25-.01.36.06.13.01.27-.01.4.07.16,0,.33,0,.48.08.16.03.32.05.48.08.2.09.43,0,.62.11,1.37.15,2.71.58,4.11.49.32-.09.66-.07.98-.12.18-.03.36-.06.55-.1.25-.06.51-.12.76-.18.08-.05.17-.08.27-.08.06-.05.16.02.21-.07.25-.1.5-.19.76-.29.19-.09.37-.17.56-.26.21-.12.41-.23.62-.35.2-.15.39-.31.61-.42.1-.07.23-.08.32-.17.11-.1.21-.21.34-.28.25-.2.44-.44.64-.69.31-.33.54-.73.8-1.09.65-1.1,1.06-2.28,1.24-3.54.15-1.1.26-2.2.13-3.32ZM24.5,37.87c-1.33,2.11-3.45,3.38-5.7,4.35-.43.88-1.1,1.62-1.97,2.03-3.8,1.78-9.81,3.55-13.11.03-4.41-4.7.16-10.18,4.2-12.96,2.75-1.89,5.81-3.81,9.17-4.26,3-.4,5.61.68,7.33,3.21,1.52,2.24,1.53,5.31.09,7.59Z"/>
      <path class="cls-2" d="M.12,58.4c.18-.05.37-.1.55-.15.32-.07.64-.14.96-.22.32-.07.64-.14.96-.21.3-.06.6-.13.9-.19.25-.05.5-.1.76-.14.48-.09.96-.18,1.45-.27,1.71-.28,3.41-.57,5.13-.77,1.9-.23,3.81-.38,5.72-.48,4.91-.24,9.68.58,14.43,1.71,3.81.91,7.59,1.96,11.41,2.82,3.47.78,6.96,1.4,10.5,1.75,1.23.12,2.46.24,3.7.23.25.07.5.05.76.05.19-.12.37-.12.55.01,0,.08,0,.15.06.21.22.25.16.57.24.86.03.26.1.51.14.76.01.15.06.29.08.44.11.63.26,1.25.33,1.88-.07.38-.38.24-.6.28-.06,0-.12,0-.19,0-.2,0-.41.01-.61,0-1.54-.08-3.09-.16-4.62-.31-2.3-.23-4.59-.57-6.87-1-.8-.15-1.59-.32-2.39-.49-3.33-.72-6.62-1.59-9.92-2.43-.38-.1-.76-.19-1.14-.28-2.69-.66-5.4-1.28-8.15-1.66-1.27-.19-2.54-.32-3.83-.38-.57-.02-1.14-.07-1.72-.07-2.8,0-5.59.24-8.37.59-1.22.15-2.43.35-3.64.55-.35.09-.71.13-1.07.21-.18.04-.36.01-.53.06-.1.03-.2.06-.3.08-.13.03-.27,0-.4.05-.05.01-.1.03-.15.03-.12.02-.23.06-.34.07-.18.05-.36.05-.54.1-.09.03-.19.03-.29.07-.06.02-.13.03-.19.04-.09.03-.19.05-.29.06-.1,0-.19.03-.28.05-.09.02-.19.05-.28.07-.1.02-.19.03-.29.06-.11.03-.23.06-.34.09-.18.05-.37.07-.55.12-.12.03-.24.05-.35.09-.14.02-.28.1-.41,0-.03-1.45-.03-2.89,0-4.34Z"/>
      <path class="cls-2" d="M107.08,56.33c.62.11,1.24.17,1.86.22.08.02.16.06.23.05.27-.02.34.12.33.35.07.12.1.26.09.4,0,.12,0,.23,0,.35,0,.11,0,.23,0,.34,0,.09,0,.19,0,.28,0,.08,0,.15,0,.23,0,.13,0,.27,0,.4,0,.12,0,.24,0,.36,0,.18.01.37,0,.55-.02.36.07.72-.06,1.07-.07.09-.18.1-.29.11-.22-.01-.43-.07-.65-.07-.24-.05-.48-.05-.72-.09-.92-.12-1.84-.2-2.76-.29-1.98-.2-3.97-.24-5.96-.22-.41,0-.82.11-1.23.06-.06,0-.12,0-.18,0-.21,0-.42-.03-.63.03-.08.02-.15.03-.23.03-.28.02-.57-.03-.85.04-.11.03-.22.03-.33.03-.04,0-.07,0-.11,0-.14,0-.28-.01-.41.04-.03.01-.07.02-.1.02-.18.02-.36,0-.54.06-.34,0-.67.1-1,.07-.04-.01-.07-.03-.1-.05-.11-.15-.12-.33-.18-.5-.03-.13-.05-.27-.08-.4-.01-.05-.02-.1-.02-.15,0-.07,0-.14-.01-.2-.02-.13-.06-.26-.07-.4,0-.12-.06-.23-.06-.35,0-.18-.09-.33-.12-.5-.02-.09-.02-.18-.02-.26,0-.13-.05-.25-.07-.37-.04-.26-.15-.5-.17-.76,0-.12-.04-.23.06-.32.05-.02.09-.04.14-.07.29-.16.59-.19.91-.14.07.01.13.04.19,0,.23,0,.46.02.69-.07.02,0,.04,0,.06,0,.19,0,.38.03.55-.06.28-.01.57.02.84-.07.37,0,.74.03,1.1-.07.06,0,.13,0,.19,0,.23,0,.46-.01.69-.02.05,0,.09,0,.14,0,.19-.05.39.02.57-.05,1.05,0,2.1-.02,3.15.01,1.63.05,3.26.19,4.88.38.09.01.18,0,.27,0Z"/>
      <path class="cls-2" d="M.25,71.37c-.12,0-.15-.06-.15-.17,0-1.39.02-2.78.02-4.17.13-.03.27-.06.4-.1.3-.07.6-.14.89-.21.16-.19.39-.15.59-.22.21-.06.42-.09.64-.14.4-.07.79-.18,1.19-.26.56-.06,1.09-.25,1.64-.3,1.75-.35,3.51-.59,5.27-.82,1.72-.22,3.44-.38,5.17-.46,1.67-.08,3.34-.08,5.02.03,3.93.27,7.76,1.1,11.58,2.04,3.53.87,7.04,1.83,10.6,2.6,3.04.66,6.1,1.2,9.2,1.52,1.68.17,3.36.3,5.04.34.09,0,.18,0,.27.03.39.09.78.02,1.16.04.22.01.44-.03.65.04.18.11.18.3.21.48.04.23.08.47.12.7.05.26.09.52.14.78.03.2.07.4.12.6.07.44.16.88.24,1.32.02.15.07.29-.02.43-.13.13-.3.1-.45.1-.83,0-1.66,0-2.49,0-1.15-.01-2.29-.1-3.43-.19-2.01-.15-4.01-.41-6.01-.74-1.55-.25-3.08-.58-4.62-.88-1.51-.34-3.02-.69-4.52-1.07-2.48-.62-4.95-1.27-7.44-1.88-.56-.13-1.12-.27-1.68-.38-2.27-.52-4.56-.94-6.87-1.2-1.49-.17-2.99-.28-4.49-.26-2.2.03-4.39.18-6.58.43-2.02.23-4.02.54-6.02.9-.26.05-.52.08-.78.14-.24.05-.49.09-.73.13-.08.02-.16.05-.24.07-.06.02-.13.03-.19.04-.08,0-.16.04-.24.05-.11.02-.22.02-.33.05-.09.02-.19.04-.28.07-.11.03-.22.03-.33.07-.03,0-.06.02-.09.02-.09.01-.19.02-.28.05-.09.02-.19.05-.28.07-.11.04-.23-.07-.34,0h-.03s-.02,0-.02,0c-.05.06-.12.09-.2.1-.03,0-.06,0-.08-.03-.08,0-.16-.02-.22.05-.07.13-.21.09-.31.14-.11.03-.23.06-.35.07-.03,0-.07-.01-.09-.04Z"/>
      <path class="cls-2" d="M109.01,65.21c.21.06.53-.04.49.36.05.08.08.17.09.27,0,.09,0,.19,0,.28,0,.09,0,.18,0,.28,0,.07,0,.15,0,.22,0,.11,0,.22,0,.34,0,.11,0,.23,0,.34,0,.12,0,.23,0,.35,0,.1,0,.2,0,.3,0,.23.01.45,0,.68,0,.23.01.47,0,.7,0,.14,0,.3-.18.36-.18,0-.36-.02-.55-.04-.37-.07-.75-.09-1.13-.14-.93-.11-1.87-.21-2.8-.29-1.66-.13-3.32-.25-4.98-.22-.2,0-.39,0-.58.04-.31.05-.63.03-.95.02-.32.03-.64-.04-.96.04-.08.02-.16.03-.24.03-.29.03-.58-.04-.87.04-.11.02-.23.03-.34.03-.06,0-.11,0-.17,0-.14,0-.29,0-.43.04-.13.03-.26.03-.39,0-.04-.01-.07-.03-.1-.05-.1-.16-.12-.35-.15-.53,0-.12-.05-.24-.07-.36-.02-.14-.07-.27-.07-.41-.02-.12-.05-.24-.07-.36-.02-.14-.06-.27-.07-.41,0-.19-.07-.37-.1-.56-.02-.07-.03-.14-.03-.21,0-.14-.06-.28-.07-.42-.08-.32-.2-.64-.16-.98.01-.04.04-.07.07-.09.45-.13.93-.1,1.39-.16.06-.02.11-.02.17-.03.09,0,.19,0,.28,0,.18,0,.37.02.55-.04.06-.01.11-.02.17-.03.27-.03.54.03.8-.05.14-.03.28-.03.42-.03.22,0,.44,0,.66,0,.08,0,.16,0,.24,0,.26,0,.52.03.78-.05.51-.06,1.01-.02,1.52-.03.19.02.37-.01.56.03.2.07.4.05.6.04.63-.02,1.25.07,1.88.1.71.08,1.43.15,2.14.2.73.1,1.45.17,2.18.26.16.02.32.05.45.16Z"/>
      <path class="cls-2" d="M94.2,64.9s0,.04-.01.06c-.06.06-.13.08-.21.09-.23,0-.46.05-.68.07-1.07.11-2.14.29-3.2.48-3.45.61-6.81,1.61-10.17,2.6-3.56,1.05-7.15,1.97-10.83,2.48-1.45.2-2.91.35-4.38.46-.59.05-1.19-.02-1.78.09-.06.02-.12.02-.18.02-.49.04-.99-.06-1.48.05-.21.04-.42.03-.64.03-.39-.03-.78.1-1.15-.1-.62-.02-1.25.05-1.87-.06.16-.16.36-.1.54-.11.24,0,.48,0,.72,0q.44,0,.38-.42c-.03-.19-.07-.38-.11-.56-.02-.08-.03-.17-.03-.26,0-.12-.05-.23-.06-.35,0-.1-.05-.19-.06-.29,0-.05-.01-.1-.02-.15-.01-.12-.05-.23-.06-.35-.01-.13-.06-.26-.07-.4,0-.16-.09-.29-.12-.44-.02-.1-.02-.2-.02-.3-.03-.22-.02-.47-.34-.5-.08,0-.17,0-.24-.06-.03-.02-.04-.06-.02-.09.12,0,.25-.02.37,0,.16.01.19-.08.19-.21.19.06.38.15.59.11.17,0,.34,0,.52,0,.14,0,.28-.01.43,0,.62-.03,1.25.05,1.87-.04.1-.02.2-.03.31-.03.39-.03.79.04,1.18-.03.04-.01.08-.02.12-.03,3.1-.17,6.17-.56,9.2-1.18,1.27-.26,2.52-.61,3.78-.9,2.22-.58,4.41-1.26,6.62-1.89,2.83-.8,5.68-1.5,8.59-1.91.05,0,.09-.02.13-.03.25-.03.5-.06.75-.09.23,0,.47-.14.69.02h0c.16.09.17.25.2.41.06.39.15.78.22,1.16.02.19.06.37.09.55.01.15.06.29.07.45.09.41.15.82.23,1.23.03.15.05.29-.05.42Z"/>
      <path class="cls-2" d="M95.74,72.82c-.02-.12-.06-.24-.07-.37,0-.16-.05-.31-.08-.47-.02-.12-.06-.23-.07-.36,0-.03,0-.07-.01-.1-.03-.22-.11-.44-.13-.67-.02-.15-.06-.29-.07-.43-.11-.42-.07-.87-.29-1.27-.02-.01-.03-.01-.05,0-.25-.18-.51-.03-.76-.03-.22-.02-.43.05-.64.07-.05,0-.09,0-.14,0-3.55.41-7.03,1.21-10.46,2.21-2.42.7-4.84,1.43-7.28,2.07-.81.19-1.63.38-2.44.56-2.69.58-5.41.95-8.16,1.18-.16.06-.33.05-.5.05-.08,0-.15,0-.23,0-.11,0-.23,0-.34.03-.2.06-.4.04-.6.04-.06,0-.11,0-.17,0-.17,0-.34,0-.51.02-.04,0-.08.02-.11.03-.43.04-.86,0-1.29.02-.18,0-.35,0-.53,0-.19.02-.38-.04-.57.03-.09.13-.23.08-.35.08-.87,0-1.75,0-2.62,0,.06.19.23.15.37.16.44.01.88,0,1.32,0,.16.01.33,0,.49,0,.15,0,.3,0,.45,0,.44,0,.29.36.37.59,0,.03,0,.07,0,.1,0,.08,0,.17.02.25.03.14.13.27.12.43,0,.07,0,.13,0,.2,0,.07.01.14.03.2.05.13.11.25.11.39.01.07.03.14.09.19.13.07.26.06.39.03.14-.05.29-.04.44-.04.13,0,.26,0,.39-.03.15-.05.3-.04.45-.04.2,0,.4,0,.6-.03.76-.07,1.53-.12,2.29-.2.15-.05.3-.06.46-.05.13,0,.27,0,.4-.03.14-.05.29-.05.44-.04.15,0,.3,0,.45-.03.14-.05.29-.05.44-.04.13,0,.26,0,.39-.03.14-.05.29-.05.44-.04.13,0,.26,0,.39-.03.15-.05.3-.04.45-.04.14,0,.28,0,.42-.03.05-.02.11-.03.17-.03,1.06-.03,2.11-.17,3.17-.23.55-.07,1.11-.09,1.66-.14.57-.07,1.14-.08,1.72-.14.54-.07,1.08-.08,1.63-.14.15-.05.31-.06.46-.04.16,0,.31,0,.47-.03.23-.06.47-.02.7-.05.31-.07.63-.04.95-.09.27-.09.55,0,.83-.07.27-.09.55,0,.82-.07.23-.08.48-.01.71-.07.54-.06,1.08-.08,1.62-.13.73-.09,1.46-.12,2.19-.18.24-.02.49-.12.71-.08.06,0,.11,0,.17,0,.09,0,.17,0,.25.02,1.38-.19,2.78-.29,4.16-.47,1.41-.19,2.8-.38,4.22-.46,0,0,0-.01,0-.02-.1-.71-.23-1.41-.37-2.11Z"/>
      <text class="cls-1" transform="translate(0 90.54) scale(.95 1)"><tspan x="0" y="0">Anodizing Specialists, Inc.</tspan></text>
      <path class="cls-2" d="M9.68,47.34c-2.8,0-4.93-.77-6.41-2.32-1.47-1.54-2.21-3.47-2.21-5.79,0-1.93.45-3.56,1.34-4.89.89-1.33,2.07-2.45,3.55-3.37,1.47-.92,3.06-1.69,4.78-2.32,1.71-.63,3.39-1.16,5.03-1.59,1.64-.43,3.09-.84,4.34-1.23v-3.18c0-3.14-.54-5.37-1.63-6.7-1.09-1.33-2.71-1.99-4.89-1.99s-3.4.43-3.98,1.3c-.58.87-.87,2.39-.87,4.56,0,1.11-.28,1.94-.83,2.5-.56.56-1.34.83-2.35.83-.72,0-1.41-.28-2.06-.83-.65-.55-.98-1.44-.98-2.64,0-1.35.52-2.63,1.56-3.84,1.04-1.21,2.51-2.2,4.42-2.97,1.91-.77,4.16-1.16,6.77-1.16,3.96,0,6.76.92,8.4,2.75,1.64,1.83,2.46,4.63,2.46,8.4v16.43c0,1.5.17,2.46.51,2.9.34.43.89.65,1.66.65.68,0,1.29-.17,1.85-.51.55-.34,1.07-.77,1.56-1.3l1.09,1.16c-1.21,1.74-2.35,3-3.44,3.8-1.09.8-2.55,1.19-4.38,1.19-1.69,0-2.79-.48-3.29-1.45-.51-.96-.88-2.34-1.12-4.13l-.43-.87v-12.52c-2.17.53-4.22,1.16-6.15,1.88-1.93.72-3.5,1.66-4.71,2.82-1.21,1.16-1.81,2.68-1.81,4.56s.48,3.21,1.45,4.27c.96,1.06,2.22,1.59,3.76,1.59,1.25,0,2.57-.31,3.94-.94,1.38-.63,2.71-1.52,4.02-2.68l.58,2.61h-.87c-1.11.97-2.18,1.83-3.22,2.61-1.04.77-2.15,1.36-3.33,1.77-1.18.41-2.55.62-4.09.62Z"/>
      <path class="cls-2" d="M91.17,47.07c-.34-1.87-.68-3.74-1.01-5.61-.33-1.81-.65-3.63-.98-5.44-.24-1.35-.5-2.71-.75-4.06-.33-1.81-.66-3.63-.98-5.44-.24-1.35-.49-2.71-.75-4.06-.22-1.17-.37-2.36-.62-3.52-.29-1.38-.46-2.78-.77-4.15-.14-.64-.18-1.31-.33-1.95-.32-1.33-.45-2.69-.75-4.02-.24-1.1-.39-2.22-.62-3.32-.02-.41-.15-.8-.21-1.2,0-.09-.01-.18-.03-.27-.03-.1-.05-.2-.06-.3-.02-.1-.05-.19-.05-.29,0-.13-.06-.26-.07-.39,0-.13-.06-.26-.07-.39,0-.05-.01-.1-.02-.15-.02-.1-.05-.19-.05-.29,0-.11-.05-.22-.06-.33,0-.06-.02-.13-.04-.19-.03-.09-.04-.18-.05-.27,0-.05-.01-.09-.02-.14-.02-.06-.03-.12-.04-.18,0-.08-.01-.16-.03-.23-.03-.09-.04-.19-.06-.28-.02-.1-.04-.2-.05-.3,0-.06-.02-.11-.05-.16-.02-.03-.06-.06-.09-.07-.26-.06-.53-.04-.79,0-.53.06-1.07.08-1.6.12-1.05.09-2.1.17-3.15.26-1.24.1-2.49.2-3.73.3-1.99.15-3.97.35-5.95.47-.04,0-.08.01-.12.03-1.39.1-2.77.25-4.16.32-.04,0-.08.02-.12.03-.34.04-.68.06-1.02.08-1.06.07-2.12.19-3.19.24-.7.08-1.41.12-2.12.18-.69.06-1.39.11-2.08.16-.8.06-1.59.15-2.39.18-.51.03-1.01.13-1.52.14-.16,0-.33,0-.49.02-.31.07-.64.03-.95.11-.47.02-.94.01-1.39.18-.2.03-.44,0-.59.09-.22.14.05.39-.02.58-.04.14-.03.28,0,.42.04.12.04.24.07.36.05.25.03.5.13.74.07.34.14.68.19,1.03.07.29.12.59.16.89.24,1.24.46,2.49.68,3.73.1.48.18.96.28,1.44.08.36.11.73.21,1.09.06.25.09.5.14.75.06.25.08.5.14.75.08.23,0,.48.11.7.06.14.07.28.1.42.16.97.37,1.93.52,2.9.05.28.12.55.15.83.06.27.11.54.15.81.05.25.09.5.14.75.05.25.1.5.13.76.05.32.16.64.19.97.04.39.16.76.21,1.15.03.2.07.4.1.61.07.34.15.69.18,1.04.05.39.2.76.22,1.16.14.7.26,1.41.4,2.11.03.28.12.54.15.82.03.16.06.32.09.49.06.36.15.72.19,1.09.07.25.03.52.14.76.09.24.02.51.14.75.08.24.09.5.15.75.06.38.15.76.2,1.15.09.37.13.74.21,1.11.22,1.2.44,2.4.66,3.61,0,.4.2.76.21,1.16-.01.24.11.46.14.7,0,.26.07.5.14.75.01.14.08.27.07.42,0,.09,0,.18.02.26.04.19.11.37.12.56,0,.18.06.35.1.52.04.19.1.37.11.56,0,.12.06.24.07.36.04.19.07.38.1.58.03.19.1.38.11.58.03.28.13.54.14.82.12.62.22,1.25.34,1.87.17.91.33,1.82.49,2.74.08.36.15.73.21,1.1.09.32.1.66.2.98.03.07.06.14.15.14.31-.11.61.04.92,0,.17,0,.35,0,.52,0,.08,0,.16,0,.24,0,.22,0,.44,0,.67,0,.18,0,.36.01.55,0,.16,0,.32,0,.48,0,.18,0,.36,0,.53,0,.07,0,.14,0,.21,0,.09-.01.2-.08.21.04.04,0,.08,0,.12.01.86,0,1.72-.02,2.57-.04.09,0,.18,0,.27,0,4.04-.14,8.06-.56,12-1.55,4.58-1.16,9.25-2.21,13.77-3.58.02,0,.04,0,.06-.01l.85-.42s0,0,0,0c.1-.14.24-.17.38-.2.04,0,.07-.01.11-.02.11-.01.23,0,.33-.08.03-.03.04-.06.05-.1.04-.17-.03-.34-.06-.5ZM63.87,8.18c.47-.73,1.2-1.18,2.19-1.35.98-.17,1.82,0,2.51.52.7.52,1.12,1.21,1.27,2.08.15.87,0,1.68-.48,2.42-.47.75-1.2,1.2-2.18,1.38-.94.17-1.77-.02-2.49-.55-.72-.53-1.15-1.24-1.31-2.11-.15-.87,0-1.67.48-2.39ZM66.39,46.07l-.28-1.59c1.28-.23,2.18-.51,2.68-.85.5-.34.77-.83.79-1.45.03-.63-.05-1.47-.24-2.53l-2.79-15.8c-.21-1.21-.55-1.92-1.02-2.13-.47-.21-1.11-.24-1.94-.09-.38.07-.84.19-1.4.36l-.29-1.64,6.86-2.85,1.47-.26,3.81,21.58c.19,1.1.42,1.93.68,2.51.26.58.7.93,1.32,1.05.62.12,1.56.07,2.81-.15l.28,1.59-12.74,2.25Z"/>
    </g>
  </g>
</svg>