<?xml version="1.0" encoding="UTF-8"?>
<svg id="Layer_2" xmlns="http://www.w3.org/2000/svg" viewBox="0 0 267.38 54.71">
  <defs>
    <style>
      .cls-1 {
        fill: #fff;
      }
    </style>
  </defs>
  <g id="Layer_1-2" data-name="Layer_1">
    <g>
      <path class="cls-1" d="M37.57,0c1.29.45,1.87,1.42,2.25,2.7,4.26,14.15,11.5,26.59,21.67,37.33,1.24,1.3,1.36,2.34.46,3.89-1.79,3.08-3.58,6.16-5.38,9.24-.78,1.34-1.82,1.8-3.32,1.44-6.61-1.58-13.31-2.45-20.11-2.6-7.99-.17-15.87.7-23.64,2.54-1.79.42-2.73.03-3.65-1.55-1.75-3.01-3.51-6.02-5.26-9.03-.92-1.58-.79-2.63.45-3.94C11.29,29.2,18.55,16.66,22.8,2.4c.35-1.17,1.02-1.93,2.09-2.4h12.67ZM48.97,48.57c.53,0,.6-.17.38-.82-4.16-12.77-8.32-25.54-12.48-38.31-.28-.87-.45-.92-1.04-.26-9,9.98-18.01,19.96-27.01,29.95-.58.64-.52.82.31,1,2.52.54,5.03,1.07,7.55,1.6,9.69,2.06,19.38,4.11,29.07,6.17,1.09.23,2.18.46,3.21.67Z"/>
      <path class="cls-1" d="M236.11,9.4h.64c5.34,0,10.68-.04,16.02.02,3.18.03,6.21.7,8.83,2.64,2.63,1.94,3.93,4.61,4.19,7.83.17,2.07-.06,4.09-.89,6-1.23,2.83-3.41,4.68-6.23,5.82-.28.11-.56.22-.94.36,3.21,4.5,6.39,8.96,9.66,13.52h-.7c-2.38,0-4.75-.02-7.13.01-.49,0-.76-.16-1.03-.55-2.63-3.75-5.28-7.48-7.91-11.23-.26-.37-.52-.53-.99-.53-2.11.03-4.22.01-6.42.01v12.25h-7.1V9.4ZM243.24,26.86c.17.02.27.04.36.04,2.8,0,5.61.02,8.41,0,1.29-.01,2.54-.24,3.71-.82,1.79-.9,2.77-2.35,2.87-4.33.1-1.94-.51-3.6-2.24-4.69-1.02-.64-2.16-.98-3.34-1.01-3.08-.07-6.17-.07-9.26-.11-.48,0-.57.19-.57.61.01,3.26,0,6.53,0,9.79,0,.16.02.32.04.53Z"/>
      <path class="cls-1" d="M78.39,45.58c.64-1.48,1.25-2.88,1.87-4.29,4.6-10.51,9.2-21.03,13.79-31.54.2-.45.43-.62.94-.61,1.66.04,3.33.04,4.99,0,.57-.02.81.18,1.02.68,4.79,10.98,9.59,21.96,14.4,32.94.4.92.8,1.84,1.23,2.83-2.48,0-4.88,0-7.27-.02-.17,0-.41-.27-.5-.47-1.06-2.47-2.12-4.95-3.14-7.44-.19-.46-.43-.58-.9-.58-4.93.02-9.87.02-14.8,0-.49,0-.71.16-.89.6-1.03,2.47-2.1,4.91-3.12,7.38-.18.42-.39.55-.85.55-2.03-.03-4.06-.01-6.09-.01-.2,0-.39,0-.68,0ZM97.5,18.4c-.06,0-.11,0-.17,0-1.74,4.06-3.48,8.11-5.25,12.24h10.72c-1.79-4.13-3.54-8.18-5.3-12.24Z"/>
      <path class="cls-1" d="M174.42,45.56c.42-.97.82-1.89,1.23-2.81,4.79-10.96,9.59-21.91,14.37-32.88.24-.55.5-.75,1.11-.73,1.64.05,3.29.04,4.93,0,.51-.01.74.17.93.62,4.15,9.52,8.32,19.03,12.48,28.54.99,2.26,1.98,4.52,2.97,6.79.06.14.11.3.18.5-2.45,0-4.84.01-7.23-.02-.17,0-.42-.27-.5-.47-1.06-2.47-2.12-4.95-3.14-7.44-.19-.46-.43-.59-.9-.58-4.93.02-9.87.02-14.8,0-.49,0-.71.16-.9.59-1.04,2.48-2.11,4.95-3.15,7.43-.16.37-.34.51-.76.5-2.09-.02-4.18-.01-6.27-.01-.16,0-.31-.01-.55-.02ZM193.52,18.39c-.06,0-.11,0-.17,0-1.74,4.06-3.48,8.11-5.26,12.25h10.72c-1.79-4.13-3.54-8.19-5.3-12.25Z"/>
      <path class="cls-1" d="M145.83,9.42h29.5v6.79h-11.05v29.33h-7.36v-29.3h-11.1v-6.82Z"/>
      <path class="cls-1" d="M122.19,45.55V9.44h7.11v.79c0,9.32,0,18.64,0,27.97q0,.85.87.85c5.62,0,11.25,0,16.87,0,.26,0,.52,0,.82,0v6.51h-25.67Z"/>
      <path class="cls-1" d="M218.75,9.42h7.03v36.12h-7.03V9.42Z"/>
    </g>
  </g>
</svg>