<?xml version="1.0" encoding="UTF-8"?>
<svg id="Layer_2" xmlns="http://www.w3.org/2000/svg" viewBox="0 0 252.91 78.46">
  <defs>
    <style>
      .cls-1 {
        fill: #fff;
      }
    </style>
  </defs>
  <g id="Layer_1-2" data-name="Layer_1">
    <g>
      <polygon class="cls-1" points="25.51 0 0 62.59 17.16 62.59 42.63 0 25.51 0"/>
      <polygon class="cls-1" points="38.04 23.05 54.32 62.59 72.69 62.59 46.81 2 38.04 23.05"/>
      <path class="cls-1" d="M103.33,17.83c-3.07,0-5.83.62-8.27,1.86-2.46,1.24-4.44,3.04-5.97,5.4v-6.19h-13.01v43.49h13.38v-24.42c0-2.95.84-5.31,2.52-7.09,1.69-1.76,3.91-2.66,6.68-2.66,2.3,0,4,.68,5.09,2.03,1.09,1.36,1.64,3.51,1.64,6.46v25.53h13.38v-26.16c0-6.14-1.27-10.73-3.81-13.77-2.54-3.04-6.41-4.55-11.61-4.55v.08Z"/>
      <path class="cls-1" d="M150.76,36.73l-7.34-1.69c-1.76-.47-3.01-.97-3.72-1.5-.7-.53-1.06-1.27-1.06-2.21,0-1.3.59-2.3,1.76-3.01,1.18-.71,2.8-1.06,4.87-1.06,4.49,0,9.03,1.59,13.65,4.77l3.55-8.86c-2.36-1.72-5.03-3.04-7.97-3.99-2.95-.94-5.99-1.42-9.12-1.42-3.67,0-6.92.59-9.78,1.76-2.87,1.18-5.07,2.8-6.63,4.87-1.57,2.06-2.35,4.46-2.35,7.17,0,3.42.99,6.13,2.96,8.1,1.97,1.99,5.06,3.43,9.26,4.38l7.09,1.59c2.19.47,3.67,1.01,4.47,1.59.8.59,1.2,1.42,1.2,2.47,0,1.18-.58,2.11-1.73,2.79-1.15.68-2.76,1.02-4.82,1.02-2.9,0-5.75-.44-8.59-1.33-2.84-.89-5.44-2.13-7.8-3.72l-3.55,9.2c2.41,1.72,5.29,3.03,8.63,3.94,3.34.91,7.01,1.37,11.03,1.37,5.85,0,10.43-1.2,13.77-3.59,3.34-2.39,5.01-5.69,5.01-9.88,0-3.48-1.02-6.24-3.06-8.27-2.05-2.05-5.28-3.56-9.71-4.57l-.03.06Z"/>
      <path class="cls-1" d="M249.87,41.46c-2.03-2.03-5.26-3.56-9.69-4.55l-7.36-1.69c-1.76-.47-3.01-.97-3.72-1.5s-1.06-1.27-1.06-2.21c0-1.3.59-2.3,1.76-3.01s2.8-1.06,4.87-1.06c4.49,0,9.03,1.59,13.65,4.77l3.55-8.86c-2.36-1.72-5.03-3.04-7.97-3.99-2.95-.94-5.99-1.42-9.12-1.42-3.66,0-6.92.59-9.78,1.76-2.87,1.18-5.09,2.8-6.65,4.87-1.56,2.06-2.35,4.46-2.35,7.17,0,3.42.99,6.13,2.96,8.1,1.97,1.99,5.06,3.43,9.25,4.38l7.09,1.59c2.19.47,3.67,1.01,4.47,1.59.8.59,1.2,1.42,1.2,2.47,0,1.18-.58,2.11-1.73,2.79-1.15.68-2.76,1.02-4.82,1.02-2.9,0-5.75-.44-8.59-1.33-2.84-.89-5.44-2.13-7.8-3.72l-3.55,9.2c2.43,1.72,5.29,3.03,8.63,3.94,3.34.91,7.01,1.37,11.03,1.37,5.85,0,10.43-1.2,13.77-3.59,3.34-2.39,5.01-5.69,5.01-9.88,0-3.48-1.03-6.24-3.06-8.29v.06Z"/>
      <polygon class="cls-1" points="176.66 78.46 189.61 78.46 213.82 19.17 200.88 19.17 190.44 44.64 180 19.17 167.06 19.17 183.76 60.5 176.66 78.46"/>
    </g>
  </g>
</svg>