<?xml version="1.0" encoding="UTF-8"?>
<svg id="Layer_2" xmlns="http://www.w3.org/2000/svg" viewBox="0 0 258.39 46.74">
  <defs>
    <style>
      .cls-1 {
        fill: #fff;
      }
    </style>
  </defs>
  <g id="Layer_1-2" data-name="Layer_1">
    <g>
      <g>
        <path class="cls-1" d="M29.72,0l-3.49,27.92L41.85.01h14.01s-10.25,30.47-15.33,45.51h-8.94c1-2.99,10.43-31.32,10.43-31.32l-17.52,31.32h-9.14l3.7-31.18-10.87,31.18H0L15.48.01h14.24Z"/>
        <path class="cls-1" d="M100.58,11.75c-.61,3.08-2.26,9.36-2.26,9.36-2.16-1.26-4.88-1.79-7.57-1.36-.78.14-1.47.61-1.89,1.32-.97,2.39,1.46,4.02,2.7,5.77,2.06,2.92,2.77,7.05,1.44,10.36-1.86,5.69-7.72,8.94-13.24,9.14-3.25.11-6.43-.45-9.26-1.37l2.23-10.04s.29.17.37.21c2.64,1.72,6.08,3.08,9.24,1.62.75-.4,1.25-1.18,1.28-2.01-.22-2.19-2.17-3.71-3.25-5.55-1.8-2.47-2.44-6.15-1.31-9.15,1.08-3.8,4.44-7.71,8.22-8.74,4.14-1.44,9.21-.6,13.29.43"/>
        <path class="cls-1" d="M113.6,11.1c-.05.2.05.32.22.29,1.86.03,5.39,0,5.39,0,0,0-2,6.14-3.02,9.05,0,0-3.75.02-5.66.1l-.22.43-4.08,12.28c-.25.86-.47,1.87.03,2.62.97,1.18,2.57.67,3.75.4.62-.14,1.19-.35,1.78-.52-1.36,3.16-2.8,6.33-4.19,9.43-.64.49-1.47.55-2.22.72-3.16.6-7.33,1.24-10.02-.89-1.83-1.96-1.11-5.03-.45-7.33,3.69-10.76,7.3-21.69,10.96-32.41,0,0,7.03-1.85,10.53-2.6l-2.79,8.44Z"/>
        <path class="cls-1" d="M143.15,15.07c-2.11-4.4-7.13-4.89-11.46-4.29-.5.09-1.03.2-1.53.32-7.1,1.84-12.63,8.77-15.15,15.62-1,2.9-2.05,6.13-2.22,9.35v1.7c.06,1.32.33,2.65.81,3.94,1.44,3.28,4.86,4.49,8.13,4.72,2.86.09,5.72-.09,8.44-.57,1.11-.2,2.19-.46,3.28-.78,1.47-3.08,4.2-9.55,4.2-9.55-.86.2-1.73.61-2.59.84-1.47.4-3.19.95-4.89,1.24-2.11.32-4.25.23-5.97-1.12-1.28-1.06-1.39-2.88-1.14-4.49.17-.46.17-1.04.56-1.38h17.66c1.08-3.29,2.63-6.99,2.71-10.64v-.81c-.03-1.35-.28-2.73-.83-4.08M133.94,24.13l-.04.1s-8.1-.01-8.09,0c.03-.93,2.19-4.39,4.14-5.31.56-.26,1.33-.59,1.94-.59.87.02,1.75.17,2.25.98.81,1.44.28,3.37-.19,4.83"/>
      </g>
      <g>
        <path class="cls-1" d="M163.43,21.96c-.24-.08-.43-.15-.62-.24-2.32-1.05-4.86.01-6.58,1.48-1.65,1.69-2.33,2.31-3.83,5.87-.72,1.72-5.54,16.44-5.54,16.44-3.14,0-9.72.01-9.72.01l4.44-13.18c.92-2.88,1.92-5.78,2.89-8.71l4.1-12.24h9.31s-.82,2.2-.98,3.34h0c2.52-2.36,5.81-5.23,9.45-3.8,0,0-1.95,7.37-2.92,11.03"/>
        <path class="cls-1" d="M188.2,11.78s-1.69,6.91-2.53,10.3c-1.39-.52-2.69-1.27-4.16-1.55-3.36-.78-6.44.63-8.44,3.36-1.86,2.62-3.03,5.58-3.08,9,0,1.12.5,2.13,1.33,2.82,3.25,1.78,6.91-.06,9.91-1.01-1.39,3.42-4.48,10.34-4.48,10.34-4.97,1.27-12.4,2.8-15.84-2.32-2.58-4.6-1.08-10.41.39-15.01,2.5-7.82,8.49-16.82,17.43-17.23,3.22,0,6.71.1,9.46,1.29"/>
      </g>
      <path class="cls-1" d="M257.58,12.56c-.64-1.06-1.78-1.67-2.86-1.99-4.86-1.18-9.13.67-12.47,4.66-.58-2.1-1.46-4.02-3.46-4.57-5.46-1.41-9.31,1.65-10.5,2.85-.54.54-1.08,1.06-1.66,1.58,0-.02,1.13-3.99,1.13-3.99h-9.22s-2.51,7.58-2.51,7.58l-4,12.02-3.61,10.76c-.42,1.26-.91,2.76-1.3,4.05h9.73c1.9-5.79,5.31-16.17,6.29-18.91,1.39-3.85,3.65-6.97,6-6.08,2.42.91.32,6.44-.22,8.06l-5.7,16.94h9.83c1.87-5.71,5.4-16.45,6.41-19.25,1.39-3.85,3.65-6.97,6-6.08,2.42.91.32,6.44-.22,8.06l-5.82,17.28h9.58s6.09-17.84,8.93-26.61c.53-2.01.81-4.52-.36-6.36"/>
      <g>
        <path class="cls-1" d="M252.06,43.51c0-.47.08-.9.25-1.29.17-.4.39-.74.68-1.03.29-.29.62-.52,1-.68.38-.17.79-.25,1.22-.25s.83.08,1.21.25c.38.16.72.39,1,.68.29.29.51.63.68,1.02.17.39.25.82.25,1.28s-.09.9-.25,1.29c-.17.4-.39.74-.68,1.03-.29.29-.62.52-1,.68-.38.17-.79.25-1.21.25s-.84-.08-1.22-.25c-.38-.16-.72-.39-1-.68-.29-.29-.51-.63-.68-1.02-.17-.39-.25-.82-.25-1.27M252.57,43.51c0,.39.07.75.21,1.08.14.33.33.62.57.87.24.25.52.44.84.58.32.14.66.21,1.04.21s.71-.07,1.03-.21c.32-.14.6-.34.84-.59.24-.25.43-.54.57-.88.14-.34.21-.71.21-1.1s-.07-.75-.21-1.09c-.14-.34-.33-.63-.57-.88-.24-.25-.52-.44-.84-.58-.32-.14-.66-.21-1.03-.21s-.72.07-1.04.21c-.32.14-.6.34-.84.58-.24.25-.43.54-.57.88-.14.34-.21.71-.21,1.11M254.05,41.64h1.33c.44,0,.76.09.97.26.21.17.31.45.31.82,0,.34-.09.59-.28.74-.18.16-.14.13-.39.28l.76,1.66h-.55l-.71-1.61h-.93v1.61h-.5v-3.76ZM254.55,43.31h.62c.12,0,.24,0,.36-.01.12,0,.22-.03.32-.07.09-.04.16-.1.22-.18s.08-.2.08-.35c0-.13-.02-.23-.07-.31-.05-.08-.11-.14-.19-.18-.08-.04-.17-.07-.27-.08-.1-.01-.2-.02-.29-.02h-.78v1.2Z"/>
        <path class="cls-1" d="M77.11,13.6c-.87-1.68-2.57-2.55-4.19-2.93-4.47-.9-9.14,0-13.34.93-.28.09-2.68.64-3.52.96-1.12,2.78-2.38,5.51-3.41,8.32,1.99-.72,4-1.62,6.12-2.23.28-.09.59-.17.9-.26,2.01-.41,4.42-1.07,6.4-.32.36.23.67.61.75,1.01.11,1.36-.64,2.58-1.73,3.33-1.93,1.27-4.14,1.77-6.32,2.32-1.01.23-2.01.49-2.96.81-4.64,1.27-9.34,4.63-11.02,9.59-.53,1.45-1.01,3.22-1.06,4.95v.32c.03,1.51.45,2.99,1.54,4.11,3.64,3.48,9.19,1.33,13.28.17.01.06.06.79.06.79h9.81c.56-1.85,1.26-3.65,1.85-5.51l5.87-17.68c.56-1.83,1.43-3.88,1.51-5.91v-.52c-.03-.75-.2-1.51-.53-2.26M61.02,37.69s-6.38,3.12-6.96,0c-.83-4.46,9.36-7.05,9.36-7.05l-2.4,7.05Z"/>
        <path class="cls-1" d="M214.29,13.69c-.87-1.68-2.57-2.55-4.19-2.93-4.47-.9-9.14,0-13.34.93-.28.09-2.68.64-3.52.96-1.12,2.78-2.38,5.51-3.41,8.32,1.99-.72,4-1.62,6.12-2.23.28-.09.59-.17.9-.26,2.01-.41,4.42-1.07,6.4-.32.36.23.67.61.75,1.01.11,1.36-.64,2.58-1.73,3.33-1.93,1.27-4.14,1.77-6.32,2.32-1.01.23-2.01.49-2.96.81-4.64,1.27-9.34,4.63-11.02,9.59-.53,1.45-1.01,3.22-1.06,4.95v.32c.03,1.51.45,2.98,1.54,4.11,3.64,3.48,9.19,1.33,13.28.17.01.06.06.79.06.79h9.81c.56-1.85,1.26-3.65,1.85-5.51l5.87-17.68c.56-1.83,1.43-3.88,1.51-5.91v-.52c-.03-.75-.2-1.51-.53-2.26M198.2,37.78s-6.38,3.12-6.96,0c-.83-4.46,9.36-7.05,9.36-7.05l-2.4,7.05Z"/>
      </g>
    </g>
  </g>
</svg>