<?xml version="1.0" encoding="UTF-8"?>
<svg id="Layer_2" xmlns="http://www.w3.org/2000/svg" viewBox="0 0 362.05 57.57">
  <defs>
    <style>
      .cls-1 {
        fill: none;
      }

      .cls-2 {
        fill: #fff;
        fill-rule: evenodd;
      }
    </style>
  </defs>
  <g id="Layer_1-2" data-name="Layer_1">
    <g>
      <g id="BoundingBox">
        <polygon class="cls-1" points="0 57.57 362.05 57.57 362.05 0 0 0 0 0 0 57.57"/>
      </g>
      <path class="cls-2" d="M1.12,55.23v-10.89c6.2,1.95,11.68,2.93,16.45,2.93,6.59,0,9.88-1.74,9.88-5.22,0-1.3-.48-2.39-1.44-3.27-.98-.94-3.5-2.23-7.54-3.9-7.26-2.98-11.99-5.53-14.19-7.63C1.43,24.46,0,20.96,0,16.73,0,11.28,2.08,7.12,6.23,4.26,10.34,1.43,15.69.02,22.29.02c3.64,0,8.9.67,15.78,2.01v10.48c-5.12-2.05-9.87-3.07-14.27-3.07-6.18,0-9.28,1.7-9.28,5.1,0,1.27.62,2.31,1.87,3.11,1.04.65,3.9,2.03,8.57,4.13,6.73,2.99,11.21,5.59,13.44,7.79,2.65,2.62,3.97,6.01,3.97,10.17,0,5.97-2.6,10.53-7.79,13.67-4.21,2.55-9.66,3.81-16.36,3.81-5.66,0-11.36-.67-17.1-2.01h0Z"/>
      <polygon class="cls-2" points="51.07 .98 51.07 .98 66.47 .98 66.47 56.12 51.07 56.12 51.07 .98"/>
      <polygon class="cls-2" points="80.6 56.12 80.6 .98 120.1 .98 120.1 10.95 95.44 10.95 95.44 23.4 116.9 23.4 116.9 32.5 95.44 32.5 95.44 45.58 120.73 45.58 120.73 56.12 80.6 56.12"/>
      <polygon class="cls-2" points="130.79 56.12 130.79 .98 150.76 .98 164.63 36.21 178.85 .98 197.82 .98 197.82 56.12 183.22 56.12 183.22 17.08 167.05 56.68 157.5 56.68 141.64 17.08 141.64 56.12 130.79 56.12"/>
      <polygon class="cls-2" points="211.95 56.12 211.95 .98 251.45 .98 251.45 10.95 226.79 10.95 226.79 23.4 248.25 23.4 248.25 32.5 226.79 32.5 226.79 45.58 252.09 45.58 252.09 56.12 211.95 56.12"/>
      <polygon class="cls-2" points="262.22 56.12 262.22 .98 280.07 .98 299.01 37.89 299.01 .98 309.86 .98 309.86 56.12 292.51 56.12 273.07 18.71 273.07 56.12 262.22 56.12"/>
      <path class="cls-2" d="M320.79,55.23v-10.89c6.15,1.95,11.63,2.93,16.46,2.93,6.59,0,9.88-1.74,9.88-5.22,0-1.3-.47-2.39-1.4-3.27-.99-.94-3.51-2.23-7.58-3.9-7.23-2.96-11.97-5.5-14.19-7.63-2.85-2.75-4.27-6.27-4.27-10.55,0-5.43,2.07-9.57,6.23-12.43C330.01,1.43,335.37.02,341.96.02c3.71,0,8.52.59,14.41,1.77l1.36.24v10.48c-5.12-2.05-9.89-3.07-14.3-3.07-6.16,0-9.23,1.7-9.23,5.1,0,1.27.62,2.31,1.86,3.11.99.63,3.86,2,8.61,4.13,6.68,2.99,11.15,5.59,13.4,7.79,2.65,2.62,3.98,6.01,3.98,10.17,0,5.97-2.58,10.53-7.75,13.67-4.23,2.55-9.7,3.81-16.4,3.81-5.66,0-11.37-.67-17.11-2.01h0Z"/>
    </g>
  </g>
</svg>