<?xml version="1.0" encoding="UTF-8"?>
<svg id="Layer_2" xmlns="http://www.w3.org/2000/svg" viewBox="0 0 434.56 50.81">
  <defs>
    <style>
      .cls-1 {
        fill: none;
        stroke: #fff;
        stroke-miterlimit: 10;
      }

      .cls-2, .cls-3 {
        fill: #fff;
      }

      .cls-3 {
        font-family: ArialNarrow-Bold, 'Arial Narrow';
        font-size: 32.5px;
        font-weight: 700;
        isolation: isolate;
      }
    </style>
  </defs>
  <g id="Layer_1-2" data-name="Layer_1">
    <g>
      <text class="cls-3" transform="translate(412.33 27.88)"><tspan x="0" y="0" xml:space="preserve">  </tspan></text>
      <g>
        <path class="cls-2" d="M292.07,12.94c2.82-.43,5.99-.72,9.6-.72,6.43,0,11.05,1.44,14.08,4.26,3.11,2.82,4.98,6.93,4.98,12.49s-1.81,10.33-4.98,13.5c-3.32,3.25-8.67,4.98-15.38,4.98-3.25,0-5.85-.07-8.16-.43V12.94h-.14ZM296.62,43.71c1.16.22,2.74.22,4.55.22,9.6.07,14.8-5.34,14.8-14.73.07-8.31-4.62-13.36-14.08-13.36-2.31,0-4.04.22-5.27.43v27.44Z"/>
        <path class="cls-2" d="M51.52,11.5h-5.49l-11.83,34.85c.02.08.05.16.07.24h4.54l3.68-11.05h12.42l3.76,11.05h4.84l-11.99-35.1ZM43.35,32.01l3.47-10.18c.72-2.17,1.3-4.33,1.73-6.36h.14c.58,2.02,1.08,4.12,1.81,6.43l3.47,10.11h-10.62Z"/>
        <path class="cls-2" d="M68.34,15.9v17.48c0,6.57,2.89,9.32,6.86,9.32,4.33,0,7.15-2.89,7.15-9.32V15.9h3.83v17.19c0,9.03-4.77,12.71-11.12,12.71-5.99,0-10.54-3.39-10.54-12.57V15.9h3.83Z"/>
        <polygon class="cls-2" points="98.38 19.08 89.43 19.08 89.43 15.9 111.24 15.9 111.24 19.08 102.21 19.08 102.21 45.29 98.38 45.29 98.38 19.08"/>
        <path class="cls-2" d="M124.82,45.8c-7.8,0-13.22-5.99-13.22-14.95s5.78-15.45,13.65-15.45,13.29,6.14,13.29,14.88c-.07,10.11-6.21,15.53-13.72,15.53h0ZM124.96,42.7c5.99,0,9.46-5.56,9.46-12.2,0-5.85-3.03-11.99-9.39-11.99s-9.46,5.92-9.46,12.28,3.39,11.92,9.39,11.92h0Z"/>
        <path class="cls-2" d="M168.22,32.37c-.22-4.12-.51-9.1-.51-12.71h-.07c-1.08,3.39-2.24,7.15-3.68,11.19l-5.2,14.3h-2.89l-4.84-14.01c-1.37-4.19-2.53-7.94-3.39-11.41h-.07c-.07,3.68-.29,8.59-.58,13l-.79,12.64h-3.61l2.02-29.46h4.84l5.06,14.23c1.23,3.61,2.17,6.86,2.96,9.89h.07c.79-2.96,1.81-6.21,3.18-9.89l5.27-14.23h4.84l1.81,29.46h-3.76l-.65-13Z"/>
        <path class="cls-2" d="M183.31,36.05l-3.03,9.24h-3.9l9.97-29.46h4.62l10.04,29.46h-4.04l-3.18-9.24h-10.47ZM192.92,33.09l-2.96-8.45c-.58-1.95-1.01-3.68-1.44-5.34h-.14c-.36,1.73-.87,3.54-1.44,5.34l-2.89,8.52h8.88v-.07Z"/>
        <polygon class="cls-2" points="207.43 19.08 198.48 19.08 198.48 15.9 220.22 15.9 220.22 19.08 211.26 19.08 211.26 45.29 207.43 45.29 207.43 19.08"/>
        <rect class="cls-2" x="223.47" y="15.9" width="3.83" height="29.46"/>
        <path class="cls-2" d="M245.42,45.8c-7.8,0-13.22-5.99-13.22-14.95s5.78-15.45,13.65-15.45,13.29,6.14,13.29,14.88c0,10.11-6.21,15.53-13.72,15.53h0ZM245.64,42.7c5.99,0,9.46-5.56,9.46-12.2,0-5.85-3.03-11.99-9.39-11.99s-9.46,5.92-9.46,12.28c-.07,6.21,3.32,11.92,9.39,11.92h0Z"/>
        <path class="cls-2" d="M264.05,45.29V15.83h4.19l9.39,14.88c2.17,3.47,3.9,6.5,5.27,9.53l.14-.07c-.36-3.9-.43-7.51-.43-12.06v-12.35h3.61v29.54h-3.83l-9.32-14.95c-2.09-3.25-4.04-6.64-5.49-9.82l-.14.07c.22,3.68.29,7.22.29,12.13v12.57h-3.68Z"/>
        <rect class="cls-2" x="325.08" y="15.9" width="3.83" height="29.46"/>
        <path class="cls-2" d="M335.55,16.34c1.95-.36,4.69-.65,7.29-.65,4.04,0,6.72.79,8.59,2.46,1.44,1.3,2.31,3.25,2.31,5.56,0,3.83-2.46,6.43-5.56,7.44v.14c2.24.79,3.61,2.89,4.33,5.92.94,4.12,1.66,6.93,2.24,8.09h-3.97c-.51-.87-1.16-3.39-1.95-7.01-.87-4.04-2.46-5.56-5.92-5.71h-3.61v12.71h-3.83v-28.96h.07ZM339.38,29.7h3.9c4.04,0,6.64-2.24,6.64-5.56,0-3.83-2.74-5.49-6.79-5.49-1.81,0-3.11.14-3.76.36v10.69Z"/>
        <polygon class="cls-2" points="374.26 31.5 362.85 31.5 362.85 42.12 375.63 42.12 375.63 45.29 359.02 45.29 359.02 15.9 374.98 15.9 374.98 19.08 362.85 19.08 362.85 28.4 374.26 28.4 374.26 31.5"/>
        <path class="cls-2" d="M401.05,44.43c-1.37.72-4.19,1.37-7.8,1.37-8.31,0-14.52-5.27-14.52-14.95s6.21-15.45,15.38-15.45c3.61,0,5.99.79,7.01,1.3l-.94,3.11c-1.37-.72-3.47-1.23-5.92-1.23-6.93,0-11.48,4.41-11.48,12.13,0,7.22,4.12,11.84,11.27,11.84,2.38,0,4.69-.51,6.21-1.23l.79,3.11Z"/>
      </g>
      <g>
        <polygon class="cls-2" points="411.45 19.08 402.49 19.08 402.49 15.9 424.3 15.9 424.3 19.08 415.35 19.08 415.35 45.29 411.45 45.29 411.45 19.08"/>
        <path class="cls-2" d="M434.56,44.64c0-.58-.43-.94-.94-.94-.58,0-.94.36-.94.94s.43.94.94.94.94-.36.94-.94h0Z"/>
        <path class="cls-2" d="M433.11,36.85c.14.36.36.94.36,1.66,0,1.52-1.08,2.6-2.74,2.6-1.52,0-2.82-.94-2.82-2.67,0-.72.14-1.23.36-1.59l-1.01-.29c-.22.36-.43,1.08-.43,1.88,0,2.46,1.66,4.04,3.9,4.04s3.76-1.44,3.76-3.76c0-1.01-.29-1.81-.43-2.17l-.94.29Z"/>
        <path class="cls-2" d="M434.56,32.08c0-1.81-1.16-3.76-3.9-3.76-2.24,0-3.76,1.44-3.76,3.61s1.44,3.76,3.9,3.76c2.31,0,3.76-1.59,3.76-3.61h0ZM433.55,32.01c0,1.3-1.23,2.24-2.82,2.24-1.37,0-2.89-.72-2.89-2.31s1.59-2.24,2.82-2.24c1.73,0,2.89,1.01,2.89,2.31h0Z"/>
      </g>
      <path class="cls-2" d="M429.07,26.59c-.79,0-1.37,0-2.02.07v-1.23l1.16-.07v-.07c-.72-.43-1.37-1.16-1.37-2.38,0-1.01.65-1.81,1.44-2.09h0c-.43-.22-.72-.58-.94-.87-.36-.43-.51-.94-.51-1.66,0-1.01.65-2.53,3.18-2.53h4.33v1.37h-4.12c-1.44,0-2.24.58-2.24,1.66,0,.79.58,1.37,1.23,1.66.22.07.43.14.65.14h4.55v1.37h-4.41c-1.16,0-2.02.51-2.02,1.59,0,.87.65,1.52,1.3,1.73.22.07.43.07.65.07h4.41v1.37h-5.27v-.14Z"/>
      <path class="cls-1" d="M36.71,11.35c-1.08.43-2.17.79-3.25,1.23s-2.17.79-3.25,1.23-2.17.79-3.25,1.23-2.17.79-3.25,1.23-2.17.79-3.25,1.23h-.07c-1.01-.36-2.09-.79-3.11-1.16-1.08-.43-2.17-.79-3.25-1.23s-2.17-.79-3.25-1.23-2.17-.79-3.25-1.23-2.17-.79-3.25-1.23-2.17-.79-3.25-1.23c.87,1.73,1.73,3.39,2.6,5.13s1.73,3.39,2.6,5.13,1.73,3.39,2.6,5.13c.87,1.73,1.73,3.39,2.6,5.13.87,1.73,1.73,3.39,2.6,5.13.87,1.73,1.73,3.39,2.6,5.13.22.43.43.87.65,1.3.22.43.43.87.65,1.3.22.43.43.87.65,1.3.22.43.43.87.65,1.3.22.43.43.87.65,1.3.22.43.43.79.65,1.23v-.07c.22-.43.43-.87.65-1.3.22-.43.43-.87.65-1.3.22-.43.43-.87.65-1.3.22-.43.43-.87.65-1.3.22-.43.43-.87.65-1.3.22-.43.43-.87.65-1.3.87-1.73,1.73-3.39,2.6-5.13.87-1.73,1.73-3.39,2.6-5.13.87-1.73,1.73-3.39,2.6-5.13.87-1.73,1.73-3.39,2.6-5.13.87-1.73,1.73-3.39,2.6-5.13.87-1.73,1.73-3.39,2.6-5.13-1.16.43-2.24.87-3.32,1.3"/>
    </g>
  </g>
</svg>