<?xml version="1.0" encoding="UTF-8"?>
<svg id="Layer_2" xmlns="http://www.w3.org/2000/svg" viewBox="0 0 150.15 107.9">
  <defs>
    <style>
      .cls-1 {
        fill: #fff;
      }
    </style>
  </defs>
  <g id="Layer_1-2" data-name="Layer_1">
    <g id="Layer_x5F_1">
      <g id="_2889516039568">
        <path class="cls-1" d="M51.06,74.16V27.36c0-2.37,4.86.08,4.86,3.04v43.77c0,1.3-1.17.91-3.95.91-.7,0-.91-.21-.91-.91h0ZM64.13,37.08c0-.7.21-.91.91-.91h7.6c2.47,0,6.69,1.9,6.69,4.26v33.74c0,.7-.21.91-.91.91h-11.55c-1.8,0-3.95-2.6-3.95-3.65v-20.06c0-6.02,11.55-3.39,11.55-5.77,0-6.3,1.62-5.17-10.33-5.17v-3.34h0ZM33.13,41.64v28.57c0,1.73,2.49,1.22,5.17,1.22,2.82,0,1.82-7.43,1.82-10.33,5.48-1.28,4.26.37,4.26,7.9,0,3.07-4.05,6.69-6.69,6.69h-2.74c-2.42,0-6.69-3.43-6.69-6.08v-27.36c0-2.61,4.47-6.08,7.29-6.08h1.82c2.47,0,6.99,3.71,6.99,6.38,0,2.86.33,6.41-.3,9.12-4.84,0-4.02.6-3.96-4.55.09-7.07.83-6.69-5.16-6.69-.93,0-1.82.28-1.82,1.22h0ZM90.88,75.08c-1.42,0-4.56.57-4.56-.91v-33.44c0-2.57,3.84-4.56,6.08-4.56,2.49,0,2.18-.18,4.26.3,0,8.69-4.74.52-5.48,5.46-.64,4.24.96,27.76-.29,33.14h0ZM118.85,73.25c0,2.14.26,1.82-3.34,1.82-4.24,0,1.34-19.15-3.34-19.15-6.45,0-5.17-1.02-5.17,11.25,0,7.21,1.91,7.9-4.56,7.9-.77-3.33-.3-41.09-.3-47.72,0-1.38,1.56-.91,4.86-.91v24.01c0,1.59,1.91,1.22,3.65,1.22,7.11,0-.04-15.5,5.47-15.5,4.37,0,2.11-.05,2.13,8.81,0,1.61.2,3.87-.11,5.37-.37,1.82-1.7,2.35-1.38,3.48,1.22,4.27,1.48,2.23,1.48,9.08,0,3.27.61,8.63.61,10.33h0ZM10.94,49.54c0,12.01-.8,12.83,7.51,24.71,8.25,11.81,32.98,22.4,46.9,22.4h19.45c10.48,0,28.69-7.46,35.18-11.93,7.3-5.03,19.23-16.35,19.23-27.89,0-10.9-.52-13.36-7.71-23.59-3.18-4.52-8.97-8.53-13.59-11.64-7.84-5.28-26.46-11.27-39.49-11.27h-6.69c-14.37,0-29.6,5.59-39.01,10.84-7.69,4.3-21.78,17.43-21.78,28.37h0Z"/>
        <path class="cls-1" d="M83.28,102.13c-15.47,0-22.15.68-37.96-4.6-6.89-2.3-12.44-4.84-17.94-8.5-5.65-3.77-9.7-7.21-13.83-12.62-2.45-3.2-8.09-13.33-8.09-18.36,0-13.82-.38-13.13,8.01-26.95,2.18-3.59,9.98-10.03,13.72-12.42,7.86-5.04,26.72-13.21,39.07-13.21h17.63c12.28,0,31.61,8.29,39.21,13.37,5.82,3.9,9.42,7.2,13.76,12.68,2.56,3.23,7.82,13.3,7.82,18.63v7.29c0,5.32-5.41,15.28-7.89,18.56-3.85,5.08-8.32,9.16-13.65,12.79-7.57,5.15-27.44,13.33-39.86,13.33h0ZM0,48.63v10.64C0,71.69,13.95,87.06,21.98,92.31c5.45,3.57,11.11,7.26,17.89,9.46,5.07,1.65,17.06,5.52,22.75,5.52,2.64,0,2.19.61,4.26.61h16.41c4.63,0,18.83-3.36,23.41-4.86,13.13-4.3,26.61-12.38,34.64-23.42,2.9-3.98,8.82-13.88,8.82-20.36v-9.73c0-15.09-13.64-27.82-22.43-34.71-7.34-5.75-29.8-14.83-42.61-14.83h-20.67c-4.49,0-19.56,3.76-23.07,5.19-7.43,3.04-12.37,5.27-18.78,9.48C14.28,20.14,0,35.7,0,48.63h0Z"/>
        <path class="cls-1" d="M67.78,51.98v18.54c0,1.4,1.71.91,5.17.91.82,0,.84-.15,1.52-.3,0-2.74.74-20.06-.91-20.06-3.74,0-5.77-.54-5.77.91h0Z"/>
      </g>
    </g>
  </g>
</svg>