<?xml version="1.0" encoding="UTF-8"?>
<svg id="Layer_2" xmlns="http://www.w3.org/2000/svg" viewBox="0 0 222.46 277.02">
  <defs>
    <style>
      .cls-1 {
        fill: #fff;
      }

      .cls-2 {
        fill: none;
        stroke: #fff;
        stroke-miterlimit: 10;
        stroke-width: 1.4px;
      }
    </style>
  </defs>
  <g id="Layer_1-2" data-name="Layer_1">
    <g>
      <path class="cls-1" d="M115.02,276.56c-.05.15-.08.31-.1.46h-7.06c-.05-.15-.09-.3-.12-.45,2.43,0,4.85,0,7.28-.01Z"/>
      <path class="cls-1" d="M114.38,0c.08.13.11.27.11.42-2.24,0-4.48.02-6.72.03.03-.15.06-.3.09-.45h6.52Z"/>
      <path class="cls-1" d="M95.87,111.89c1.09-4.56,2.09-9.12,2.48-13.82.42-5.06.49-10.11.04-15.15-.29-3.19-.19-6.46-1.34-9.55-.18-.48.4-.76.63-1.12,3.97-.11,10.56,4.29,12.32,9.98,1.04,3.38.78,6.75-.23,10.09-1.05,3.49-2.73,6.68-4.89,9.57-2.42,3.25-4.93,6.46-7.95,9.21-.33.3-.71.53-1.07.79Z"/>
      <path class="cls-1" d="M95.45,62.99c-.33-1.49-.69-2.98-.98-4.48-.29-1.51.08-2.09,1.58-2.64,1.67-.61,3.39-.44,5.09-.21,2.05.28,4.09.63,6.14.95,1.15.66,2.57.64,3.67,1.45.29.21,1.04-.17.88.55-.1.46-.68.51-1.14.54-4.22.28-8.24,1.43-12.22,2.76-1.01.34-2.01.72-3.01,1.09Z"/>
      <path class="cls-1" d="M112.21,173.44c0-1.44-.02-2.88,0-4.32.02-1.99.03-1.99,2.13-1.96,2.68.05,3.37.69,3.42,3.36.04,1.98.07,3.96-.01,5.94-.1,2.48-2.77,4.16-5.04,3.23-.52-.21-.5-.68-.5-1.12,0-1.71,0-3.42,0-5.13Z"/>
      <path class="cls-1" d="M162.12,221.15c-2.29-.02-3.69-1.4-3.71-3.65-.01-2.19,1.73-4.04,3.79-4.03,1.92.01,3.86,1.88,3.69,3.83-.25,2.75-1.46,4.09-3.77,3.86Z"/>
      <path class="cls-1" d="M50.76,217.26c0-2.33,1.4-3.81,3.56-3.79,2.25.02,3.63,1.6,3.59,4.11-.04,2.31-1.41,3.62-3.75,3.57-2.25-.05-3.41-1.37-3.41-3.89Z"/>
      <path class="cls-1" d="M104.64,217.16c0-.36-.04-.72,0-1.07.12-.84-.43-1.86.48-2.47.7-.47,3.03.09,3.79.78,1.17,1.06,1.44,3.36.59,4.98-.72,1.36-2.55,2.09-4.15,1.7-.54-.13-.71-.47-.71-.96,0-.99,0-1.97,0-2.96h0Z"/>
      <path class="cls-1" d="M122.98,218.89c-1.49-.01-1.48-.02-1.1-1.44.24-.92.52-2.55.96-2.51,1.1.09.89,1.54,1.29,2.39.68,1.45.53,1.57-1.15,1.56Z"/>
      <g>
        <path class="cls-1" d="M98.12,73.32c1.36,3.66,1.26,7.59,1.51,11.39.44,6.65.18,13.33-.99,19.94-.31,1.75-.71,3.45-1.44,5.02.62-.68,1.2-1.31,1.62-1.76,2.66-3.06,5.98-6.96,8.78-13.56,4.62-10.89-.98-18.85-9.48-21.03Z"/>
        <path class="cls-1" d="M213.15,44.21c-10.73-5.43-21.73-10.29-32.6-15.41-18.48-8.69-37.03-17.24-55.5-25.97-3.61-1.71-7.24-2.7-11.21-2.56-1.96,0-3.91,0-5.87,0-3.29,0-6.4.58-9.43,2.03-6.2,2.96-12.43,5.88-18.67,8.77-20.69,9.58-41.29,19.34-61.96,28.95-3.92,1.82-8,3.36-11.59,5.9C2.08,48.92,0,52.76,0,58.07.07,111.73.07,165.4,0,219.07c0,5.32,2.17,9.18,6.34,12.16,1.93,1.37,4.04,2.42,6.2,3.34,3.83,1.63,7.57,3.47,11.33,5.25,23.88,11.29,47.88,22.33,71.76,33.63,3.94,1.87,7.91,3.59,12.42,3.3,2.12,0,4.24,0,6.36,0,2.82.02,5.59-.17,8.2-1.4,29.88-14,59.79-27.94,89.67-41.93,5.46-2.56,9.68-6.3,10.17-12.89V56.49c-.47-6.09-4.23-9.71-9.31-12.28ZM141.81,33.04c4.98.07,8.46,4.43,8.03,8.05.45,4.24-3.16,8.48-8.28,8.32-5.13-.16-7.76-4.47-7.86-8.03-.14-5.02,4.44-8.4,8.11-8.34ZM79.84,29.27c4.64.03,8.15,3.66,8.07,8.34-.07,4.45-3.75,8.05-8.18,8.01-4.51-.04-8.22-3.87-8.13-8.4.08-4.43,3.77-7.99,8.23-7.96ZM32.55,201.38c-3.08.02-6.15.02-9.23,0-1.93-.01-1.96-.04-1.97-1.93-.02-5.88,0-11.77,0-17.65,0-5.7,0-11.4,0-17.11,0-2.12.03-2.14,2.02-2.15,3.44-.02,6.88.03,10.32-.03,1.09-.02,1.49.37,1.4,1.4-.02.18,0,.36,0,.54-.02,3.11.19,2.67-2.53,2.7-1.72.01-3.44.06-5.16-.01-1.22-.05-1.53.46-1.51,1.6.06,3.17.07,6.34,0,9.5-.03,1.24.49,1.54,1.6,1.5,1.63-.06,3.26.04,4.89-.03,1.22-.06,1.54.46,1.51,1.6-.09,3.31.32,2.85-2.91,2.89-1.36.02-2.71,0-4.07,0-.67,0-.99.32-.98.99,0,3.53,0,7.06,0,10.59,0,.9.58.98,1.26.98,2.08,0,4.16-.02,6.24.01,1.61.02,1.61.05,1.66,1.65,0,.09,0,.18,0,.27-.02,3.11.18,2.67-2.53,2.69ZM42.06,217.83c-.18.38-.5.48-.87.49-.54,0-1.08,0-1.62.01q-1.79.06-1.85,1.78c-.02.54.02,1.08,0,1.62-.06,1.43-.33,1.62-1.81,1.57-.89-.03-1.31-.36-1.29-1.29.04-1.62.01-3.25,0-4.87,0-1.44.03-2.89-.01-4.33-.03-.96.18-1.55,1.32-1.52,1.71.05,3.43.03,5.14,0,.82,0,1.09.38,1.08,1.17-.01.84-.44,1.08-1.19,1.06-.72-.02-1.44.01-2.17,0-.84-.01-1.08.46-1.05,1.21.03.66.35.98,1,.99.72,0,1.45-.02,2.17.02,1.06.07,1.62,1.12,1.15,2.09ZM46.64,175.87c0,7.69.01,15.39-.02,23.08,0,.76.45,1.85-.42,2.24-1.06.47-2.31.29-3.46.06-.35-.07-.46-.52-.46-.9,0-.54-.01-1.09-.01-1.63,0-11.13,0-22.27,0-33.4,0-.54.01-1.09,0-1.63,0-.79.38-1.16,1.16-1.14.45,0,.91,0,1.36,0,2.3,0,2.29,0,2.82,2.25,1.88,7.97,3.77,15.94,5.68,24.04.34-1.22.24-2.31.24-3.39,0-6.88,0-13.76.02-20.64,0-.75-.44-1.89.52-2.15,1-.27,2.15-.07,3.22.04.33.03.44.53.44.91,0,.54,0,1.09,0,1.63,0,11.13,0,22.27,0,33.4,0,.54-.01,1.09,0,1.63,0,.8-.41,1.14-1.18,1.12-.09,0-.18,0-.27,0q-3.19.23-3.91-2.88c-1.61-6.85-3.23-13.69-4.82-20.54-.18-.77-.25-1.56-.92-2.1ZM60.71,217.6c-.33,3.53-2.82,6.18-6.41,6.21-3.39.03-6.73-2.84-6.27-6.54.01-3.85,2.3-5.83,6.28-6.12,3.23-.23,6.71,3.13,6.4,6.45ZM77.4,219.79c-.09,1.87-1.06,3.17-3.01,3.67-1.61.41-3.17.56-4.75-.1-1.65-.69-2.65-1.8-2.57-3.7.05-1.17,0-2.35,0-3.53h-.05c0-1-.01-1.99,0-2.99.02-.87-.25-1.9,1.24-1.84,1.52.06,1.11,1.18,1.09,1.98-.05,1.9.15,3.78.42,5.66.26,1.81.68,2.23,2.36,2.23,1.61,0,2.5-.78,2.57-2.46.07-1.99,0-3.98.03-5.97.03-1.33.3-1.49,1.63-1.43.82.03,1.09.4,1.09,1.17-.02,2.44.07,4.89-.05,7.33ZM79.77,164.12c0,.09,0,.18,0,.27,0,3.23.12,2.75-2.76,2.77-.09,0-.18,0-.27,0-2.37.02-2.39.02-2.39,2.33,0,9.59,0,19.18,0,28.77,0,.63-.02,1.27,0,1.9.04.95-.45,1.23-1.34,1.22-3.82-.04-3.14.3-3.16-2.87-.04-4.79,0-9.59,0-14.39,0-5.07.01-10.13,0-15.2,0-1.73-.04-1.73-1.79-1.77-.18,0-.36,0-.54,0-3.27-.03-3.24-.02-3.11-3.22.04-.99.27-1.45,1.39-1.43,4.16.06,8.32.06,12.48,0,1.22-.02,1.64.47,1.51,1.6ZM79,125.87c-.15-.32.3-.57.59-.76,3.58-2.27,7.05-4.73,10.09-7.67.54-.52,1.82-1.84,2.97-3.03.3-4.79.64-9.57.89-14.36.2-3.79.01-7.58-.43-11.35-.03-.27-.08-.54-.18-.79-.27-.65-.27-1.67-1.07-1.73-.61-.04-.73.89-.97,1.47-1.79,4.11-4.54,7.58-7.55,10.84-6.79,7.36-14.65,13.37-23.38,18.26-.31.18-.63.36-.96.49-.13.05-.32-.05-.48-.08.04-.15.04-.33.13-.43.62-.65,1.26-1.3,1.9-1.93,5.92-5.85,11.47-12.02,16.03-19.02,2.76-4.24,5.15-8.66,6.41-13.63.69-2.71,1.05-5.42.61-8.16-.2.12-.42.24-.66.39-1.13.56-.36.5-2.07,1.03-.2.06-1.27.11-1.52-.21-.17-.23.22-2.12.38-2.34.98-1.26.58-.95,1.56-2.21.36-.31.68-.6.98-.89-4.31-6.78-11.44-9.9-19.49-8.58-4.11.68-7.83,2.03-10.68,5.23-.15.17-.33.47-.59.26-.27-.21-.06-.49.06-.72,1.7-3.47,4.27-6.24,7.19-8.69,5.89-4.94,12.69-8.12,19.96-10.46,7.18-2.31,14.29-2.01,21.4.2,1.64.51,3.26,1.1,4.88,1.68.19-.94.53-1.83,1.08-2.4.63-.89,1.42-1.5,2.17-2.09,1.28-1.01,3.77-2.33,7.46-1.62,3.31.63,5.63,3.82,6.29,7.13.22,1.1.54,2.46.32,3.59,2.56-1.02,5.12-2.05,7.8-2.72,4.08-1.03,8.21-1.05,12.33-.5,6.83.92,13.39,2.83,19.53,6.04,3.46,1.81,6.63,4.03,9.28,6.94.42.46.79.98,1.14,1.5.06.09,0,.37-.1.46-.1.1-.35.15-.47.09-.32-.15-.61-.37-.92-.56-8.48-5.24-21.56-1.75-26.15,5.47,1.12.88,2.43,1.92,2.84,2.22,1.28,1.08,3.09,2.9,3.85,3.51,3.23,2.58.9,1.93,3.75,4.92.18.18.45.56.4.62-.3.38-.61.09-.91-.09-3.95-2.3-5.19-2.62-9.49-4.12-.37-.07-1.67-.53-2.63-.87-.45,4.22.76,8.1,2.7,11.82,2.36,4.52,5.48,8.48,8.99,12.15,5.51,5.78,11.66,10.8,18.08,15.51.51.37,1.01.76,1.52,1.13.22.16.23.28.03.35-.08.03-.17.06-.24.04-.17-.05-.33-.15-.5-.21-11.86-4.46-22.74-10.52-31.8-19.54-1.67-1.66-3.17-3.46-4.37-5.5-.2-.34-.27-.97-.83-.91-.68.08-.74.77-.83,1.26-.28,1.52-.16,3.04.01,4.58,1.05,9.25,3.08,18.3,5.44,27.29.04.16-.02.34-.05.61-2.73-3.36-4.64-7.09-6.22-11-2.72-6.73-4.19-13.76-5.01-20.97-.81-7.13-.63-14.27-.5-21.42-.12-.07-.25-.13-.38-.2-.61-.45-1.29-.54-2.04-.56-2.84-.04-3.7.85-3.15,3.57.58,2.87.34,5.76.37,8.64.05,5.15.25,10.32-.15,15.45-.41,5.16-1.24,10.3-2.44,15.38-1.42,6.02-3.87,11.56-6.81,16.93-.39.71-.87,1.37-1.36,2.01-.26.34-.65.58-.98.87-.33-.48.1-.83.19-1.25,1.45-6.55,3-13.09,4.3-19.68.62-3.16.8-6.41,1.11-9.62.05-.51.13-1.16,0-1.69-.12-.48-.28-1.09-1.05-1.13-.5-.03-.7.5-.91.88-1.64,2.96-3.89,5.42-6.4,7.63-4.94,4.36-10.35,8.07-16.11,11.27-4.24,2.36-8.7,4.24-13.21,6.03-.32.13-.82.28-.98-.08ZM112.21,149.4c-2.05.01-2.04-.04-2.27,1.94-.05.44-.08.91-.26,1.3-.32.71-1,.67-1.64.56-.56-.09-.68-.52-.68-1,0-2.44,0-4.88,0-7.32,0-.48.15-.89.71-.97.65-.09,1.34-.12,1.62.6.19.48.28,1.06.23,1.58-.13,1.39.55,1.67,1.77,1.64,1.98-.04,1.98.02,2.09-2.08.02-.36-.01-.73.04-1.08.11-.77.66-1.04,1.35-1.04.74,0,.82.55.83,1.12,0,1.36,0,2.71,0,4.07,0,1.27,0,2.53,0,3.8,0,.58-.11,1.11-.86,1.09-.58,0-1.13-.22-1.25-.82-.13-.61-.15-1.26-.09-1.88.12-1.24-.49-1.51-1.59-1.5ZM98.02,151.95c0,.91-.23,1.67-1.3,1.67-1.07,0-1.29-.77-1.29-1.68.01-1.72-.02-3.43,0-5.15.01-.76-.24-1.24-1.06-1.19-.98.05-1.29-.45-1.17-1.33.12-.9.83-.79,1.45-.8,1.54,0,3.07,0,4.61,0,.69,0,.96.37.94,1.01.08.85-.39,1.12-1.15,1.1-.83-.02-1.06.45-1.05,1.21.02,1.72,0,3.43,0,5.15ZM94.87,223.17c-.84.24-1.83.4-2.53-.43-1.16-1.38-2.32-2.76-3.4-4.21-.66-.89-1.24-1.84-2.19-2.48-.04,1.08-.1,2.16-.12,3.24-.02.81.02,1.63,0,2.44-.05,1.39-.5,1.75-1.81,1.55-.52-.08-.83-.31-.84-.85,0-3.44,0-6.88,0-10.32,0-.55.34-.74.85-.82,1.33-.21,2.22.39,2.98,1.41,1.5,2.01,3.04,3.98,4.88,6.37,0-2.27-.02-4.06,0-5.85.02-1.86.11-1.89,1.4-1.95,1.48-.07,1.26.93,1.26,1.81,0,2.81.02,5.61,0,8.42,0,.59.3,1.43-.48,1.66ZM100.32,163.91c-.02.27,0,.54,0,.81,0,2.8.08,2.42-2.52,2.44-1.81,0-3.61.03-5.42,0-.88-.01-1.31.27-1.3,1.23.03,3.34.05,6.69,0,10.03-.02,1.17.56,1.34,1.5,1.32,1.54-.03,3.07-.03,4.61,0,1.82.03,1.86.05,1.86,1.73,0,3.09.33,2.68-2.76,2.74-1.61.03-3.67-.66-4.73.28-1.23,1.09-.35,3.23-.43,4.91-.1,1.98.03,3.98-.04,5.96-.04,1.08.38,1.44,1.4,1.42,1.99-.04,3.98-.03,5.96,0,1.85.02,1.85.04,1.88,1.98,0,.27,0,.54,0,.81-.05,1.77-.05,1.8-1.78,1.81-3.43.02-6.87.02-10.3,0-1.56-.01-1.6-.05-1.61-1.71-.02-5.96,0-11.93,0-17.89,0-5.69.01-11.38,0-17.08,0-2.49.15-2.16,2.26-2.16,3.34,0,6.69.04,10.03-.02,1.06-.02,1.51.35,1.42,1.39ZM110.94,221.95c-.75.83-1.72,1.3-2.87,1.31-1.63.01-3.25,0-4.88.03-.91.02-1.3-.35-1.28-1.28.04-1.54.01-3.07.01-4.61,0-1.54.06-3.08-.02-4.61-.07-1.24.49-1.56,1.6-1.51,1.17.06,2.35-.06,3.52.04,2.41.19,4.3,1.22,5.21,3.62.99,2.6.56,4.95-1.29,7.01ZM114.2,184.75c-.18-.48-.39-1.07-1.1-.97-.82.12-.92.72-.89,1.41.02.54,0,1.09,0,1.63,0,4.25.01,8.5,0,12.75,0,1.78-.04,1.81-1.77,1.81-2.98,0-2.73.3-2.73-2.8,0-5.61,0-11.21,0-16.82,0-5.79-.01-11.58,0-17.36,0-1.79.05-1.82,1.78-1.85,1.99-.03,3.98-.05,5.97,0,4.22.11,6.36,1.9,6.92,6.08.39,2.96.3,5.96.03,8.93-.19,2.07-1.24,3.86-3.17,4.75-1.28.59-1.24,1.31-.87,2.35,1.67,4.76,3.34,9.51,5,14.28.85,2.44.83,2.44-1.63,2.45-.36,0-.73-.03-1.08,0-1.23.14-1.71-.45-2.03-1.61-1.17-4.25-2.47-8.47-3.72-12.7-.23-.78-.41-1.57-.7-2.33ZM127.65,223.29c-.78-.03-1.68.19-1.89-.98-.21-1.13-1.03-1.34-2.03-1.28-.63.04-1.26.03-1.89,0-.8-.03-1.38.14-1.55,1.09-.18.97-.91,1.2-1.83,1.18-1.24-.03-1.38-.17-.94-1.35,1.15-3.1,2.32-6.19,3.48-9.28.34-.9.83-1.41,1.95-1.42,1.18-.01,1.84.38,2.24,1.44,1.16,3.1,2.36,6.18,3.5,9.28.44,1.2.33,1.3-1.05,1.32ZM128.34,153.65c-5.52.02-4.59.35-4.65-4.3,0-.27,0-.54,0-.81,0-.45-.04-.91,0-1.35.13-1.13-.58-2.61.5-3.31,1.39-.91,3.15-.32,4.75-.32.54,0,.67.52.67.99,0,.46-.06.92-.65.99-.45.05-.9.03-1.35.06-.61.03-1.37-.1-1.3.89.07.93.82.76,1.43.8.36.02.72,0,1.08.04.72.07.8.6.8,1.17,0,.52-.24.85-.79.87-.54.02-1.08.04-1.62.04-.69,0-.93.4-.93,1.03,0,.61.15,1.07.87,1.09.45.01.9.04,1.35.03.77-.02,1.18.27,1.13,1.1-.05.85-.56,1-1.28,1ZM140.04,213.53c-1.78.3-1.79.36-1.8,2.07-.02,2.17-.03,4.33,0,6.5.01.99-.52,1.19-1.36,1.2-.83,0-1.38-.17-1.37-1.18.03-2.26.02-4.51,0-6.77-.02-1.63-.04-1.63-1.75-1.84-.18-.02-.36,0-.54-.02-.71-.04-.86-.5-.87-1.11,0-.61.18-1.07.88-1.07,1.17-.01,2.35,0,3.52,0h0c1.08,0,2.17,0,3.25,0,.64,0,1,.26,1.02.95.02.7-.12,1.14-.98,1.28ZM141.48,201.38c-2.62.02-5.24.02-7.86,0-3.42-.03-3.09.45-3.1-2.97-.01-5.51,0-11.03,0-16.54,0-5.69,0-11.39,0-17.08,0-2.24.03-2.24,2.19-2.25.45,0,.9.01,1.36,0,.66-.01,1,.3,1,.96,0,.63.01,1.27.01,1.9,0,9.4,0,18.8,0,28.2,0,.63.04,1.27,0,1.9-.06.94.35,1.28,1.27,1.27,1.99-.03,3.98-.02,5.96,0,1.91.02,1.94.03,1.94,1.91,0,3.21.22,2.68-2.77,2.71ZM149.64,217.53c0,1.54-.02,3.08,0,4.62.02,1.03-.61,1.13-1.41,1.15-.88.02-1.33-.27-1.32-1.24.03-3.17.03-6.34,0-9.5,0-.94.36-1.27,1.28-1.27.97,0,1.52.22,1.47,1.37-.08,1.63-.02,3.26-.02,4.89ZM155.52,199.61c0,1.72-.06,1.72-1.88,1.78-.45.01-.91-.04-1.36.01-1.2.15-1.55-.39-1.54-1.54.04-6.06.02-12.12.02-18.18,0-5.79-.01-11.58,0-17.36,0-1.74.04-1.74,1.81-1.78.36,0,.72-.01,1.09,0,1.8.05,1.85.06,1.85,1.8.02,11.76.02,23.51,0,35.27ZM162.01,223.79c-3.47-.09-6.38-3.01-6.36-6.4.02-3.67,2.79-6.22,6.69-6.18,3.23-.39,6.51,2.64,6.36,6.5-.13,3.28-3.26,6.16-6.69,6.08ZM174.07,199.87c-1.22-5.45-2.51-10.89-3.78-16.33-.61-2.6-1.22-5.2-1.91-8.16-.37,2.18-.21,3.99-.21,5.79-.02,6.15,0,12.31-.02,18.46,0,1.73-.05,1.73-1.83,1.76-.45,0-.91-.02-1.36,0-.78.05-1.19-.27-1.15-1.09.02-.45,0-.9,0-1.36,0-11.31,0-22.62,0-33.93,0-.54-.01-1.09.01-1.63.02-.52.29-.83.84-.83.9,0,1.81,0,2.71,0,.87-.02,1.22.4,1.42,1.26.83,3.69,1.76,7.36,2.63,11.04.94,3.94,1.85,7.89,2.77,11.84.06.26.07.55.18.79.11.23.33.61.46.6.49-.06.2-.5.2-.75.02-7.15.01-14.3.01-21.45,0-.63.03-1.27,0-1.9-.06-1.01.31-1.55,1.4-1.44.27.03.54,0,.81,0,1.76.02,1.8.02,1.81,1.79.02,7.6,0,15.2,0,22.8,0,4.16.02,8.33,0,12.49-.01,1.72-.05,1.72-1.84,1.76-.45,0-.91-.03-1.36,0-1.13.09-1.56-.46-1.8-1.53ZM185.51,223.19c-.98.27-1.97.22-2.69-.74-.81-1.08-1.66-2.14-2.5-3.2-.88-1.12-1.77-2.23-2.66-3.35-.6,1.44-.15,2.94-.28,4.41-.05.54-.03,1.09,0,1.63.04.85-.17,1.37-1.19,1.36-.96-.01-1.53-.2-1.51-1.34.05-2.9,0-5.79.03-8.69,0-.65-.39-1.64.56-1.86,1.01-.23,2.17-.47,2.97.64,1.16,1.6,2.34,3.19,3.52,4.79.27.36.54.73.86,1.04.48.47.67.3.8-.32.36-1.69.41-3.4.37-5.11-.02-.8.33-1.13,1.12-1.14.77-.01,1.19.25,1.18,1.08-.02,1.72,0,3.44,0,5.16h0c0,1.27.04,2.54-.02,3.8-.03.65.38,1.59-.58,1.85ZM192.06,173.12c-.05,1.63-.03,3.26,0,4.88.02,1.69.04,1.7,1.84,1.72,1.63.02,3.26.01,4.88,0,.63,0,1.04.21,1.02.93,0,.18,0,.36,0,.54-.03,3.53.29,2.94-2.76,2.99-1.18.02-2.35.04-3.53,0-.95-.04-1.52.12-1.49,1.3.06,3.35.04,6.69,0,10.04,0,.93.32,1.27,1.26,1.25,2.08-.05,4.16-.03,6.24,0,1.68.02,1.74.04,1.74,1.57,0,3.72.32,3-2.97,3.04-2.98.04-5.97.03-8.95,0-1.74-.02-1.79-.05-1.79-1.83-.02-6.51,0-13.03,0-19.54,0-5.16-.01-10.31,0-15.47,0-1.96.04-1.97,1.9-2,1.72-.02,3.44,0,5.16,0,1.81,0,3.62.04,5.43-.01.95-.03,1.21.37,1.27,1.27.22,3.37.25,3.31-3.23,3.39-1.95.04-3.93-.36-5.85.28-.39,1.87-.1,3.77-.16,5.65Z"/>
        <path class="cls-1" d="M95.97,61.75c3.64-1.53,7.47-2.43,11.34-3.17.51-.1,1.03-.14,1.55-.23-.49-.22-1.01-.36-1.45-.67-.27-.18-.48-.41-.66-.68-.69.36-1.47.22-2.25.14-1.51-.16-3.01-.45-4.52-.6-3.5-.33-4.31.47-4.03,3.91.04.44.07.88.03,1.3Z"/>
      </g>
      <path class="cls-2" d="M83.77,74.38c-1.13.56-.36.5-2.07,1.03-.2.06-1.27.11-1.52-.21-.17-.23.22-2.12.38-2.34.98-1.26.58-.95,1.56-2.21,1.09-.94,1.86-1.79,2.69-2.38,3.37-2.4,6.72-4.84,10.78-6,3.99-1.85,8.23-2.87,12.53-3.69.51-.1,1.03-.14,1.55-.23-.49-.22-1.01-.36-1.45-.67-.3-.21-.54-.46-.73-.77-1.07-1.12-1.66-3.2-1.82-4.46-.18-1.43-.13-4.76,1.24-6.2.63-.89,1.42-1.5,2.17-2.09,1.28-1.01,3.77-2.33,7.46-1.62,3.31.63,5.63,3.82,6.29,7.13.23,1.16.58,2.62.28,3.78-.63,2.31-2.02,3.37-3.59,4.45-.36.25.98.2.12.11.74-.39-.6.03-.19,0,2.39-.13,4.66.53,6.87,1.29,6.35,2.19,12.2,5.37,17.6,9.37.52.38,3.81,2.99,4.5,3.52,1.28,1.08,3.22,2.77,3.85,3.51,2.61,3.02,1.51,1.6,3.75,4.92.14.21.45.56.4.62-.3.38-.61.09-.91-.09-3.95-2.3-5.19-2.62-9.49-4.12-.58-.11-3.44-1.17-3.69-1.23-4.44-1.15-8.86-2.35-12.9-4.61-.61-.45-1.29-.54-2.04-.56-2.84-.04-3.7.85-3.15,3.57.58,2.87.34,5.76.37,8.64.05,5.15.25,10.32-.15,15.45-.41,5.16-1.24,10.3-2.44,15.38-1.42,6.02-3.87,11.56-6.81,16.93-.39.71-.87,1.37-1.36,2.01-.26.34-.65.58-.98.87-.33-.48.1-.83.19-1.25,1.45-6.55,3-13.09,4.3-19.68.62-3.16.8-6.41,1.11-9.62.05-.51.13-1.16,0-1.69-.12-.48-.28-1.09-1.05-1.13-.5-.03-.7.5-.91.88-1.64,2.96-3.89,5.42-6.4,7.63-4.94,4.36-10.35,8.07-16.11,11.27-4.24,2.36-8.7,4.24-13.21,6.03-.32.13-.82.28-.98-.08-.15-.32.3-.57.59-.76,3.58-2.27,7.05-4.73,10.09-7.67.91-.88,3.98-4.08,4.89-5.02,1.38-1.34,3.24-3.45,4.25-4.51,2.66-3.06,5.98-6.96,8.78-13.56,4.87-11.48-1.62-19.7-10.88-21.34-3.62-.95-7.24-1.03-10.87-.04-.96.26-1.57.63-2.9,1.42Z"/>
    </g>
  </g>
</svg>