<?xml version="1.0" encoding="UTF-8"?>
<svg id="Layer_2" xmlns="http://www.w3.org/2000/svg" viewBox="0 0 220.97 106.79">
  <defs>
    <style>
      .cls-1 {
        fill: #fff;
      }
    </style>
  </defs>
  <g id="Layer_1-2" data-name="Layer_1">
    <g id="Layer_x5F_1">
      <g id="_2889483549168">
        <path class="cls-1" d="M70.04,1.71v70.8c0,.44.13.57.57.57h13.89V31.02c0-2.59-.19-4.47-.19-7.04l4.35,12.4c2.08,5.78,4.9,12.85,6.81,18.51l6.16,16.87c.2.54.31,1.33.96,1.33h8.56c.65,0,.63-.62.83-1.26l10.72-29.25c.84-2.13,1.44-4.15,2.28-6.28.82-2.07,1.51-3.99,2.22-6.15l2.01-5.98c.18-.38.06-.17.2-.37,0,1.39-.2,1.99-.2,3.23,0,1.13.05,2.32.01,3.44l-.2,42.06c0,.44.13.57.57.57h13.51c.44,0,.57-.13.57-.57V1.71c0-.44-.13-.57-.57-.57h-18.46c-.73,0-1.07,1.64-1.45,2.74l-7.8,21.51c-.41,1.06-.74,2.03-1.1,3.08l-6.42,18.7c-.26.81-.91,2.48-.93,3.45-.6-.44-1.91-5.44-2.13-6.24-.56-2.01-1.39-4.23-2.08-6.3l-12.37-34.07c-.24-.67-.68-2.88-1.5-2.88h-18.27c-.44,0-.57.13-.57.57h0Z"/>
        <path class="cls-1" d="M153.4,1.71v70.8c0,.44.13.57.57.57h13.89v-39.78c0-1.39-.2-1.98-.2-3.23,0-2.48-.18-4.28-.18-6.67.17.2.04.03.24.33,1.64,2.42,3.85,6.39,5.77,9.26.76,1.14,1.39,2.08,2.13,3.2l10.86,15.41c4.39,5.94,8.8,12.68,13.19,18.59.45.6,1.73,2.88,2.45,2.88h13.7c.44,0,.57-.13.57-.57V1.71c0-.44-.13-.57-.57-.57h-13.89v35.97c0,4.73.38,8.96.38,13.51l-.49-.65c-.23-.36-.28-.5-.5-.84l-29-41.99c-.48-.66-3.83-6.01-4.65-6.01h-13.7c-.44,0-.57.13-.57.57h0Z"/>
        <path class="cls-1" d="M0,38.64c0,8.37,2.01,14.86,5.17,20.14,6.05,10.12,17.27,14.5,28.71,15.44,1.06.09,2.08-.07,3.15.09,1.62.25,7.02-.22,8.87-.43,3.99-.45,6.98-.89,10.74-1.82.92-.23,1.68-.44,2.53-.71.36-.11.73-.23,1.15-.37.52-.16.96-.13.96-.75v-36.35h-30.26v12.37h15.8v14.85c-.97.08-1.89.29-3.03.4-10.46,1.01-21.4-.68-26.35-10.99-2.98-6.21-3.41-17.46-.31-23.86l2.09-3.81c.39-.59.81-1.21,1.29-1.75.52-.59.85-1.11,1.42-1.63l3.31-2.59c3.6-2.4,9.19-4.3,13.78-4.3,5.27,0,7.22-.14,12.58.93,3.13.63,4.82,1.37,7.21,1.92V2.85C53.55.33,44.38,0,37.88,0c-5.46,0-11.77,1.69-15.66,3.37C8.13,9.45,0,23.06,0,38.64h0Z"/>
        <path class="cls-1" d="M103.54,84.32v21.51c0,.97,1.75.57,4.38.57v-9.9c0-2.34-.19-3.96-.19-6.28l9.9,14.28c1.66,2.34.41,1.9,5.71,1.9v-22.08c0-.95-1.62-.57-4.19-.57,0,2.9-.26,14.43.19,16.37l-5.71-8.38c-.48-.69-.89-1.28-1.41-2.01l-3.64-5.12c-.9-1.24-.9-.86-4.47-.86-.44,0-.57.13-.57.57h0Z"/>
        <path class="cls-1" d="M16.94,102.78h-3.43v-6.09h5.14c1.91,0,3.62,1.01,3.62,2.85,0,2.51-2.75,3.24-5.33,3.24h0ZM16.94,93.07h-3.43v-5.71c3.04,0,7.8-.62,7.8,2.85,0,2.4-2.33,2.85-4.38,2.85ZM9.33,106.39c4.21,0,11.1.51,14.24-1.55,2.69-1.77,4.29-5.47,1.94-8.54-.69-.9-1.46-1.17-2.48-1.71.4-.55,1.3-1.02,1.83-1.79,2.1-3.06.76-9.06-8.11-9.06h-7.42v22.65h0Z"/>
        <path class="cls-1" d="M80.32,94.02h-3.43v-6.66c3.03,0,7.99-.49,7.99,2.85v.95c0,1.97-2.47,2.85-4.57,2.85h0ZM72.71,106.39h4.19v-8.75c2.88,0,2.52-.25,3.28.91l5.48,7.84h4.95c-.33-1.41-5.43-7.37-6.47-9.33,1.38-.66,2.88-.85,4.3-2.93.97-1.43,1.2-3.89.59-5.76-1.85-5.59-10.22-4.63-16.31-4.63v22.65h0Z"/>
        <path class="cls-1" d="M127.52,95.36c0,3.6.83,6.07,3.19,8.43,3.68,3.69,9.94,3.34,14.75,2.28.63-.14,1.29-.17,1.29-.81v-11.04h-9.33v3.62h4.95v5.14l-2.66.19c-9.25,0-9.25-10.09-5.48-13.85,1.28-1.28,3.73-2.32,6.24-2.32,1.46,0,4.58.5,5.52.95v-3.62c-5.18-2.49-18.46-.78-18.46,11.04h0Z"/>
        <path class="cls-1" d="M157.59,98.4c0,5,3.83,8.37,8.57,8.37,5.3,0,8.83-1.32,10.09-6.46.59-2.4.37-13.08.37-16,0-.92-1.38-.57-3.81-.57-.88,0-.57,1.52-.57,2.47.01,3.28.48,12.59-.83,14.77-1.93,3.22-7.1,2.45-8.47.43-.85-1.27-1.17-2.86-1.17-4.92v-12.75h-4.19v14.66h0Z"/>
        <path class="cls-1" d="M209.93,89.64c.57.42.57.83.83,1.64.24.74.44,1.34.69,1.98l1.33,3.81h-5.52c.48-.9,2.58-6.38,2.66-7.42ZM199.27,106.39h4.57l2.09-5.71h8.37c.33,1.41,1.7,4.03,2.09,5.71h4.57l-2.2-5.6c-.8-1.99-1.49-3.72-2.28-5.71l-4.46-11.34h-3.81l-7.86,19.74c-.38.96-.86,1.94-1.09,2.91Z"/>
        <path class="cls-1" d="M58.62,89.64c.51.37,2.72,6.85,2.85,7.42h-5.52c.49-.92,1.02-2.43,1.41-3.54.36-1.05,1.18-2.88,1.26-3.88ZM47.96,106.39h4.38c.92-1.73,1.43-3.94,2.28-5.71h8.37c.33,1.41,1.7,4.03,2.09,5.71h4.38c-.02-.98-3.96-10.48-4.4-11.58l-3.93-9.96c-.55-1.44-.56-1.11-3.84-1.11-.61,0-.64.5-.85,1.05l-8.48,21.6h0Z"/>
        <path class="cls-1" d="M30.64,84.32v22.08h15.23v-3.62h-11.04v-6.09h8.95v-3.62h-8.95v-5.71h10.47c0-2.34.34-3.62-.57-3.62h-13.51c-.44,0-.57.13-.57.57h0Z"/>
        <path class="cls-1" d="M181,90.41c0,8.35,11.61,4.96,11.61,9.14v.76c0,3.66-7.08,3.09-10.21,2.03-.6-.2-.86-.38-1.4-.5v3.62c4.46,2.36,15.99,2.19,15.99-5.14,0-3.74-.83-5.29-4.83-6.59-2.97-.96-6.78-.78-6.78-3.88,0-4.51,8.37-2.53,10.47-1.52v-3.62c-4-2.12-14.85-2.7-14.85,5.71h0Z"/>
        <path class="cls-1" d="M94.21,106.39h4.19v-22.08c0-.44-.13-.57-.57-.57h-3.62v22.65Z"/>
      </g>
    </g>
  </g>
</svg>