<?xml version="1.0" encoding="UTF-8"?>
<svg id="Layer_2" xmlns="http://www.w3.org/2000/svg" viewBox="0 0 289.21 60.49">
  <defs>
    <style>
      .cls-1 {
        fill: #fff;
      }
    </style>
  </defs>
  <g id="Layer_1-2" data-name="Layer_1">
    <g>
      <path class="cls-1" d="M108.28,19.45c-.1.23-.17.42-.26.59-1.34,2.47-2.68,4.93-4.02,7.39-1.9,3.5-3.79,7-5.69,10.49-2.79,5.1-5.59,10.2-8.38,15.3-1.06,1.93-2.11,3.87-3.1,5.84-.34.67-.83.7-1.43.7-4.97,0-9.94,0-14.91,0-3.76,0-7.53,0-11.29,0-.25,0-.49,0-.87,0,.98-1.67,1.87-3.2,2.78-4.73,2.3-3.89,4.59-7.79,6.89-11.68,1.23-2.07,2.46-4.14,3.69-6.22,2.94-4.99,5.88-9.98,8.82-14.97.47-.8.94-1.6,1.46-2.36.15-.22.51-.44.77-.44,8.43-.01,16.86,0,25.3,0,.04,0,.09.03.25.08Z"/>
      <path class="cls-1" d="M50.38,19.34c-.71,1.22-1.34,2.32-1.98,3.41-2.64,4.47-5.27,8.95-7.92,13.41-2.58,4.34-5.18,8.67-7.75,13.02-1.93,3.25-3.83,6.51-5.73,9.78-.31.53-.65.78-1.31.77-2.41-.05-4.83,0-7.25-.02-5.87-.03-11.75-.07-17.62-.11-.22,0-.44-.03-.82-.07.34-.61.6-1.1.88-1.59,2.22-3.85,4.46-7.7,6.67-11.56,1.75-3.05,3.48-6.12,5.23-9.18,2.41-4.19,4.84-8.38,7.26-12.57.94-1.63,1.91-3.24,2.83-4.87.23-.42.56-.41.94-.41,4.37,0,8.73,0,13.1,0,4.25,0,8.5,0,12.75,0,.18,0,.37,0,.71,0Z"/>
      <path class="cls-1" d="M30.09,59.63c.81-1.39,1.56-2.66,2.31-3.93,1.82-3.1,3.64-6.19,5.47-9.29,1.56-2.63,3.13-5.26,4.69-7.89,2.52-4.25,5.03-8.5,7.54-12.76,1.14-1.94,2.29-3.87,3.42-5.81.23-.39.49-.62.98-.62,7.92.01,15.85,0,23.77,0,.09,0,.18.02.42.04-.28.49-.52.92-.77,1.34-3.01,5.09-6.03,10.17-9.04,15.26-3.22,5.45-6.42,10.91-9.63,16.37-1.35,2.3-2.73,4.58-4.08,6.87-.23.39-.49.55-.94.55-7.83-.03-15.66-.05-23.49-.07-.16,0-.32-.03-.65-.07Z"/>
      <path class="cls-1" d="M129.25,19.32c-.76,1.37-1.46,2.59-2.11,3.83-.97,1.85-1.96,3.69-2.83,5.58-.33.71-.45,1.56-.51,2.36-.09,1.17.43,2.01,1.55,2.36,1.09.35,2.25.65,3.38.68,2.48.05,4.97.04,7.44-.18,3.12-.28,5.61-1.8,7.4-4.42.42-.61.82-1.24,1.21-1.87.43-.69.34-.85-.45-.84-2.69.02-5.38.06-8.08.09-.27,0-.53-.04-.92-.07.47-.86.88-1.6,1.29-2.34.86-1.56,1.72-3.13,2.58-4.69.18-.32.36-.53.8-.53,7.85.01,15.7.01,23.55.01.09,0,.18.03.38.06-.4.74-.75,1.43-1.14,2.11-2.16,3.68-4.21,7.43-6.53,11.01-2.17,3.35-5,6.1-8.63,7.9-2.24,1.11-4.61,1.79-7.06,2.23-5.52.99-11.09.97-16.66.92-2.71-.03-5.43-.23-8.12-.54-2.16-.25-4.29-.73-6.19-1.92-1.98-1.24-2.74-3.05-2.58-5.32.14-2,.77-3.88,1.68-5.63,1.6-3.11,3.39-6.13,4.95-9.27.62-1.25,1.37-1.62,2.73-1.58,4.04.1,8.08.04,12.12.04.21,0,.41.02.79.04Z"/>
      <path class="cls-1" d="M252.75,19.35c-.38.7-.71,1.32-1.06,1.94-.33.59-.26.76.39.76,3.85-.03,7.71,0,11.56-.16,1.92-.08,3.75-.66,5.03-2.3.13-.17.43-.29.65-.29,4.72-.01,9.43,0,14.15,0,.04,0,.09.03.22.07-.08.18-.13.37-.24.53-1.93,2.92-4.07,5.64-6.96,7.7-1.87,1.34-3.92,2.28-6.11,2.94-2.86.86-5.8,1.24-8.78,1.29-4.92.09-9.84.14-14.77.15-.8,0-1.24.25-1.62.96-1.7,3.17-3.46,6.31-5.23,9.44-.15.27-.54.56-.82.56-4.44.06-8.87.07-13.31.09-.11,0-.23-.02-.41-.04.06-.17.08-.33.15-.45,2.46-4.44,4.92-8.89,7.39-13.33,1.73-3.12,3.47-6.25,5.19-9.38.2-.37.43-.54.87-.54,4.37.01,8.73,0,13.1.01.15,0,.31.03.6.07Z"/>
      <path class="cls-1" d="M272.08,14.08c.15-.41.28-.75.4-1.09.54-1.59,0-2.52-1.65-2.82-.68-.12-1.38-.2-2.08-.2-3.34-.02-6.69,0-10.03-.02-.53,0-.84.13-1.09.64-.53,1.06-1.12,2.08-1.74,3.09-.14.23-.49.47-.74.47-4.44.03-8.87.02-13.31,0-.11,0-.21-.04-.44-.08.37-.71.7-1.36,1.06-2,2.11-3.79,4.22-7.58,6.32-11.37.24-.44.52-.61,1.03-.61,9.45,0,18.9-.02,28.36,0,2.58,0,5.14.31,7.56,1.32,2.65,1.11,3.94,3.71,3.33,6.52-.43,1.99-1.1,3.88-2.03,5.68-.13.25-.5.53-.76.53-4.6.03-9.2.02-13.79.02-.09,0-.18-.03-.4-.07Z"/>
      <path class="cls-1" d="M152.66,13.43c.09-.28.15-.48.22-.67.51-1.53-.02-2.62-1.6-3.03-.89-.23-1.83-.41-2.74-.41-2.48,0-4.97,0-7.44.2-3.3.27-6.22,1.45-8.33,4.18-.17.22-.52.42-.79.42-4.71.03-9.43.02-14.14.02-.07,0-.13-.03-.35-.09.44-.64.83-1.25,1.26-1.84,2.32-3.22,5.12-5.93,8.6-7.88,3.19-1.79,6.63-2.84,10.22-3.47C141.51.17,145.49-.01,149.48,0c3.97.01,7.93.08,11.9.25,1.99.09,3.96.49,5.76,1.43,2.01,1.05,2.94,3.08,2.53,5.32-.39,2.15-1.24,4.12-2.27,6.02-.12.23-.48.46-.73.47-4.5.03-9.01.02-13.52.02-.13,0-.27-.04-.49-.08Z"/>
      <path class="cls-1" d="M197.9,19.38c-.18,1.12-.35,2.21-.53,3.3-.22,1.28-.46,2.55-.66,3.83-.03.17.07.37.11.55.2-.08.45-.11.58-.25,1.49-1.59,2.96-3.2,4.43-4.81.72-.79,1.43-1.58,2.18-2.34.19-.19.51-.36.78-.36,4.02-.02,8.03-.02,12.05-.02.07,0,.13.03.32.07-.17.23-.29.44-.45.6-2.75,2.83-5.51,5.65-8.25,8.48-4.55,4.7-9.08,9.42-13.64,14.11-.25.26-.7.47-1.06.48-3.67.05-7.34.05-11,.07-.81,0-.85-.08-.73-.89.45-3.28.87-6.57,1.32-9.85.45-3.31.91-6.61,1.37-9.92.11-.83.23-1.65.31-2.48.04-.44.19-.66.68-.66,3.9.01,7.8,0,11.7,0,.13,0,.26.05.51.09Z"/>
      <path class="cls-1" d="M26.31,13.85c.47-.82.83-1.46,1.19-2.09,2.16-3.73,4.31-7.47,6.49-11.19.14-.24.53-.48.8-.48,8.64-.02,17.28-.01,25.91,0,.3,0,.59,0,1.05,0-.47.82-.86,1.52-1.26,2.2-2.09,3.55-4.19,7.1-6.27,10.66-.35.6-.74.93-1.52.92-8.45-.03-16.9-.02-25.36-.02-.27,0-.55,0-1.03,0Z"/>
      <path class="cls-1" d="M245.2.08c-.31.61-.52,1.03-.75,1.45-2.19,3.95-4.39,7.9-6.57,11.87-.29.52-.6.77-1.23.76-3.78-.03-7.57-.02-11.35-.01-.25,0-.49,0-.9,0,.8-1.36,1.52-2.59,2.25-3.82-.04-.07-.08-.13-.11-.2-.21.12-.47.19-.63.36-1.03,1.03-2.05,2.08-3.06,3.14-.34.36-.69.53-1.21.53-3.9-.02-7.8-.01-11.7-.01-.21,0-.41,0-.77,0,.17-.25.26-.42.38-.55,3.1-3.39,6.21-6.77,9.31-10.16.83-.91,1.68-1.8,2.48-2.73.37-.43.76-.6,1.32-.59,5.15.02,10.31.01,15.46,0,2.04,0,4.09-.02,6.13-.03.25,0,.5,0,.96,0Z"/>
      <path class="cls-1" d="M118.79.26c-.9,1.64-1.72,3.14-2.54,4.65-1.47,2.71-2.96,5.41-4.4,8.14-.31.58-.66.83-1.34.82-8.08-.02-16.16-.01-24.25-.01-.21,0-.41-.02-.71-.03.1-.24.16-.44.25-.61,1.5-2.53,3-5.06,4.5-7.59.93-1.58,1.86-3.15,2.78-4.74.27-.46.61-.68,1.18-.68,7.9.01,15.79,0,23.69,0,.22,0,.45.03.83.05Z"/>
      <path class="cls-1" d="M185.8,14.15c.17-1.36.33-2.61.49-3.86-.07-.05-.15-.09-.22-.14-.17.18-.39.34-.5.55-.52.98-1,1.99-1.54,2.96-.12.22-.43.46-.66.47-4.09.02-8.17.01-12.26,0-.06,0-.13-.04-.28-.09.29-.55.56-1.08.85-1.59,2.14-3.88,4.29-7.75,6.42-11.63.25-.45.53-.6,1.04-.6,7.04,0,14.07-.02,21.11-.03.94,0,.98.01.83.95-.37,2.22-.79,4.42-1.17,6.63-.29,1.69-.56,3.38-.83,5.07,0,.05,0,.09,0,.14-.15,1.15-.17,1.17-1.31,1.17-3.72,0-7.43,0-11.15,0-.25,0-.49,0-.81,0Z"/>
      <path class="cls-1" d="M90.05.18c-.86,1.45-1.6,2.71-2.34,3.96-1.8,3.03-3.6,6.05-5.38,9.09-.25.43-.53.62-1.04.61-7.78-.01-15.56,0-23.34-.01-.2,0-.4-.03-.7-.06.19-.39.33-.7.5-.99,2.12-3.59,4.27-7.17,6.36-10.78,1.05-1.8,1-1.82,3.08-1.82,7.27,0,14.54,0,21.8,0,.29,0,.58,0,1.06,0Z"/>
      <path class="cls-1" d="M154.77,43.04c.6-1.12,1.12-2.12,1.67-3.11,2.66-4.81,5.34-9.61,8-14.42,1.06-1.91,2.1-3.82,3.2-5.71.14-.24.52-.49.79-.5,4.07-.03,8.13-.03,12.2-.02.13,0,.26.04.51.07-.46.93-.89,1.79-1.33,2.65-2.01,3.95-4.03,7.89-6.04,11.84-1.48,2.89-2.96,5.78-4.42,8.68-.19.38-.41.56-.85.56-4.34,0-8.69.03-13.03.05-.18,0-.35-.04-.7-.09Z"/>
      <path class="cls-1" d="M234.6,19.29c-.45.83-.8,1.5-1.17,2.16-3.89,7.02-7.8,14.03-11.68,21.05-.21.38-.44.53-.87.53-4.34,0-8.69,0-13.03,0-.18,0-.37-.02-.67-.05.35-.62.66-1.17.98-1.72,4.14-6.93,8.3-13.85,12.4-20.8.52-.89,1.08-1.23,2.13-1.21,3.64.08,7.29.03,10.94.03.25,0,.5,0,.97,0Z"/>
      <path class="cls-1" d="M205.15,60.39c-.81-.18-1.65-.26-2.41-.56-1.77-.71-2.26-2.25-1.83-3.81,1.19-4.31,4.27-6.75,8.4-7.99,1.35-.41,2.73-.58,4.18-.32,2.21.39,3.63,2.27,2.74,4.85-.93,2.73-2.82,4.63-5.25,6.07-1.79,1.06-3.73,1.61-5.84,1.77ZM211.89,48.69c-3.03.12-5.37,1.2-7.32,3.14-1.15,1.15-2.06,2.44-2.31,4.1-.23,1.48.42,2.58,1.82,3.02.5.16,1.05.23,1.58.22,3.79-.04,7.8-2.82,9.17-6.31.7-1.8.21-3.15-1.5-3.87-.52-.22-1.12-.24-1.44-.3Z"/>
      <path class="cls-1" d="M148.85,60.49c-1-.26-1.95-.38-2.8-.75-1.36-.59-1.97-2.17-1.59-3.63.92-3.49,3.25-5.76,6.38-7.28,1.9-.92,3.91-1.37,6.06-1.08,2.5.34,3.79,2.4,2.94,4.82-1.24,3.5-3.81,5.69-7.18,6.98-1.21.46-2.54.63-3.81.93ZM149.47,59.32c.88-.22,1.94-.38,2.92-.76,2.9-1.12,5.07-3.03,6.14-6.03.53-1.5-.08-2.9-1.56-3.46-1.33-.5-2.7-.36-4.03.02-3.28.95-5.72,2.91-6.94,6.18-.62,1.68-.02,3.1,1.5,3.67.55.2,1.17.24,1.95.39Z"/>
      <path class="cls-1" d="M214.77,59.92c.63-1.14,1.16-2.11,1.7-3.07,1.61-2.81,3.23-5.62,4.87-8.42.13-.22.44-.5.66-.5,1.71.04,3.43.03,5.12.24,2.19.28,2.99,2.05,2.53,4.08-.69,3.06-2.74,5.09-5.36,6.59-1.51.87-3.2,1.04-4.9,1.06-1.48.02-2.96,0-4.63,0ZM216.81,58.62c.04.09.08.18.12.28,1.65-.11,3.32-.14,4.96-.34,2.71-.34,5.71-3.12,6.38-5.77.48-1.93-.37-3.28-2.33-3.56-.96-.14-1.94-.09-2.91-.17-.6-.05-.92.2-1.2.71-1.35,2.4-2.73,4.79-4.1,7.18-.32.56-.62,1.12-.92,1.68Z"/>
      <path class="cls-1" d="M168.95,57.11c.19-.27.35-.46.47-.66,1.5-2.59,3.03-5.16,4.47-7.78.38-.7.82-.77,1.6-.55-2.29,3.99-4.55,7.93-6.8,11.87-.09,0-.18.02-.27.02-1.11-3.02-2.22-6.04-3.34-9.06-.07,0-.14,0-.21,0-.38.65-.77,1.29-1.14,1.94-1.23,2.15-2.49,4.29-3.68,6.47-.37.67-.84.77-1.57.57.13-.27.23-.52.36-.75,2.04-3.56,4.08-7.12,6.13-10.67.1-.18.31-.3.46-.45.11.16.27.31.33.49,1,2.72,1.99,5.44,2.99,8.16.04.1.1.19.21.41Z"/>
      <path class="cls-1" d="M109.25,59.97c-1.13.32-1.34.22-1.62-.79-.39-1.4-.75-2.82-1.17-4.22-.07-.24-.34-.6-.51-.59-.31.01-.75.17-.9.42-.92,1.5-1.77,3.05-2.65,4.58-.48.84-.57.88-1.65.6.36-.66.71-1.3,1.07-1.93,1.81-3.16,3.63-6.31,5.43-9.48.24-.42.51-.59.99-.57,1.5.07,3.02.04,4.51.18,1.08.1,1.54.84,1.36,1.94-.21,1.27-1.04,2.16-2,2.92-.99.78-2.14,1.18-3.4,1.26-.84.05-.88.11-.67.93.38,1.48.78,2.96,1.16,4.44.03.11.04.22.05.32ZM105.94,53.15c1.13,0,2.07.06,3-.01,1.62-.13,2.94-.8,3.64-2.36.37-.83.09-1.4-.81-1.5-1.03-.12-2.07-.12-3.11-.14-.16,0-.41.08-.48.21-.72,1.2-1.42,2.41-2.24,3.81Z"/>
      <path class="cls-1" d="M196.59,59.8c-1.2.29-1.37.22-1.66-.81-.39-1.36-.73-2.73-1.12-4.08-.07-.24-.29-.54-.5-.61-.39-.13-.74.01-.98.44-.83,1.5-1.73,2.96-2.53,4.48-.37.71-.85.82-1.6.6.07-.19.11-.36.2-.51,2.05-3.58,4.11-7.15,6.14-10.74.26-.45.55-.6,1.05-.59,1.3.03,2.6,0,3.9.01,1.67.01,2.46,1.21,1.76,2.73-.85,1.86-2.36,2.92-4.33,3.37-.23.05-.46.07-.69.11-1.07.17-1.08.17-.78,1.27.19.72.4,1.42.59,2.14.19.71.36,1.43.55,2.19ZM193.32,53.03c1.16,0,2.15.04,3.13,0,1.47-.08,2.6-.76,3.34-2.04.58-1.02.3-1.69-.86-1.83-1.01-.12-2.04-.07-3.05-.06-.14,0-.33.11-.4.22-.71,1.19-1.39,2.39-2.16,3.72Z"/>
      <path class="cls-1" d="M258.35,49.5c-.21.2-.38.35-.54.51-.38.38-.68.49-1.13,0-.91-.97-2.14-1.28-3.42-1.3-3.67-.06-7.69,2.66-9.11,6.05-1.02,2.45.54,4.06,2.64,4.29,1.92.21,3.67-.3,5.38-1.05.3-.13.58-.36.79.11.2.44-.04.61-.4.79-2.22,1.1-4.56,1.6-7.01,1.18-2.67-.46-3.86-2.53-2.71-5.35,1.45-3.54,4.28-5.57,7.81-6.7,1.57-.5,3.2-.7,4.86-.3,1.13.27,2.05.79,2.85,1.76Z"/>
      <path class="cls-1" d="M132.68,50.46c-.91-.51-1.66-1.08-2.51-1.37-1.76-.62-3.49-.2-5.14.49-2.41,1.01-4.34,2.58-5.44,5.02-1.12,2.5.06,4.42,2.8,4.61,1.79.12,3.44-.36,5.05-1.06.28-.12.61-.47.85.09.23.51-.12.66-.47.82-2.3,1.08-4.69,1.6-7.23,1.08-2.09-.42-3.21-2.07-2.77-4.16.5-2.37,1.92-4.15,3.78-5.59,2.58-1.99,5.48-2.98,8.77-2.61,1.13.12,2.08.59,2.89,1.38.34.33.41.59-.03.88-.25.16-.47.36-.56.43Z"/>
      <path class="cls-1" d="M243.97,48.01c-.49.87-.92,1.66-1.38,2.43-1.34,2.25-2.59,4.57-4.07,6.72-1.57,2.28-3.85,3.36-6.67,3.02-1.94-.23-2.65-1.43-1.79-3.19.82-1.69,1.8-3.3,2.72-4.93.65-1.15,1.31-2.3,1.97-3.44.44-.75.57-.79,1.57-.6-.11.24-.19.46-.3.67-1.45,2.56-2.91,5.12-4.37,7.68-.07.12-.13.25-.18.38-.63,1.55.07,2.5,1.76,2.39,1.89-.12,3.4-.99,4.4-2.56,1.33-2.07,2.53-4.21,3.78-6.33.32-.54.67-1.06.92-1.63.31-.71.82-.79,1.63-.59Z"/>
      <path class="cls-1" d="M177.14,59.9c.48-.86.91-1.64,1.35-2.42,1.66-2.9,3.34-5.78,4.97-8.69.32-.57.67-.84,1.35-.81,1.32.06,2.65,0,3.97.02,1.71.02,2.44,1.03,1.82,2.61-.76,1.96-2.3,3.09-4.29,3.46-1.31.24-2.68.18-4.02.2-.48,0-.76.18-.99.59-.83,1.5-1.73,2.96-2.54,4.47-.36.67-.81.8-1.63.57ZM182.49,53.06c.26.02.48.06.7.05.93-.02,1.85,0,2.77-.1,1.42-.14,2.54-.83,3.21-2.11.5-.96.15-1.67-.93-1.76-1.08-.09-2.17-.07-3.26-.05-.18,0-.43.18-.54.35-.65,1.06-1.28,2.14-1.9,3.22-.05.09-.03.21-.06.4Z"/>
      <path class="cls-1" d="M273.73,50.24c-.38-1.6-1.53-2.01-2.87-1-1.19.89-1.42,2.11-.63,3.35.19.29.41.56.6.85,1.01,1.46,1.07,2.78,0,4.17-1.36,1.76-3.13,2.82-5.46,2.52-1.17-.15-2-1.5-1.54-2.57.13-.3.69-.41,1.1-.64.09.23.16.33.17.43.14,1.44.91,2.05,2.31,1.63,1.35-.4,2.35-1.26,2.72-2.72.23-.9-.15-1.67-.7-2.23-2.5-2.54-.19-5.45,2.05-6.22.51-.18,1.09-.24,1.63-.24,1.03,0,1.71.62,1.87,1.62.15.9-.11,1.12-1.23,1.06Z"/>
      <path class="cls-1" d="M104.67,48.05c-.28.73-.56,1.2-1.4,1.15-1.16-.07-2.32,0-3.48-.03-.5-.01-.82.15-1.07.6-.47.88-.99,1.73-1.48,2.6-.11.19-.18.4-.33.74h4.67c-.02.86-.3,1.16-.99,1.17-1.23.01-2.46.04-3.69,0-.53-.01-.85.15-1.11.62-.83,1.5-1.71,2.97-2.56,4.46-.47.82-.5.84-1.59.65.12-.26.22-.51.35-.73,2.01-3.52,4.04-7.04,6.04-10.56.3-.52.64-.75,1.27-.73,1.53.05,3.06.01,4.59.02.24,0,.49.03.8.05Z"/>
      <path class="cls-1" d="M256.93,59.76c2.05-3.58,4.05-7.07,6.14-10.72h-3.02c.15-.65.27-1.12.95-1.13,2.36-.03,4.73-.06,7.09-.09.06,0,.12.04.19.07-.46,1.11-.47,1.22-1.59,1.08-1.66-.2-2.61.35-3.39,1.91-1.42,2.83-3.16,5.5-4.69,8.28-.41.75-.87.82-1.68.61Z"/>
      <path class="cls-1" d="M138.43,49.07h-3.1c.21-.73.49-1.1,1.23-1.09,2.06.04,4.13,0,6.19.01.25,0,.5.02.81.04-.2.7-.47,1.13-1.25,1.05-.6-.06-1.21.02-1.81-.02-.56-.04-.88.16-1.15.65-1.82,3.23-3.68,6.44-5.49,9.67-.38.68-.87.72-1.63.54,2.06-3.61,4.08-7.14,6.2-10.85Z"/>
      <path class="cls-1" d="M111.43,60.04c.96-1.68,1.85-3.24,2.75-4.81,1.26-2.19,2.55-4.37,3.76-6.59.4-.73.9-.71,1.64-.55-.21.39-.38.74-.57,1.07-2,3.48-4.01,6.95-5.98,10.45-.38.67-.89.49-1.58.43Z"/>
      <path class="cls-1" d="M146.35,48.14c-.82,1.44-1.62,2.83-2.41,4.21-1.34,2.33-2.67,4.66-4.01,7-.42.73-.65.82-1.59.52.08-.16.15-.32.23-.47,2.05-3.58,4.1-7.16,6.16-10.74.43-.75.62-.81,1.62-.52Z"/>
      <path class="cls-1" d="M131.59,15.23c-.25.56-.38.98-1.04.98-4.61-.02-9.23,0-13.84,0-.11,0-.22-.02-.38-.04.16-.64.43-.95,1.14-.94,4.43.03,8.86.02,13.28.02.24,0,.49,0,.83,0Z"/>
      <path class="cls-1" d="M130.28,17.32c-.13.53-.29.89-.86.89-4.62,0-9.25,0-13.87-.01-.09,0-.17-.04-.29-.06.1-.52.26-.87.88-.87,4.6.01,9.2.01,13.8.01.09,0,.18.02.35.05Z"/>
      <path class="cls-1" d="M269.84,18.12c.18-.5.37-.86.96-.86,4.59.01,9.19,0,13.78,0,.09,0,.17.03.31.06-.09.52-.25.88-.85.88-4.66,0-9.32,0-13.99-.01-.04,0-.09-.03-.21-.07Z"/>
      <path class="cls-1" d="M286.09,15.28c-.16.53-.31.94-1,.93-4.48-.02-8.96-.01-13.44-.02-.18,0-.35-.03-.58-.06.12-.53.24-.92.86-.92,4.62.01,9.24,0,13.85,0,.09,0,.18.03.31.05Z"/>
      <path class="cls-1" d="M240.34,16.14c.13-.55.27-.92.9-.92,4.43.01,8.87,0,13.3,0,.11,0,.23.03.38.05-.12.52-.27.93-.91.93-4.41-.01-8.82,0-13.23,0-.11,0-.23-.03-.43-.06Z"/>
      <path class="cls-1" d="M239.23,18.13c.11-.52.28-.86.85-.86,4.5,0,9,0,13.5,0,.04,0,.08.03.17.07-.05.49-.18.87-.8.87-4.48,0-8.95,0-13.43-.02-.07,0-.13-.03-.28-.07Z"/>
      <path class="cls-1" d="M221.13,15.27c-.4.62-.79.95-1.5.95-3.88-.03-7.75-.01-11.63-.01-.2,0-.39-.02-.68-.04.33-.54.59-.94,1.24-.94,4.04.01,8.08,0,12.12,0,.11,0,.23.02.45.05Z"/>
      <path class="cls-1" d="M222.14,18.14c.08-.54.31-.87.89-.87,4.06,0,8.12,0,12.18,0,.11,0,.22.04.38.07-.14.47-.23.86-.84.86-4.11-.01-8.21,0-12.32,0-.09,0-.17-.03-.29-.06Z"/>
      <path class="cls-1" d="M183.11,15.3c-.09.61-.35.92-1.04.91-3.87-.03-7.75-.01-11.62-.01-.2,0-.41,0-.67,0,.08-.55.19-.97.8-.97,4.11,0,8.21,0,12.32.01.06,0,.13.04.21.06Z"/>
      <path class="cls-1" d="M168.64,18.13c.13-.55.33-.87.94-.87,3.94.02,7.89,0,11.83.01.2,0,.4.04.64.06-.1.49-.19.87-.75.87-4.13,0-8.26,0-12.39-.01-.07,0-.13-.03-.27-.07Z"/>
      <path class="cls-1" d="M223.33,16.13c.14-.56.31-.91.92-.91,3.99.02,7.98,0,11.96.01.15,0,.31.04.5.06-.12.52-.26.91-.88.91-4.03,0-8.07,0-12.1,0-.11,0-.22-.04-.41-.07Z"/>
      <path class="cls-1" d="M198.56,15.3c.05.51,0,.91-.64.91-4.04,0-8.08,0-12.11-.02-.04,0-.09-.03-.13-.04-.21-.73-.13-.91.5-.91,4.06,0,8.12,0,12.19,0,.04,0,.09.03.2.06Z"/>
      <path class="cls-1" d="M185.34,18.14c-.11-.61.07-.88.67-.87,3.87.02,7.74,0,11.62.03.2,0,.54.21.57.36.07.38-.19.56-.59.56-3.99-.01-7.98,0-11.96-.02-.09,0-.18-.03-.3-.06Z"/>
      <path class="cls-1" d="M205.55,18.14c.21-.5.46-.85,1-.85,4.08,0,8.16-.01,12.24-.02.07,0,.13.03.26.07-.23.49-.49.87-1.09.87-4.01,0-8.02,0-12.03,0-.11,0-.21-.03-.38-.06Z"/>
    </g>
  </g>
</svg>