<?xml version="1.0" encoding="UTF-8"?>
<svg id="Layer_2" xmlns="http://www.w3.org/2000/svg" viewBox="0 0 274.83 94.39">
  <defs>
    <style>
      .cls-1 {
        fill: #fff;
      }
    </style>
  </defs>
  <g id="Layer_1-2" data-name="Layer_1">
    <g>
      <path class="cls-1" d="M251.57,70.73c-13.07,0-23.12-10.18-23.18-23.49-.06-13.24,10.11-23.61,23.24-23.69,13.25-.08,23.2,10.11,23.2,23.76,0,13.16-10.19,23.41-23.26,23.41ZM233.63,47.05c.17,1.4.27,2.82.53,4.2,2.37,12.56,16.68,18.88,27.2,11.85,6.73-4.49,8.9-11.18,7.98-19-1.03-8.76-8.61-15.68-17.27-15.82-10.45-.17-18.32,7.89-18.45,18.76Z"/>
      <path class="cls-1" d="M81.02,35c-.03.65-.09,1.3-.09,1.96,0,6.42,0,12.83,0,19.25,0,.62,0,1.23-.02,1.85-.05,1.46-.75,2.33-2.26,2.34-1.62,0-2.32-.93-2.34-2.47-.02-1.36,0-2.71,0-4.07,0-8.64.01-17.28-.01-25.91,0-1.31.13-2.54,1.53-3.05,1.5-.55,2.39.38,3.24,1.46,8.53,10.79,17.08,21.55,25.63,32.33.3.38.59.77.88,1.16.15-.05.31-.11.46-.16.04-.62.12-1.25.12-1.87,0-6.6,0-13.2,0-19.81,0-.49-.05-1,.04-1.48.26-1.38.92-2.46,2.5-2.5,1.32-.03,2.33,1.15,2.33,2.79.02,10.06,0,20.11.01,30.17,0,1.3-.4,2.29-1.72,2.73-1.36.45-2.19-.3-2.96-1.26-7.63-9.61-15.27-19.22-22.9-28.82-1.29-1.62-2.6-3.23-3.89-4.84-.18.07-.36.14-.54.21Z"/>
      <path class="cls-1" d="M171.3,23.42c4.7.29,8.96,1.52,12.88,3.93,1.69,1.04,2.2,2.49,1.35,3.84-.81,1.28-2.23,1.49-3.89.45-4.28-2.69-8.84-4.02-13.9-3-4.8.97-7.4,4.55-6.54,8.85.42,2.13,1.74,3.62,3.62,4.37,2.73,1.09,5.58,1.87,8.38,2.78,2.74.89,5.59,1.55,8.22,2.69,3.93,1.7,6.48,4.68,6.78,9.14.33,4.73-1.32,8.59-5.31,11.29-4.17,2.82-8.88,3.09-13.68,2.6-3.98-.41-7.65-1.82-11.02-3.96-.42-.26-.84-.52-1.22-.83-1.61-1.29-2.05-2.83-1.17-3.96.94-1.2,2.32-1.24,4.09.05,4.64,3.37,9.76,5.01,15.46,4.06,1.75-.29,3.59-1.06,5.02-2.11,4.06-2.98,3.65-9.12-.83-11.37-2.6-1.3-5.55-1.94-8.35-2.82-2.58-.81-5.26-1.35-7.74-2.38-5.32-2.2-7.66-5.75-7.56-10.9.1-4.99,3.05-9.24,8.09-11.06,2.33-.84,4.87-1.11,7.32-1.64Z"/>
      <path class="cls-1" d="M212.59,28.99v2.38c0,11.59,0,23.19,0,34.78,0,.61.02,1.25-.11,1.84-.31,1.32-1.26,2.03-2.56,1.94-1.35-.09-2.3-.86-2.36-2.36-.05-1.23-.1-2.46-.1-3.7,0-10.85,0-21.71,0-32.56,0-.72,0-1.44,0-2.32-3.83,0-7.4,0-10.96,0-.55,0-1.11-.02-1.66,0-1.56.05-2.56-.73-2.61-2.24-.05-1.53.95-2.37,2.48-2.37,10.23-.02,20.46-.02,30.7,0,1.5,0,2.5.73,2.47,2.36-.03,1.63-1.06,2.25-2.56,2.25-3.51,0-7.03,0-10.54,0-.66,0-1.32,0-2.17,0Z"/>
      <path class="cls-1" d="M18.49,47.12c4.58,5.76,9.06,11.4,13.54,17.04.46.58.96,1.13,1.38,1.74.87,1.27.73,2.54-.46,3.44-1.15.86-2.51.85-3.47-.34-5.83-7.24-11.61-14.52-17.49-21.89,2.29-2.9,4.5-5.69,6.71-8.48,3.33-4.2,6.65-8.41,9.99-12.6,1.5-1.89,2.84-2.23,4.19-1.13,1.25,1.02,1.2,2.46-.19,4.22-4.43,5.61-8.87,11.21-13.3,16.82-.27.34-.52.68-.9,1.19Z"/>
      <path class="cls-1" d="M5.07,47.37c0,6.53.05,13.06-.06,19.58-.01.89-.6,2.05-1.31,2.57-.55.41-1.88.33-2.51-.08-.63-.41-1.14-1.5-1.15-2.29C-.02,53.86,0,40.56.01,27.26c0-1.76.97-2.78,2.51-2.78,1.53,0,2.53,1.01,2.54,2.76.03,6.71.01,13.43.01,20.14Z"/>
      <path class="cls-1" d="M64.28,70.01c-6.1,0-12.19,0-18.29,0-.67,0-1.36-.03-2.01-.18-1.26-.29-2.06-1.25-1.7-2.41.25-.81,1.24-1.45,2.01-2.01.33-.24.96-.07,1.45-.07,12.38,0,24.75,0,37.13,0,.43,0,.86,0,1.29.02,1.3.08,2.08.81,2.19,2.07.12,1.36-.6,2.23-1.96,2.46-.6.1-1.22.12-1.83.12-6.1,0-12.19,0-18.29,0Z"/>
      <path class="cls-1" d="M124.43,28.99c-6.34,0-12.68,0-19.02,0-1.99,0-2.94-.72-3-2.2-.06-1.56.96-2.41,3-2.41,12.68-.01,25.37,0,38.05,0,2.12,0,3.08.75,3.08,2.32,0,1.57-.96,2.29-3.08,2.3-6.34,0-12.68,0-19.02,0Z"/>
      <path class="cls-1" d="M134.9,49.27c-2.96,0-5.91.02-8.87,0-1.96-.02-2.88-.81-2.85-2.36.03-1.51.97-2.25,2.95-2.25,5.85-.01,11.7-.01,17.55,0,1.93,0,2.9.82,2.83,2.35-.08,1.74-1.21,2.27-2.76,2.27-2.96,0-5.91,0-8.87,0Z"/>
      <path class="cls-1" d="M54.31,44.65c2.95,0,5.91-.02,8.86,0,1.81.01,2.69.79,2.71,2.29.02,1.51-.85,2.31-2.68,2.32-5.97.03-11.94.02-17.91,0-1.75,0-2.75-.9-2.76-2.3,0-1.41,1.01-2.3,2.73-2.31,3.02-.02,6.03,0,9.05,0Z"/>
      <path class="cls-1" d="M54.2,28.99c-2.89,0-5.78,0-8.68,0-1.94,0-2.94-.77-2.98-2.24-.04-1.46,1.01-2.37,2.87-2.38,5.91-.02,11.82,0,17.72,0,1.54,0,2.68.51,2.75,2.27.06,1.56-.88,2.34-2.82,2.35-2.95.02-5.91,0-8.86,0Z"/>
      <path class="cls-1" d="M134.85,65.33c3.01,0,6.03.02,9.04,0,1.51-.02,2.53.53,2.64,2.15.1,1.48-.83,2.35-2.61,2.36-6.03.03-12.06.03-18.08,0-1.83,0-2.72-.83-2.63-2.33.09-1.62,1.09-2.19,2.61-2.18,3.01.02,6.03,0,9.04,0Z"/>
      <path class="cls-1" d="M113.03,9.85c0,2.27-.03,4.55,0,6.82.02,1.6-.73,2.71-2.26,2.85-1.51.14-2.48-.94-2.51-2.37-.11-4.91-.13-9.83-.03-14.74.03-1.38.99-2.52,2.52-2.4,1.57.13,2.28,1.26,2.28,2.83-.01,2.34,0,4.67,0,7.01Z"/>
      <path class="cls-1" d="M80.92,84.71c0,2.34-.01,4.68,0,7.02.01,1.54-.72,2.48-2.23,2.65-1.31.14-2.37-1.08-2.38-2.69-.02-4.74,0-9.48-.02-14.22,0-1.58.83-2.44,2.26-2.67,1.27-.2,2.33,1.06,2.36,2.7.04,2.4.01,4.8,0,7.2Z"/>
    </g>
  </g>
</svg>