<?xml version="1.0" encoding="UTF-8"?>
<svg id="Layer_2" xmlns="http://www.w3.org/2000/svg" viewBox="0 0 337.99 70.4">
  <defs>
    <style>
      .cls-1 {
        fill: #fff;
      }
    </style>
  </defs>
  <g id="Layer_1-2" data-name="Layer_1">
    <g>
      <path class="cls-1" d="M125.59,69.42c-.82-8.78-1.63-17.45-2.49-26.67-2.87,9.22-5.59,17.93-8.32,26.69h-10.12c-2.56-8.69-5.62-17.32-7.62-26.3-.97,2.06-.44,4.26-.73,6.36-.32,2.24-.55,4.49-.77,6.74-.22,2.17-.36,4.36-.58,6.53-.22,2.16-.5,4.31-.77,6.68-5.52.24-10.87.09-16.56.11,2.59-16.39,5.12-32.45,7.7-48.76,5.92,0,11.67-.02,17.67.02,2.24,8.65,4.42,17.07,6.6,25.49.19,0,.37,0,.56,0,1.45-8.61,4.33-16.82,6.7-25.45,5.81-.09,11.48-.05,17.37-.03,2.4,13.41,4.31,26.67,6.72,39.92,2.54-6.49,4.69-13.11,6.94-19.68,2.28-6.64,4.54-13.29,6.75-19.76,2.03-.6,16.5-.69,19.28-.14,5.55,15.89,11.15,31.94,16.76,48-1.76.5-14.94.61-18.05.16-.53-1.82-1.09-3.73-1.66-5.7h-13.05c-.53,1.97-1.02,3.83-1.55,5.81h-30.77ZM167.91,52c-1.11-5.06-2.17-9.89-3.23-14.73-.2,0-.4,0-.6,0-1.16,4.84-2.12,9.73-3.19,14.73h7.02Z"/>
      <path class="cls-1" d="M256.07,69.43h-16.39c-.46-1.78-.58-45.29-.16-48.11,1.53-.63,13.24-.82,16.61-.18,2.47,4.31,5.06,8.85,7.68,13.37,2.57,4.44,5.16,8.86,8.04,13.18-.37-4.35-.88-8.7-1.06-13.07-.18-4.44-.04-8.9-.04-13.26,1.8-.67,12.67-.85,16.28-.31.29,2.72.1,5.51.13,8.29.04,2.82,0,5.63,0,8.45v17.14c0,2.81,0,5.62,0,8.43,1.69-2.53,2.32-5.44,3.36-8.18,1.06-2.77,1.86-5.64,2.81-8.45.97-2.89,1.99-5.76,2.99-8.64.97-2.81,1.97-5.6,2.93-8.41.98-2.86,1.93-5.74,2.95-8.81,6.36-.14,12.51-.04,18.52-.07,1.11,1.58,16.69,45.57,17.28,48.64h-17.85c-.57-1.83-1.16-3.74-1.84-5.94-4.23-.04-8.49-.08-12.94.05-.53,1.97-1.03,3.83-1.52,5.66-1.76.45-30.42.56-33.3.1-4.94-8.27-9.97-16.69-15.01-25.1-.12.05-.25.1-.37.15.3,4.12.72,8.24.87,12.37.15,4.13.03,8.28.03,12.72ZM315.37,52.02c-1.14-5.12-2.21-9.91-3.28-14.69-1.86,4.73-2.81,9.61-3.66,14.69h6.94Z"/>
      <path class="cls-1" d="M235.29,32.65c-5.17,1.95-10.35,3.9-15.52,5.86-.23-.14-.48-.22-.61-.38-1.99-2.59-4.63-3.73-7.82-3.14-3.66.68-6.16,2.85-7.35,6.45-1.01,3.06-1.16,6.06-.11,9.18,1.56,4.63,7.33,8.31,12.93,4.8,1-.63,1.91-1.35,2.21-2.71-1.12-.89-2.4-.4-3.58-.47-1.16-.08-2.33-.02-3.42-.02-.64-1.81-.73-8.66-.17-11.14h25.78c.52,2.28.29,4.55.16,6.77-.38,6.35-2.71,11.86-7.68,16.01-4.17,3.48-8.98,5.52-14.41,6.26-5.51.75-10.77.03-15.78-2.22-7.94-3.56-12.61-9.62-13.82-18.38-.51-3.72-.31-7.31.56-10.91,2.06-8.55,7.42-14.21,15.66-16.88,9.46-3.07,18.51-1.74,26.92,3.62,2.77,1.77,5.18,4.65,6.06,7.3Z"/>
      <path class="cls-1" d="M48.27,69.85h-18.27c-1.18-3.17-2.38-6.29-3.5-9.44-1.68-4.7-3.29-9.43-4.96-14.14-2.01-5.67-4.02-11.33-6.08-16.97-.4-1.1-.42-2.09.03-3.17.71-1.72,1.33-3.47,1.99-5.22h13.39c5.77,16.23,11.51,32.38,17.4,48.94Z"/>
      <path class="cls-1" d="M69.25,69.83h-18.35c-4.99-14.04-9.98-28.06-14.97-42.08.82-2.27,1.62-4.46,2.39-6.6,1.85-.49,11.02-.57,13.58-.09,5.7,16.04,11.45,32.19,17.34,48.77Z"/>
      <path class="cls-1" d="M26.85,69.57c-1.65.54-24.54.62-26.85.07,4.45-12.44,8.89-24.87,13.37-37.42,1.14,1.5,12.97,34.46,13.47,37.35Z"/>
      <path class="cls-1" d="M47.66,9.19c-.05,5.29-3.99,9.16-9.05,9.03-5.16-.13-8.5-4.13-8.72-9C29.66,4.34,34.06.06,38.92,0c3.73-.04,8.93,3.58,8.74,9.18Z"/>
    </g>
  </g>
</svg>