<?xml version="1.0" encoding="UTF-8"?>
<svg id="Layer_2" xmlns="http://www.w3.org/2000/svg" viewBox="0 0 340.67 126.56">
  <defs>
    <style>
      .cls-1 {
        stroke-width: 4px;
      }

      .cls-1, .cls-2 {
        fill: none;
        stroke: #fff;
        stroke-miterlimit: 10;
      }

      .cls-3, .cls-4 {
        fill: #fff;
      }

      .cls-2 {
        stroke-width: 2px;
      }

      .cls-4 {
        font-family: ArialMT, Arial;
        font-size: 20.84px;
      }
    </style>
  </defs>
  <g id="Layer_1-2" data-name="Layer_1">
    <g>
      <path class="cls-1" d="M66.86,38.45c.04,18.13-14.46,32.84-32.38,32.85-17.96.01-32.47-14.61-32.48-32.75-.02-17.99,14.69-32.99,32.39-33.03,17.71-.04,32.43,14.89,32.48,32.93Z"/>
      <path class="cls-3" d="M34.56,9.07c.79.03,1.59.03,2.37.11,6.98.77,7.94,2.32,5.31,8.76-1.69,4.15-3.45,8.26-5.18,12.39-.55,1.32-.82,3.08-2.55,3.16-2.07.1-2.26-1.94-2.84-3.32-2-4.73-3.73-9.59-5.9-14.24-1.64-3.52-.42-5.13,2.93-6.06,1.93-.53,3.86-.85,5.86-.81Z"/>
      <path class="cls-3" d="M31.26,33.16c-.24,1.91-1.28,2.35-2.8,1.72-5.85-2.43-11.69-4.89-17.52-7.37-1.6-.68-1.55-1.93-1.02-3.31,1.97-5.1,5.55-8.56,10.63-10.54,1.14-.44,2.21-.56,2.72.62,2.73,6.29,5.35,12.63,7.98,18.87Z"/>
      <path class="cls-3" d="M59.24,51.84c-.26,4.05-7.46,11.32-11.5,11.66-1.61.14-2.36-.69-2.92-2.08-2.16-5.4-4.4-10.77-6.62-16.15-.41-1-.85-2.02.1-2.93.81-.78,1.72-.43,2.59-.07,5.49,2.3,10.98,4.59,16.46,6.91,1.15.49,2.1,1.18,1.88,2.66Z"/>
      <path class="cls-3" d="M59.18,24.95c.28,1.86-.75,2.42-1.89,2.9-5.47,2.3-10.93,4.59-16.4,6.88-.86.36-1.76.75-2.59-.02-.99-.91-.5-1.91-.09-2.89,2.2-5.36,4.45-10.7,6.56-16.1.86-2.2,2.06-2.77,4.25-1.8,5.13,2.27,8.58,5.98,10.16,11.03Z"/>
      <path class="cls-3" d="M63.26,39.25s.05.66,0,1.32c-.59,6.98-2.24,8-8.54,5.36-4.26-1.78-8.53-3.54-12.79-5.33-.97-.41-2.13-.78-2.23-2-.1-1.29,1.08-1.72,2.03-2.12,5.47-2.32,10.96-4.56,16.42-6.89,1.7-.73,2.73-.25,3.5,1.36,1.16,2.43,1.82,4.94,1.62,8.3Z"/>
      <path class="cls-3" d="M29.32,41.87c1.59.12,2.31.92,1.62,2.6-2.4,5.85-4.82,11.68-7.23,17.53-.74,1.8-2.12,1.8-3.6,1.19-5.04-2.06-8.48-5.65-10.29-10.8-.48-1.36-.15-2.38,1.14-2.93,5.81-2.48,11.65-4.91,17.48-7.35.24-.1.51-.14.88-.23Z"/>
      <path class="cls-3" d="M34.82,67.68c-1.49-.11-2.42-.12-3.33-.24-6.19-.81-6.99-2.12-4.69-7.77,1.74-4.27,3.49-8.54,5.26-12.8.49-1.19.73-2.82,2.29-2.92,1.69-.12,1.89,1.6,2.38,2.76,1.95,4.61,3.85,9.24,5.73,13.88,1.73,4.26,1.28,5.26-3.12,6.42-1.64.44-3.37.51-4.52.67Z"/>
      <path class="cls-3" d="M9.63,29.24c1.15.46,2.38.93,3.6,1.43,4.52,1.87,9.04,3.74,13.55,5.64,1.09.46,2.36.89,2.24,2.4-.1,1.27-1.3,1.58-2.24,1.98-5.24,2.21-10.49,4.38-15.73,6.58-1.7.72-3.11.63-3.91-1.28-2.11-5.01-2.15-10.04.06-15.02.69-1.55,1.23-1.78,2.44-1.75Z"/>
      <g>
        <path class="cls-2" d="M92.79,1c3.66,0,6.73.41,9.18,1.22s4.44,2.17,5.93,4.08c1.5,1.94,2.56,4.51,3.19,7.72.62,3.2.94,7.2.94,11.98s-.31,8.83-.94,12.03c-.63,3.2-1.67,5.78-3.12,7.72-1.5,1.94-3.48,3.32-5.93,4.13s-5.52,1.22-9.18,1.22-6.73-.41-9.18-1.22-4.43-2.19-5.93-4.13c-1.5-1.94-2.56-4.51-3.19-7.72-.62-3.2-.94-7.22-.94-12.03s.31-8.78.94-11.98c.63-3.2,1.69-5.78,3.19-7.72,1.46-1.91,3.41-3.27,5.87-4.08,2.46-.81,5.52-1.22,9.18-1.22ZM92.75,44.77c1.84,0,3.39-.22,4.67-.65,1.27-.43,2.33-1.31,3.16-2.63.79-1.32,1.38-3.21,1.75-5.69.38-2.48.56-5.74.56-9.8s-.19-7.25-.56-9.69c-.38-2.44-.96-4.34-1.75-5.69-.84-1.32-1.89-2.19-3.16-2.63-1.27-.43-2.83-.65-4.67-.65s-3.34.22-4.64.65c-1.29.43-2.34,1.31-3.13,2.63-.84,1.35-1.44,3.25-1.82,5.69-.38,2.44-.56,5.67-.56,9.69s.19,7.32.56,9.8c.38,2.48.98,4.38,1.82,5.69.79,1.32,1.84,2.19,3.13,2.63,1.3.43,2.84.65,4.64.65Z"/>
        <path class="cls-2" d="M127.71,30.37v19.8h-9.18V1.52h19.59c5.59,0,9.75,1.24,12.48,3.72,2.73,2.48,4.1,6.04,4.1,10.68-.13,3.22-.82,5.93-2.1,8.11-1.27,2.18-3.29,3.83-6.04,4.94l10.45,21.21h-9.2l-9.71-19.8h-10.4ZM137.77,24.08c2.46,0,4.39-.65,5.81-1.95s2.12-3.35,2.12-6.16-.71-4.74-2.12-6.11c-1.42-1.37-3.35-2.05-5.81-2.05h-10.06v16.27h10.06Z"/>
        <path class="cls-2" d="M157.2,50.17L176.44,1.52h10.31l19.37,48.65h-8.81l-4.31-10.97h-22.74l-4.25,10.97h-8.81ZM190.49,32.97l-8.93-22.92-8.87,22.92h17.8Z"/>
        <path class="cls-2" d="M252.41,1.57v48.6h-12.49l-21.41-39.4c-.09-.16-.34-.1-.34.09v39.32h-8.87V1.57h12.87l21.43,39.56V1.57h8.81Z"/>
        <path class="cls-2" d="M277.96,24.75h20.18v10.4c0,2.05-.31,4.02-.94,5.93s-1.65,3.6-3.07,5.09c-1.46,1.49-3.37,2.69-5.73,3.59s-5.29,1.35-8.79,1.35c-3.84,0-7.04-.39-9.61-1.17s-4.62-2.12-6.16-4.03c-1.54-1.94-2.64-4.52-3.29-7.75-.65-3.22-.97-7.28-.97-12.16s.33-8.94,1-12.16c.67-3.22,1.79-5.79,3.38-7.69,1.54-1.87,3.6-3.2,6.16-3.98,2.57-.78,5.73-1.17,9.48-1.17s6.64.44,8.92,1.32c2.27.88,4.08,2.04,5.41,3.46,1.29,1.46,2.22,3.1,2.78,4.94.56,1.84.95,3.71,1.16,5.61h-9c-.21-1.59-.52-2.95-.94-4.08-.42-1.13-.98-2.05-1.69-2.78-.71-.73-1.62-1.26-2.73-1.61-1.11-.35-2.48-.52-4.1-.52-1.8,0-3.37.19-4.73.57-1.36.38-2.48,1.21-3.35,2.5-.92,1.32-1.61,3.21-2.07,5.67-.46,2.46-.69,5.77-.69,9.93s.23,7.42.69,9.88c.46,2.46,1.15,4.35,2.07,5.67.88,1.32,1.99,2.17,3.35,2.57,1.36.4,2.93.6,4.73.6,3.26,0,5.69-.74,7.3-2.21,1.61-1.47,2.41-3.92,2.41-7.36v-4.11h-11.18v-6.29Z"/>
        <path class="cls-2" d="M338.74,1.52v6.29h-24.93v14.92h23.55v6.29h-23.55v14.87h25.61v6.29h-34.61V1.52h33.92Z"/>
      </g>
      <g>
        <path class="cls-3" d="M78.86,55.05l6.78,14.65,6.82-14.65h5.98l-9.62,19.49h-6.47l-9.48-19.49h5.98Z"/>
        <path class="cls-3" d="M98.93,55.03h5.98v19.51h-5.98v-19.51Z"/>
        <path class="cls-3" d="M112.5,69.22c0,.83.44,1.47,1.33,1.94.89.47,2.14.7,3.78.7,1.52,0,2.72-.21,3.62-.63s1.33-1.03,1.31-1.82c0-.45-.16-.84-.49-1.15s-.73-.57-1.22-.79c-.51-.21-1.07-.39-1.66-.55s-1.17-.31-1.73-.44l-3.29-.8c-2.26-.55-4.06-1.29-5.4-2.21-1.34-.92-2.01-2.06-2.01-3.42,0-.8.22-1.52.65-2.17.43-.65,1.08-1.2,1.94-1.65.86-.45,1.94-.8,3.24-1.04s2.79-.36,4.49-.36c3.59,0,6.23.43,7.92,1.29,1.69.86,2.53,2.08,2.53,3.66v.91h-5.91v-.89c0-.59-.4-1.07-1.21-1.42-.8-.36-1.89-.54-3.27-.54-1.24,0-2.28.18-3.13.56-.85.37-1.28.92-1.28,1.65,0,.34.13.66.4.96.27.3.64.57,1.1.81.47.25,1.01.48,1.64.68.63.21,1.32.4,2.06.58l3.25.78c.93.23,1.84.51,2.73.83.89.32,1.67.69,2.34,1.11.65.43,1.18.92,1.59,1.47.41.56.61,1.19.61,1.89,0,1.8-.9,3.21-2.71,4.22-1.81,1.01-4.54,1.52-8.2,1.52-2.08,0-3.81-.15-5.19-.45s-2.5-.72-3.34-1.24c-.84-.52-1.44-1.13-1.8-1.83-.36-.69-.54-1.43-.54-2.2v-.93h5.84v.97Z"/>
        <path class="cls-3" d="M150.07,55.03v3.01h-13.47v5.24h12.69v3.03h-12.69v5.24h13.85v3.01h-19.73v-19.53h19.34Z"/>
        <path class="cls-3" d="M160.17,64.79c0-1.94.19-3.55.58-4.83.38-1.28,1.02-2.3,1.91-3.05s2.05-1.29,3.5-1.6c1.45-.31,3.22-.46,5.32-.46s3.76.18,5.07.53c1.31.35,2.33.81,3.08,1.39.75.59,1.28,1.27,1.61,2.02.33.76.56,1.53.7,2.33h-5.87c-.23-1.2-.73-2.04-1.49-2.52-.76-.48-1.81-.72-3.17-.72-.89,0-1.66.08-2.33.23-.66.15-1.22.47-1.66.95-.44.49-.78,1.2-1,2.1s-.33,2.12-.33,3.63.11,2.71.33,3.63.55,1.64,1,2.15c.44.51,1,.85,1.66,1.03.67.18,1.44.27,2.33.27.7,0,1.32-.06,1.87-.18.55-.12,1.02-.33,1.42-.62.4-.29.72-.67.98-1.15.26-.48.44-1.08.56-1.79h5.88c-.14.94-.37,1.82-.68,2.64-.32.83-.86,1.55-1.63,2.17-.77.62-1.82,1.11-3.15,1.46s-3.05.54-5.18.54-3.94-.15-5.39-.46c-1.45-.31-2.6-.85-3.46-1.62-.89-.78-1.52-1.83-1.89-3.13-.37-1.3-.56-2.94-.56-4.92Z"/>
        <path class="cls-3" d="M195.15,54.82c2.05,0,3.78.16,5.18.48,1.4.32,2.53.86,3.39,1.63.84.77,1.44,1.8,1.8,3.08.36,1.29.54,2.9.54,4.84s-.18,3.58-.54,4.87c-.36,1.29-.96,2.32-1.8,3.09-.86.77-1.99,1.31-3.39,1.63-1.4.32-3.12.47-5.18.47s-3.81-.16-5.19-.48c-1.39-.32-2.51-.87-3.38-1.64-.86-.78-1.47-1.82-1.84-3.11-.36-1.29-.54-2.91-.54-4.85s.19-3.55.56-4.84c.37-1.29.99-2.31,1.85-3.08.84-.76,1.96-1.29,3.36-1.61,1.4-.32,3.12-.48,5.18-.48ZM195.11,71.88c.86,0,1.6-.09,2.22-.27.62-.18,1.14-.52,1.56-1.03.4-.51.69-1.22.89-2.15s.3-2.12.3-3.59-.09-2.64-.26-3.56c-.17-.91-.45-1.63-.82-2.13-.4-.51-.91-.85-1.54-1.03-.63-.18-1.4-.27-2.31-.27s-1.68.09-2.31.27c-.63.18-1.14.52-1.54,1.03-.42.51-.72,1.22-.91,2.12-.19.91-.28,2.09-.28,3.55s.11,2.67.32,3.59.52,1.64.94,2.15c.42.52.94.87,1.56,1.05.62.18,1.35.27,2.19.27Z"/>
        <path class="cls-3" d="M238.48,55.03v19.51h-5.7v-12.13l-5.7,12.13h-6.22l-5.7-12.21v12.21h-5.7v-19.51h8.18l6.37,14.17,6.22-14.17h8.25Z"/>
        <path class="cls-3" d="M252.48,55.03c3.23,0,5.62.51,7.16,1.53s2.31,2.45,2.31,4.29-.79,3.26-2.36,4.29c-1.57,1.03-3.92,1.55-7.06,1.55h-4.61v7.86h-5.98v-19.51h10.54ZM252.29,63.65c1.14,0,2.07-.22,2.78-.67s1.07-1.15,1.07-2.11-.36-1.62-1.08-2.1c-.72-.48-1.66-.72-2.8-.72h-4.34v5.61h4.37Z"/>
        <path class="cls-3" d="M279.85,70.34h-11.58l-2.31,4.21h-5.88l10.98-19.51h6.02l10.95,19.51h-5.81l-2.38-4.21ZM269.88,67.39h8.32l-4.2-7.53-4.13,7.53Z"/>
        <path class="cls-3" d="M313.39,55.05v19.49h-7.6l-11.11-14.23v14.23h-5.81v-19.49h7.8l10.91,14.01v-14.01h5.81Z"/>
        <path class="cls-3" d="M313.88,55.05h6.16l7.2,8.05,7.17-8.05h6.26l-10.39,11.18v8.31h-5.98v-8.25l-10.42-11.24Z"/>
      </g>
    </g>
    <text class="cls-4" transform="translate(201.13 119.79)"><tspan x="0" y="0"> </tspan></text>
    <text class="cls-4" transform="translate(316.57 115.79)"><tspan x="0" y="0"> </tspan></text>
  </g>
</svg>