<?xml version="1.0" encoding="UTF-8"?>
<svg id="Layer_2" xmlns="http://www.w3.org/2000/svg" viewBox="0 0 460.64 176.83">
  <defs>
    <style>
      .cls-1 {
        fill: #fff;
        fill-rule: evenodd;
      }
    </style>
  </defs>
  <g id="Layer_1-2" data-name="Layer_1">
    <path class="cls-1" d="M404.11,123.36v-17.7s3.67-23.76-28.76-22.09c-31.78-.98-30.8,16.06-31.12,33.42,0,19.09,3.34,32.46,28.76,31.43h31.12v-21.03h-31.12v-23.39h4.36v19.36h26.77M284.33,56.82v91.93h26.11v-22.7l11.38,22.38h29.09l-19.42-33.09,18.06-31.07h-27.74l-11.7,22.04v-49.48h-25.78ZM450.61,84.26v21.73h-15.05v42.43h-26.44v-46.46s.32-17.7,19.74-17.7c0,0,21.74,0,21.74,0ZM280.66,84.26v21.73h-15.05v42.43h-26.43v-46.46s.32-17.7,19.74-17.7c0,0,21.74,0,21.74,0ZM179.98,84.26h33.45s21.04-1.35,21.04,17.7v46.46h-39.44s-23.74,3.02-23.74-19.74c0-20.37,19.04-18.01,23.74-18.01h8.37v19.03h5.02v-23.72h-28.44v-21.73ZM97.33,110.31v38.11h36.15v-16.71h8.68s34.47,1.67,34.47-37.1-27.08-38.76-35.12-38.76h-44.18v24.05h42.83v30.41h-42.83ZM0,0h460.64v176.83H0v-71.17h135.47v-21.07H0V0Z"/>
  </g>
</svg>