<?xml version="1.0" encoding="UTF-8"?>
<svg id="Layer_2" xmlns="http://www.w3.org/2000/svg" viewBox="0 0 314.03 78.56">
  <defs>
    <style>
      .cls-1 {
        fill: #fff;
      }
    </style>
  </defs>
  <g id="Layer_1-2" data-name="Layer_1">
    <g id="Layer_x5F_1">
      <g id="_2889137920160">
        <path class="cls-1" d="M1.92,18.69c0,2.51,1.87,3.15,3.48,4.03l9.88,5.16c1.7.75,3.3,1.8,4.96,2.71.92.5,1.55.69,2.48,1.2l9.71,5.34c1.4.77,6.68,3.12,7.43,4.23-.33.49-.69.73-1.17,1.14-.79.67-.65.53-1.8.77-2.1.43-6.69-2.33-8.86-3.42l-6.69-3.23c-1.92-1.01-7.31-4.03-9.26-4.03l-7.25,4.43c-1.88,1.12-2.24,4.19-.41,5.5.66.47,1.21.77,1.97,1.16l8.16,4.33c.69.38,1.26.69,2.02,1.11l10.18,5.44c11.42,6.28,8.07,4.85,21.9-2.02l16.5-8.47c2.65-1.46,3.3-.85,3.3-4.53,0-2.8-4.6-3.83-8.61-5.95l-17.4-8.38c-.98-.43-1.4-.73-2.48-1.21-1.74-.77-8.79-4.61-10.01-4.72v-.6c1.55-.4,2.18-1.51,4.12-1.51,1.55,0,2.25.75,3.33,1.18,2.78,1.11,4.68,1.39,7.22-.17,3.88-2.39,8.43-3.95,8.43-6.45,0-1.73-.5-2.75-1.59-3.39C49.6,7.23,35.28.03,34.33,0L2.57,16.67c-.18.25-.64,1.69-.64,2.01h0Z"/>
        <path class="cls-1" d="M36.02,64.35c-2.63,0-7-2.68-9.44-3.83-3.5-1.65-24.89-12.34-26.59-12.5v29.67c0,.66.19.87.8.88h69.36c.61,0,.8-.22.8-.91v-31.15c0-1.36-1.06-.63-1.84-.21-.84.45-1.36.75-2.2,1.22l-13.11,7.36c-3.04,1.67-5.76,3.16-8.8,4.84-1.58.87-2.82,1.55-4.4,2.42-.99.54-3.57,2.22-4.58,2.22h0Z"/>
        <path class="cls-1" d="M218.62,50.13l-10.1-15.81c-1.34-1.93-1.68-2.64-4.2-2.64-.59.96-1.1,1.69-1.1,3.33,0,3.94-.36,16.05.27,19.05,1.58.4,2.06.58,3.57-.3v-14.21c.74.54.88,1.05,1.37,1.82l2.55,3.84c.54.78.84,1.35,1.37,2.12l2.57,3.83c1.1,1.66,1.55,3.21,3.68,3.21,1.85,0,2.77-1.82,3.58-3.02l6.6-9.98c.27-.42.37-.56.7-1.04.52-.75.09-.52.95-.77v14.51l3.02.3c.29-.59.55-.89.55-1.81v-20.26c0-1.94-3.52-.47-4.96,1.81l-3.35,5.39c-.37.6-.46.69-.82,1.21l-2.59,4.11c-.65,1.05-2.98,4.8-3.69,5.32h0Z"/>
        <path class="cls-1" d="M86.35,36.53c0,3.88-.51,6.09,3.46,7.08,9.21,2.3,18.26-1.83,18.26,3.8,0,.6-.56,1.95-.88,2.36-1.56,1.98-5.66,1.27-8.47,1.27h-6.33c-.98,0-5.5-.44-5.5,1.21,0,1.45.93,2.12,2.2,2.12h14.85c8.35,0,7.42-3.03,7.42-9.07,0-4.76-6.35-4.54-9.62-4.54-2.29,0-4.58,0-6.87,0-3.85,0-4.67.12-4.67-3.33s4.76-2.42,8.53-2.42h10.72c.86-1.09.83-.77.83-2.12,0-.71-.46-1.21-1.1-1.21-4.44,0-16.54-.44-20.25.72-1.67.52-2.58,1.93-2.58,4.12h0Z"/>
        <path class="cls-1" d="M294.24,40.76v-5.14c2.15-1.13,10.65-.6,13.47-.6,2.39,0,1.92,2.34,1.92,5.14-1.17.86-1.37.92-3.3.91-2.26-.01-6.34-.11-8.31.24-1.63.29-2.79-.01-3.79-.54h0ZM290.11,32.6l.27,20.56c1.53,1.13.62,1.21,3.3,1.21.96-1.99.55-6.8.55-9.37,2.09-1.22,6.83-.58,9.07-.29,1.88.24,3.56,4.76,4.41,6.64,1.19,2.64,2.27,3.98,5.23,2.42-.48-2.26-3.56-6.72-4.12-9.37,5.1-.47,7.4-8.21,2.53-11.55-1.62-1.11-4.36-.85-6.93-.85l-11.27-.3c-1.31,0-3.02-.46-3.02.91h0Z"/>
        <path class="cls-1" d="M126.77,31.69c-.73,3.43-.28,8.44-.27,12.4,0,8.26-1.82,10.28,3.02,10.28.46-.76.8-1.08.84-2.4l.08-6.86c.37-.71,5.05-1.52,7.39.73.53.51.62.96,1.24,1.65,3.5,3.86,3.79,8.02,9.42,6.57l-1.43-2.06c-.34-.47-.17-.36-.57-.88l-6.25-8.54c1.04-2.17,2.74-3.36,4.02-5.26.82-1.22,1.26-1.48,2.11-2.52.75-.91,1.77-2.05,1.85-3.1-3.79,0-3.68-.37-6.4,2.64l-1.86,2.49c-1.27,2.01-1.28,2.49-3.29,3.64-1.38.79-6.03,1.72-6.33-.61-.68-5.19,1.6-8.47-1.65-8.47-.94,0-1.07.2-1.92.3h0Z"/>
        <path class="cls-1" d="M247.77,54.06c2.13.55,3.35.68,4.51-1.08.36-.54.42-.52.71-1.04l9.08-15.72c1.13.83,4.42,7.3,5.61,9.25,1.18,1.94,4.51,8.89,5.94,8.89,1.99,0,1.82-.27,3.02-.3-.24-1-6.08-10.63-6.71-11.67-.61-1.01-.99-1.79-1.59-2.78-2.96-4.87-5.32-11.46-8.48-6.42-1.76,2.81-11.8,19.65-12.09,20.87h0Z"/>
        <path class="cls-1" d="M160.59,54.06c3.02.28,3.13,1.46,6.05-3.33l5.5-9.68c.51-.84.9-1.5,1.38-2.41.84-1.58,1.09-1.27,1.37-2.43l8.62,14.42c2.56,4.94,3.59,3.64,5.96,3.43l-10.06-17.66c-4.31-7.1-4.55-6.42-8.47,0l-10.34,17.66h0Z"/>
      </g>
    </g>
  </g>
</svg>