<?xml version="1.0" encoding="UTF-8"?>
<svg id="Layer_2" xmlns="http://www.w3.org/2000/svg" viewBox="0 0 145.34 69.32">
  <defs>
    <style>
      .cls-1 {
        fill: #fff;
      }
    </style>
  </defs>
  <g id="Layer_1-2" data-name="Layer_1">
    <g id="Layer_x5F_1">
      <g id="_2889515316784">
        <path class="cls-1" d="M74.47,24.19c.18.48,5.57,5.68,6.39,6.53.53.55.72.44,1.66.44h6.49c1.68,0,2.72-.35,2.71,1.56,0,1.28.22,7.82-.21,8.44-.48.69-2.91.41-3.87.41h-8.59c-1.56,0-1.11.08-2.74-1.53-2.51-2.47-5.04-5.13-7.54-7.54-.21-.2-.35-.34-.55-.55-.27-.28-.27-.41-.71-.42-.1,1.64.22,8.46-.07,9.35-.32,1-2.29.69-3.93.69h-4.75c-3.93,0-3.37.8-3.37-6.01,0-.79,0-1.58,0-2.38,0-.84-.11-1.52.5-1.86,1.25-.7,1.21.85,1.21-3.53,0-.76,0-1.52,0-2.29,0-1.31-.12-.98-1.06-1.3-.71-.24-.65-.82-.65-1.71v-7.13c-.02-1.88.99-1.49,3.27-1.49h7.04c.81,0,1.47,0,1.73.68.26.67-.14,8.16.11,9.4.38-.03,1.45-1.26,1.77-1.59l5.16-5.17c.45-.45,2.98-3.18,3.57-3.29.55-.1,5.83-.03,6.85-.03,3.8,0,3.34-.23,3.34,3.51,0,4.13.93,3.44-6.72,3.44-4.33,0-3.11-.46-5.32,1.65-.58.55-1.25,1.19-1.72,1.72h0ZM107.72,17.42c-.68.25-.45,1.53-.45,2.33,0,.94,0,1.89,0,2.83,0,2.02-.33,1.63,4.04,1.67,1.61.01.74-.65,1.38-1.38.45-.52,1.65-.33,2.46-.33,1.89,0,3.78,0,5.67,0,.86,0,1.73-.1,1.97.73.09.33.11,5.21-.02,5.56-.29.79-1.18.67-2.13.67-1.86,0-3.72,0-5.57,0-.8,0-1.92.2-2.4-.4-1.06-1.33,1.43-1.32-4.28-1.35-1.36,0-1.1.57-1.11,1.78,0,.4-.09.95.09,1.3.2.4.62.28,1.02.45.74.32.63,1.3.63,2.18,0,9.16.61,8.11-3.1,8.11-.72,0-8,.06-8.35-.05-.8-.26-.69-1.18-.69-2.12,0-1.89,0-3.78,0-5.67,0-.89-.19-1.92.46-2.37.84-.57,1.3.31,1.29-1.56,0-.89.26-4.9-.25-5.34-.48-.42-1.45.1-1.5-1.33l.02-8.39c.14-.93,1.04-.88,1.99-.88,2.65,0,33.04-.15,33.67.09.82.31.64,1.26.64,2.14,0,.91,0,1.83,0,2.74,0,2.71-.41,1.98-6.44,1.98-1.86,0-3.72,0-5.57,0-.94,0-1.73.03-1.82-.98-.07-.76.28-2.14-.43-2.41-.33-.12-10.9-.12-11.21,0h0ZM19.81,13.94c.66-.22,20.3-.08,24.25-.08,1.11,0,2.35-.24,2.66.74.12.38.05,2.82.05,3.41,0,3.53.6,2.8-7.55,2.8-1.07,0-2.47.26-2.78-.66-.31-.93.41-2.63-.7-2.78-.82-.11-2.55,0-3.47,0-3.34,0-2.8-.55-2.8,4.02,0,3.6-1.06,2.86,7.55,2.85h10.42c1.07,0,2.39-.19,2.7.66.22.59.07,12.19.07,13.85,0,1.04.28,2.52-.73,2.77-.51.13-28.14.04-31.11.04-3.48,0-2.75.49-2.75-7.56,0-1.11-.27-2.46.7-2.77.56-.18,5.85-.06,6.89-.06,3.21,0,2.81-.23,2.8,4.12,0,.58,0,1.16,0,1.74,0,.59.05,1,.67,1.07.85.09,10.11,0,12.06.01.62,0,.97-.07,1.05-.65v-6.92c0-1.59.28-2.68-.68-2.78h-17.28c-1.08,0-2.41.25-2.72-.72-.14-.44-.05-8.74-.05-10.39,0-1.12-.29-2.36.73-2.7ZM.05,55.43h145.26c.02-10.68.03-21.36,0-32.02-.02-5.33.01-10.66,0-15.99,0-2.92,0-4.58-1.83-6.13-1.93-1.63-3.91-1.25-6.77-1.25H8.78C5.79.04,1.62-.57.29,3.5-.08,4.65.04,6.06.04,7.32v31.98c0,5.35-.1,10.78,0,16.12h0Z"/>
        <path class="cls-1" d="M.06,58.85c-.1,1.64-.03,3.56-.02,5.22.02,3.08,2.2,5.18,5.26,5.19h129.68c3.52,0,6.79.57,8.84-1.56.81-.84,1.46-2.05,1.49-3.72.03-1.61.07-3.52-.01-5.14H.06s0,0,0,0Z"/>
      </g>
    </g>
  </g>
</svg>