<?xml version="1.0" encoding="UTF-8"?>
<svg id="Layer_2" xmlns="http://www.w3.org/2000/svg" viewBox="0 0 240.71 86.83">
  <defs>
    <style>
      .cls-1, .cls-2 {
        fill: #fff;
      }

      .cls-2 {
        stroke: #fff;
        stroke-miterlimit: 10;
      }
    </style>
  </defs>
  <g id="Layer_1-2" data-name="Layer_1">
    <g>
      <path class="cls-1" d="M53.23,2.33c.34,0,.66-.09.93-.3.87-.65,3.08-2.1,4.59-1.34,1.93.96,1.7,2.07,1.85,2.3s.59,1.33.44,1.7-1.93,1.93-1.78,2.44,1.11,2.22,1.48,2.3,1.33,1.26,1.04,1.85-1.26,1.63-2.15,1.85-2.67.81-3.78.44.44-1.63.22-1.93-1.93-1.7-2.3-1.85-4.52-3.26-5.26-3.48-9.56-2.59-11.71-2.67c-2.15-.07-1.09-2.33,0-2.52,1.01-.17,13.31,1.12,16.4,1.19Z"/>
      <path class="cls-1" d="M31.05,1.13s.67,1.11,0,1.56-4.59,1.63-6.3,1.85c-.87.11-1.5,1.01-1.92,1.87-.46.94-.27,2.06.43,2.83,1.86,2.06,4.07,2.17,6.68,2.59s5.32.85,8,1.01c3.63.22,5.26,2,8.89,2.82,3.63.81,6.67,1.48,8.37,1.93s4.74,1.48,5.11,1.85c.37.37-.03,1.08.19,1.45.26.45,1.49.03,1.44.57-.02.16-.14.29-.25.41s-.24.24-.26.4c-.03.21.13.4.32.49.77.35.93.16,1.22,1.02.15.45.04,1.03.26,1.46.28.51,1.18.85.91,1.5-.16.39-.56.27-.84.45-.41.26-.63.48-.85.94-.25.51-.51,1.05-.6,1.62-.07.43.25,1.27,0,1.6-.28.37-.94.07-2.5.81s-6.45,3.85-7.85,5.11-3.33.44-5.33.81-10.08,1.41-11.71,1.33-3.41-.22-3.48-1.04c-.05-.59.31-1.55,1.02-2.19.41-.37.94-.55,1.48-.58,1.28-.08,4.58-.28,5.05-.34.59-.07,3.41-.81,3.63-1.7s.44-2.82-.59-3.48-1.78-1.93-3.56-2.37c-1.6-.4-3.26-.63-4.9-.81-1.41-.15-2.85-.08-4.23-.4-1.23-.28-2.28-1.33-3.53-1.39-1.56-.07-4.67-.52-6-.59s-1.56-1.26-2.59-1.33-4.44-.37-5.85-.37-2.37-.44-3.19-1.93c-.44-.8-.58-1.81-1.56-2.09-.29-.08-2.16-.3-1.84-.95.28-.56-.17-1.22-.67-1.44-.38-.17-.8-.2-1.2-.28-.44-.09-2.91-1.01-2.35-1.69.6-.72,2.3-1.04,2.48-2.08.05-.29-.08-.59-.28-.81-.18-.2-1.48-.91-1.29-1.25.2-.37.28-.96,1.02-1.19s.96-1.06,2.44-2.05S12.01,2.39,14.75,2.25c2.74-.15,8.08-1.1,10.08-1.77s5.96-.05,6.22.66Z"/>
      <path class="cls-1" d="M3.22,24.61c-.92.56-2.15,1.97-2,2.93.08.52.48.62.7,1,.28.48.32,1.15.31,1.7-.01,1.18-1.34,1.02-1.63,1.99-.22.73-.29,1.25.55,1.48,1.19.33-.12,1.65.43,2.35.21.27.65.37.96.43.13.07-.14,1.43.67,1.54.36.41,1.44,1.32,1.71,1.31.87-.04,1.53-1.29,2.37-1.6,1.06-.39,2.35-.68,3.48-.77,1.9-.15,3.96,1.46,5.78,1.04,1.11-.26,1.85-.3,2.88.13.87.36,8.09,1.63,7.8,0-.06-.33-.36-.56-.65-.74-1.56-.94-3.78-2.1-5.58-2.46-1.75-.35-3.57-.66-5.35-.52-1.06.08-.36-.73-.69-1.4-.64-1.31-2.59-3.07-4-3.52-.67-.21-1.89-.07-1.71-.48.32-.6.46-1.39.28-1.74-.97-1.82-3.91-3.63-5.97-2.83-.11.04-.23.1-.35.18Z"/>
      <path class="cls-1" d="M107.79,1.4c-.05-.48-.35-.92-.81-1.09-.4-.14-1.01-.22-1.94-.12-2.59.28-11.75,2.17-13.52,2.11s-2.21-.38-3.16-.25-1.71.82-2.21.95-2.59.5-2.9.69-.39.8-.65,1.08c-.95,1.05-3.63,1.13-4.97,1.13-1.01,0-.32.63-.51.76-.53.35-2.14-.12-2.03.89.06.53,1.04,1.51.38,1.96-.44.3-1.45-.03-1.76.44-.44.66-.28,1.51-.33,2.28-.03.44-.1.86-.36,1.22-.13.19-.88.68-.76.92.15.3.49.47.21.83-.11.15-.28.24-.43.34-.69.44-1.81,1.5-1.61,2.43.19.88.47,2.91-.02,3.41s-1.43,1.26-1.62,1.83.69,1.33,1.64,1.71,3.6,2.53,4.61,3.79c.73.92,1.04,2.38,2.04,3.01,2.34,1.48,4.6,2.72,7.2,3.69,2.51.94,5.15,1.75,7.8,2.18,2.2.35,4.48.43,6.71.66,1.83.19,4.42,1.02,5.81,1.2s2.84-1.01,2.46-2.72c-.31-1.38-1.97-1.55-3.09-1.87-.95-.26-1.63-.94-2.38-1.54s-1.83-.77-2.55-1.4c-.36-.31-.95-.89-.77-1.45.16-.48,1.28-.57,1.28-.95,0-1.09-.32-2.16-.33-3.25,0-.49-.01-1.15.3-1.56.29-.39,1.44-.57,1.36-1.13-.08-.55-1.15-.67-1.14-1.15,0-.49.75-.35.94-.68.09-.15.05-.35-.05-.49-.26-.35-.74-.36-1.08-.6-.18-.13-.32-.33-.32-.55.01-.64.95-.89.95-1.53,0-.44-.5-.55-.71-.85-.31-.45.2-1.14.27-1.61.08-.54-1.09-.32-1-.92.07-.52.42-1.17.82-1.52-.08-.15-.22-.25-.32-.38s-.14-.35-.01-.45c.05-.04.12-.06.19-.07.84-.16,2.08-.11,1.79-1.39-.07-.31-.23-.6-.35-.89-.62-1.52-.48-3.65.67-4.92,1.41-1.56,3.99-1.05,5.62-2.27.88-.66.75-1.13.67-1.91Z"/>
      <path class="cls-1" d="M111.48,1.66c-.21.74.13,1.52,1.07,1.71,1.03.21,3.84.63,4.19,1.79.09.3.06.63.06.94,0,.32.02.64-.05.94-.08.38-.72.72-.56,1.15.06.16.19.27.33.36.56.4,1.43.58,1.89,1.11s.07.83-.29,1.33c-.48.66-1.72,1.64-1.55,2.58.05.25.22.45.4.63,1.11,1.1,3,1.81,3.11,3.6.02.3-.07.63-.31.82-.12.1-.28.16-.43.22-.94.35-2.29.54-2.94,1.39-.83,1.08-.28,2.88.29,3.95.41.76.94,1.43,1.46,2.1.39.5,1.03,1.11,1.03,1.8,0,.65-.52,1.15-.51,1.77,0,.45.43.96.25,1.41-.23.57-1.03.36-1.4.78-.12.14-.18.32-.23.5-.29,1.04-.29,1.64-1.51,1.82-1.29.19-3.36.4-4.31,1.42-.95,1.01-2.34,2.46-1.71,3.22.81.97,3.05.72,3.97.12.39-.25.77-.55,1.21-.7.89-.31,1.99-.07,2.92-.07.85,0,1.69.02,2.54,0,1.62-.03,3.32-.07,4.9-.5,3.03-.82,3.85-1.2,5.24-1.71s5.43-1.2,6.82-1.77c2.68-1.1,4.56-2.58,6.02-5.09.74-1.28,2.66-1.11,3.52-2.36.76-1.1.22-2.48-.02-3.65-.19-.96-.11-1.92.41-2.77.84-1.36,2.09-1.68,1.32-3.47-.84-1.94-2.1-3.54-3.3-5.29-.71-1.03-1.28-2.17-2.19-3.04-.59-.56-1.34-.86-2.12-1.07-1.12-.3-1.85-.12-2.54-1.21-.54-.86-1.2-1.82-2.13-2.29-1.23-.62-2.63-.56-3.97-.51-1.22.04-2.44-.09-3.63-.35-.1-.02-.2-.05-.27-.11-.07-.06-.1-.15-.14-.23-.25-.63-.37-1.04-1.04-1.28-.45-.16-1.08-.24-1.57-.24-.77-.13-1.54-.27-2.31-.32-2.39-.15-4.79.05-7.19.06-1.07,0-2.14-.03-3.2-.17-.73-.09-1.31-.16-1.55.68Z"/>
      <path class="cls-1" d="M154.84.92c.07-.03.15-.04.23-.05,1.38-.11,2.87-.4,4.25-.22,1.64.09,3.23.53,4.85.67,1.37.12,2.75.21,4.12.27,2.99.12,6.02.15,9-.18,1.26-.14,2.52-.28,3.73-.66.14-.04.29-.1.36-.23.04-.08.05-.17.11-.23.06-.07.17-.08.26-.08,1.5-.08,3-.12,4.51-.13.84,0,2.36-.27,3.14.13.45.17.27.7.12,1.25-.1.38-.01.79.24,1.09.41.49,1.02,1.32,1.02,1.84,0,.79-.47,1.73-.2,2.37s.43,3.51-.28,4.42c-.39.5-1.78,1.31-1.53,2,.07.19.2.36.33.52.78.98,2.77,2.83,2.62,4.22-.11,1.05-1.2,1.35-1.48,2.22-.04.11-.04.23-.05.35-.05.77-.06,1.54-.29,2.28-.19.63-.54,1.23-.9,1.77s-1.18,1.08-1.38,1.7c-.17.5.09,1.03.33,1.49.48.91.92,1.86,1.52,2.69.39.54.6,1.3.83,1.92.29.79.42,1.95.96,2.6.76.9,2.59,1.23,3.69,1.48.35.08.99,1.06.32,1.58s-3.47.91-4.1.91-6.82.24-8.75.32-4.3-.59-5.05-.75c-3.98-.84-7.74,1.27-11.67.76-.73-.1-1.65-.83-2.38-.54-.18.07-.34.21-.51.31-.47.28-1.05.31-1.59.26-2.28-.19-4.58-.29-6.86-.4-.06,0-.12,0-.17-.04-.08-.05-.1-.17-.1-.26-.03-.6.1-1.21.44-1.71.42-.63,1.18-1.6,1.87-1.9.9-.4,1.94-.26,2.87-.52,1.6-.45,3.03-1.8,4.21-2.93.1-.09.2-.2.2-.34,0-.08-.04-.16-.08-.23-.44-.76-1.18-1.27-1.79-1.88-.68-.68-2.02-1.38-1.6-2.42.17-.41.39-.81.65-1.17,1.1-1.48-.03-1.89-.59-3.26-.46-1.14.49-2.58,1.02-3.54.04-.07.08-.15.08-.23-.01-.32-.55-.35-.77-.45-.07-.03-.14-.07-.17-.14-.05-.1,0-.22.06-.32.4-.75.82-1.93,1.41-2.52.33-.65.41-1.3.06-1.94-.29-.54-.7-1.11-.33-1.76.17-.3.41-.58.45-.92.03-.21-.03-.42-.03-.63-.01-.33.23-.51.19-.83-.04-.34-.41-.63-.67-.82-.86-.63-1.1-1-.31-1.76.05-.05.1-.1.11-.17.02-.1-.06-.19-.13-.25-1.18-1.08-3.37-.72-4.79-1.38-1.08-.5-2.31-2.12-1.82-3.35.04-.09.09-.19.2-.25Z"/>
      <path class="cls-1" d="M196.76.6c-.91.07-1.64.47-1.64,1.62,0,.45-.07.95.28,1.3.2.21.46.34.72.46,1.01.49,2.05.94,3.01,1.52.46.27,2.02.98,1.94,1.69-.12,1.03-.63,1.42-.35,1.89.45.77,1.44,1.39,1.61,2.3.05.27,0,.55-.04.82-.07.42-.14.84-.22,1.27-.05.29-.1.59-.25.84-.26.44-.81.73-.81,1.29,0,.5.48.92-.05,1.37-.55.47-.75,1.22-1.89,1.42-.64.11-1.28.17-1.93.23-.37.04-1.06-.04-1.32.27-.09.11-.12.25-.15.38-.1.52-.13,1.05-.08,1.58.2,2,2.26,1.9,3.84,2.07.75.08,3.16,1.26,2.98,2.37s-.04,1.34,0,1.73c.08.71-.79.97-1.06,1.5-.18.35-.07.79.16,1.11.69.93,2.76,1.48,1.79,3.02-.09.15-.22.29-.27.46-.06.19-.02.4-.03.61,0,.4-.17.81-.06,1.19.12.41.51.67.89.87,1.84.99,3.94,1.58,5.93,2.2,1.57.49,3.2,1.05,4.84,1.27,2.35.32,4.79.25,7.16.23,3.49-.02,6.6-.57,9.9-1.66,2.71-.9,5.58-1.79,8.06-3.24,2.96-1.73-1.5-2.37-2.37-2.29-2.18.2-4.32,1.07-6.55.86-.58-.05-1.19-.3-1.48-.8-.66-1.15.53-2.13.99-3.07.33-.66.93-2.1.37-2.78-.55-.67-2.56-3.35-3.67-3.67s-4.02-1.5-6.03-1.5-7.53-.16-7.85-.12,3-1.81,4.97-2.13,3.43-.12,4.34-.95c.74-.68,2.5-2.37,4.3-3.04,1.19-.44,1-1.54,1.13-2.57.12-.95.36-1.88.71-2.77.25-.62.6-1.27.36-1.94s-.91-1.25-1.42-1.7c-1.77-1.53-3.95-2.58-6.24-3.02-1.74-.33-3.3-.42-4.87-1.28-1.14-.63-4.3-.71-5.44-.71-1.98,0-3.96.01-5.94.02-1.15,0-2.29,0-3.44,0-.7,0-1.36,0-2.05-.17-.69-.16-1.83-.45-2.78-.37Z"/>
      <path class="cls-1" d="M4.75,60.36h0s5.38.01,5.38.01h2.45v2.07c0,3.97-4.77,3.61-5.38,3.61H2.3v-2.11h6.08s1.76.06,1.76-1.49H2.3v-2.1c0-3.97,4.77-3.61,5.38-3.61h4.9v2.11h-6.09s-1.74-.05-1.74,1.5Z"/>
      <path class="cls-1" d="M23.78,58.29v4.75c0,3.27-4.21,3.01-4.76,3.01h-4.31v-4.84c0-3.22,4.19-2.93,4.74-2.93h4.32ZM21.62,60.04h-3.21s-1.55-.03-1.55,1.27v3h3.21s1.55.03,1.55-1.26v-3.01Z"/>
      <path class="cls-1" d="M34.16,58.28v7.91h-4.51c-.57,0-4.97.39-4.97-3.07v-4.84h2.26v4.84c0,1.33,1.62,1.29,1.62,1.29h3.36v-6.13h2.25Z"/>
      <path class="cls-1" d="M43.51,60.02h-3.24v6.26h-2v-6.26h-3.21v-1.82h8.45v1.82Z"/>
      <path class="cls-1" d="M53.41,63.16h-.01v3.13h-2.15v-3.13h-4.76v3.13h-2.15v-8.1h2.15v3.14h4.76v-3.14h2.15v3.14h.01v1.82Z"/>
      <path class="cls-1" d="M54.91,59.87v-1.61h2.03v1.61h-2.03ZM56.96,66.22v-5.68h-2.05v5.68h2.05Z"/>
      <path class="cls-1" d="M66.14,66.07h0s-.04-.01-.04-.01c0,0-2.38-3.74-3.17-5-.61-.93-1.67-1.1-2.19-1.14v6.14h-2.45v-7.94h2.45c3.17.11,4.1,1.8,4.1,1.8l1.3,2.02v-3.82h2.43v7.95h-2.43Z"/>
      <path class="cls-1" d="M79.29,64.27v1.8h-9.48v-4.86c0-3.32,4.4-3.08,4.96-3.08h4.52v1.79h-5.6s-1.62-.03-1.62,1.29v3.06h4.96v-1.26h-2.47v-1.79h4.73v3.05Z"/>
      <path class="cls-1" d="M88.78,59.92h-3.64v6.15h-2.25v-6.15h-3.61v-1.79h9.49v1.79Z"/>
      <path class="cls-1" d="M99.21,58.07v4.84c0,3.33-4.4,3.07-4.97,3.07h-4.51v-4.93c0-3.28,4.39-2.98,4.96-2.98h4.52ZM96.95,59.85h-3.36s-1.62-.03-1.62,1.29v3.06h3.36s1.62.03,1.62-1.28v-3.07Z"/>
      <path class="cls-1" d="M107.77,66.09h0s-.04-.01-.04-.01c0,0-2.31-3.74-3.08-5-.59-.93-1.62-1.1-2.12-1.14v6.14h-2.38v-7.94h2.38c3.08.11,3.98,1.8,3.98,1.8l1.27,2.02v-3.82h2.36v7.95h-2.36Z"/>
      <path class="cls-1" d="M127.06,56.82v5.61c0,3.86-5.26,3.55-5.95,3.55h-5.39v-5.71c0-3.8,5.24-3.46,5.93-3.46h5.4ZM124.36,58.87h-4.01s-1.93-.04-1.93,1.49v3.54h4.01s1.94.04,1.94-1.48v-3.55Z"/>
      <path class="cls-1" d="M130.81,61.35h0s4.97.01,4.97.01v1.79h-4.97v3.06h-2.25v-4.86c0-3.32,4.39-3.08,4.96-3.08h4.51v1.79h-5.6s-1.62-.03-1.62,1.29Z"/>
      <path class="cls-1" d="M140.39,61.35h0s4.63.01,4.63.01v1.79h-4.63v3.06h-2.09v-4.86c0-3.32,4.08-3.08,4.62-3.08h4.19v1.79h-5.22s-1.51-.03-1.51,1.29Z"/>
      <path class="cls-1" d="M167.79,58.12v4.85c0,3.33-4.4,3.07-4.97,3.07h-4.51v-4.93c0-3.28,4.39-2.98,4.96-2.98h4.52ZM165.53,59.9h-3.36s-1.62-.03-1.62,1.29v3.06h3.36s1.62.03,1.62-1.28v-3.07Z"/>
      <path class="cls-1" d="M173.91,58.26h-4.73v7.94h2.27v-3.07h4.96v3.07h2.24s.01-3.19.01-3.98c0-2.72-1.4-3.96-4.75-3.96ZM171.45,61.34v-1.28h2.45s2.49-.1,2.49,1.29h-4.94Z"/>
      <path class="cls-1" d="M189.53,65.02h-.01v1.11h-6.5v-1.76h4.25v-3c0-1.3-1.62-1.27-1.62-1.27h-3.36v6.03h-2.25v-7.78h4.51c.57,0,4.97-.24,4.97,3.02v3.65Z"/>
      <path class="cls-1" d="M197.02,73.76l-5.77,2.97-1.29-2.51,6.03-3.07c.97-.55.35-1.67.35-1.67l-7.01,3.48,3.73,7.3-2.51,1.23-3.96-7.71-1.16-2.26c.12-.06,4.97-2.44,5.04-2.48.44-.22,6.88-3.28,6.88-3.28l1.65,3.32c.59,1.83-.26,3.82-1.99,4.67Z"/>
      <path class="cls-1" d="M210.47,66.3c-1.54-2.94-3.58-3.63-6.76-2.09l-4.52,2.19,4.47,8.58,2.18-1.05-1.73-3.3,4.73-2.3,1.73,3.31,2.13-1.03s-1.78-3.46-2.22-4.32ZM203.04,68.57l-.66-1.28,2.35-1.14s2.32-1.25,3.11.25l-4.79,2.16Z"/>
      <path class="cls-1" d="M156.33,66.08l-2.19.04s-.39-.71-1-2.01c-.44-.9-.27-.88-1.61-.92l-1.51.07-.03-1.95h3.77c1.1.03,1.11-1.02,1.11-1.02h-4.91s.11,5.9.11,5.9l-2.2.03-.1-7.97,9.37.05s.35,3.54-.39,4.47c-.42.53-1.67.57-1.67.57l1.24,2.74Z"/>
      <path class="cls-1" d="M234.11,58.5c.03.06.45.92.5,1.03l-2.41,1.27-.97-1.97s-.66-1.44-2.23-.63l-.69.35-2.97,1.63,1.38,2.75-2.23,1.21-4.06-8.1,2.3-1.18,1.6,3.24,1.82-.96c.45-.33,1.04-.99,1.07-2.08.02-1.75.08-2.71.08-2.71l2.33-1.2-.13,4.06v.25c2.89-1.34,4.37,2.56,4.61,3.05Z"/>
      <path class="cls-1" d="M222.78,65.07l-2.28,1.21s-.79-.54-2.12-1.58c-.95-.72-.75-.78-2.18-.11l-1.55.88-1.07-2.04,3.97-2c1.17-.56.62-1.67.62-1.67l-5.16,2.61,3.26,6.15-2.3,1.2-4.34-8.34,9.89-4.93s2.25,3.54,1.97,4.91c-.16.78-1.46,1.49-1.46,1.49l2.77,2.22Z"/>
      <line class="cls-2" x1="191.19" y1="86.38" x2="237.21" y2="63.09"/>
      <line class="cls-2" x1="183.64" y1="69.33" x2="228.22" y2="47.12"/>
    </g>
  </g>
</svg>