<?xml version="1.0" encoding="UTF-8"?>
<svg id="Layer_2" xmlns="http://www.w3.org/2000/svg" viewBox="0 0 288.17 58.71">
  <defs>
    <style>
      .cls-1 {
        fill: #fff;
      }
    </style>
  </defs>
  <g id="Layer_1-2" data-name="Layer_1">
    <g id="Layer_x5F_1">
      <g id="_2889402436704">
        <path class="cls-1" d="M178.33,23.46c1.37-.89,5.79-1.88,7.79-1.97,3.51-.15,5.29,1.02,6.34,3.47,1.68,3.91,1.77,13.58-.4,17.11-1.23,1.99-3.35,3.12-6.49,3.38-1.52.13-3.05.05-4.56-.06-2.81-.22-2.72.47-2.68-2.25.08-6.55,0-13.14,0-19.69h0ZM172.11,50.56c15.68.55,26.91,3.91,27.79-14.65.28-5.91.42-13.44-4.13-17.76-2.93-2.79-9.32-2.82-13.36-1.74-1.58.42-2.72,1.1-4.01,1.5l-.06-15.82-6.14-.04-.1,48.52h0Z"/>
        <path class="cls-1" d="M27.38,50.6h6.27v-26.75c-.02-1.53,8.74-2.73,10.97-2.1,1.97.56,2.77,1.77,3.34,3.69,1.1,3.65.66,19.06.65,25.16h6.25c0-5.08.39-21.78-.68-27-.65-3.18-1.89-5.08-3.97-6.34-3.29-2-9.08-1.84-12.91-.6-.91.3-3.1,1.34-3.65,1.41V2.05h-6.28v48.55s0,0,0,0Z"/>
        <path class="cls-1" d="M142.7,16.41l-.86-.02c-6.95-.07-5.49-.81-8.36,3.27l-4.71,6.69c-3,4.15-1.23,3.27-6.13,3.54-.2-8.39-.03-19.19-.03-27.84h-6.26v48.55s6.27,0,6.27,0l.06-15.04,3.82-.16c2.05,2.83,5.36,8.24,7.52,11.62,2.94,4.58,1.05,3.58,9.14,3.58-.4-1.06-2.08-3.56-2.77-4.68-.95-1.53-1.84-2.97-2.74-4.49-.92-1.56-5.22-8.28-5.55-9.24l10.6-15.78h0Z"/>
        <path class="cls-1" d="M213.15,37.44c-.45-4.9-.93-13.62,4.54-15.57,2.42-.86,6.55-.74,8.61.61,4.2,2.75,3.76,12.8,2.98,16.89-.57,3-1.68,5-4.28,5.8-2.51.77-6.63.7-8.68-.65-2.1-1.37-2.86-3.83-3.16-7.08h0ZM219.14,15.82c-11.66,1.03-13.03,9.76-12.48,20.09.6,11.39,4.82,16.32,17.1,15.25,11.63-1.01,12.63-9.53,12.26-20.08-.12-3.41-.61-6.81-2.22-9.74-2.59-4.71-8.72-6.05-14.66-5.52Z"/>
        <path class="cls-1" d="M86.01,23.92c1.85-1.34,6.59-2.56,9.32-2.44,3.88.18,5.04,2.53,5.48,6.13.45,3.66.25,18.24.26,22.98h6.16c0-6.95.74-22.84-1.08-28.53-1.27-3.97-3.71-5.79-8.5-6.23-5.79-.54-7.77.98-11.7,2.77v-2.21h-6.22v34.2h6.27l.02-26.67h0Z"/>
        <polygon class="cls-1" points="273 5.75 281.84 5.81 281.81 52.95 273 53.02 273 58.71 288.17 58.59 288.17 0 273.01 .03 273 5.75"/>
        <polygon class="cls-1" points="149.63 58.59 164.79 58.71 164.79 53.02 155.99 52.95 155.96 5.81 164.79 5.75 164.79 .03 149.63 0 149.63 58.59"/>
        <path class="cls-1" d="M268.85,50.6c-1.06-2.37-10.25-16.51-10.21-17.29.02-.41,9.34-15.24,10.28-16.86l-6.28-.06c-.71,0-1.58,2.04-2.17,3.09-1.38,2.42-4.7,7.88-5.46,9.67-.67-.57-7.36-12.62-7.41-12.76h-6.75c1.11,2.63,10.11,15.99,10.12,17.1,0,.96-9.05,14.62-10.12,17.1h6.75c.99-2.12,2.39-4.22,3.61-6.4,1.09-1.95,2.78-4.41,3.65-6.38l7.26,12.78h6.75Z"/>
        <path class="cls-1" d="M4.66,16.39H0l.07,5.61h4.64s-.03,15.88-.03,15.88c.04,14.41,3.99,14.08,17.11,12.74l-.32-5.4c-11.88.65-10.63,2.01-10.59-17.86v-5.36s10.44,0,10.44,0l.03-5.47c-1.3-.37-8.54-.13-10.46-.13V6.38s-6.25-.06-6.25-.06v10.07Z"/>
        <polygon class="cls-1" points="64.01 50.6 69.5 50.62 70.28 50.51 70.28 16.46 69.5 16.4 64.01 16.4 64.01 50.6"/>
        <polygon class="cls-1" points="64.01 10.29 69.5 10.29 70.28 10.22 70.28 3.33 69.5 3.23 64.01 3.24 64.01 10.29"/>
      </g>
    </g>
  </g>
</svg>